%TF.GenerationSoftware,KiCad,Pcbnew,8.0.5-8.0.5-0~ubuntu24.04.1*%
%TF.CreationDate,2024-10-01T16:14:09+02:00*%
%TF.ProjectId,TFG-Brushless-ESC,5446472d-4272-4757-9368-6c6573732d45,rev?*%
%TF.SameCoordinates,Original*%
%TF.FileFunction,Soldermask,Bot*%
%TF.FilePolarity,Negative*%
%FSLAX46Y46*%
G04 Gerber Fmt 4.6, Leading zero omitted, Abs format (unit mm)*
G04 Created by KiCad (PCBNEW 8.0.5-8.0.5-0~ubuntu24.04.1) date 2024-10-01 16:14:09*
%MOMM*%
%LPD*%
G01*
G04 APERTURE LIST*
G04 Aperture macros list*
%AMRoundRect*
0 Rectangle with rounded corners*
0 $1 Rounding radius*
0 $2 $3 $4 $5 $6 $7 $8 $9 X,Y pos of 4 corners*
0 Add a 4 corners polygon primitive as box body*
4,1,4,$2,$3,$4,$5,$6,$7,$8,$9,$2,$3,0*
0 Add four circle primitives for the rounded corners*
1,1,$1+$1,$2,$3*
1,1,$1+$1,$4,$5*
1,1,$1+$1,$6,$7*
1,1,$1+$1,$8,$9*
0 Add four rect primitives between the rounded corners*
20,1,$1+$1,$2,$3,$4,$5,0*
20,1,$1+$1,$4,$5,$6,$7,0*
20,1,$1+$1,$6,$7,$8,$9,0*
20,1,$1+$1,$8,$9,$2,$3,0*%
G04 Aperture macros list end*
%ADD10RoundRect,0.250000X-0.350000X-0.625000X0.350000X-0.625000X0.350000X0.625000X-0.350000X0.625000X0*%
%ADD11O,1.200000X1.750000*%
%ADD12C,0.650000*%
%ADD13O,1.000000X2.100000*%
%ADD14O,1.000000X1.800000*%
%ADD15R,1.905000X2.000000*%
%ADD16O,1.905000X2.000000*%
%ADD17O,1.500000X2.900000*%
%ADD18C,0.800000*%
%ADD19C,6.400000*%
%ADD20O,1.700000X1.700000*%
%ADD21R,1.700000X1.700000*%
%ADD22R,2.600000X2.600000*%
%ADD23C,2.600000*%
G04 APERTURE END LIST*
D10*
%TO.C,J4*%
X91276000Y-160078000D03*
D11*
X93276000Y-160078000D03*
X95276000Y-160078000D03*
X97276000Y-160078000D03*
X99276000Y-160078000D03*
%TD*%
D12*
%TO.C,J2*%
X126886000Y-160113000D03*
X132666000Y-160113000D03*
D13*
X125456000Y-159593000D03*
D14*
X125456000Y-163793000D03*
D13*
X134096000Y-159593000D03*
D14*
X134096000Y-163793000D03*
%TD*%
D15*
%TO.C,Q4*%
X88436000Y-118743000D03*
D16*
X90976000Y-118743000D03*
X93516000Y-118743000D03*
%TD*%
D17*
%TO.C,F1*%
X66376000Y-152928000D03*
X62676000Y-152928000D03*
X58376000Y-152928000D03*
X54676000Y-152928000D03*
%TD*%
D15*
%TO.C,U2*%
X135986000Y-118723000D03*
D16*
X138526000Y-118723000D03*
X141066000Y-118723000D03*
%TD*%
D18*
%TO.C,REF\u002A\u002A*%
X136876000Y-161528000D03*
X137578944Y-159830944D03*
X137578944Y-163225056D03*
X139276000Y-159128000D03*
D19*
X139276000Y-161528000D03*
D18*
X139276000Y-163928000D03*
X140973056Y-159830944D03*
X140973056Y-163225056D03*
X141676000Y-161528000D03*
%TD*%
D15*
%TO.C,Q3*%
X76436000Y-118743000D03*
D16*
X78976000Y-118743000D03*
X81516000Y-118743000D03*
%TD*%
D15*
%TO.C,Q2*%
X59736000Y-118723000D03*
D16*
X62276000Y-118723000D03*
X64816000Y-118723000D03*
%TD*%
D15*
%TO.C,Q1*%
X47736000Y-118723000D03*
D16*
X50276000Y-118723000D03*
X52816000Y-118723000D03*
%TD*%
D15*
%TO.C,Q5*%
X105526000Y-118778000D03*
D16*
X108066000Y-118778000D03*
X110606000Y-118778000D03*
%TD*%
D20*
%TO.C,J5*%
X114956000Y-156418000D03*
X114956000Y-153878000D03*
X117496000Y-156418000D03*
X117496000Y-153878000D03*
X120036000Y-156418000D03*
X120036000Y-153878000D03*
X122576000Y-156418000D03*
D21*
X122576000Y-153878000D03*
%TD*%
D22*
%TO.C,J1*%
X73776000Y-161528000D03*
D23*
X78856000Y-161528000D03*
X83936000Y-161528000D03*
%TD*%
D18*
%TO.C,REF\u002A\u002A*%
X46876000Y-161528000D03*
X47578944Y-159830944D03*
X47578944Y-163225056D03*
X49276000Y-159128000D03*
D19*
X49276000Y-161528000D03*
D18*
X49276000Y-163928000D03*
X50973056Y-159830944D03*
X50973056Y-163225056D03*
X51676000Y-161528000D03*
%TD*%
D15*
%TO.C,Q6*%
X117526000Y-118778000D03*
D16*
X120066000Y-118778000D03*
X122606000Y-118778000D03*
%TD*%
D22*
%TO.C,J6*%
X56776000Y-161528000D03*
D23*
X61856000Y-161528000D03*
%TD*%
G36*
X141291677Y-120797685D02*
G01*
X141312319Y-120814319D01*
X141739681Y-121241681D01*
X141773166Y-121303004D01*
X141776000Y-121329362D01*
X141776000Y-125476638D01*
X141756315Y-125543677D01*
X141739681Y-125564319D01*
X141312319Y-125991681D01*
X141250996Y-126025166D01*
X141224638Y-126028000D01*
X47577362Y-126028000D01*
X47510323Y-126008315D01*
X47489681Y-125991681D01*
X46812319Y-125314319D01*
X46778834Y-125252996D01*
X46776000Y-125226638D01*
X46776000Y-121579362D01*
X46795685Y-121512323D01*
X46812319Y-121491681D01*
X47489681Y-120814319D01*
X47551004Y-120780834D01*
X47577362Y-120778000D01*
X141224638Y-120778000D01*
X141291677Y-120797685D01*
G37*
M02*
