%TF.GenerationSoftware,KiCad,Pcbnew,8.0.5-8.0.5-0~ubuntu24.04.1*%
%TF.CreationDate,2024-10-01T16:14:09+02:00*%
%TF.ProjectId,TFG-Brushless-ESC,5446472d-4272-4757-9368-6c6573732d45,rev?*%
%TF.SameCoordinates,Original*%
%TF.FileFunction,Paste,Top*%
%TF.FilePolarity,Positive*%
%FSLAX46Y46*%
G04 Gerber Fmt 4.6, Leading zero omitted, Abs format (unit mm)*
G04 Created by KiCad (PCBNEW 8.0.5-8.0.5-0~ubuntu24.04.1) date 2024-10-01 16:14:09*
%MOMM*%
%LPD*%
G01*
G04 APERTURE LIST*
G04 Aperture macros list*
%AMRoundRect*
0 Rectangle with rounded corners*
0 $1 Rounding radius*
0 $2 $3 $4 $5 $6 $7 $8 $9 X,Y pos of 4 corners*
0 Add a 4 corners polygon primitive as box body*
4,1,4,$2,$3,$4,$5,$6,$7,$8,$9,$2,$3,0*
0 Add four circle primitives for the rounded corners*
1,1,$1+$1,$2,$3*
1,1,$1+$1,$4,$5*
1,1,$1+$1,$6,$7*
1,1,$1+$1,$8,$9*
0 Add four rect primitives between the rounded corners*
20,1,$1+$1,$2,$3,$4,$5,0*
20,1,$1+$1,$4,$5,$6,$7,0*
20,1,$1+$1,$6,$7,$8,$9,0*
20,1,$1+$1,$8,$9,$2,$3,0*%
%AMFreePoly0*
4,1,9,3.862500,-0.866500,0.737500,-0.866500,0.737500,-0.450000,-0.737500,-0.450000,-0.737500,0.450000,0.737500,0.450000,0.737500,0.866500,3.862500,0.866500,3.862500,-0.866500,3.862500,-0.866500,$1*%
G04 Aperture macros list end*
%ADD10RoundRect,0.250000X0.550000X-1.050000X0.550000X1.050000X-0.550000X1.050000X-0.550000X-1.050000X0*%
%ADD11RoundRect,0.225000X-0.375000X0.225000X-0.375000X-0.225000X0.375000X-0.225000X0.375000X0.225000X0*%
%ADD12RoundRect,0.250000X1.000000X0.650000X-1.000000X0.650000X-1.000000X-0.650000X1.000000X-0.650000X0*%
%ADD13RoundRect,0.250000X-0.550000X1.050000X-0.550000X-1.050000X0.550000X-1.050000X0.550000X1.050000X0*%
%ADD14RoundRect,0.200000X0.200000X0.275000X-0.200000X0.275000X-0.200000X-0.275000X0.200000X-0.275000X0*%
%ADD15RoundRect,0.250000X0.262500X0.450000X-0.262500X0.450000X-0.262500X-0.450000X0.262500X-0.450000X0*%
%ADD16RoundRect,0.200000X0.275000X-0.200000X0.275000X0.200000X-0.275000X0.200000X-0.275000X-0.200000X0*%
%ADD17RoundRect,0.225000X-0.225000X-0.250000X0.225000X-0.250000X0.225000X0.250000X-0.225000X0.250000X0*%
%ADD18RoundRect,0.150000X-0.150000X0.512500X-0.150000X-0.512500X0.150000X-0.512500X0.150000X0.512500X0*%
%ADD19RoundRect,0.100000X-0.155000X-0.100000X0.155000X-0.100000X0.155000X0.100000X-0.155000X0.100000X0*%
%ADD20R,1.550000X1.300000*%
%ADD21R,0.600000X1.240000*%
%ADD22R,0.300000X1.240000*%
%ADD23RoundRect,0.100000X0.155000X0.100000X-0.155000X0.100000X-0.155000X-0.100000X0.155000X-0.100000X0*%
%ADD24RoundRect,0.243750X0.456250X-0.243750X0.456250X0.243750X-0.456250X0.243750X-0.456250X-0.243750X0*%
%ADD25RoundRect,0.225000X0.225000X0.250000X-0.225000X0.250000X-0.225000X-0.250000X0.225000X-0.250000X0*%
%ADD26RoundRect,0.225000X-0.250000X0.225000X-0.250000X-0.225000X0.250000X-0.225000X0.250000X0.225000X0*%
%ADD27RoundRect,0.250000X-1.425000X0.362500X-1.425000X-0.362500X1.425000X-0.362500X1.425000X0.362500X0*%
%ADD28RoundRect,0.225000X0.250000X-0.225000X0.250000X0.225000X-0.250000X0.225000X-0.250000X-0.225000X0*%
%ADD29RoundRect,0.200000X-0.275000X0.200000X-0.275000X-0.200000X0.275000X-0.200000X0.275000X0.200000X0*%
%ADD30RoundRect,0.250000X-1.050000X-0.550000X1.050000X-0.550000X1.050000X0.550000X-1.050000X0.550000X0*%
%ADD31RoundRect,0.100000X-0.100000X0.155000X-0.100000X-0.155000X0.100000X-0.155000X0.100000X0.155000X0*%
%ADD32RoundRect,0.225000X0.225000X0.375000X-0.225000X0.375000X-0.225000X-0.375000X0.225000X-0.375000X0*%
%ADD33RoundRect,0.250000X-0.315000X0.315000X-0.315000X-0.315000X0.315000X-0.315000X0.315000X0.315000X0*%
%ADD34RoundRect,0.062500X-0.062500X0.375000X-0.062500X-0.375000X0.062500X-0.375000X0.062500X0.375000X0*%
%ADD35RoundRect,0.062500X-0.375000X0.062500X-0.375000X-0.062500X0.375000X-0.062500X0.375000X0.062500X0*%
%ADD36RoundRect,0.200000X-0.200000X-0.275000X0.200000X-0.275000X0.200000X0.275000X-0.200000X0.275000X0*%
%ADD37RoundRect,0.250000X1.050000X0.550000X-1.050000X0.550000X-1.050000X-0.550000X1.050000X-0.550000X0*%
%ADD38RoundRect,0.230000X0.375000X-0.230000X0.375000X0.230000X-0.375000X0.230000X-0.375000X-0.230000X0*%
%ADD39RoundRect,0.150000X0.150000X-0.825000X0.150000X0.825000X-0.150000X0.825000X-0.150000X-0.825000X0*%
%ADD40RoundRect,0.225000X0.425000X0.225000X-0.425000X0.225000X-0.425000X-0.225000X0.425000X-0.225000X0*%
%ADD41FreePoly0,180.000000*%
%ADD42R,1.100000X1.300000*%
%ADD43RoundRect,0.250000X-0.650000X1.000000X-0.650000X-1.000000X0.650000X-1.000000X0.650000X1.000000X0*%
%ADD44RoundRect,0.243750X-0.456250X0.243750X-0.456250X-0.243750X0.456250X-0.243750X0.456250X0.243750X0*%
%ADD45RoundRect,0.250000X0.350000X-0.850000X0.350000X0.850000X-0.350000X0.850000X-0.350000X-0.850000X0*%
%ADD46RoundRect,0.250000X1.125000X-1.275000X1.125000X1.275000X-1.125000X1.275000X-1.125000X-1.275000X0*%
%ADD47RoundRect,0.250000X-0.250000X0.250000X-0.250000X-0.250000X0.250000X-0.250000X0.250000X0.250000X0*%
%ADD48RoundRect,0.218750X0.381250X-0.218750X0.381250X0.218750X-0.381250X0.218750X-0.381250X-0.218750X0*%
%ADD49RoundRect,0.250000X-0.312500X-1.450000X0.312500X-1.450000X0.312500X1.450000X-0.312500X1.450000X0*%
G04 APERTURE END LIST*
D10*
%TO.C,C29*%
X75076000Y-128503000D03*
X75076000Y-124903000D03*
%TD*%
D11*
%TO.C,D8*%
X52276000Y-124378000D03*
X52276000Y-127678000D03*
%TD*%
D12*
%TO.C,D6*%
X58526000Y-148778000D03*
X54526000Y-148778000D03*
%TD*%
D13*
%TO.C,C27*%
X80976000Y-130748000D03*
X80976000Y-134348000D03*
%TD*%
D14*
%TO.C,R7*%
X137601000Y-124778000D03*
X135951000Y-124778000D03*
%TD*%
D15*
%TO.C,R30*%
X105388500Y-121303000D03*
X103563500Y-121303000D03*
%TD*%
D16*
%TO.C,R17*%
X136401000Y-152890500D03*
X136401000Y-151240500D03*
%TD*%
D17*
%TO.C,C2*%
X54251000Y-121028000D03*
X55801000Y-121028000D03*
%TD*%
D14*
%TO.C,R37*%
X79026000Y-123403000D03*
X77376000Y-123403000D03*
%TD*%
D18*
%TO.C,U9*%
X129226000Y-123340500D03*
X128276000Y-123340500D03*
X127326000Y-123340500D03*
X127326000Y-125615500D03*
X129226000Y-125615500D03*
%TD*%
D16*
%TO.C,R35*%
X129126000Y-120453000D03*
X129126000Y-118803000D03*
%TD*%
D19*
%TO.C,D15*%
X112171000Y-159453000D03*
X112171000Y-158453000D03*
X110881000Y-158953000D03*
%TD*%
D10*
%TO.C,C6*%
X132776000Y-125703000D03*
X132776000Y-122103000D03*
%TD*%
D20*
%TO.C,SW2*%
X104376000Y-140078000D03*
X112326000Y-140078000D03*
X104376000Y-144578000D03*
X112326000Y-144578000D03*
%TD*%
D21*
%TO.C,J2*%
X126576000Y-158993000D03*
X127376000Y-158993000D03*
D22*
X128526000Y-158993000D03*
X129526000Y-158993000D03*
X130026000Y-158993000D03*
X131026000Y-158993000D03*
D21*
X132176000Y-158993000D03*
X132976000Y-158993000D03*
X132976000Y-158993000D03*
X132176000Y-158993000D03*
D22*
X131526000Y-158993000D03*
X130526000Y-158993000D03*
X129026000Y-158993000D03*
X128026000Y-158993000D03*
D21*
X127376000Y-158993000D03*
X126576000Y-158993000D03*
%TD*%
D23*
%TO.C,D16*%
X102631000Y-158278000D03*
X102631000Y-159278000D03*
X103921000Y-158778000D03*
%TD*%
D24*
%TO.C,D2*%
X137851000Y-129940500D03*
X137851000Y-128065500D03*
%TD*%
D25*
%TO.C,C9*%
X124371000Y-149308000D03*
X122821000Y-149308000D03*
%TD*%
D26*
%TO.C,C32*%
X87476000Y-135448000D03*
X87476000Y-136998000D03*
%TD*%
D17*
%TO.C,C12*%
X104051000Y-136628000D03*
X105601000Y-136628000D03*
%TD*%
D27*
%TO.C,R28*%
X95476000Y-121335500D03*
X95476000Y-127260500D03*
%TD*%
D28*
%TO.C,C11*%
X123526000Y-139553000D03*
X123526000Y-138003000D03*
%TD*%
D23*
%TO.C,D17*%
X102631000Y-160528000D03*
X102631000Y-161528000D03*
X103921000Y-161028000D03*
%TD*%
D29*
%TO.C,R3*%
X139526000Y-121453000D03*
X139526000Y-123103000D03*
%TD*%
D15*
%TO.C,R32*%
X117641000Y-121333000D03*
X115816000Y-121333000D03*
%TD*%
D18*
%TO.C,U7*%
X100151000Y-123890500D03*
X99201000Y-123890500D03*
X98251000Y-123890500D03*
X98251000Y-126165500D03*
X100151000Y-126165500D03*
%TD*%
D30*
%TO.C,C23*%
X62976000Y-130778000D03*
X66576000Y-130778000D03*
%TD*%
D17*
%TO.C,C26*%
X69726000Y-129778000D03*
X71276000Y-129778000D03*
%TD*%
D31*
%TO.C,D1*%
X129776000Y-156900500D03*
X130776000Y-156900500D03*
X130276000Y-155610500D03*
%TD*%
D16*
%TO.C,R15*%
X93276000Y-157278000D03*
X93276000Y-155628000D03*
%TD*%
D17*
%TO.C,C10*%
X134171000Y-142508000D03*
X135721000Y-142508000D03*
%TD*%
D29*
%TO.C,R12*%
X131146000Y-152463000D03*
X131146000Y-154113000D03*
%TD*%
D10*
%TO.C,C19*%
X141026000Y-144578000D03*
X141026000Y-140978000D03*
%TD*%
D17*
%TO.C,C42*%
X112001000Y-121078000D03*
X113551000Y-121078000D03*
%TD*%
D15*
%TO.C,R26*%
X88551000Y-121298000D03*
X86726000Y-121298000D03*
%TD*%
D32*
%TO.C,D21*%
X72126000Y-116828000D03*
X68826000Y-116828000D03*
%TD*%
%TO.C,D23*%
X129376000Y-116928000D03*
X126076000Y-116928000D03*
%TD*%
D15*
%TO.C,R18*%
X47888500Y-121428000D03*
X46063500Y-121428000D03*
%TD*%
D17*
%TO.C,C8*%
X132721000Y-150833000D03*
X134271000Y-150833000D03*
%TD*%
D26*
%TO.C,C45*%
X131626000Y-116928000D03*
X131626000Y-118478000D03*
%TD*%
D17*
%TO.C,C41*%
X82976000Y-121078000D03*
X84526000Y-121078000D03*
%TD*%
D11*
%TO.C,D12*%
X110066000Y-124433000D03*
X110066000Y-127733000D03*
%TD*%
D32*
%TO.C,D18*%
X52726000Y-121478000D03*
X49426000Y-121478000D03*
%TD*%
D25*
%TO.C,C17*%
X121351000Y-149303000D03*
X119801000Y-149303000D03*
%TD*%
D33*
%TO.C,U3*%
X131371000Y-143808000D03*
X129971000Y-143808000D03*
X128571000Y-143808000D03*
X127171000Y-143808000D03*
X131371000Y-145208000D03*
X129971000Y-145208000D03*
X128571000Y-145208000D03*
X127171000Y-145208000D03*
X131371000Y-146608000D03*
X129971000Y-146608000D03*
X128571000Y-146608000D03*
X127171000Y-146608000D03*
X131371000Y-148008000D03*
X129971000Y-148008000D03*
X128571000Y-148008000D03*
X127171000Y-148008000D03*
D34*
X132021000Y-142470500D03*
X131521000Y-142470500D03*
X131021000Y-142470500D03*
X130521000Y-142470500D03*
X130021000Y-142470500D03*
X129521000Y-142470500D03*
X129021000Y-142470500D03*
X128521000Y-142470500D03*
X128021000Y-142470500D03*
X127521000Y-142470500D03*
X127021000Y-142470500D03*
X126521000Y-142470500D03*
D35*
X125833500Y-143158000D03*
X125833500Y-143658000D03*
X125833500Y-144158000D03*
X125833500Y-144658000D03*
X125833500Y-145158000D03*
X125833500Y-145658000D03*
X125833500Y-146158000D03*
X125833500Y-146658000D03*
X125833500Y-147158000D03*
X125833500Y-147658000D03*
X125833500Y-148158000D03*
X125833500Y-148658000D03*
D34*
X126521000Y-149345500D03*
X127021000Y-149345500D03*
X127521000Y-149345500D03*
X128021000Y-149345500D03*
X128521000Y-149345500D03*
X129021000Y-149345500D03*
X129521000Y-149345500D03*
X130021000Y-149345500D03*
X130521000Y-149345500D03*
X131021000Y-149345500D03*
X131521000Y-149345500D03*
X132021000Y-149345500D03*
D35*
X132708500Y-148658000D03*
X132708500Y-148158000D03*
X132708500Y-147658000D03*
X132708500Y-147158000D03*
X132708500Y-146658000D03*
X132708500Y-146158000D03*
X132708500Y-145658000D03*
X132708500Y-145158000D03*
X132708500Y-144658000D03*
X132708500Y-144158000D03*
X132708500Y-143658000D03*
X132708500Y-143158000D03*
%TD*%
D36*
%TO.C,R23*%
X69651000Y-122028000D03*
X71301000Y-122028000D03*
%TD*%
D17*
%TO.C,C43*%
X69701000Y-120428000D03*
X71251000Y-120428000D03*
%TD*%
D32*
%TO.C,D19*%
X81426000Y-121483000D03*
X78126000Y-121483000D03*
%TD*%
D17*
%TO.C,C40*%
X127501000Y-129328000D03*
X129051000Y-129328000D03*
%TD*%
D37*
%TO.C,C3*%
X135101000Y-129828000D03*
X131501000Y-129828000D03*
%TD*%
D16*
%TO.C,R14*%
X95276000Y-157278000D03*
X95276000Y-155628000D03*
%TD*%
D38*
%TO.C,U4*%
X55526000Y-126598000D03*
X57026000Y-126598000D03*
X55526000Y-125458000D03*
X57026000Y-125458000D03*
D39*
X54371000Y-128503000D03*
X55641000Y-128503000D03*
X56911000Y-128503000D03*
X58181000Y-128503000D03*
X58181000Y-123553000D03*
X56911000Y-123553000D03*
X55641000Y-123553000D03*
X54371000Y-123553000D03*
%TD*%
D32*
%TO.C,D20*%
X110476000Y-121528000D03*
X107176000Y-121528000D03*
%TD*%
D36*
%TO.C,R25*%
X87476000Y-133723000D03*
X89126000Y-133723000D03*
%TD*%
D13*
%TO.C,C5*%
X141526000Y-126228000D03*
X141526000Y-129828000D03*
%TD*%
D30*
%TO.C,C30*%
X91676000Y-130798000D03*
X95276000Y-130798000D03*
%TD*%
D40*
%TO.C,U1*%
X139976000Y-135528000D03*
D41*
X139888500Y-134028000D03*
D40*
X139976000Y-132528000D03*
%TD*%
D29*
%TO.C,R33*%
X116566000Y-130508000D03*
X116566000Y-132158000D03*
%TD*%
D27*
%TO.C,R22*%
X66776000Y-121315500D03*
X66776000Y-127240500D03*
%TD*%
D13*
%TO.C,C20*%
X52276000Y-130728000D03*
X52276000Y-134328000D03*
%TD*%
D32*
%TO.C,D22*%
X100851000Y-116853000D03*
X97551000Y-116853000D03*
%TD*%
D14*
%TO.C,R36*%
X50376000Y-123428000D03*
X48726000Y-123428000D03*
%TD*%
D42*
%TO.C,Y2*%
X133001000Y-135978000D03*
X133001000Y-133878000D03*
X131351000Y-133878000D03*
X131351000Y-135978000D03*
%TD*%
D29*
%TO.C,R21*%
X58776000Y-130453000D03*
X58776000Y-132103000D03*
%TD*%
D13*
%TO.C,C34*%
X110066000Y-130783000D03*
X110066000Y-134383000D03*
%TD*%
D42*
%TO.C,Y1*%
X129201000Y-135978000D03*
X129201000Y-133878000D03*
X127551000Y-133878000D03*
X127551000Y-135978000D03*
%TD*%
D14*
%TO.C,R16*%
X137601000Y-126328000D03*
X135951000Y-126328000D03*
%TD*%
D36*
%TO.C,R8*%
X104001000Y-138153000D03*
X105651000Y-138153000D03*
%TD*%
D18*
%TO.C,U5*%
X71451000Y-123890500D03*
X70501000Y-123890500D03*
X69551000Y-123890500D03*
X69551000Y-126165500D03*
X71451000Y-126165500D03*
%TD*%
D16*
%TO.C,R13*%
X97276000Y-157278000D03*
X97276000Y-155628000D03*
%TD*%
D14*
%TO.C,R40*%
X100026000Y-118853000D03*
X98376000Y-118853000D03*
%TD*%
D12*
%TO.C,D13*%
X124566000Y-135083000D03*
X120566000Y-135083000D03*
%TD*%
D25*
%TO.C,C44*%
X99976000Y-120453000D03*
X98426000Y-120453000D03*
%TD*%
D17*
%TO.C,C33*%
X98426000Y-130878000D03*
X99976000Y-130878000D03*
%TD*%
D26*
%TO.C,C21*%
X48776000Y-132003000D03*
X48776000Y-133553000D03*
%TD*%
D14*
%TO.C,R41*%
X127676000Y-118878000D03*
X126026000Y-118878000D03*
%TD*%
D29*
%TO.C,R11*%
X129396000Y-152463000D03*
X129396000Y-154113000D03*
%TD*%
D12*
%TO.C,D11*%
X95476000Y-135048000D03*
X91476000Y-135048000D03*
%TD*%
D43*
%TO.C,D5*%
X139276000Y-148028000D03*
X139276000Y-152028000D03*
%TD*%
D38*
%TO.C,U6*%
X84226000Y-126618000D03*
X85726000Y-126618000D03*
X84226000Y-125478000D03*
X85726000Y-125478000D03*
D39*
X83071000Y-128523000D03*
X84341000Y-128523000D03*
X85611000Y-128523000D03*
X86881000Y-128523000D03*
X86881000Y-123573000D03*
X85611000Y-123573000D03*
X84341000Y-123573000D03*
X83071000Y-123573000D03*
%TD*%
D25*
%TO.C,C24*%
X71276000Y-128028000D03*
X69726000Y-128028000D03*
%TD*%
D36*
%TO.C,R19*%
X58776000Y-133703000D03*
X60426000Y-133703000D03*
%TD*%
D29*
%TO.C,R10*%
X132776000Y-154453000D03*
X132776000Y-156103000D03*
%TD*%
D17*
%TO.C,C7*%
X98826000Y-138153000D03*
X100376000Y-138153000D03*
%TD*%
D38*
%TO.C,U8*%
X113316000Y-126653000D03*
X114816000Y-126653000D03*
X113316000Y-125513000D03*
X114816000Y-125513000D03*
D39*
X112161000Y-128558000D03*
X113431000Y-128558000D03*
X114701000Y-128558000D03*
X115971000Y-128558000D03*
X115971000Y-123608000D03*
X114701000Y-123608000D03*
X113431000Y-123608000D03*
X112161000Y-123608000D03*
%TD*%
D44*
%TO.C,D3*%
X136401000Y-147890500D03*
X136401000Y-149765500D03*
%TD*%
D15*
%TO.C,R24*%
X76551000Y-121453000D03*
X74726000Y-121453000D03*
%TD*%
D30*
%TO.C,C18*%
X54776000Y-144028000D03*
X58376000Y-144028000D03*
%TD*%
D26*
%TO.C,C4*%
X141276000Y-121478000D03*
X141276000Y-123028000D03*
%TD*%
%TO.C,C35*%
X106566000Y-132058000D03*
X106566000Y-133608000D03*
%TD*%
D28*
%TO.C,C15*%
X132876000Y-139303000D03*
X132876000Y-137753000D03*
%TD*%
D29*
%TO.C,R27*%
X87476000Y-130473000D03*
X87476000Y-132123000D03*
%TD*%
D26*
%TO.C,C39*%
X116566000Y-135483000D03*
X116566000Y-137033000D03*
%TD*%
D25*
%TO.C,C38*%
X129051000Y-127523000D03*
X127501000Y-127523000D03*
%TD*%
%TO.C,C31*%
X99976000Y-128028000D03*
X98426000Y-128028000D03*
%TD*%
D36*
%TO.C,R29*%
X98376000Y-122028000D03*
X100026000Y-122028000D03*
%TD*%
%TO.C,R31*%
X116566000Y-133758000D03*
X118216000Y-133758000D03*
%TD*%
%TO.C,R2*%
X98776000Y-136628000D03*
X100426000Y-136628000D03*
%TD*%
D15*
%TO.C,R20*%
X59851000Y-121278000D03*
X58026000Y-121278000D03*
%TD*%
D45*
%TO.C,D4*%
X46998500Y-152978000D03*
D46*
X47753500Y-148353000D03*
X50803500Y-148353000D03*
X47753500Y-145003000D03*
X50803500Y-145003000D03*
D45*
X51558500Y-152978000D03*
%TD*%
D12*
%TO.C,D9*%
X66776000Y-135028000D03*
X62776000Y-135028000D03*
%TD*%
D16*
%TO.C,R4*%
X137776000Y-123103000D03*
X137776000Y-121453000D03*
%TD*%
D27*
%TO.C,R34*%
X124566000Y-121370500D03*
X124566000Y-127295500D03*
%TD*%
D20*
%TO.C,SW1*%
X94276000Y-140078000D03*
X102226000Y-140078000D03*
X94276000Y-144578000D03*
X102226000Y-144578000D03*
%TD*%
D47*
%TO.C,D7*%
X142276000Y-149528000D03*
X142276000Y-152028000D03*
%TD*%
D48*
%TO.C,L1*%
X125176000Y-139840500D03*
X125176000Y-137715500D03*
%TD*%
D26*
%TO.C,C25*%
X58776000Y-135428000D03*
X58776000Y-136978000D03*
%TD*%
D28*
%TO.C,C1*%
X141776000Y-133803000D03*
X141776000Y-132253000D03*
%TD*%
D14*
%TO.C,R6*%
X140226000Y-137403000D03*
X138576000Y-137403000D03*
%TD*%
D28*
%TO.C,C16*%
X131276000Y-139303000D03*
X131276000Y-137753000D03*
%TD*%
D10*
%TO.C,C36*%
X103651000Y-128678000D03*
X103651000Y-125078000D03*
%TD*%
D29*
%TO.C,R5*%
X136026000Y-121453000D03*
X136026000Y-123103000D03*
%TD*%
%TO.C,R9*%
X127776000Y-154428000D03*
X127776000Y-156078000D03*
%TD*%
D30*
%TO.C,C37*%
X120766000Y-130833000D03*
X124366000Y-130833000D03*
%TD*%
D49*
%TO.C,F2*%
X137138500Y-155778000D03*
X141413500Y-155778000D03*
%TD*%
D19*
%TO.C,D14*%
X112171000Y-161628000D03*
X112171000Y-160628000D03*
X110881000Y-161128000D03*
%TD*%
D28*
%TO.C,C13*%
X129176000Y-139303000D03*
X129176000Y-137753000D03*
%TD*%
D10*
%TO.C,C22*%
X48526000Y-129728000D03*
X48526000Y-126128000D03*
%TD*%
D14*
%TO.C,R38*%
X107526000Y-123578000D03*
X105876000Y-123578000D03*
%TD*%
D28*
%TO.C,C14*%
X127576000Y-139303000D03*
X127576000Y-137753000D03*
%TD*%
D14*
%TO.C,R39*%
X71301000Y-118828000D03*
X69651000Y-118828000D03*
%TD*%
D11*
%TO.C,D10*%
X80976000Y-124398000D03*
X80976000Y-127698000D03*
%TD*%
D16*
%TO.C,R1*%
X141776000Y-137103000D03*
X141776000Y-135453000D03*
%TD*%
D26*
%TO.C,C28*%
X77476000Y-132023000D03*
X77476000Y-133573000D03*
%TD*%
M02*
