%TF.GenerationSoftware,KiCad,Pcbnew,8.0.5-8.0.5-0~ubuntu24.04.1*%
%TF.CreationDate,2024-10-01T16:14:09+02:00*%
%TF.ProjectId,TFG-Brushless-ESC,5446472d-4272-4757-9368-6c6573732d45,rev?*%
%TF.SameCoordinates,Original*%
%TF.FileFunction,Legend,Top*%
%TF.FilePolarity,Positive*%
%FSLAX46Y46*%
G04 Gerber Fmt 4.6, Leading zero omitted, Abs format (unit mm)*
G04 Created by KiCad (PCBNEW 8.0.5-8.0.5-0~ubuntu24.04.1) date 2024-10-01 16:14:09*
%MOMM*%
%LPD*%
G01*
G04 APERTURE LIST*
%ADD10C,0.150000*%
%ADD11C,0.120000*%
%ADD12C,0.100000*%
%ADD13C,0.010000*%
G04 APERTURE END LIST*
D10*
G36*
X67362497Y-157178000D02*
G01*
X67243062Y-157178000D01*
X67225233Y-156618683D01*
X67217661Y-156407658D01*
X67175651Y-156530512D01*
X67043027Y-156881000D01*
X66958519Y-156881000D01*
X66832246Y-156543945D01*
X66790236Y-156407658D01*
X66787549Y-156628209D01*
X66771674Y-157178000D01*
X66656391Y-157178000D01*
X66700355Y-156287002D01*
X66845191Y-156287002D01*
X66966091Y-156618683D01*
X67005414Y-156730547D01*
X67043027Y-156618683D01*
X67170278Y-156287002D01*
X67319266Y-156287002D01*
X67362497Y-157178000D01*
G37*
G36*
X67834677Y-156477245D02*
G01*
X67885449Y-156486014D01*
X67894946Y-156488502D01*
X67941353Y-156505843D01*
X67979943Y-156530512D01*
X68013860Y-156566747D01*
X68033188Y-156601342D01*
X68047672Y-156650839D01*
X68051750Y-156701726D01*
X68051750Y-157178000D01*
X67944528Y-157178000D01*
X67941841Y-157085676D01*
X67902850Y-157121216D01*
X67859854Y-157151430D01*
X67827291Y-157168230D01*
X67779251Y-157184676D01*
X67729196Y-157192738D01*
X67705414Y-157193631D01*
X67653758Y-157190304D01*
X67604298Y-157178488D01*
X67559867Y-157156545D01*
X67535421Y-157136967D01*
X67504955Y-157096089D01*
X67495609Y-157074685D01*
X67484410Y-157025037D01*
X67482909Y-156997016D01*
X67483484Y-156991154D01*
X67609427Y-156991154D01*
X67615533Y-157029256D01*
X67635316Y-157061496D01*
X67671220Y-157083966D01*
X67720808Y-157091995D01*
X67724709Y-157092026D01*
X67774933Y-157084143D01*
X67819231Y-157067113D01*
X67863460Y-157041876D01*
X67906004Y-157010066D01*
X67931583Y-156987734D01*
X67931583Y-156865369D01*
X67779664Y-156865369D01*
X67728659Y-156868899D01*
X67702727Y-156874406D01*
X67657915Y-156893853D01*
X67649727Y-156899807D01*
X67619196Y-156939374D01*
X67609465Y-156987574D01*
X67609427Y-156991154D01*
X67483484Y-156991154D01*
X67487733Y-156947831D01*
X67504691Y-156899286D01*
X67533860Y-156857929D01*
X67560090Y-156834350D01*
X67603412Y-156808597D01*
X67655955Y-156790203D01*
X67709493Y-156780143D01*
X67761002Y-156776005D01*
X67788701Y-156775487D01*
X67931583Y-156775487D01*
X67931583Y-156713694D01*
X67924056Y-156663799D01*
X67899287Y-156621026D01*
X67892260Y-156613799D01*
X67850165Y-156588086D01*
X67801507Y-156577507D01*
X67772825Y-156576185D01*
X67722075Y-156578523D01*
X67671979Y-156585535D01*
X67657787Y-156588397D01*
X67607457Y-156601046D01*
X67559384Y-156616308D01*
X67540550Y-156623080D01*
X67540550Y-156513659D01*
X67587648Y-156500135D01*
X67591108Y-156499249D01*
X67640181Y-156488513D01*
X67649727Y-156486792D01*
X67699833Y-156479506D01*
X67714451Y-156478000D01*
X67765284Y-156474794D01*
X67782351Y-156474580D01*
X67834677Y-156477245D01*
G37*
G36*
X68891946Y-157178000D02*
G01*
X68733432Y-157178000D01*
X68547075Y-156914950D01*
X68363160Y-157178000D01*
X68208554Y-157178000D01*
X68475756Y-156832640D01*
X68221011Y-156490212D01*
X68374151Y-156490212D01*
X68555379Y-156755459D01*
X68733432Y-156490212D01*
X68880955Y-156490212D01*
X68622057Y-156835571D01*
X68891946Y-157178000D01*
G37*
G36*
X66923104Y-158858000D02*
G01*
X66359148Y-158858000D01*
X66359148Y-158744671D01*
X66589957Y-158744671D01*
X66589957Y-158084238D01*
X66375023Y-158217106D01*
X66331060Y-158115501D01*
X66616824Y-157967002D01*
X66722581Y-157967002D01*
X66722581Y-158744671D01*
X66923104Y-158744671D01*
X66923104Y-158858000D01*
G37*
G36*
X67676838Y-158577609D02*
G01*
X67672081Y-158629295D01*
X67657812Y-158677192D01*
X67648017Y-158698020D01*
X67621013Y-158739577D01*
X67586833Y-158776134D01*
X67568638Y-158791321D01*
X67524695Y-158820053D01*
X67478693Y-158841565D01*
X67449448Y-158851893D01*
X67400964Y-158864269D01*
X67349884Y-158871508D01*
X67301192Y-158873631D01*
X67258206Y-158872654D01*
X67212532Y-158869967D01*
X67168080Y-158866548D01*
X67129490Y-158861907D01*
X67129490Y-158752487D01*
X67179998Y-158760940D01*
X67214242Y-158764454D01*
X67265191Y-158767313D01*
X67310718Y-158768118D01*
X67359823Y-158765327D01*
X67409636Y-158755418D01*
X67457193Y-158736257D01*
X67484375Y-158718781D01*
X67518776Y-158683053D01*
X67531758Y-158660896D01*
X67546404Y-158612760D01*
X67548366Y-158584692D01*
X67541266Y-158533582D01*
X67517327Y-158489939D01*
X67488282Y-158465501D01*
X67440770Y-158444226D01*
X67392665Y-158433387D01*
X67342931Y-158428716D01*
X67315603Y-158428132D01*
X67145121Y-158428132D01*
X67145121Y-157967002D01*
X67628722Y-157967002D01*
X67628722Y-158072515D01*
X67257961Y-158072515D01*
X67257961Y-158326527D01*
X67336119Y-158326527D01*
X67388103Y-158328422D01*
X67438878Y-158334105D01*
X67461904Y-158338006D01*
X67509299Y-158350236D01*
X67555381Y-158369897D01*
X67570592Y-158378551D01*
X67611340Y-158409917D01*
X67643822Y-158449978D01*
X67647529Y-158455976D01*
X67667564Y-158503059D01*
X67676122Y-158555319D01*
X67676838Y-158577609D01*
G37*
G36*
X69311555Y-158858000D02*
G01*
X69178199Y-158858000D01*
X69115672Y-158670421D01*
X68741981Y-158670421D01*
X68678722Y-158858000D01*
X68551716Y-158858000D01*
X68651123Y-158561000D01*
X68777152Y-158561000D01*
X69080746Y-158561000D01*
X68928827Y-158079842D01*
X68777152Y-158561000D01*
X68651123Y-158561000D01*
X68849936Y-157967002D01*
X69017487Y-157967002D01*
X69311555Y-158858000D01*
G37*
X245491000Y-152273000D02*
X252222000Y-152273000D01*
X252222000Y-156718000D01*
X245491000Y-156718000D01*
X245491000Y-152273000D01*
X224663000Y-152400000D02*
X241427000Y-152400000D01*
X241427000Y-156210000D01*
X224663000Y-156210000D01*
X224663000Y-152400000D01*
X247650000Y-142875000D02*
X250825000Y-130683000D01*
X244602000Y-117094000D02*
X270637000Y-117094000D01*
X270637000Y-136398000D01*
X244602000Y-136398000D01*
X244602000Y-117094000D01*
X205232000Y-137160000D02*
X230632000Y-137160000D01*
X230632000Y-139827000D01*
X205232000Y-139827000D01*
X205232000Y-137160000D01*
X235585000Y-137287000D02*
X260985000Y-137287000D01*
X260985000Y-139954000D01*
X235585000Y-139954000D01*
X235585000Y-137287000D01*
X230886000Y-129286000D02*
X234315000Y-129286000D01*
X234315000Y-154432000D01*
X230886000Y-154432000D01*
X230886000Y-129286000D01*
X246761000Y-145669000D02*
X239395000Y-128778000D01*
X216408000Y-144272000D02*
X225044000Y-144272000D01*
X225044000Y-149479000D01*
X216408000Y-149479000D01*
X216408000Y-144272000D01*
X188595000Y-117475000D02*
X213614000Y-117475000D01*
X213614000Y-136144000D01*
X188595000Y-136144000D01*
X188595000Y-117475000D01*
X227076000Y-137160000D02*
X229870000Y-137160000D01*
X229870000Y-154686000D01*
X227076000Y-154686000D01*
X227076000Y-137160000D01*
X101026000Y-152878000D02*
X123576000Y-152878000D01*
X123576000Y-154878000D01*
X101026000Y-154878000D01*
X101026000Y-152878000D01*
X245745000Y-147066000D02*
X213106000Y-131064000D01*
X205232000Y-128143000D02*
X208534000Y-128143000D01*
X208534000Y-139827000D01*
X205232000Y-139827000D01*
X205232000Y-128143000D01*
X188087000Y-119253000D02*
X276225000Y-119253000D01*
X276225000Y-121539000D01*
X188087000Y-121539000D01*
X188087000Y-119253000D01*
X101013500Y-155403000D02*
X123563500Y-155403000D01*
X123563500Y-157403000D01*
X101013500Y-157403000D01*
X101013500Y-155403000D01*
X235585000Y-137287000D02*
X238379000Y-137287000D01*
X238379000Y-154813000D01*
X235585000Y-154813000D01*
X235585000Y-137287000D01*
X188849000Y-148590000D02*
X200279000Y-148590000D01*
X200279000Y-156210000D01*
X188849000Y-156210000D01*
X188849000Y-148590000D01*
X258953000Y-128905000D02*
X262509000Y-128905000D01*
X262509000Y-140208000D01*
X258953000Y-140208000D01*
X258953000Y-128905000D01*
X216789000Y-117094000D02*
X241808000Y-117094000D01*
X241808000Y-135890000D01*
X216789000Y-135890000D01*
X216789000Y-117094000D01*
X241300000Y-140589000D02*
X263144000Y-140589000D01*
X263144000Y-151257000D01*
X241300000Y-151257000D01*
X241300000Y-140589000D01*
X189865000Y-119380000D02*
X193294000Y-119380000D01*
X193294000Y-150241000D01*
X189865000Y-150241000D01*
X189865000Y-119380000D01*
X201041000Y-141097000D02*
X215773000Y-141097000D01*
X215773000Y-151892000D01*
X201041000Y-151892000D01*
X201041000Y-141097000D01*
G36*
X102066875Y-156504737D02*
G01*
X101796743Y-156504737D01*
X101796743Y-156786105D01*
X101678773Y-156786105D01*
X101678773Y-156504737D01*
X101408641Y-156504737D01*
X101408641Y-156399224D01*
X101678773Y-156399224D01*
X101678773Y-156117856D01*
X101796743Y-156117856D01*
X101796743Y-156399224D01*
X102066875Y-156399224D01*
X102066875Y-156504737D01*
G37*
G36*
X102795207Y-156566042D02*
G01*
X102790579Y-156615977D01*
X102776695Y-156663201D01*
X102771027Y-156676196D01*
X102745455Y-156718644D01*
X102710627Y-156756231D01*
X102698976Y-156766077D01*
X102655810Y-156794573D01*
X102608738Y-156816154D01*
X102578076Y-156826649D01*
X102530224Y-156838241D01*
X102477650Y-156845540D01*
X102426295Y-156848438D01*
X102408327Y-156848631D01*
X102357524Y-156847532D01*
X102312095Y-156844235D01*
X102263523Y-156838153D01*
X102232472Y-156833000D01*
X102232472Y-156727487D01*
X102282026Y-156734923D01*
X102322598Y-156739210D01*
X102373494Y-156742259D01*
X102419318Y-156743118D01*
X102470824Y-156741183D01*
X102522140Y-156734142D01*
X102534356Y-156731394D01*
X102582570Y-156714685D01*
X102612270Y-156697200D01*
X102647226Y-156660330D01*
X102656233Y-156643223D01*
X102668796Y-156595755D01*
X102670155Y-156571660D01*
X102660813Y-156522429D01*
X102653547Y-156508401D01*
X102619629Y-156471556D01*
X102607140Y-156463216D01*
X102560627Y-156442415D01*
X102535822Y-156435861D01*
X102486560Y-156428356D01*
X102444719Y-156426579D01*
X102342381Y-156426579D01*
X102342381Y-156328882D01*
X102446184Y-156328882D01*
X102496243Y-156324254D01*
X102519946Y-156318136D01*
X102564642Y-156296795D01*
X102577099Y-156287361D01*
X102608342Y-156248689D01*
X102613491Y-156238024D01*
X102625398Y-156189297D01*
X102626191Y-156171101D01*
X102620009Y-156122077D01*
X102594893Y-156076446D01*
X102582228Y-156065100D01*
X102535859Y-156042393D01*
X102483537Y-156033051D01*
X102453023Y-156031883D01*
X102403996Y-156034089D01*
X102359478Y-156039699D01*
X102309836Y-156049468D01*
X102260080Y-156062177D01*
X102256652Y-156063146D01*
X102256652Y-155957633D01*
X102304588Y-155944812D01*
X102306233Y-155944444D01*
X102354286Y-155935424D01*
X102359234Y-155934674D01*
X102408478Y-155928850D01*
X102411746Y-155928568D01*
X102460547Y-155926372D01*
X102462060Y-155926370D01*
X102513145Y-155928568D01*
X102563061Y-155935911D01*
X102587601Y-155942002D01*
X102634692Y-155959608D01*
X102678459Y-155986698D01*
X102713759Y-156023337D01*
X102733414Y-156057284D01*
X102747898Y-156104365D01*
X102751976Y-156150829D01*
X102747301Y-156201283D01*
X102731536Y-156249609D01*
X102712409Y-156281255D01*
X102678646Y-156317651D01*
X102636709Y-156348071D01*
X102604210Y-156365030D01*
X102651772Y-156377613D01*
X102673086Y-156386768D01*
X102714915Y-156412243D01*
X102734391Y-156428778D01*
X102766820Y-156468207D01*
X102778355Y-156489106D01*
X102793216Y-156537887D01*
X102795207Y-156566042D01*
G37*
G36*
X103659583Y-155942002D02*
G01*
X103354524Y-156833000D01*
X103189660Y-156833000D01*
X102891439Y-155942002D01*
X103029681Y-155942002D01*
X103223365Y-156542595D01*
X103278320Y-156718450D01*
X103334496Y-156542595D01*
X103528913Y-155942002D01*
X103659583Y-155942002D01*
G37*
G36*
X104332960Y-156566042D02*
G01*
X104328332Y-156615977D01*
X104314448Y-156663201D01*
X104308780Y-156676196D01*
X104283208Y-156718644D01*
X104248380Y-156756231D01*
X104236729Y-156766077D01*
X104193563Y-156794573D01*
X104146491Y-156816154D01*
X104115829Y-156826649D01*
X104067977Y-156838241D01*
X104015403Y-156845540D01*
X103964048Y-156848438D01*
X103946080Y-156848631D01*
X103895277Y-156847532D01*
X103849848Y-156844235D01*
X103801276Y-156838153D01*
X103770225Y-156833000D01*
X103770225Y-156727487D01*
X103819779Y-156734923D01*
X103860351Y-156739210D01*
X103911247Y-156742259D01*
X103957071Y-156743118D01*
X104008577Y-156741183D01*
X104059893Y-156734142D01*
X104072109Y-156731394D01*
X104120323Y-156714685D01*
X104150023Y-156697200D01*
X104184979Y-156660330D01*
X104193986Y-156643223D01*
X104206549Y-156595755D01*
X104207908Y-156571660D01*
X104198566Y-156522429D01*
X104191300Y-156508401D01*
X104157382Y-156471556D01*
X104144893Y-156463216D01*
X104098380Y-156442415D01*
X104073575Y-156435861D01*
X104024313Y-156428356D01*
X103982472Y-156426579D01*
X103880134Y-156426579D01*
X103880134Y-156328882D01*
X103983937Y-156328882D01*
X104033996Y-156324254D01*
X104057699Y-156318136D01*
X104102395Y-156296795D01*
X104114852Y-156287361D01*
X104146095Y-156248689D01*
X104151244Y-156238024D01*
X104163151Y-156189297D01*
X104163944Y-156171101D01*
X104157762Y-156122077D01*
X104132646Y-156076446D01*
X104119981Y-156065100D01*
X104073612Y-156042393D01*
X104021290Y-156033051D01*
X103990776Y-156031883D01*
X103941749Y-156034089D01*
X103897231Y-156039699D01*
X103847589Y-156049468D01*
X103797833Y-156062177D01*
X103794405Y-156063146D01*
X103794405Y-155957633D01*
X103842341Y-155944812D01*
X103843986Y-155944444D01*
X103892039Y-155935424D01*
X103896987Y-155934674D01*
X103946231Y-155928850D01*
X103949499Y-155928568D01*
X103998300Y-155926372D01*
X103999813Y-155926370D01*
X104050898Y-155928568D01*
X104100814Y-155935911D01*
X104125354Y-155942002D01*
X104172445Y-155959608D01*
X104216212Y-155986698D01*
X104251512Y-156023337D01*
X104271167Y-156057284D01*
X104285651Y-156104365D01*
X104289729Y-156150829D01*
X104285054Y-156201283D01*
X104269289Y-156249609D01*
X104250162Y-156281255D01*
X104216399Y-156317651D01*
X104174462Y-156348071D01*
X104141963Y-156365030D01*
X104189525Y-156377613D01*
X104210839Y-156386768D01*
X104252668Y-156412243D01*
X104272144Y-156428778D01*
X104304573Y-156468207D01*
X104316108Y-156489106D01*
X104330969Y-156537887D01*
X104332960Y-156566042D01*
G37*
G36*
X105880239Y-156593153D02*
G01*
X105875926Y-156642526D01*
X105861634Y-156689837D01*
X105854105Y-156705260D01*
X105825096Y-156746652D01*
X105787072Y-156781066D01*
X105781321Y-156785128D01*
X105736855Y-156810039D01*
X105689035Y-156827645D01*
X105668969Y-156833000D01*
X105617953Y-156842525D01*
X105567808Y-156847395D01*
X105524377Y-156848631D01*
X105475461Y-156847246D01*
X105453302Y-156845700D01*
X105403781Y-156841081D01*
X105385159Y-156838861D01*
X105336638Y-156831628D01*
X105323854Y-156829336D01*
X105276029Y-156818552D01*
X105271586Y-156817368D01*
X105271586Y-156697933D01*
X105319110Y-156713227D01*
X105367593Y-156724582D01*
X105387357Y-156728219D01*
X105438007Y-156734917D01*
X105488781Y-156738341D01*
X105533414Y-156739210D01*
X105584963Y-156737225D01*
X105634042Y-156730173D01*
X105682017Y-156714310D01*
X105701942Y-156703062D01*
X105736434Y-156666998D01*
X105740532Y-156659099D01*
X105752208Y-156610193D01*
X105752500Y-156599992D01*
X105741097Y-156551449D01*
X105732228Y-156537954D01*
X105696525Y-156503640D01*
X105678983Y-156491792D01*
X105634141Y-156467883D01*
X105603756Y-156454912D01*
X105558379Y-156436730D01*
X105517538Y-156420229D01*
X105471309Y-156400267D01*
X105431321Y-156381394D01*
X105386721Y-156355368D01*
X105356094Y-156331813D01*
X105321416Y-156294434D01*
X105302849Y-156264891D01*
X105286457Y-156217114D01*
X105282577Y-156173544D01*
X105288682Y-156122273D01*
X105301872Y-156082930D01*
X105328370Y-156038266D01*
X105361711Y-156003551D01*
X105404766Y-155973988D01*
X105450242Y-155953141D01*
X105465759Y-155947619D01*
X105516821Y-155934670D01*
X105569662Y-155928051D01*
X105617189Y-155926370D01*
X105666282Y-155928568D01*
X105716385Y-155933949D01*
X105719771Y-155934430D01*
X105768308Y-155942073D01*
X105773260Y-155942979D01*
X105821174Y-155952657D01*
X105822598Y-155952993D01*
X105822598Y-156062658D01*
X105772909Y-156050071D01*
X105723221Y-156040704D01*
X105716596Y-156039699D01*
X105667888Y-156034089D01*
X105617590Y-156031891D01*
X105614503Y-156031883D01*
X105565349Y-156034081D01*
X105513695Y-156043011D01*
X105466068Y-156062795D01*
X105459653Y-156067054D01*
X105425926Y-156102410D01*
X105410749Y-156150460D01*
X105410316Y-156161332D01*
X105421719Y-156210150D01*
X105430588Y-156223858D01*
X105466290Y-156258523D01*
X105483833Y-156270508D01*
X105528674Y-156294723D01*
X105559060Y-156307877D01*
X105604437Y-156326059D01*
X105645277Y-156342560D01*
X105691506Y-156362538D01*
X105731495Y-156381883D01*
X105773770Y-156406666D01*
X105806722Y-156432197D01*
X105841399Y-156470328D01*
X105859967Y-156500585D01*
X105876359Y-156549108D01*
X105880239Y-156593153D01*
G37*
G36*
X106321441Y-155943681D02*
G01*
X106380367Y-155950502D01*
X106434069Y-155962571D01*
X106482548Y-155979888D01*
X106533827Y-156007594D01*
X106577585Y-156042857D01*
X106584147Y-156049468D01*
X106619341Y-156093678D01*
X106643107Y-156136633D01*
X106661816Y-156185145D01*
X106675469Y-156239215D01*
X106684065Y-156298842D01*
X106687301Y-156350545D01*
X106687706Y-156377731D01*
X106686053Y-156428837D01*
X106681095Y-156478170D01*
X106677692Y-156500341D01*
X106666639Y-156550089D01*
X106651004Y-156596752D01*
X106645696Y-156609517D01*
X106622190Y-156654701D01*
X106592888Y-156695913D01*
X106588543Y-156701108D01*
X106552311Y-156737176D01*
X106512200Y-156766094D01*
X106502814Y-156771695D01*
X106458796Y-156793332D01*
X106409296Y-156810615D01*
X106384600Y-156817124D01*
X106336201Y-156826162D01*
X106283357Y-156831449D01*
X106231460Y-156833000D01*
X106039241Y-156833000D01*
X106039241Y-156727487D01*
X106161362Y-156727487D01*
X106252709Y-156727487D01*
X106307489Y-156724483D01*
X106356880Y-156715474D01*
X106414353Y-156694118D01*
X106462248Y-156662084D01*
X106500563Y-156619372D01*
X106529300Y-156565982D01*
X106544566Y-156518932D01*
X106554445Y-156465876D01*
X106558935Y-156406813D01*
X106559234Y-156385791D01*
X106557804Y-156334803D01*
X106552862Y-156283589D01*
X106543349Y-156233864D01*
X106541160Y-156225568D01*
X106523610Y-156176576D01*
X106497857Y-156133192D01*
X106486938Y-156120055D01*
X106448742Y-156087157D01*
X106402388Y-156064027D01*
X106395591Y-156061681D01*
X106347796Y-156049978D01*
X106298097Y-156044471D01*
X106266631Y-156043607D01*
X106161362Y-156043607D01*
X106161362Y-156727487D01*
X106039241Y-156727487D01*
X106039241Y-155942002D01*
X106270539Y-155942002D01*
X106321441Y-155943681D01*
G37*
G36*
X107499813Y-156833000D02*
G01*
X107366457Y-156833000D01*
X107303930Y-156645421D01*
X106930239Y-156645421D01*
X106866980Y-156833000D01*
X106739974Y-156833000D01*
X106839381Y-156536000D01*
X106965410Y-156536000D01*
X107269004Y-156536000D01*
X107117085Y-156054842D01*
X106965410Y-156536000D01*
X106839381Y-156536000D01*
X107038194Y-155942002D01*
X107205745Y-155942002D01*
X107499813Y-156833000D01*
G37*
G36*
X108955745Y-156593153D02*
G01*
X108951432Y-156642526D01*
X108937140Y-156689837D01*
X108929611Y-156705260D01*
X108900602Y-156746652D01*
X108862578Y-156781066D01*
X108856826Y-156785128D01*
X108812361Y-156810039D01*
X108764541Y-156827645D01*
X108744475Y-156833000D01*
X108693459Y-156842525D01*
X108643314Y-156847395D01*
X108599883Y-156848631D01*
X108550967Y-156847246D01*
X108528808Y-156845700D01*
X108479287Y-156841081D01*
X108460665Y-156838861D01*
X108412144Y-156831628D01*
X108399360Y-156829336D01*
X108351535Y-156818552D01*
X108347092Y-156817368D01*
X108347092Y-156697933D01*
X108394616Y-156713227D01*
X108443099Y-156724582D01*
X108462863Y-156728219D01*
X108513513Y-156734917D01*
X108564286Y-156738341D01*
X108608920Y-156739210D01*
X108660469Y-156737225D01*
X108709548Y-156730173D01*
X108757523Y-156714310D01*
X108777448Y-156703062D01*
X108811940Y-156666998D01*
X108816038Y-156659099D01*
X108827714Y-156610193D01*
X108828006Y-156599992D01*
X108816603Y-156551449D01*
X108807734Y-156537954D01*
X108772031Y-156503640D01*
X108754489Y-156491792D01*
X108709647Y-156467883D01*
X108679262Y-156454912D01*
X108633884Y-156436730D01*
X108593044Y-156420229D01*
X108546815Y-156400267D01*
X108506826Y-156381394D01*
X108462227Y-156355368D01*
X108431600Y-156331813D01*
X108396922Y-156294434D01*
X108378355Y-156264891D01*
X108361963Y-156217114D01*
X108358083Y-156173544D01*
X108364188Y-156122273D01*
X108377378Y-156082930D01*
X108403876Y-156038266D01*
X108437217Y-156003551D01*
X108480272Y-155973988D01*
X108525748Y-155953141D01*
X108541265Y-155947619D01*
X108592327Y-155934670D01*
X108645168Y-155928051D01*
X108692695Y-155926370D01*
X108741788Y-155928568D01*
X108791891Y-155933949D01*
X108795277Y-155934430D01*
X108843814Y-155942073D01*
X108848766Y-155942979D01*
X108896680Y-155952657D01*
X108898103Y-155952993D01*
X108898103Y-156062658D01*
X108848415Y-156050071D01*
X108798727Y-156040704D01*
X108792102Y-156039699D01*
X108743394Y-156034089D01*
X108693095Y-156031891D01*
X108690009Y-156031883D01*
X108640855Y-156034081D01*
X108589201Y-156043011D01*
X108541574Y-156062795D01*
X108535159Y-156067054D01*
X108501432Y-156102410D01*
X108486255Y-156150460D01*
X108485822Y-156161332D01*
X108497225Y-156210150D01*
X108506094Y-156223858D01*
X108541796Y-156258523D01*
X108559339Y-156270508D01*
X108604180Y-156294723D01*
X108634565Y-156307877D01*
X108679943Y-156326059D01*
X108720783Y-156342560D01*
X108767012Y-156362538D01*
X108807001Y-156381883D01*
X108849276Y-156406666D01*
X108882228Y-156432197D01*
X108916905Y-156470328D01*
X108935473Y-156500585D01*
X108951865Y-156549108D01*
X108955745Y-156593153D01*
G37*
G36*
X109723156Y-156809552D02*
G01*
X109675530Y-156824779D01*
X109626898Y-156836266D01*
X109577262Y-156844013D01*
X109526620Y-156848020D01*
X109497231Y-156848631D01*
X109439926Y-156845852D01*
X109386926Y-156837516D01*
X109338231Y-156823622D01*
X109285481Y-156799614D01*
X109238929Y-156767603D01*
X109204872Y-156734814D01*
X109170260Y-156688203D01*
X109146886Y-156643496D01*
X109128486Y-156593458D01*
X109115058Y-156538090D01*
X109106604Y-156477391D01*
X109103421Y-156424993D01*
X109103023Y-156397515D01*
X109104779Y-156344712D01*
X109110045Y-156294505D01*
X109120167Y-156241124D01*
X109131111Y-156201876D01*
X109148823Y-156154797D01*
X109172990Y-156107428D01*
X109201879Y-156065258D01*
X109211467Y-156053621D01*
X109246257Y-156018201D01*
X109285293Y-155988267D01*
X109328575Y-155963818D01*
X109337741Y-155959587D01*
X109385888Y-155942070D01*
X109437518Y-155931041D01*
X109486962Y-155926662D01*
X109504070Y-155926370D01*
X109553381Y-155928426D01*
X109603149Y-155935238D01*
X109620085Y-155938826D01*
X109669494Y-155953456D01*
X109716972Y-155973989D01*
X109723156Y-155977173D01*
X109723156Y-156098317D01*
X109679926Y-156074408D01*
X109632052Y-156055016D01*
X109622284Y-156051911D01*
X109571189Y-156040340D01*
X109519725Y-156035933D01*
X109508222Y-156035791D01*
X109458799Y-156039701D01*
X109409993Y-156052657D01*
X109393672Y-156059482D01*
X109349197Y-156086416D01*
X109313787Y-156120076D01*
X109306966Y-156128359D01*
X109278896Y-156171682D01*
X109258441Y-156218693D01*
X109252011Y-156238512D01*
X109240253Y-156289815D01*
X109234242Y-156341368D01*
X109232716Y-156386768D01*
X109234445Y-156439318D01*
X109241086Y-156496837D01*
X109252706Y-156548312D01*
X109272558Y-156600725D01*
X109299189Y-156644910D01*
X109303547Y-156650550D01*
X109343068Y-156689339D01*
X109390802Y-156717045D01*
X109439307Y-156732197D01*
X109494099Y-156738864D01*
X109510909Y-156739210D01*
X109560577Y-156736873D01*
X109611614Y-156729181D01*
X109621551Y-156726998D01*
X109670273Y-156713174D01*
X109717063Y-156695056D01*
X109723156Y-156692316D01*
X109723156Y-156809552D01*
G37*
G36*
X110485193Y-156833000D02*
G01*
X109968620Y-156833000D01*
X109968620Y-155942002D01*
X110092939Y-155942002D01*
X110092939Y-156727487D01*
X110485193Y-156727487D01*
X110485193Y-156833000D01*
G37*
G36*
X112037357Y-156098317D02*
G01*
X111992985Y-156074815D01*
X111947491Y-156056456D01*
X111934286Y-156052155D01*
X111886254Y-156040969D01*
X111834483Y-156036047D01*
X111819004Y-156035791D01*
X111767713Y-156039363D01*
X111717109Y-156051295D01*
X111691997Y-156061192D01*
X111646637Y-156087439D01*
X111608008Y-156121726D01*
X111598208Y-156133000D01*
X111570193Y-156173650D01*
X111548063Y-156220589D01*
X111539834Y-156244374D01*
X111527481Y-156295058D01*
X111521166Y-156344959D01*
X111519562Y-156388233D01*
X111521160Y-156438007D01*
X111526609Y-156488902D01*
X111535926Y-156535756D01*
X111552444Y-156585318D01*
X111576994Y-156631480D01*
X111587461Y-156646154D01*
X111621929Y-156681623D01*
X111663784Y-156708958D01*
X111677099Y-156715274D01*
X111725098Y-156730772D01*
X111775702Y-156738065D01*
X111808013Y-156739210D01*
X111836101Y-156737989D01*
X111866387Y-156734325D01*
X111895452Y-156728464D01*
X111920609Y-156721136D01*
X111920609Y-156442211D01*
X111737182Y-156442211D01*
X111737182Y-156340606D01*
X112041509Y-156340606D01*
X112041509Y-156794898D01*
X111995684Y-156813484D01*
X111982158Y-156818101D01*
X111934439Y-156831336D01*
X111918166Y-156834953D01*
X111869440Y-156843288D01*
X111853198Y-156845212D01*
X111804164Y-156848467D01*
X111790916Y-156848631D01*
X111740551Y-156846351D01*
X111687943Y-156838471D01*
X111638866Y-156824961D01*
X111624831Y-156819810D01*
X111576688Y-156796706D01*
X111533683Y-156767021D01*
X111499046Y-156734325D01*
X111466276Y-156692079D01*
X111441393Y-156647962D01*
X111421186Y-156598408D01*
X111419422Y-156593153D01*
X111406081Y-156543511D01*
X111397106Y-156489658D01*
X111392793Y-156438252D01*
X111391823Y-156397515D01*
X111393746Y-156343644D01*
X111399517Y-156292673D01*
X111409134Y-156244603D01*
X111422598Y-156199434D01*
X111442016Y-156152237D01*
X111465376Y-156109291D01*
X111495954Y-156066558D01*
X111509548Y-156050934D01*
X111546723Y-156015762D01*
X111588335Y-155986267D01*
X111634384Y-155962448D01*
X111644126Y-155958366D01*
X111694854Y-155941493D01*
X111743201Y-155931651D01*
X111794099Y-155926870D01*
X111817538Y-155926370D01*
X111869370Y-155928708D01*
X111918865Y-155935720D01*
X111932577Y-155938582D01*
X111982848Y-155953022D01*
X112027928Y-155972310D01*
X112037357Y-155977173D01*
X112037357Y-156098317D01*
G37*
G36*
X112807699Y-156833000D02*
G01*
X112648452Y-156833000D01*
X112386624Y-156277103D01*
X112311153Y-156098317D01*
X112311153Y-156547968D01*
X112311153Y-156833000D01*
X112197092Y-156833000D01*
X112197092Y-155942002D01*
X112354384Y-155942002D01*
X112603756Y-156471520D01*
X112693637Y-156676684D01*
X112693637Y-156196503D01*
X112693637Y-155942002D01*
X112807699Y-155942002D01*
X112807699Y-156833000D01*
G37*
G36*
X113241329Y-155943681D02*
G01*
X113300255Y-155950502D01*
X113353957Y-155962571D01*
X113402436Y-155979888D01*
X113453716Y-156007594D01*
X113497473Y-156042857D01*
X113504035Y-156049468D01*
X113539229Y-156093678D01*
X113562995Y-156136633D01*
X113581704Y-156185145D01*
X113595357Y-156239215D01*
X113603953Y-156298842D01*
X113607190Y-156350545D01*
X113607594Y-156377731D01*
X113605941Y-156428837D01*
X113600983Y-156478170D01*
X113597580Y-156500341D01*
X113586527Y-156550089D01*
X113570893Y-156596752D01*
X113565584Y-156609517D01*
X113542078Y-156654701D01*
X113512776Y-156695913D01*
X113508431Y-156701108D01*
X113472199Y-156737176D01*
X113432088Y-156766094D01*
X113422702Y-156771695D01*
X113378684Y-156793332D01*
X113329184Y-156810615D01*
X113304489Y-156817124D01*
X113256089Y-156826162D01*
X113203245Y-156831449D01*
X113151348Y-156833000D01*
X112959129Y-156833000D01*
X112959129Y-156727487D01*
X113081251Y-156727487D01*
X113172598Y-156727487D01*
X113227377Y-156724483D01*
X113276768Y-156715474D01*
X113334241Y-156694118D01*
X113382136Y-156662084D01*
X113420452Y-156619372D01*
X113449188Y-156565982D01*
X113464455Y-156518932D01*
X113474333Y-156465876D01*
X113478823Y-156406813D01*
X113479122Y-156385791D01*
X113477693Y-156334803D01*
X113472751Y-156283589D01*
X113463237Y-156233864D01*
X113461048Y-156225568D01*
X113443498Y-156176576D01*
X113417746Y-156133192D01*
X113406826Y-156120055D01*
X113368630Y-156087157D01*
X113322276Y-156064027D01*
X113315480Y-156061681D01*
X113267685Y-156049978D01*
X113217985Y-156044471D01*
X113186519Y-156043607D01*
X113081251Y-156043607D01*
X113081251Y-156727487D01*
X112959129Y-156727487D01*
X112959129Y-155942002D01*
X113190427Y-155942002D01*
X113241329Y-155943681D01*
G37*
X219221207Y-147443819D02*
X218887874Y-146967628D01*
X218649779Y-147443819D02*
X218649779Y-146443819D01*
X218649779Y-146443819D02*
X219030731Y-146443819D01*
X219030731Y-146443819D02*
X219125969Y-146491438D01*
X219125969Y-146491438D02*
X219173588Y-146539057D01*
X219173588Y-146539057D02*
X219221207Y-146634295D01*
X219221207Y-146634295D02*
X219221207Y-146777152D01*
X219221207Y-146777152D02*
X219173588Y-146872390D01*
X219173588Y-146872390D02*
X219125969Y-146920009D01*
X219125969Y-146920009D02*
X219030731Y-146967628D01*
X219030731Y-146967628D02*
X218649779Y-146967628D01*
X220030731Y-147396200D02*
X219935493Y-147443819D01*
X219935493Y-147443819D02*
X219745017Y-147443819D01*
X219745017Y-147443819D02*
X219649779Y-147396200D01*
X219649779Y-147396200D02*
X219602160Y-147300961D01*
X219602160Y-147300961D02*
X219602160Y-146920009D01*
X219602160Y-146920009D02*
X219649779Y-146824771D01*
X219649779Y-146824771D02*
X219745017Y-146777152D01*
X219745017Y-146777152D02*
X219935493Y-146777152D01*
X219935493Y-146777152D02*
X220030731Y-146824771D01*
X220030731Y-146824771D02*
X220078350Y-146920009D01*
X220078350Y-146920009D02*
X220078350Y-147015247D01*
X220078350Y-147015247D02*
X219602160Y-147110485D01*
X220935493Y-146777152D02*
X220935493Y-147586676D01*
X220935493Y-147586676D02*
X220887874Y-147681914D01*
X220887874Y-147681914D02*
X220840255Y-147729533D01*
X220840255Y-147729533D02*
X220745017Y-147777152D01*
X220745017Y-147777152D02*
X220602160Y-147777152D01*
X220602160Y-147777152D02*
X220506922Y-147729533D01*
X220935493Y-147396200D02*
X220840255Y-147443819D01*
X220840255Y-147443819D02*
X220649779Y-147443819D01*
X220649779Y-147443819D02*
X220554541Y-147396200D01*
X220554541Y-147396200D02*
X220506922Y-147348580D01*
X220506922Y-147348580D02*
X220459303Y-147253342D01*
X220459303Y-147253342D02*
X220459303Y-146967628D01*
X220459303Y-146967628D02*
X220506922Y-146872390D01*
X220506922Y-146872390D02*
X220554541Y-146824771D01*
X220554541Y-146824771D02*
X220649779Y-146777152D01*
X220649779Y-146777152D02*
X220840255Y-146777152D01*
X220840255Y-146777152D02*
X220935493Y-146824771D01*
X222649779Y-146443819D02*
X222173589Y-146443819D01*
X222173589Y-146443819D02*
X222125970Y-146920009D01*
X222125970Y-146920009D02*
X222173589Y-146872390D01*
X222173589Y-146872390D02*
X222268827Y-146824771D01*
X222268827Y-146824771D02*
X222506922Y-146824771D01*
X222506922Y-146824771D02*
X222602160Y-146872390D01*
X222602160Y-146872390D02*
X222649779Y-146920009D01*
X222649779Y-146920009D02*
X222697398Y-147015247D01*
X222697398Y-147015247D02*
X222697398Y-147253342D01*
X222697398Y-147253342D02*
X222649779Y-147348580D01*
X222649779Y-147348580D02*
X222602160Y-147396200D01*
X222602160Y-147396200D02*
X222506922Y-147443819D01*
X222506922Y-147443819D02*
X222268827Y-147443819D01*
X222268827Y-147443819D02*
X222173589Y-147396200D01*
X222173589Y-147396200D02*
X222125970Y-147348580D01*
X222983113Y-146443819D02*
X223316446Y-147443819D01*
X223316446Y-147443819D02*
X223649779Y-146443819D01*
X65112779Y-165016866D02*
X65874684Y-165016866D01*
X65493731Y-165397819D02*
X65493731Y-164635914D01*
X228158922Y-125742819D02*
X228492255Y-126742819D01*
X228492255Y-126742819D02*
X228825588Y-125742819D01*
X246843779Y-154317819D02*
X246843779Y-155127342D01*
X246843779Y-155127342D02*
X246891398Y-155222580D01*
X246891398Y-155222580D02*
X246939017Y-155270200D01*
X246939017Y-155270200D02*
X247034255Y-155317819D01*
X247034255Y-155317819D02*
X247224731Y-155317819D01*
X247224731Y-155317819D02*
X247319969Y-155270200D01*
X247319969Y-155270200D02*
X247367588Y-155222580D01*
X247367588Y-155222580D02*
X247415207Y-155127342D01*
X247415207Y-155127342D02*
X247415207Y-154317819D01*
X247843779Y-155270200D02*
X247986636Y-155317819D01*
X247986636Y-155317819D02*
X248224731Y-155317819D01*
X248224731Y-155317819D02*
X248319969Y-155270200D01*
X248319969Y-155270200D02*
X248367588Y-155222580D01*
X248367588Y-155222580D02*
X248415207Y-155127342D01*
X248415207Y-155127342D02*
X248415207Y-155032104D01*
X248415207Y-155032104D02*
X248367588Y-154936866D01*
X248367588Y-154936866D02*
X248319969Y-154889247D01*
X248319969Y-154889247D02*
X248224731Y-154841628D01*
X248224731Y-154841628D02*
X248034255Y-154794009D01*
X248034255Y-154794009D02*
X247939017Y-154746390D01*
X247939017Y-154746390D02*
X247891398Y-154698771D01*
X247891398Y-154698771D02*
X247843779Y-154603533D01*
X247843779Y-154603533D02*
X247843779Y-154508295D01*
X247843779Y-154508295D02*
X247891398Y-154413057D01*
X247891398Y-154413057D02*
X247939017Y-154365438D01*
X247939017Y-154365438D02*
X248034255Y-154317819D01*
X248034255Y-154317819D02*
X248272350Y-154317819D01*
X248272350Y-154317819D02*
X248415207Y-154365438D01*
X249177112Y-154794009D02*
X249319969Y-154841628D01*
X249319969Y-154841628D02*
X249367588Y-154889247D01*
X249367588Y-154889247D02*
X249415207Y-154984485D01*
X249415207Y-154984485D02*
X249415207Y-155127342D01*
X249415207Y-155127342D02*
X249367588Y-155222580D01*
X249367588Y-155222580D02*
X249319969Y-155270200D01*
X249319969Y-155270200D02*
X249224731Y-155317819D01*
X249224731Y-155317819D02*
X248843779Y-155317819D01*
X248843779Y-155317819D02*
X248843779Y-154317819D01*
X248843779Y-154317819D02*
X249177112Y-154317819D01*
X249177112Y-154317819D02*
X249272350Y-154365438D01*
X249272350Y-154365438D02*
X249319969Y-154413057D01*
X249319969Y-154413057D02*
X249367588Y-154508295D01*
X249367588Y-154508295D02*
X249367588Y-154603533D01*
X249367588Y-154603533D02*
X249319969Y-154698771D01*
X249319969Y-154698771D02*
X249272350Y-154746390D01*
X249272350Y-154746390D02*
X249177112Y-154794009D01*
X249177112Y-154794009D02*
X248843779Y-154794009D01*
X251177112Y-155222580D02*
X251129493Y-155270200D01*
X251129493Y-155270200D02*
X250986636Y-155317819D01*
X250986636Y-155317819D02*
X250891398Y-155317819D01*
X250891398Y-155317819D02*
X250748541Y-155270200D01*
X250748541Y-155270200D02*
X250653303Y-155174961D01*
X250653303Y-155174961D02*
X250605684Y-155079723D01*
X250605684Y-155079723D02*
X250558065Y-154889247D01*
X250558065Y-154889247D02*
X250558065Y-154746390D01*
X250558065Y-154746390D02*
X250605684Y-154555914D01*
X250605684Y-154555914D02*
X250653303Y-154460676D01*
X250653303Y-154460676D02*
X250748541Y-154365438D01*
X250748541Y-154365438D02*
X250891398Y-154317819D01*
X250891398Y-154317819D02*
X250986636Y-154317819D01*
X250986636Y-154317819D02*
X251129493Y-154365438D01*
X251129493Y-154365438D02*
X251177112Y-154413057D01*
G36*
X88856000Y-164329953D02*
G01*
X88856000Y-164452319D01*
X88449579Y-164452319D01*
X88449579Y-164829430D01*
X88856000Y-164829430D01*
X88856000Y-164951796D01*
X87965002Y-164951796D01*
X87965002Y-164829430D01*
X88344066Y-164829430D01*
X88344066Y-164452319D01*
X87965002Y-164452319D01*
X87965002Y-164329953D01*
X88856000Y-164329953D01*
G37*
G36*
X88856000Y-163625801D02*
G01*
X88668421Y-163688327D01*
X88668421Y-164062019D01*
X88856000Y-164125278D01*
X88856000Y-164252284D01*
X87965002Y-163954064D01*
X87965002Y-163875173D01*
X88077842Y-163875173D01*
X88559000Y-164026848D01*
X88559000Y-163723254D01*
X88077842Y-163875173D01*
X87965002Y-163875173D01*
X87965002Y-163786513D01*
X88856000Y-163492445D01*
X88856000Y-163625801D01*
G37*
G36*
X88856000Y-162813694D02*
G01*
X88856000Y-163330267D01*
X87965002Y-163330267D01*
X87965002Y-163205948D01*
X88750487Y-163205948D01*
X88750487Y-162813694D01*
X88856000Y-162813694D01*
G37*
G36*
X88856000Y-162044817D02*
G01*
X88856000Y-162561391D01*
X87965002Y-162561391D01*
X87965002Y-162437071D01*
X88750487Y-162437071D01*
X88750487Y-162044817D01*
X88856000Y-162044817D01*
G37*
X252034850Y-145634152D02*
X252034850Y-146300819D01*
X251606279Y-145634152D02*
X251606279Y-146157961D01*
X251606279Y-146157961D02*
X251653898Y-146253200D01*
X251653898Y-146253200D02*
X251749136Y-146300819D01*
X251749136Y-146300819D02*
X251891993Y-146300819D01*
X251891993Y-146300819D02*
X251987231Y-146253200D01*
X251987231Y-146253200D02*
X252034850Y-146205580D01*
X253082469Y-146205580D02*
X253034850Y-146253200D01*
X253034850Y-146253200D02*
X252891993Y-146300819D01*
X252891993Y-146300819D02*
X252796755Y-146300819D01*
X252796755Y-146300819D02*
X252653898Y-146253200D01*
X252653898Y-146253200D02*
X252558660Y-146157961D01*
X252558660Y-146157961D02*
X252511041Y-146062723D01*
X252511041Y-146062723D02*
X252463422Y-145872247D01*
X252463422Y-145872247D02*
X252463422Y-145729390D01*
X252463422Y-145729390D02*
X252511041Y-145538914D01*
X252511041Y-145538914D02*
X252558660Y-145443676D01*
X252558660Y-145443676D02*
X252653898Y-145348438D01*
X252653898Y-145348438D02*
X252796755Y-145300819D01*
X252796755Y-145300819D02*
X252891993Y-145300819D01*
X252891993Y-145300819D02*
X253034850Y-145348438D01*
X253034850Y-145348438D02*
X253082469Y-145396057D01*
G36*
X102091875Y-153979737D02*
G01*
X101821743Y-153979737D01*
X101821743Y-154261105D01*
X101703773Y-154261105D01*
X101703773Y-153979737D01*
X101433641Y-153979737D01*
X101433641Y-153874224D01*
X101703773Y-153874224D01*
X101703773Y-153592856D01*
X101821743Y-153592856D01*
X101821743Y-153874224D01*
X102091875Y-153874224D01*
X102091875Y-153979737D01*
G37*
G36*
X102820207Y-154041042D02*
G01*
X102815579Y-154090977D01*
X102801695Y-154138201D01*
X102796027Y-154151196D01*
X102770455Y-154193644D01*
X102735627Y-154231231D01*
X102723976Y-154241077D01*
X102680810Y-154269573D01*
X102633738Y-154291154D01*
X102603076Y-154301649D01*
X102555224Y-154313241D01*
X102502650Y-154320540D01*
X102451295Y-154323438D01*
X102433327Y-154323631D01*
X102382524Y-154322532D01*
X102337095Y-154319235D01*
X102288523Y-154313153D01*
X102257472Y-154308000D01*
X102257472Y-154202487D01*
X102307026Y-154209923D01*
X102347598Y-154214210D01*
X102398494Y-154217259D01*
X102444318Y-154218118D01*
X102495824Y-154216183D01*
X102547140Y-154209142D01*
X102559356Y-154206394D01*
X102607570Y-154189685D01*
X102637270Y-154172200D01*
X102672226Y-154135330D01*
X102681233Y-154118223D01*
X102693796Y-154070755D01*
X102695155Y-154046660D01*
X102685813Y-153997429D01*
X102678547Y-153983401D01*
X102644629Y-153946556D01*
X102632140Y-153938216D01*
X102585627Y-153917415D01*
X102560822Y-153910861D01*
X102511560Y-153903356D01*
X102469719Y-153901579D01*
X102367381Y-153901579D01*
X102367381Y-153803882D01*
X102471184Y-153803882D01*
X102521243Y-153799254D01*
X102544946Y-153793136D01*
X102589642Y-153771795D01*
X102602099Y-153762361D01*
X102633342Y-153723689D01*
X102638491Y-153713024D01*
X102650398Y-153664297D01*
X102651191Y-153646101D01*
X102645009Y-153597077D01*
X102619893Y-153551446D01*
X102607228Y-153540100D01*
X102560859Y-153517393D01*
X102508537Y-153508051D01*
X102478023Y-153506883D01*
X102428996Y-153509089D01*
X102384478Y-153514699D01*
X102334836Y-153524468D01*
X102285080Y-153537177D01*
X102281652Y-153538146D01*
X102281652Y-153432633D01*
X102329588Y-153419812D01*
X102331233Y-153419444D01*
X102379286Y-153410424D01*
X102384234Y-153409674D01*
X102433478Y-153403850D01*
X102436746Y-153403568D01*
X102485547Y-153401372D01*
X102487060Y-153401370D01*
X102538145Y-153403568D01*
X102588061Y-153410911D01*
X102612601Y-153417002D01*
X102659692Y-153434608D01*
X102703459Y-153461698D01*
X102738759Y-153498337D01*
X102758414Y-153532284D01*
X102772898Y-153579365D01*
X102776976Y-153625829D01*
X102772301Y-153676283D01*
X102756536Y-153724609D01*
X102737409Y-153756255D01*
X102703646Y-153792651D01*
X102661709Y-153823071D01*
X102629210Y-153840030D01*
X102676772Y-153852613D01*
X102698086Y-153861768D01*
X102739915Y-153887243D01*
X102759391Y-153903778D01*
X102791820Y-153943207D01*
X102803355Y-153964106D01*
X102818216Y-154012887D01*
X102820207Y-154041042D01*
G37*
G36*
X103684583Y-153417002D02*
G01*
X103379524Y-154308000D01*
X103214660Y-154308000D01*
X102916439Y-153417002D01*
X103054681Y-153417002D01*
X103248365Y-154017595D01*
X103303320Y-154193450D01*
X103359496Y-154017595D01*
X103553913Y-153417002D01*
X103684583Y-153417002D01*
G37*
G36*
X104357960Y-154041042D02*
G01*
X104353332Y-154090977D01*
X104339448Y-154138201D01*
X104333780Y-154151196D01*
X104308208Y-154193644D01*
X104273380Y-154231231D01*
X104261729Y-154241077D01*
X104218563Y-154269573D01*
X104171491Y-154291154D01*
X104140829Y-154301649D01*
X104092977Y-154313241D01*
X104040403Y-154320540D01*
X103989048Y-154323438D01*
X103971080Y-154323631D01*
X103920277Y-154322532D01*
X103874848Y-154319235D01*
X103826276Y-154313153D01*
X103795225Y-154308000D01*
X103795225Y-154202487D01*
X103844779Y-154209923D01*
X103885351Y-154214210D01*
X103936247Y-154217259D01*
X103982071Y-154218118D01*
X104033577Y-154216183D01*
X104084893Y-154209142D01*
X104097109Y-154206394D01*
X104145323Y-154189685D01*
X104175023Y-154172200D01*
X104209979Y-154135330D01*
X104218986Y-154118223D01*
X104231549Y-154070755D01*
X104232908Y-154046660D01*
X104223566Y-153997429D01*
X104216300Y-153983401D01*
X104182382Y-153946556D01*
X104169893Y-153938216D01*
X104123380Y-153917415D01*
X104098575Y-153910861D01*
X104049313Y-153903356D01*
X104007472Y-153901579D01*
X103905134Y-153901579D01*
X103905134Y-153803882D01*
X104008937Y-153803882D01*
X104058996Y-153799254D01*
X104082699Y-153793136D01*
X104127395Y-153771795D01*
X104139852Y-153762361D01*
X104171095Y-153723689D01*
X104176244Y-153713024D01*
X104188151Y-153664297D01*
X104188944Y-153646101D01*
X104182762Y-153597077D01*
X104157646Y-153551446D01*
X104144981Y-153540100D01*
X104098612Y-153517393D01*
X104046290Y-153508051D01*
X104015776Y-153506883D01*
X103966749Y-153509089D01*
X103922231Y-153514699D01*
X103872589Y-153524468D01*
X103822833Y-153537177D01*
X103819405Y-153538146D01*
X103819405Y-153432633D01*
X103867341Y-153419812D01*
X103868986Y-153419444D01*
X103917039Y-153410424D01*
X103921987Y-153409674D01*
X103971231Y-153403850D01*
X103974499Y-153403568D01*
X104023300Y-153401372D01*
X104024813Y-153401370D01*
X104075898Y-153403568D01*
X104125814Y-153410911D01*
X104150354Y-153417002D01*
X104197445Y-153434608D01*
X104241212Y-153461698D01*
X104276512Y-153498337D01*
X104296167Y-153532284D01*
X104310651Y-153579365D01*
X104314729Y-153625829D01*
X104310054Y-153676283D01*
X104294289Y-153724609D01*
X104275162Y-153756255D01*
X104241399Y-153792651D01*
X104199462Y-153823071D01*
X104166963Y-153840030D01*
X104214525Y-153852613D01*
X104235839Y-153861768D01*
X104277668Y-153887243D01*
X104297144Y-153903778D01*
X104329573Y-153943207D01*
X104341108Y-153964106D01*
X104355969Y-154012887D01*
X104357960Y-154041042D01*
G37*
G36*
X106314101Y-153518607D02*
G01*
X106107472Y-153518607D01*
X106107472Y-153417002D01*
X106644562Y-153417002D01*
X106644562Y-153518607D01*
X106437933Y-153518607D01*
X106437933Y-154202487D01*
X106644562Y-154202487D01*
X106644562Y-154308000D01*
X106107472Y-154308000D01*
X106107472Y-154202487D01*
X106314101Y-154202487D01*
X106314101Y-153518607D01*
G37*
G36*
X107203723Y-153404471D02*
G01*
X107255764Y-153415044D01*
X107302552Y-153433122D01*
X107347672Y-153460565D01*
X107386679Y-153495633D01*
X107409286Y-153523247D01*
X107436074Y-153566607D01*
X107455919Y-153611334D01*
X107471470Y-153661117D01*
X107472789Y-153666374D01*
X107482943Y-153715590D01*
X107489774Y-153768168D01*
X107493056Y-153817727D01*
X107493794Y-153856639D01*
X107492427Y-153907955D01*
X107487515Y-153962738D01*
X107479032Y-154013399D01*
X107465218Y-154065466D01*
X107447678Y-154112511D01*
X107424427Y-154159117D01*
X107397217Y-154199761D01*
X107388281Y-154210791D01*
X107353071Y-154246620D01*
X107310184Y-154277807D01*
X107274953Y-154295787D01*
X107225345Y-154312755D01*
X107173607Y-154321891D01*
X107137933Y-154323631D01*
X107086064Y-154320578D01*
X107034023Y-154310167D01*
X106987235Y-154292368D01*
X106942149Y-154265039D01*
X106903246Y-154229949D01*
X106880745Y-154202242D01*
X106854235Y-154158576D01*
X106834543Y-154113620D01*
X106819049Y-154063655D01*
X106817730Y-154058383D01*
X106807813Y-154008873D01*
X106801141Y-153955962D01*
X106797935Y-153906075D01*
X106797214Y-153866897D01*
X106797402Y-153859814D01*
X106924464Y-153859814D01*
X106925907Y-153913078D01*
X106930236Y-153963051D01*
X106936676Y-154005627D01*
X106949095Y-154055986D01*
X106967608Y-154103457D01*
X106975511Y-154118711D01*
X107005797Y-154160599D01*
X107043899Y-154191984D01*
X107090122Y-154211585D01*
X107141109Y-154218093D01*
X107144771Y-154218118D01*
X107195497Y-154212000D01*
X107241796Y-154191987D01*
X107244422Y-154190274D01*
X107282707Y-154157241D01*
X107311834Y-154117288D01*
X107313543Y-154114315D01*
X107334554Y-154069342D01*
X107349208Y-154022056D01*
X107353599Y-154002452D01*
X107361636Y-153953038D01*
X107365964Y-153901152D01*
X107366788Y-153865187D01*
X107365345Y-153812369D01*
X107361016Y-153762726D01*
X107354576Y-153720351D01*
X107342393Y-153669794D01*
X107323773Y-153622109D01*
X107315741Y-153606778D01*
X107287348Y-153566850D01*
X107249490Y-153534671D01*
X107246865Y-153533017D01*
X107200214Y-153513416D01*
X107148494Y-153506908D01*
X107144771Y-153506883D01*
X107094275Y-153513055D01*
X107048220Y-153533243D01*
X107045609Y-153534971D01*
X107007751Y-153567822D01*
X106978914Y-153607714D01*
X106977221Y-153610686D01*
X106956497Y-153655753D01*
X106941859Y-153703293D01*
X106937409Y-153723038D01*
X106929521Y-153772383D01*
X106925273Y-153824063D01*
X106924464Y-153859814D01*
X106797402Y-153859814D01*
X106798558Y-153816152D01*
X106803385Y-153761850D01*
X106811724Y-153711486D01*
X106825302Y-153659535D01*
X106842823Y-153612510D01*
X106866007Y-153565970D01*
X106896027Y-153521719D01*
X106901994Y-153514454D01*
X106937285Y-153478486D01*
X106980064Y-153447214D01*
X107015078Y-153429214D01*
X107064538Y-153412246D01*
X107116195Y-153403110D01*
X107151854Y-153401370D01*
X107203723Y-153404471D01*
G37*
G36*
X108980745Y-154068153D02*
G01*
X108976432Y-154117526D01*
X108962140Y-154164837D01*
X108954611Y-154180260D01*
X108925602Y-154221652D01*
X108887578Y-154256066D01*
X108881826Y-154260128D01*
X108837361Y-154285039D01*
X108789541Y-154302645D01*
X108769475Y-154308000D01*
X108718459Y-154317525D01*
X108668314Y-154322395D01*
X108624883Y-154323631D01*
X108575967Y-154322246D01*
X108553808Y-154320700D01*
X108504287Y-154316081D01*
X108485665Y-154313861D01*
X108437144Y-154306628D01*
X108424360Y-154304336D01*
X108376535Y-154293552D01*
X108372092Y-154292368D01*
X108372092Y-154172933D01*
X108419616Y-154188227D01*
X108468099Y-154199582D01*
X108487863Y-154203219D01*
X108538513Y-154209917D01*
X108589286Y-154213341D01*
X108633920Y-154214210D01*
X108685469Y-154212225D01*
X108734548Y-154205173D01*
X108782523Y-154189310D01*
X108802448Y-154178062D01*
X108836940Y-154141998D01*
X108841038Y-154134099D01*
X108852714Y-154085193D01*
X108853006Y-154074992D01*
X108841603Y-154026449D01*
X108832734Y-154012954D01*
X108797031Y-153978640D01*
X108779489Y-153966792D01*
X108734647Y-153942883D01*
X108704262Y-153929912D01*
X108658884Y-153911730D01*
X108618044Y-153895229D01*
X108571815Y-153875267D01*
X108531826Y-153856394D01*
X108487227Y-153830368D01*
X108456600Y-153806813D01*
X108421922Y-153769434D01*
X108403355Y-153739891D01*
X108386963Y-153692114D01*
X108383083Y-153648544D01*
X108389188Y-153597273D01*
X108402378Y-153557930D01*
X108428876Y-153513266D01*
X108462217Y-153478551D01*
X108505272Y-153448988D01*
X108550748Y-153428141D01*
X108566265Y-153422619D01*
X108617327Y-153409670D01*
X108670168Y-153403051D01*
X108717695Y-153401370D01*
X108766788Y-153403568D01*
X108816891Y-153408949D01*
X108820277Y-153409430D01*
X108868814Y-153417073D01*
X108873766Y-153417979D01*
X108921680Y-153427657D01*
X108923103Y-153427993D01*
X108923103Y-153537658D01*
X108873415Y-153525071D01*
X108823727Y-153515704D01*
X108817102Y-153514699D01*
X108768394Y-153509089D01*
X108718095Y-153506891D01*
X108715009Y-153506883D01*
X108665855Y-153509081D01*
X108614201Y-153518011D01*
X108566574Y-153537795D01*
X108560159Y-153542054D01*
X108526432Y-153577410D01*
X108511255Y-153625460D01*
X108510822Y-153636332D01*
X108522225Y-153685150D01*
X108531094Y-153698858D01*
X108566796Y-153733523D01*
X108584339Y-153745508D01*
X108629180Y-153769723D01*
X108659565Y-153782877D01*
X108704943Y-153801059D01*
X108745783Y-153817560D01*
X108792012Y-153837538D01*
X108832001Y-153856883D01*
X108874276Y-153881666D01*
X108907228Y-153907197D01*
X108941905Y-153945328D01*
X108960473Y-153975585D01*
X108976865Y-154024108D01*
X108980745Y-154068153D01*
G37*
G36*
X109748156Y-154284552D02*
G01*
X109700530Y-154299779D01*
X109651898Y-154311266D01*
X109602262Y-154319013D01*
X109551620Y-154323020D01*
X109522231Y-154323631D01*
X109464926Y-154320852D01*
X109411926Y-154312516D01*
X109363231Y-154298622D01*
X109310481Y-154274614D01*
X109263929Y-154242603D01*
X109229872Y-154209814D01*
X109195260Y-154163203D01*
X109171886Y-154118496D01*
X109153486Y-154068458D01*
X109140058Y-154013090D01*
X109131604Y-153952391D01*
X109128421Y-153899993D01*
X109128023Y-153872515D01*
X109129779Y-153819712D01*
X109135045Y-153769505D01*
X109145167Y-153716124D01*
X109156111Y-153676876D01*
X109173823Y-153629797D01*
X109197990Y-153582428D01*
X109226879Y-153540258D01*
X109236467Y-153528621D01*
X109271257Y-153493201D01*
X109310293Y-153463267D01*
X109353575Y-153438818D01*
X109362741Y-153434587D01*
X109410888Y-153417070D01*
X109462518Y-153406041D01*
X109511962Y-153401662D01*
X109529070Y-153401370D01*
X109578381Y-153403426D01*
X109628149Y-153410238D01*
X109645085Y-153413826D01*
X109694494Y-153428456D01*
X109741972Y-153448989D01*
X109748156Y-153452173D01*
X109748156Y-153573317D01*
X109704926Y-153549408D01*
X109657052Y-153530016D01*
X109647284Y-153526911D01*
X109596189Y-153515340D01*
X109544725Y-153510933D01*
X109533222Y-153510791D01*
X109483799Y-153514701D01*
X109434993Y-153527657D01*
X109418672Y-153534482D01*
X109374197Y-153561416D01*
X109338787Y-153595076D01*
X109331966Y-153603359D01*
X109303896Y-153646682D01*
X109283441Y-153693693D01*
X109277011Y-153713512D01*
X109265253Y-153764815D01*
X109259242Y-153816368D01*
X109257716Y-153861768D01*
X109259445Y-153914318D01*
X109266086Y-153971837D01*
X109277706Y-154023312D01*
X109297558Y-154075725D01*
X109324189Y-154119910D01*
X109328547Y-154125550D01*
X109368068Y-154164339D01*
X109415802Y-154192045D01*
X109464307Y-154207197D01*
X109519099Y-154213864D01*
X109535909Y-154214210D01*
X109585577Y-154211873D01*
X109636614Y-154204181D01*
X109646551Y-154201998D01*
X109695273Y-154188174D01*
X109742063Y-154170056D01*
X109748156Y-154167316D01*
X109748156Y-154284552D01*
G37*
G36*
X110552936Y-154308000D02*
G01*
X110399063Y-154308000D01*
X110062985Y-153871049D01*
X110062985Y-154308000D01*
X109940863Y-154308000D01*
X109940863Y-153417002D01*
X110062985Y-153417002D01*
X110062985Y-153830749D01*
X110392224Y-153417002D01*
X110537060Y-153417002D01*
X110182664Y-153840274D01*
X110552936Y-154308000D01*
G37*
G36*
X112062357Y-153573317D02*
G01*
X112017985Y-153549815D01*
X111972491Y-153531456D01*
X111959286Y-153527155D01*
X111911254Y-153515969D01*
X111859483Y-153511047D01*
X111844004Y-153510791D01*
X111792713Y-153514363D01*
X111742109Y-153526295D01*
X111716997Y-153536192D01*
X111671637Y-153562439D01*
X111633008Y-153596726D01*
X111623208Y-153608000D01*
X111595193Y-153648650D01*
X111573063Y-153695589D01*
X111564834Y-153719374D01*
X111552481Y-153770058D01*
X111546166Y-153819959D01*
X111544562Y-153863233D01*
X111546160Y-153913007D01*
X111551609Y-153963902D01*
X111560926Y-154010756D01*
X111577444Y-154060318D01*
X111601994Y-154106480D01*
X111612461Y-154121154D01*
X111646929Y-154156623D01*
X111688784Y-154183958D01*
X111702099Y-154190274D01*
X111750098Y-154205772D01*
X111800702Y-154213065D01*
X111833013Y-154214210D01*
X111861101Y-154212989D01*
X111891387Y-154209325D01*
X111920452Y-154203464D01*
X111945609Y-154196136D01*
X111945609Y-153917211D01*
X111762182Y-153917211D01*
X111762182Y-153815606D01*
X112066509Y-153815606D01*
X112066509Y-154269898D01*
X112020684Y-154288484D01*
X112007158Y-154293101D01*
X111959439Y-154306336D01*
X111943166Y-154309953D01*
X111894440Y-154318288D01*
X111878198Y-154320212D01*
X111829164Y-154323467D01*
X111815916Y-154323631D01*
X111765551Y-154321351D01*
X111712943Y-154313471D01*
X111663866Y-154299961D01*
X111649831Y-154294810D01*
X111601688Y-154271706D01*
X111558683Y-154242021D01*
X111524046Y-154209325D01*
X111491276Y-154167079D01*
X111466393Y-154122962D01*
X111446186Y-154073408D01*
X111444422Y-154068153D01*
X111431081Y-154018511D01*
X111422106Y-153964658D01*
X111417793Y-153913252D01*
X111416823Y-153872515D01*
X111418746Y-153818644D01*
X111424517Y-153767673D01*
X111434134Y-153719603D01*
X111447598Y-153674434D01*
X111467016Y-153627237D01*
X111490376Y-153584291D01*
X111520954Y-153541558D01*
X111534548Y-153525934D01*
X111571723Y-153490762D01*
X111613335Y-153461267D01*
X111659384Y-153437448D01*
X111669126Y-153433366D01*
X111719854Y-153416493D01*
X111768201Y-153406651D01*
X111819099Y-153401870D01*
X111842538Y-153401370D01*
X111894370Y-153403708D01*
X111943865Y-153410720D01*
X111957577Y-153413582D01*
X112007848Y-153428022D01*
X112052928Y-153447310D01*
X112062357Y-153452173D01*
X112062357Y-153573317D01*
G37*
G36*
X112832699Y-154308000D02*
G01*
X112673452Y-154308000D01*
X112411624Y-153752103D01*
X112336153Y-153573317D01*
X112336153Y-154022968D01*
X112336153Y-154308000D01*
X112222092Y-154308000D01*
X112222092Y-153417002D01*
X112379384Y-153417002D01*
X112628756Y-153946520D01*
X112718637Y-154151684D01*
X112718637Y-153671503D01*
X112718637Y-153417002D01*
X112832699Y-153417002D01*
X112832699Y-154308000D01*
G37*
G36*
X113266329Y-153418681D02*
G01*
X113325255Y-153425502D01*
X113378957Y-153437571D01*
X113427436Y-153454888D01*
X113478716Y-153482594D01*
X113522473Y-153517857D01*
X113529035Y-153524468D01*
X113564229Y-153568678D01*
X113587995Y-153611633D01*
X113606704Y-153660145D01*
X113620357Y-153714215D01*
X113628953Y-153773842D01*
X113632190Y-153825545D01*
X113632594Y-153852731D01*
X113630941Y-153903837D01*
X113625983Y-153953170D01*
X113622580Y-153975341D01*
X113611527Y-154025089D01*
X113595893Y-154071752D01*
X113590584Y-154084517D01*
X113567078Y-154129701D01*
X113537776Y-154170913D01*
X113533431Y-154176108D01*
X113497199Y-154212176D01*
X113457088Y-154241094D01*
X113447702Y-154246695D01*
X113403684Y-154268332D01*
X113354184Y-154285615D01*
X113329489Y-154292124D01*
X113281089Y-154301162D01*
X113228245Y-154306449D01*
X113176348Y-154308000D01*
X112984129Y-154308000D01*
X112984129Y-154202487D01*
X113106251Y-154202487D01*
X113197598Y-154202487D01*
X113252377Y-154199483D01*
X113301768Y-154190474D01*
X113359241Y-154169118D01*
X113407136Y-154137084D01*
X113445452Y-154094372D01*
X113474188Y-154040982D01*
X113489455Y-153993932D01*
X113499333Y-153940876D01*
X113503823Y-153881813D01*
X113504122Y-153860791D01*
X113502693Y-153809803D01*
X113497751Y-153758589D01*
X113488237Y-153708864D01*
X113486048Y-153700568D01*
X113468498Y-153651576D01*
X113442746Y-153608192D01*
X113431826Y-153595055D01*
X113393630Y-153562157D01*
X113347276Y-153539027D01*
X113340480Y-153536681D01*
X113292685Y-153524978D01*
X113242985Y-153519471D01*
X113211519Y-153518607D01*
X113106251Y-153518607D01*
X113106251Y-154202487D01*
X112984129Y-154202487D01*
X112984129Y-153417002D01*
X113215427Y-153417002D01*
X113266329Y-153418681D01*
G37*
G36*
X70606000Y-164288188D02*
G01*
X70606000Y-164407623D01*
X70046683Y-164425452D01*
X69835658Y-164433024D01*
X69958512Y-164475034D01*
X70309000Y-164607658D01*
X70309000Y-164692166D01*
X69971945Y-164818439D01*
X69835658Y-164860449D01*
X70056209Y-164863136D01*
X70606000Y-164879011D01*
X70606000Y-164994294D01*
X69715002Y-164950330D01*
X69715002Y-164805494D01*
X70046683Y-164684594D01*
X70158547Y-164645271D01*
X70046683Y-164607658D01*
X69715002Y-164480407D01*
X69715002Y-164331419D01*
X70606000Y-164288188D01*
G37*
G36*
X70205955Y-163524831D02*
G01*
X70260738Y-163529743D01*
X70311399Y-163538226D01*
X70363466Y-163552040D01*
X70410511Y-163569580D01*
X70457117Y-163592831D01*
X70497761Y-163620041D01*
X70508791Y-163628976D01*
X70544620Y-163664187D01*
X70575807Y-163707074D01*
X70593787Y-163742305D01*
X70610755Y-163791913D01*
X70619891Y-163843651D01*
X70621631Y-163879325D01*
X70618578Y-163931194D01*
X70608167Y-163983235D01*
X70590368Y-164030023D01*
X70563039Y-164075109D01*
X70527949Y-164114012D01*
X70500242Y-164136513D01*
X70456576Y-164163023D01*
X70411620Y-164182715D01*
X70361655Y-164198209D01*
X70356383Y-164199528D01*
X70306873Y-164209445D01*
X70253962Y-164216117D01*
X70204075Y-164219323D01*
X70164897Y-164220044D01*
X70114152Y-164218700D01*
X70059850Y-164213872D01*
X70009486Y-164205534D01*
X69957535Y-164191956D01*
X69910510Y-164174435D01*
X69863970Y-164151251D01*
X69819719Y-164121231D01*
X69812454Y-164115264D01*
X69776486Y-164079973D01*
X69745214Y-164037194D01*
X69727214Y-164002180D01*
X69710246Y-163952720D01*
X69701110Y-163901063D01*
X69699716Y-163872487D01*
X69804883Y-163872487D01*
X69811055Y-163922983D01*
X69831243Y-163969038D01*
X69832971Y-163971649D01*
X69865822Y-164009507D01*
X69905714Y-164038344D01*
X69908686Y-164040037D01*
X69953753Y-164060761D01*
X70001293Y-164075399D01*
X70021038Y-164079849D01*
X70070383Y-164087737D01*
X70122063Y-164091985D01*
X70157814Y-164092794D01*
X70211078Y-164091351D01*
X70261051Y-164087021D01*
X70303627Y-164080581D01*
X70353986Y-164068163D01*
X70401457Y-164049650D01*
X70416711Y-164041747D01*
X70458599Y-164011461D01*
X70489984Y-163973359D01*
X70509585Y-163927136D01*
X70516093Y-163876149D01*
X70516118Y-163872487D01*
X70510000Y-163821761D01*
X70489987Y-163775462D01*
X70488274Y-163772836D01*
X70455241Y-163734550D01*
X70415288Y-163705424D01*
X70412315Y-163703715D01*
X70367342Y-163682704D01*
X70320056Y-163668050D01*
X70300452Y-163663659D01*
X70251038Y-163655622D01*
X70199152Y-163651294D01*
X70163187Y-163650470D01*
X70110369Y-163651913D01*
X70060726Y-163656242D01*
X70018351Y-163662682D01*
X69967794Y-163674865D01*
X69920109Y-163693484D01*
X69904778Y-163701517D01*
X69864850Y-163729910D01*
X69832671Y-163767767D01*
X69831017Y-163770393D01*
X69811416Y-163817043D01*
X69804908Y-163868764D01*
X69804883Y-163872487D01*
X69699716Y-163872487D01*
X69699370Y-163865404D01*
X69702471Y-163813535D01*
X69713044Y-163761494D01*
X69731122Y-163714706D01*
X69758565Y-163669586D01*
X69793633Y-163630579D01*
X69821247Y-163607972D01*
X69864607Y-163581184D01*
X69909334Y-163561339D01*
X69959117Y-163545787D01*
X69964374Y-163544468D01*
X70013590Y-163534315D01*
X70066168Y-163527484D01*
X70115727Y-163524202D01*
X70154639Y-163523464D01*
X70205955Y-163524831D01*
G37*
G36*
X69820515Y-162775836D02*
G01*
X69820515Y-163041572D01*
X70606000Y-163041572D01*
X70606000Y-163165404D01*
X69820515Y-163165404D01*
X69820515Y-163431140D01*
X69715002Y-163431140D01*
X69715002Y-162775836D01*
X69820515Y-162775836D01*
G37*
G36*
X70205955Y-161987078D02*
G01*
X70260738Y-161991990D01*
X70311399Y-162000473D01*
X70363466Y-162014287D01*
X70410511Y-162031827D01*
X70457117Y-162055078D01*
X70497761Y-162082288D01*
X70508791Y-162091224D01*
X70544620Y-162126434D01*
X70575807Y-162169321D01*
X70593787Y-162204552D01*
X70610755Y-162254160D01*
X70619891Y-162305898D01*
X70621631Y-162341572D01*
X70618578Y-162393441D01*
X70608167Y-162445482D01*
X70590368Y-162492270D01*
X70563039Y-162537356D01*
X70527949Y-162576259D01*
X70500242Y-162598760D01*
X70456576Y-162625270D01*
X70411620Y-162644962D01*
X70361655Y-162660456D01*
X70356383Y-162661775D01*
X70306873Y-162671692D01*
X70253962Y-162678364D01*
X70204075Y-162681570D01*
X70164897Y-162682291D01*
X70114152Y-162680947D01*
X70059850Y-162676120D01*
X70009486Y-162667781D01*
X69957535Y-162654203D01*
X69910510Y-162636682D01*
X69863970Y-162613498D01*
X69819719Y-162583478D01*
X69812454Y-162577511D01*
X69776486Y-162542220D01*
X69745214Y-162499441D01*
X69727214Y-162464427D01*
X69710246Y-162414967D01*
X69701110Y-162363310D01*
X69699716Y-162334734D01*
X69804883Y-162334734D01*
X69811055Y-162385230D01*
X69831243Y-162431285D01*
X69832971Y-162433896D01*
X69865822Y-162471754D01*
X69905714Y-162500591D01*
X69908686Y-162502284D01*
X69953753Y-162523008D01*
X70001293Y-162537646D01*
X70021038Y-162542096D01*
X70070383Y-162549984D01*
X70122063Y-162554232D01*
X70157814Y-162555041D01*
X70211078Y-162553598D01*
X70261051Y-162549269D01*
X70303627Y-162542829D01*
X70353986Y-162530410D01*
X70401457Y-162511897D01*
X70416711Y-162503994D01*
X70458599Y-162473708D01*
X70489984Y-162435606D01*
X70509585Y-162389383D01*
X70516093Y-162338396D01*
X70516118Y-162334734D01*
X70510000Y-162284008D01*
X70489987Y-162237709D01*
X70488274Y-162235083D01*
X70455241Y-162196797D01*
X70415288Y-162167671D01*
X70412315Y-162165962D01*
X70367342Y-162144951D01*
X70320056Y-162130297D01*
X70300452Y-162125906D01*
X70251038Y-162117869D01*
X70199152Y-162113541D01*
X70163187Y-162112717D01*
X70110369Y-162114160D01*
X70060726Y-162118489D01*
X70018351Y-162124929D01*
X69967794Y-162137112D01*
X69920109Y-162155732D01*
X69904778Y-162163764D01*
X69864850Y-162192157D01*
X69832671Y-162230015D01*
X69831017Y-162232640D01*
X69811416Y-162279290D01*
X69804908Y-162331011D01*
X69804883Y-162334734D01*
X69699716Y-162334734D01*
X69699370Y-162327651D01*
X69702471Y-162275782D01*
X69713044Y-162223741D01*
X69731122Y-162176953D01*
X69758565Y-162131833D01*
X69793633Y-162092826D01*
X69821247Y-162070219D01*
X69864607Y-162043431D01*
X69909334Y-162023586D01*
X69959117Y-162008034D01*
X69964374Y-162006715D01*
X70013590Y-161996562D01*
X70066168Y-161989731D01*
X70115727Y-161986449D01*
X70154639Y-161985711D01*
X70205955Y-161987078D01*
G37*
G36*
X70606000Y-161368509D02*
G01*
X70316816Y-161502598D01*
X70273448Y-161525725D01*
X70261861Y-161533617D01*
X70227423Y-161567567D01*
X70209105Y-161607378D01*
X70203487Y-161655739D01*
X70203487Y-161713380D01*
X70606000Y-161713380D01*
X70606000Y-161835745D01*
X69715002Y-161835745D01*
X69715002Y-161598097D01*
X69816607Y-161598097D01*
X69816607Y-161713380D01*
X70105790Y-161713380D01*
X70105790Y-161614461D01*
X70102069Y-161563762D01*
X70096265Y-161536548D01*
X70076389Y-161490295D01*
X70067444Y-161477441D01*
X70030607Y-161445169D01*
X70020549Y-161439828D01*
X69971975Y-161427037D01*
X69956558Y-161426394D01*
X69905290Y-161433811D01*
X69860761Y-161460802D01*
X69851533Y-161471335D01*
X69827658Y-161517717D01*
X69817835Y-161568711D01*
X69816607Y-161598097D01*
X69715002Y-161598097D01*
X69715002Y-161595166D01*
X69716993Y-161544030D01*
X69723708Y-161494170D01*
X69731854Y-161460833D01*
X69750605Y-161412393D01*
X69777113Y-161370544D01*
X69778993Y-161368265D01*
X69817006Y-161333703D01*
X69852022Y-161315264D01*
X69899986Y-161302114D01*
X69946544Y-161298411D01*
X69996213Y-161303277D01*
X70024457Y-161310868D01*
X70069703Y-161332371D01*
X70091136Y-161347748D01*
X70125330Y-161382648D01*
X70142915Y-161408076D01*
X70164854Y-161454704D01*
X70175399Y-161490875D01*
X70199614Y-161448037D01*
X70221561Y-161426639D01*
X70262539Y-161398267D01*
X70305602Y-161374385D01*
X70309000Y-161372661D01*
X70606000Y-161230512D01*
X70606000Y-161368509D01*
G37*
X232175255Y-156730819D02*
X232365731Y-156730819D01*
X232365731Y-156730819D02*
X232460969Y-156778438D01*
X232460969Y-156778438D02*
X232556207Y-156873676D01*
X232556207Y-156873676D02*
X232603826Y-157064152D01*
X232603826Y-157064152D02*
X232603826Y-157397485D01*
X232603826Y-157397485D02*
X232556207Y-157587961D01*
X232556207Y-157587961D02*
X232460969Y-157683200D01*
X232460969Y-157683200D02*
X232365731Y-157730819D01*
X232365731Y-157730819D02*
X232175255Y-157730819D01*
X232175255Y-157730819D02*
X232080017Y-157683200D01*
X232080017Y-157683200D02*
X231984779Y-157587961D01*
X231984779Y-157587961D02*
X231937160Y-157397485D01*
X231937160Y-157397485D02*
X231937160Y-157064152D01*
X231937160Y-157064152D02*
X231984779Y-156873676D01*
X231984779Y-156873676D02*
X232080017Y-156778438D01*
X232080017Y-156778438D02*
X232175255Y-156730819D01*
X233032398Y-156730819D02*
X233032398Y-157540342D01*
X233032398Y-157540342D02*
X233080017Y-157635580D01*
X233080017Y-157635580D02*
X233127636Y-157683200D01*
X233127636Y-157683200D02*
X233222874Y-157730819D01*
X233222874Y-157730819D02*
X233413350Y-157730819D01*
X233413350Y-157730819D02*
X233508588Y-157683200D01*
X233508588Y-157683200D02*
X233556207Y-157635580D01*
X233556207Y-157635580D02*
X233603826Y-157540342D01*
X233603826Y-157540342D02*
X233603826Y-156730819D01*
X233937160Y-156730819D02*
X234508588Y-156730819D01*
X234222874Y-157730819D02*
X234222874Y-156730819D01*
X206140207Y-147062819D02*
X205806874Y-146586628D01*
X205568779Y-147062819D02*
X205568779Y-146062819D01*
X205568779Y-146062819D02*
X205949731Y-146062819D01*
X205949731Y-146062819D02*
X206044969Y-146110438D01*
X206044969Y-146110438D02*
X206092588Y-146158057D01*
X206092588Y-146158057D02*
X206140207Y-146253295D01*
X206140207Y-146253295D02*
X206140207Y-146396152D01*
X206140207Y-146396152D02*
X206092588Y-146491390D01*
X206092588Y-146491390D02*
X206044969Y-146539009D01*
X206044969Y-146539009D02*
X205949731Y-146586628D01*
X205949731Y-146586628D02*
X205568779Y-146586628D01*
X206949731Y-147015200D02*
X206854493Y-147062819D01*
X206854493Y-147062819D02*
X206664017Y-147062819D01*
X206664017Y-147062819D02*
X206568779Y-147015200D01*
X206568779Y-147015200D02*
X206521160Y-146919961D01*
X206521160Y-146919961D02*
X206521160Y-146539009D01*
X206521160Y-146539009D02*
X206568779Y-146443771D01*
X206568779Y-146443771D02*
X206664017Y-146396152D01*
X206664017Y-146396152D02*
X206854493Y-146396152D01*
X206854493Y-146396152D02*
X206949731Y-146443771D01*
X206949731Y-146443771D02*
X206997350Y-146539009D01*
X206997350Y-146539009D02*
X206997350Y-146634247D01*
X206997350Y-146634247D02*
X206521160Y-146729485D01*
X207854493Y-146396152D02*
X207854493Y-147205676D01*
X207854493Y-147205676D02*
X207806874Y-147300914D01*
X207806874Y-147300914D02*
X207759255Y-147348533D01*
X207759255Y-147348533D02*
X207664017Y-147396152D01*
X207664017Y-147396152D02*
X207521160Y-147396152D01*
X207521160Y-147396152D02*
X207425922Y-147348533D01*
X207854493Y-147015200D02*
X207759255Y-147062819D01*
X207759255Y-147062819D02*
X207568779Y-147062819D01*
X207568779Y-147062819D02*
X207473541Y-147015200D01*
X207473541Y-147015200D02*
X207425922Y-146967580D01*
X207425922Y-146967580D02*
X207378303Y-146872342D01*
X207378303Y-146872342D02*
X207378303Y-146586628D01*
X207378303Y-146586628D02*
X207425922Y-146491390D01*
X207425922Y-146491390D02*
X207473541Y-146443771D01*
X207473541Y-146443771D02*
X207568779Y-146396152D01*
X207568779Y-146396152D02*
X207759255Y-146396152D01*
X207759255Y-146396152D02*
X207854493Y-146443771D01*
X209616398Y-147062819D02*
X209044970Y-147062819D01*
X209330684Y-147062819D02*
X209330684Y-146062819D01*
X209330684Y-146062819D02*
X209235446Y-146205676D01*
X209235446Y-146205676D02*
X209140208Y-146300914D01*
X209140208Y-146300914D02*
X209044970Y-146348533D01*
X209997351Y-146158057D02*
X210044970Y-146110438D01*
X210044970Y-146110438D02*
X210140208Y-146062819D01*
X210140208Y-146062819D02*
X210378303Y-146062819D01*
X210378303Y-146062819D02*
X210473541Y-146110438D01*
X210473541Y-146110438D02*
X210521160Y-146158057D01*
X210521160Y-146158057D02*
X210568779Y-146253295D01*
X210568779Y-146253295D02*
X210568779Y-146348533D01*
X210568779Y-146348533D02*
X210521160Y-146491390D01*
X210521160Y-146491390D02*
X209949732Y-147062819D01*
X209949732Y-147062819D02*
X210568779Y-147062819D01*
X210854494Y-146062819D02*
X211187827Y-147062819D01*
X211187827Y-147062819D02*
X211521160Y-146062819D01*
G36*
X53856000Y-164335571D02*
G01*
X53856000Y-164927127D01*
X53749510Y-164927127D01*
X53519433Y-164694852D01*
X53482601Y-164658099D01*
X53446503Y-164623799D01*
X53422224Y-164602040D01*
X53382962Y-164570349D01*
X53347242Y-164546597D01*
X53302408Y-164525292D01*
X53283250Y-164519730D01*
X53233328Y-164513219D01*
X53218281Y-164512891D01*
X53168932Y-164518407D01*
X53155755Y-164521928D01*
X53110688Y-164543721D01*
X53103487Y-164549284D01*
X53072112Y-164588432D01*
X53067828Y-164597399D01*
X53055907Y-164645714D01*
X53054883Y-164667986D01*
X53060625Y-164719259D01*
X53077852Y-164765916D01*
X53081017Y-164771789D01*
X53108899Y-164813860D01*
X53143542Y-164852604D01*
X53148672Y-164857518D01*
X53068805Y-164923464D01*
X53034096Y-164886719D01*
X53004524Y-164846337D01*
X52982099Y-164806471D01*
X52963465Y-164758397D01*
X52953237Y-164710236D01*
X52949402Y-164657828D01*
X52949370Y-164652354D01*
X52952783Y-164602051D01*
X52964013Y-164552721D01*
X52967200Y-164543422D01*
X52988937Y-164497687D01*
X53018491Y-164458669D01*
X53055738Y-164426857D01*
X53100556Y-164403226D01*
X53148860Y-164389201D01*
X53198882Y-164383859D01*
X53210221Y-164383687D01*
X53259681Y-164387106D01*
X53305476Y-164397364D01*
X53351859Y-164415895D01*
X53392671Y-164438886D01*
X53434127Y-164468156D01*
X53474077Y-164501187D01*
X53482796Y-164508983D01*
X53518872Y-164542838D01*
X53554174Y-164577673D01*
X53584646Y-164608879D01*
X53742671Y-164771789D01*
X53742671Y-164335571D01*
X53856000Y-164335571D01*
G37*
G36*
X53652789Y-163675138D02*
G01*
X53856000Y-163675138D01*
X53856000Y-163797504D01*
X53652789Y-163797504D01*
X53652789Y-164229570D01*
X53547277Y-164229570D01*
X52965002Y-163846841D01*
X52965002Y-163797504D01*
X53078575Y-163797504D01*
X53547277Y-164110135D01*
X53547277Y-163797504D01*
X53078575Y-163797504D01*
X52965002Y-163797504D01*
X52965002Y-163675138D01*
X53547277Y-163675138D01*
X53547277Y-163521998D01*
X53652789Y-163521998D01*
X53652789Y-163675138D01*
G37*
G36*
X52965002Y-161950540D02*
G01*
X53856000Y-162255599D01*
X53856000Y-162420463D01*
X52965002Y-162718683D01*
X52965002Y-162580442D01*
X53565595Y-162386757D01*
X53741450Y-162331803D01*
X53565595Y-162275627D01*
X52965002Y-162081210D01*
X52965002Y-161950540D01*
G37*
G36*
X53451837Y-161230699D02*
G01*
X53501170Y-161235657D01*
X53523341Y-161239060D01*
X53573089Y-161250113D01*
X53619752Y-161265748D01*
X53632517Y-161271056D01*
X53677701Y-161294562D01*
X53718913Y-161323864D01*
X53724108Y-161328209D01*
X53760176Y-161364441D01*
X53789094Y-161404552D01*
X53794695Y-161413938D01*
X53816332Y-161457956D01*
X53833615Y-161507456D01*
X53840124Y-161532152D01*
X53849162Y-161580551D01*
X53854449Y-161633395D01*
X53856000Y-161685292D01*
X53856000Y-161877511D01*
X52965002Y-161877511D01*
X52965002Y-161650121D01*
X53066607Y-161650121D01*
X53066607Y-161755390D01*
X53750487Y-161755390D01*
X53750487Y-161664043D01*
X53747483Y-161609263D01*
X53738474Y-161559872D01*
X53717118Y-161502399D01*
X53685084Y-161454504D01*
X53642372Y-161416189D01*
X53588982Y-161387452D01*
X53541932Y-161372186D01*
X53488876Y-161362307D01*
X53429813Y-161357817D01*
X53408791Y-161357518D01*
X53357803Y-161358948D01*
X53306589Y-161363890D01*
X53256864Y-161373403D01*
X53248568Y-161375592D01*
X53199576Y-161393142D01*
X53156192Y-161418895D01*
X53143055Y-161429814D01*
X53110157Y-161468010D01*
X53087027Y-161514364D01*
X53084681Y-161521161D01*
X53072978Y-161568955D01*
X53067471Y-161618655D01*
X53066607Y-161650121D01*
X52965002Y-161650121D01*
X52965002Y-161646213D01*
X52966681Y-161595311D01*
X52973502Y-161536385D01*
X52985571Y-161482683D01*
X53002888Y-161434204D01*
X53030594Y-161382924D01*
X53065857Y-161339167D01*
X53072468Y-161332605D01*
X53116678Y-161297411D01*
X53159633Y-161273645D01*
X53208145Y-161254936D01*
X53262215Y-161241283D01*
X53321842Y-161232687D01*
X53373545Y-161229451D01*
X53400731Y-161229046D01*
X53451837Y-161230699D01*
G37*
G36*
X53832552Y-160500226D02*
G01*
X53847779Y-160547852D01*
X53859266Y-160596483D01*
X53867013Y-160646119D01*
X53871020Y-160696761D01*
X53871631Y-160726150D01*
X53868852Y-160783455D01*
X53860516Y-160836455D01*
X53846622Y-160885150D01*
X53822614Y-160937901D01*
X53790603Y-160984452D01*
X53757814Y-161018509D01*
X53711203Y-161053122D01*
X53666496Y-161076495D01*
X53616458Y-161094896D01*
X53561090Y-161108323D01*
X53500391Y-161116778D01*
X53447993Y-161119960D01*
X53420515Y-161120358D01*
X53367712Y-161118603D01*
X53317505Y-161113336D01*
X53264124Y-161103215D01*
X53224876Y-161092270D01*
X53177797Y-161074558D01*
X53130428Y-161050391D01*
X53088258Y-161021502D01*
X53076621Y-161011914D01*
X53041201Y-160977124D01*
X53011267Y-160938088D01*
X52986818Y-160894807D01*
X52982587Y-160885641D01*
X52965070Y-160837493D01*
X52954041Y-160785864D01*
X52949662Y-160736420D01*
X52949370Y-160719311D01*
X52951426Y-160670000D01*
X52958238Y-160620232D01*
X52961826Y-160603296D01*
X52976456Y-160553887D01*
X52996989Y-160506410D01*
X53000173Y-160500226D01*
X53121317Y-160500226D01*
X53097408Y-160543456D01*
X53078016Y-160591330D01*
X53074911Y-160601098D01*
X53063340Y-160652192D01*
X53058933Y-160703657D01*
X53058791Y-160715159D01*
X53062701Y-160764582D01*
X53075657Y-160813389D01*
X53082482Y-160829709D01*
X53109416Y-160874185D01*
X53143076Y-160909594D01*
X53151359Y-160916415D01*
X53194682Y-160944485D01*
X53241693Y-160964941D01*
X53261512Y-160971370D01*
X53312815Y-160983128D01*
X53364368Y-160989139D01*
X53409768Y-160990665D01*
X53462318Y-160988936D01*
X53519837Y-160982296D01*
X53571312Y-160970675D01*
X53623725Y-160950823D01*
X53667910Y-160924193D01*
X53673550Y-160919835D01*
X53712339Y-160880313D01*
X53740045Y-160832579D01*
X53755197Y-160784075D01*
X53761864Y-160729282D01*
X53762210Y-160712473D01*
X53759873Y-160662805D01*
X53752181Y-160611768D01*
X53749998Y-160601831D01*
X53736174Y-160553108D01*
X53718056Y-160506318D01*
X53715316Y-160500226D01*
X53832552Y-160500226D01*
G37*
G36*
X53066607Y-159321021D02*
G01*
X53066607Y-159527651D01*
X52965002Y-159527651D01*
X52965002Y-158990561D01*
X53066607Y-158990561D01*
X53066607Y-159197190D01*
X53750487Y-159197190D01*
X53750487Y-158990561D01*
X53856000Y-158990561D01*
X53856000Y-159527651D01*
X53750487Y-159527651D01*
X53750487Y-159321021D01*
X53066607Y-159321021D01*
G37*
G36*
X53856000Y-158184559D02*
G01*
X53856000Y-158343806D01*
X53300103Y-158605634D01*
X53121317Y-158681105D01*
X53570968Y-158681105D01*
X53856000Y-158681105D01*
X53856000Y-158795166D01*
X52965002Y-158795166D01*
X52965002Y-158637874D01*
X53494520Y-158388502D01*
X53699684Y-158298621D01*
X53219503Y-158298621D01*
X52965002Y-158298621D01*
X52965002Y-158184559D01*
X53856000Y-158184559D01*
G37*
X192440160Y-152127057D02*
X192487779Y-152079438D01*
X192487779Y-152079438D02*
X192583017Y-152031819D01*
X192583017Y-152031819D02*
X192821112Y-152031819D01*
X192821112Y-152031819D02*
X192916350Y-152079438D01*
X192916350Y-152079438D02*
X192963969Y-152127057D01*
X192963969Y-152127057D02*
X193011588Y-152222295D01*
X193011588Y-152222295D02*
X193011588Y-152317533D01*
X193011588Y-152317533D02*
X192963969Y-152460390D01*
X192963969Y-152460390D02*
X192392541Y-153031819D01*
X192392541Y-153031819D02*
X193011588Y-153031819D01*
X193868731Y-152365152D02*
X193868731Y-153031819D01*
X193630636Y-151984200D02*
X193392541Y-152698485D01*
X193392541Y-152698485D02*
X194011588Y-152698485D01*
X194249684Y-152031819D02*
X194583017Y-153031819D01*
X194583017Y-153031819D02*
X194916350Y-152031819D01*
X196011589Y-153031819D02*
X196011589Y-152031819D01*
X196487779Y-152365152D02*
X196487779Y-153031819D01*
X196487779Y-152460390D02*
X196535398Y-152412771D01*
X196535398Y-152412771D02*
X196630636Y-152365152D01*
X196630636Y-152365152D02*
X196773493Y-152365152D01*
X196773493Y-152365152D02*
X196868731Y-152412771D01*
X196868731Y-152412771D02*
X196916350Y-152508009D01*
X196916350Y-152508009D02*
X196916350Y-153031819D01*
X198583779Y-127139819D02*
X198583779Y-127949342D01*
X198583779Y-127949342D02*
X198631398Y-128044580D01*
X198631398Y-128044580D02*
X198679017Y-128092200D01*
X198679017Y-128092200D02*
X198774255Y-128139819D01*
X198774255Y-128139819D02*
X198964731Y-128139819D01*
X198964731Y-128139819D02*
X199059969Y-128092200D01*
X199059969Y-128092200D02*
X199107588Y-128044580D01*
X199107588Y-128044580D02*
X199155207Y-127949342D01*
X199155207Y-127949342D02*
X199155207Y-127139819D01*
X256146541Y-126377819D02*
X256384636Y-127377819D01*
X256384636Y-127377819D02*
X256575112Y-126663533D01*
X256575112Y-126663533D02*
X256765588Y-127377819D01*
X256765588Y-127377819D02*
X257003684Y-126377819D01*
D11*
%TO.C,C29*%
X72816000Y-124443000D02*
X74016000Y-124443000D01*
X72816000Y-127898563D02*
X72816000Y-124443000D01*
X73266000Y-129453000D02*
X73766000Y-129453000D01*
X73516000Y-129703000D02*
X73516000Y-129203000D01*
X73880437Y-128963000D02*
X72816000Y-127898563D01*
X73880437Y-128963000D02*
X74016000Y-128963000D01*
X76271563Y-128963000D02*
X76136000Y-128963000D01*
X76271563Y-128963000D02*
X77336000Y-127898563D01*
X77336000Y-124443000D02*
X76136000Y-124443000D01*
X77336000Y-127898563D02*
X77336000Y-124443000D01*
%TO.C,D8*%
X51276000Y-123668000D02*
X51276000Y-127678000D01*
X53276000Y-123668000D02*
X51276000Y-123668000D01*
X53276000Y-123668000D02*
X53276000Y-127678000D01*
%TO.C,D6*%
X60036000Y-147128000D02*
X54526000Y-147128000D01*
X60036000Y-150428000D02*
X54526000Y-150428000D01*
X60036000Y-150428000D02*
X60036000Y-147128000D01*
%TO.C,C27*%
X78716000Y-131352437D02*
X78716000Y-134808000D01*
X78716000Y-134808000D02*
X79916000Y-134808000D01*
X79780437Y-130288000D02*
X78716000Y-131352437D01*
X79780437Y-130288000D02*
X79916000Y-130288000D01*
X82171563Y-130288000D02*
X82036000Y-130288000D01*
X82171563Y-130288000D02*
X83236000Y-131352437D01*
X82536000Y-129548000D02*
X82536000Y-130048000D01*
X82786000Y-129798000D02*
X82286000Y-129798000D01*
X83236000Y-131352437D02*
X83236000Y-134808000D01*
X83236000Y-134808000D02*
X82036000Y-134808000D01*
%TO.C,R7*%
X137013258Y-124255500D02*
X136538742Y-124255500D01*
X137013258Y-125300500D02*
X136538742Y-125300500D01*
%TO.C,R30*%
X104703064Y-120568000D02*
X104248936Y-120568000D01*
X104703064Y-122038000D02*
X104248936Y-122038000D01*
%TO.C,R17*%
X135878500Y-152302758D02*
X135878500Y-151828242D01*
X136923500Y-152302758D02*
X136923500Y-151828242D01*
%TO.C,C2*%
X54885420Y-120518000D02*
X55166580Y-120518000D01*
X54885420Y-121538000D02*
X55166580Y-121538000D01*
%TO.C,R37*%
X78438258Y-122880500D02*
X77963742Y-122880500D01*
X78438258Y-123925500D02*
X77963742Y-123925500D01*
%TO.C,U9*%
X126716000Y-124478000D02*
X126716000Y-123678000D01*
X126716000Y-124478000D02*
X126716000Y-125278000D01*
X129836000Y-124478000D02*
X129836000Y-123678000D01*
X129836000Y-124478000D02*
X129836000Y-125278000D01*
X130116000Y-123418000D02*
X129786000Y-123178000D01*
X130116000Y-122938000D01*
X130116000Y-123418000D01*
G36*
X130116000Y-123418000D02*
G01*
X129786000Y-123178000D01*
X130116000Y-122938000D01*
X130116000Y-123418000D01*
G37*
%TO.C,R35*%
X128603500Y-119865258D02*
X128603500Y-119390742D01*
X129648500Y-119865258D02*
X129648500Y-119390742D01*
%TO.C,J4*%
X89216000Y-158618000D02*
X89216000Y-166438000D01*
X89216000Y-160218000D02*
X90136000Y-160218000D01*
X89216000Y-166438000D02*
X101336000Y-166438000D01*
X89976000Y-162578000D02*
X89976000Y-164178000D01*
X89976000Y-164178000D02*
X90976000Y-164178000D01*
X90136000Y-158618000D02*
X89216000Y-158618000D01*
X90136000Y-160218000D02*
X90136000Y-158618000D01*
X90416000Y-160218000D02*
X90136000Y-160218000D01*
X90416000Y-160218000D02*
X90416000Y-159003000D01*
X90476000Y-164178000D02*
X90476000Y-166438000D01*
X90976000Y-162578000D02*
X89976000Y-162578000D01*
X90976000Y-164178000D02*
X90976000Y-162578000D01*
X90976000Y-164178000D02*
X90976000Y-166438000D01*
X91776000Y-162078000D02*
X98776000Y-162078000D01*
X91776000Y-166438000D02*
X91776000Y-162078000D01*
X98776000Y-162078000D02*
X98776000Y-166438000D01*
X99576000Y-162578000D02*
X100576000Y-162578000D01*
X99576000Y-164178000D02*
X99576000Y-162578000D01*
X100416000Y-158618000D02*
X100416000Y-160218000D01*
X100416000Y-160218000D02*
X100136000Y-160218000D01*
X100576000Y-162578000D02*
X100576000Y-164178000D01*
X100576000Y-164178000D02*
X99576000Y-164178000D01*
X101336000Y-158618000D02*
X100416000Y-158618000D01*
X101336000Y-160218000D02*
X100416000Y-160218000D01*
X101336000Y-166438000D02*
X101336000Y-158618000D01*
%TO.C,D15*%
X110876000Y-158053000D02*
X112176000Y-158053000D01*
X110876000Y-159853000D02*
X112176000Y-159853000D01*
D10*
X112851000Y-159463000D02*
G75*
G02*
X112701000Y-159463000I-75000J0D01*
G01*
X112701000Y-159463000D02*
G75*
G02*
X112851000Y-159463000I75000J0D01*
G01*
D11*
%TO.C,C6*%
X130516000Y-121643000D02*
X131716000Y-121643000D01*
X130516000Y-125098563D02*
X130516000Y-121643000D01*
X130966000Y-126653000D02*
X131466000Y-126653000D01*
X131216000Y-126903000D02*
X131216000Y-126403000D01*
X131580437Y-126163000D02*
X130516000Y-125098563D01*
X131580437Y-126163000D02*
X131716000Y-126163000D01*
X133971563Y-126163000D02*
X133836000Y-126163000D01*
X133971563Y-126163000D02*
X135036000Y-125098563D01*
X135036000Y-121643000D02*
X133836000Y-121643000D01*
X135036000Y-125098563D02*
X135036000Y-121643000D01*
%TO.C,SW2*%
X105121000Y-139098000D02*
X111581000Y-139098000D01*
X105121000Y-139128000D02*
X105121000Y-139098000D01*
X105121000Y-141028000D02*
X105121000Y-143628000D01*
X105121000Y-145558000D02*
X105121000Y-145528000D01*
X105121000Y-145558000D02*
X111581000Y-145558000D01*
X111581000Y-139098000D02*
X111581000Y-139128000D01*
X111581000Y-141028000D02*
X111581000Y-143628000D01*
X111581000Y-145558000D02*
X111581000Y-145528000D01*
%TO.C,J2*%
X125196000Y-160868000D02*
X125196000Y-162788000D01*
X125196000Y-166503000D02*
X125196000Y-164798000D01*
X134356000Y-162788000D02*
X134356000Y-160868000D01*
X134356000Y-164798000D02*
X134356000Y-166503000D01*
X134356000Y-166503000D02*
X125196000Y-166503000D01*
%TO.C,D16*%
X103926000Y-157878000D02*
X102626000Y-157878000D01*
X103926000Y-159678000D02*
X102626000Y-159678000D01*
D10*
X102101000Y-158268000D02*
G75*
G02*
X101951000Y-158268000I-75000J0D01*
G01*
X101951000Y-158268000D02*
G75*
G02*
X102101000Y-158268000I75000J0D01*
G01*
D11*
%TO.C,D2*%
X136891000Y-128003000D02*
X136891000Y-130688000D01*
X136891000Y-130688000D02*
X138811000Y-130688000D01*
X138811000Y-130688000D02*
X138811000Y-128003000D01*
%TO.C,C9*%
X123736580Y-148798000D02*
X123455420Y-148798000D01*
X123736580Y-149818000D02*
X123455420Y-149818000D01*
%TO.C,C32*%
X86966000Y-136082420D02*
X86966000Y-136363580D01*
X87986000Y-136082420D02*
X87986000Y-136363580D01*
%TO.C,Q4*%
X85856000Y-115473000D02*
X85856000Y-120114000D01*
X85856000Y-115473000D02*
X96096000Y-115473000D01*
X85856000Y-116983000D02*
X96096000Y-116983000D01*
X85856000Y-120114000D02*
X96096000Y-120114000D01*
X89126000Y-115473000D02*
X89126000Y-116983000D01*
X92827000Y-115473000D02*
X92827000Y-116983000D01*
X96096000Y-115473000D02*
X96096000Y-120114000D01*
%TO.C,C12*%
X104685420Y-136118000D02*
X104966580Y-136118000D01*
X104685420Y-137138000D02*
X104966580Y-137138000D01*
%TO.C,R28*%
X93766000Y-122120936D02*
X93766000Y-126475064D01*
X97186000Y-122120936D02*
X97186000Y-126475064D01*
%TO.C,C11*%
X123016000Y-138918580D02*
X123016000Y-138637420D01*
X124036000Y-138918580D02*
X124036000Y-138637420D01*
%TO.C,D17*%
X103926000Y-160128000D02*
X102626000Y-160128000D01*
X103926000Y-161928000D02*
X102626000Y-161928000D01*
D10*
X102101000Y-160518000D02*
G75*
G02*
X101951000Y-160518000I-75000J0D01*
G01*
X101951000Y-160518000D02*
G75*
G02*
X102101000Y-160518000I75000J0D01*
G01*
D11*
%TO.C,R3*%
X139003500Y-122040742D02*
X139003500Y-122515258D01*
X140048500Y-122040742D02*
X140048500Y-122515258D01*
%TO.C,R32*%
X116955564Y-120598000D02*
X116501436Y-120598000D01*
X116955564Y-122068000D02*
X116501436Y-122068000D01*
%TO.C,U7*%
X97641000Y-125028000D02*
X97641000Y-124228000D01*
X97641000Y-125028000D02*
X97641000Y-125828000D01*
X100761000Y-125028000D02*
X100761000Y-124228000D01*
X100761000Y-125028000D02*
X100761000Y-125828000D01*
X101041000Y-123968000D02*
X100711000Y-123728000D01*
X101041000Y-123488000D01*
X101041000Y-123968000D01*
G36*
X101041000Y-123968000D02*
G01*
X100711000Y-123728000D01*
X101041000Y-123488000D01*
X101041000Y-123968000D01*
G37*
%TO.C,F1*%
D12*
X67926000Y-155678000D02*
X53126000Y-155678000D01*
X53126000Y-150878000D01*
X67926000Y-150878000D01*
X67926000Y-155678000D01*
D11*
%TO.C,C23*%
X61776000Y-129218000D02*
X62276000Y-129218000D01*
X62026000Y-128968000D02*
X62026000Y-129468000D01*
X62516000Y-129582437D02*
X62516000Y-129718000D01*
X62516000Y-129582437D02*
X63580437Y-128518000D01*
X62516000Y-131973563D02*
X62516000Y-131838000D01*
X62516000Y-131973563D02*
X63580437Y-133038000D01*
X63580437Y-128518000D02*
X67036000Y-128518000D01*
X63580437Y-133038000D02*
X67036000Y-133038000D01*
X67036000Y-128518000D02*
X67036000Y-129718000D01*
X67036000Y-133038000D02*
X67036000Y-131838000D01*
%TO.C,C26*%
X70360420Y-129268000D02*
X70641580Y-129268000D01*
X70360420Y-130288000D02*
X70641580Y-130288000D01*
%TO.C,D1*%
X129376000Y-155605500D02*
X129376000Y-156905500D01*
X131176000Y-155605500D02*
X131176000Y-156905500D01*
D10*
X129841000Y-157505500D02*
G75*
G02*
X129691000Y-157505500I-75000J0D01*
G01*
X129691000Y-157505500D02*
G75*
G02*
X129841000Y-157505500I75000J0D01*
G01*
D11*
%TO.C,R15*%
X92753500Y-156690258D02*
X92753500Y-156215742D01*
X93798500Y-156690258D02*
X93798500Y-156215742D01*
%TO.C,U2*%
X133406000Y-115453000D02*
X133406000Y-120094000D01*
X133406000Y-115453000D02*
X143646000Y-115453000D01*
X133406000Y-116963000D02*
X143646000Y-116963000D01*
X133406000Y-120094000D02*
X143646000Y-120094000D01*
X136676000Y-115453000D02*
X136676000Y-116963000D01*
X140377000Y-115453000D02*
X140377000Y-116963000D01*
X143646000Y-115453000D02*
X143646000Y-120094000D01*
%TO.C,C10*%
X134805420Y-141998000D02*
X135086580Y-141998000D01*
X134805420Y-143018000D02*
X135086580Y-143018000D01*
%TO.C,R12*%
X130623500Y-153050742D02*
X130623500Y-153525258D01*
X131668500Y-153050742D02*
X131668500Y-153525258D01*
%TO.C,C19*%
X138766000Y-140518000D02*
X139966000Y-140518000D01*
X138766000Y-143973563D02*
X138766000Y-140518000D01*
X139216000Y-145528000D02*
X139716000Y-145528000D01*
X139466000Y-145778000D02*
X139466000Y-145278000D01*
X139830437Y-145038000D02*
X138766000Y-143973563D01*
X139830437Y-145038000D02*
X139966000Y-145038000D01*
X142221563Y-145038000D02*
X142086000Y-145038000D01*
X142221563Y-145038000D02*
X143286000Y-143973563D01*
X143286000Y-140518000D02*
X142086000Y-140518000D01*
X143286000Y-143973563D02*
X143286000Y-140518000D01*
%TO.C,C42*%
X112635420Y-120568000D02*
X112916580Y-120568000D01*
X112635420Y-121588000D02*
X112916580Y-121588000D01*
%TO.C,R26*%
X87865564Y-120563000D02*
X87411436Y-120563000D01*
X87865564Y-122033000D02*
X87411436Y-122033000D01*
%TO.C,D21*%
X72836000Y-115828000D02*
X68826000Y-115828000D01*
X72836000Y-117828000D02*
X68826000Y-117828000D01*
X72836000Y-117828000D02*
X72836000Y-115828000D01*
%TO.C,D23*%
X130086000Y-115928000D02*
X126076000Y-115928000D01*
X130086000Y-117928000D02*
X126076000Y-117928000D01*
X130086000Y-117928000D02*
X130086000Y-115928000D01*
%TO.C,R18*%
X47203064Y-120693000D02*
X46748936Y-120693000D01*
X47203064Y-122163000D02*
X46748936Y-122163000D01*
%TO.C,C8*%
X133355420Y-150323000D02*
X133636580Y-150323000D01*
X133355420Y-151343000D02*
X133636580Y-151343000D01*
%TO.C,C45*%
X131116000Y-117562420D02*
X131116000Y-117843580D01*
X132136000Y-117562420D02*
X132136000Y-117843580D01*
%TO.C,C41*%
X83610420Y-120568000D02*
X83891580Y-120568000D01*
X83610420Y-121588000D02*
X83891580Y-121588000D01*
%TO.C,D12*%
X109066000Y-123723000D02*
X109066000Y-127733000D01*
X111066000Y-123723000D02*
X109066000Y-123723000D01*
X111066000Y-123723000D02*
X111066000Y-127733000D01*
%TO.C,D18*%
X53436000Y-120478000D02*
X49426000Y-120478000D01*
X53436000Y-122478000D02*
X49426000Y-122478000D01*
X53436000Y-122478000D02*
X53436000Y-120478000D01*
%TO.C,C17*%
X120716580Y-148793000D02*
X120435420Y-148793000D01*
X120716580Y-149813000D02*
X120435420Y-149813000D01*
%TO.C,U3*%
X125661000Y-142298000D02*
X126136000Y-142298000D01*
X125661000Y-142773000D02*
X125661000Y-142298000D01*
X125661000Y-149043000D02*
X125661000Y-149518000D01*
X125661000Y-149518000D02*
X126136000Y-149518000D01*
X132406000Y-142298000D02*
X132641000Y-142298000D01*
X132881000Y-142773000D02*
X132881000Y-142598000D01*
X132881000Y-149043000D02*
X132881000Y-149518000D01*
X132881000Y-149518000D02*
X132406000Y-149518000D01*
X133211000Y-142538000D02*
X132881000Y-142298000D01*
X133211000Y-142058000D01*
X133211000Y-142538000D01*
G36*
X133211000Y-142538000D02*
G01*
X132881000Y-142298000D01*
X133211000Y-142058000D01*
X133211000Y-142538000D01*
G37*
%TO.C,R23*%
X70238742Y-121505500D02*
X70713258Y-121505500D01*
X70238742Y-122550500D02*
X70713258Y-122550500D01*
%TO.C,C43*%
X70335420Y-119918000D02*
X70616580Y-119918000D01*
X70335420Y-120938000D02*
X70616580Y-120938000D01*
%TO.C,D19*%
X82136000Y-120483000D02*
X78126000Y-120483000D01*
X82136000Y-122483000D02*
X78126000Y-122483000D01*
X82136000Y-122483000D02*
X82136000Y-120483000D01*
%TO.C,C40*%
X128135420Y-128818000D02*
X128416580Y-128818000D01*
X128135420Y-129838000D02*
X128416580Y-129838000D01*
%TO.C,C3*%
X131041000Y-127568000D02*
X131041000Y-128768000D01*
X131041000Y-132088000D02*
X131041000Y-130888000D01*
X134496563Y-127568000D02*
X131041000Y-127568000D01*
X134496563Y-132088000D02*
X131041000Y-132088000D01*
X135561000Y-128632437D02*
X134496563Y-127568000D01*
X135561000Y-128632437D02*
X135561000Y-128768000D01*
X135561000Y-131023563D02*
X134496563Y-132088000D01*
X135561000Y-131023563D02*
X135561000Y-130888000D01*
X136051000Y-131638000D02*
X136051000Y-131138000D01*
X136301000Y-131388000D02*
X135801000Y-131388000D01*
%TO.C,R14*%
X94753500Y-156690258D02*
X94753500Y-156215742D01*
X95798500Y-156690258D02*
X95798500Y-156215742D01*
%TO.C,U4*%
X53716000Y-126028000D02*
X53716000Y-124078000D01*
X53716000Y-126028000D02*
X53716000Y-127978000D01*
X58836000Y-126028000D02*
X58836000Y-124078000D01*
X58836000Y-126028000D02*
X58836000Y-127978000D01*
X53811000Y-128728000D02*
X53481000Y-128968000D01*
X53481000Y-128488000D01*
X53811000Y-128728000D01*
G36*
X53811000Y-128728000D02*
G01*
X53481000Y-128968000D01*
X53481000Y-128488000D01*
X53811000Y-128728000D01*
G37*
%TO.C,D20*%
X111186000Y-120528000D02*
X107176000Y-120528000D01*
X111186000Y-122528000D02*
X107176000Y-122528000D01*
X111186000Y-122528000D02*
X111186000Y-120528000D01*
%TO.C,R25*%
X88063742Y-133200500D02*
X88538258Y-133200500D01*
X88063742Y-134245500D02*
X88538258Y-134245500D01*
%TO.C,C5*%
X139266000Y-126832437D02*
X139266000Y-130288000D01*
X139266000Y-130288000D02*
X140466000Y-130288000D01*
X140330437Y-125768000D02*
X139266000Y-126832437D01*
X140330437Y-125768000D02*
X140466000Y-125768000D01*
X142721563Y-125768000D02*
X142586000Y-125768000D01*
X142721563Y-125768000D02*
X143786000Y-126832437D01*
X143086000Y-125028000D02*
X143086000Y-125528000D01*
X143336000Y-125278000D02*
X142836000Y-125278000D01*
X143786000Y-126832437D02*
X143786000Y-130288000D01*
X143786000Y-130288000D02*
X142586000Y-130288000D01*
%TO.C,C30*%
X90476000Y-129238000D02*
X90976000Y-129238000D01*
X90726000Y-128988000D02*
X90726000Y-129488000D01*
X91216000Y-129602437D02*
X91216000Y-129738000D01*
X91216000Y-129602437D02*
X92280437Y-128538000D01*
X91216000Y-131993563D02*
X91216000Y-131858000D01*
X91216000Y-131993563D02*
X92280437Y-133058000D01*
X92280437Y-128538000D02*
X95736000Y-128538000D01*
X92280437Y-133058000D02*
X95736000Y-133058000D01*
X95736000Y-128538000D02*
X95736000Y-129738000D01*
X95736000Y-133058000D02*
X95736000Y-131858000D01*
%TO.C,U1*%
X136666000Y-131668000D02*
X139386000Y-131668000D01*
X136666000Y-132648000D02*
X136666000Y-131668000D01*
X136666000Y-135408000D02*
X136666000Y-136388000D01*
X139246000Y-136388000D02*
X136666000Y-136388000D01*
X140036000Y-136568000D02*
X139556000Y-136568000D01*
X139796000Y-136238000D01*
X140036000Y-136568000D01*
G36*
X140036000Y-136568000D02*
G01*
X139556000Y-136568000D01*
X139796000Y-136238000D01*
X140036000Y-136568000D01*
G37*
%TO.C,R33*%
X116043500Y-131095742D02*
X116043500Y-131570258D01*
X117088500Y-131095742D02*
X117088500Y-131570258D01*
%TO.C,R22*%
X65066000Y-122100936D02*
X65066000Y-126455064D01*
X68486000Y-122100936D02*
X68486000Y-126455064D01*
%TO.C,Q3*%
X73856000Y-115473000D02*
X73856000Y-120114000D01*
X73856000Y-115473000D02*
X84096000Y-115473000D01*
X73856000Y-116983000D02*
X84096000Y-116983000D01*
X73856000Y-120114000D02*
X84096000Y-120114000D01*
X77126000Y-115473000D02*
X77126000Y-116983000D01*
X80827000Y-115473000D02*
X80827000Y-116983000D01*
X84096000Y-115473000D02*
X84096000Y-120114000D01*
%TO.C,C20*%
X50016000Y-131332437D02*
X50016000Y-134788000D01*
X50016000Y-134788000D02*
X51216000Y-134788000D01*
X51080437Y-130268000D02*
X50016000Y-131332437D01*
X51080437Y-130268000D02*
X51216000Y-130268000D01*
X53471563Y-130268000D02*
X53336000Y-130268000D01*
X53471563Y-130268000D02*
X54536000Y-131332437D01*
X53836000Y-129528000D02*
X53836000Y-130028000D01*
X54086000Y-129778000D02*
X53586000Y-129778000D01*
X54536000Y-131332437D02*
X54536000Y-134788000D01*
X54536000Y-134788000D02*
X53336000Y-134788000D01*
%TO.C,D22*%
X101561000Y-115853000D02*
X97551000Y-115853000D01*
X101561000Y-117853000D02*
X97551000Y-117853000D01*
X101561000Y-117853000D02*
X101561000Y-115853000D01*
%TO.C,R36*%
X49788258Y-122905500D02*
X49313742Y-122905500D01*
X49788258Y-123950500D02*
X49313742Y-123950500D01*
%TO.C,Y2*%
X130601000Y-136828000D02*
X133751000Y-136828000D01*
X133751000Y-136828000D02*
X133751000Y-133028000D01*
%TO.C,R21*%
X58253500Y-131040742D02*
X58253500Y-131515258D01*
X59298500Y-131040742D02*
X59298500Y-131515258D01*
%TO.C,C34*%
X107806000Y-131387437D02*
X107806000Y-134843000D01*
X107806000Y-134843000D02*
X109006000Y-134843000D01*
X108870437Y-130323000D02*
X107806000Y-131387437D01*
X108870437Y-130323000D02*
X109006000Y-130323000D01*
X111261563Y-130323000D02*
X111126000Y-130323000D01*
X111261563Y-130323000D02*
X112326000Y-131387437D01*
X111626000Y-129583000D02*
X111626000Y-130083000D01*
X111876000Y-129833000D02*
X111376000Y-129833000D01*
X112326000Y-131387437D02*
X112326000Y-134843000D01*
X112326000Y-134843000D02*
X111126000Y-134843000D01*
%TO.C,Y1*%
X126801000Y-136828000D02*
X129951000Y-136828000D01*
X129951000Y-136828000D02*
X129951000Y-133028000D01*
%TO.C,Q2*%
X57156000Y-115453000D02*
X57156000Y-120094000D01*
X57156000Y-115453000D02*
X67396000Y-115453000D01*
X57156000Y-116963000D02*
X67396000Y-116963000D01*
X57156000Y-120094000D02*
X67396000Y-120094000D01*
X60426000Y-115453000D02*
X60426000Y-116963000D01*
X64127000Y-115453000D02*
X64127000Y-116963000D01*
X67396000Y-115453000D02*
X67396000Y-120094000D01*
%TO.C,R16*%
X137013258Y-125805500D02*
X136538742Y-125805500D01*
X137013258Y-126850500D02*
X136538742Y-126850500D01*
%TO.C,R8*%
X104588742Y-137630500D02*
X105063258Y-137630500D01*
X104588742Y-138675500D02*
X105063258Y-138675500D01*
%TO.C,U5*%
X68941000Y-125028000D02*
X68941000Y-124228000D01*
X68941000Y-125028000D02*
X68941000Y-125828000D01*
X72061000Y-125028000D02*
X72061000Y-124228000D01*
X72061000Y-125028000D02*
X72061000Y-125828000D01*
X72341000Y-123968000D02*
X72011000Y-123728000D01*
X72341000Y-123488000D01*
X72341000Y-123968000D01*
G36*
X72341000Y-123968000D02*
G01*
X72011000Y-123728000D01*
X72341000Y-123488000D01*
X72341000Y-123968000D01*
G37*
%TO.C,R13*%
X96753500Y-156690258D02*
X96753500Y-156215742D01*
X97798500Y-156690258D02*
X97798500Y-156215742D01*
%TO.C,Q1*%
X45156000Y-115453000D02*
X45156000Y-120094000D01*
X45156000Y-115453000D02*
X55396000Y-115453000D01*
X45156000Y-116963000D02*
X55396000Y-116963000D01*
X45156000Y-120094000D02*
X55396000Y-120094000D01*
X48426000Y-115453000D02*
X48426000Y-116963000D01*
X52127000Y-115453000D02*
X52127000Y-116963000D01*
X55396000Y-115453000D02*
X55396000Y-120094000D01*
%TO.C,R40*%
X99438258Y-118330500D02*
X98963742Y-118330500D01*
X99438258Y-119375500D02*
X98963742Y-119375500D01*
%TO.C,D13*%
X126076000Y-133433000D02*
X120566000Y-133433000D01*
X126076000Y-136733000D02*
X120566000Y-136733000D01*
X126076000Y-136733000D02*
X126076000Y-133433000D01*
%TO.C,C44*%
X99341580Y-119943000D02*
X99060420Y-119943000D01*
X99341580Y-120963000D02*
X99060420Y-120963000D01*
%TO.C,C33*%
X99060420Y-130368000D02*
X99341580Y-130368000D01*
X99060420Y-131388000D02*
X99341580Y-131388000D01*
%TO.C,C21*%
X48266000Y-132637420D02*
X48266000Y-132918580D01*
X49286000Y-132637420D02*
X49286000Y-132918580D01*
%TO.C,R41*%
X127088258Y-118355500D02*
X126613742Y-118355500D01*
X127088258Y-119400500D02*
X126613742Y-119400500D01*
%TO.C,R11*%
X128873500Y-153050742D02*
X128873500Y-153525258D01*
X129918500Y-153050742D02*
X129918500Y-153525258D01*
%TO.C,D11*%
X96986000Y-133398000D02*
X91476000Y-133398000D01*
X96986000Y-136698000D02*
X91476000Y-136698000D01*
X96986000Y-136698000D02*
X96986000Y-133398000D01*
%TO.C,D5*%
X137626000Y-146518000D02*
X137626000Y-152028000D01*
X140926000Y-146518000D02*
X137626000Y-146518000D01*
X140926000Y-146518000D02*
X140926000Y-152028000D01*
%TO.C,U6*%
X82416000Y-126048000D02*
X82416000Y-124098000D01*
X82416000Y-126048000D02*
X82416000Y-127998000D01*
X87536000Y-126048000D02*
X87536000Y-124098000D01*
X87536000Y-126048000D02*
X87536000Y-127998000D01*
X82511000Y-128748000D02*
X82181000Y-128988000D01*
X82181000Y-128508000D01*
X82511000Y-128748000D01*
G36*
X82511000Y-128748000D02*
G01*
X82181000Y-128988000D01*
X82181000Y-128508000D01*
X82511000Y-128748000D01*
G37*
%TO.C,Q5*%
X102946000Y-115508000D02*
X102946000Y-120149000D01*
X102946000Y-115508000D02*
X113186000Y-115508000D01*
X102946000Y-117018000D02*
X113186000Y-117018000D01*
X102946000Y-120149000D02*
X113186000Y-120149000D01*
X106216000Y-115508000D02*
X106216000Y-117018000D01*
X109917000Y-115508000D02*
X109917000Y-117018000D01*
X113186000Y-115508000D02*
X113186000Y-120149000D01*
%TO.C,C24*%
X70641580Y-127518000D02*
X70360420Y-127518000D01*
X70641580Y-128538000D02*
X70360420Y-128538000D01*
%TO.C,R19*%
X59363742Y-133180500D02*
X59838258Y-133180500D01*
X59363742Y-134225500D02*
X59838258Y-134225500D01*
%TO.C,R10*%
X132253500Y-155040742D02*
X132253500Y-155515258D01*
X133298500Y-155040742D02*
X133298500Y-155515258D01*
%TO.C,C7*%
X99460420Y-137643000D02*
X99741580Y-137643000D01*
X99460420Y-138663000D02*
X99741580Y-138663000D01*
%TO.C,U8*%
X111506000Y-126083000D02*
X111506000Y-124133000D01*
X111506000Y-126083000D02*
X111506000Y-128033000D01*
X116626000Y-126083000D02*
X116626000Y-124133000D01*
X116626000Y-126083000D02*
X116626000Y-128033000D01*
X111601000Y-128783000D02*
X111271000Y-129023000D01*
X111271000Y-128543000D01*
X111601000Y-128783000D01*
G36*
X111601000Y-128783000D02*
G01*
X111271000Y-129023000D01*
X111271000Y-128543000D01*
X111601000Y-128783000D01*
G37*
%TO.C,D3*%
X135441000Y-147143000D02*
X135441000Y-149828000D01*
X137361000Y-147143000D02*
X135441000Y-147143000D01*
X137361000Y-149828000D02*
X137361000Y-147143000D01*
%TO.C,R24*%
X75865564Y-120718000D02*
X75411436Y-120718000D01*
X75865564Y-122188000D02*
X75411436Y-122188000D01*
%TO.C,C18*%
X53576000Y-142468000D02*
X54076000Y-142468000D01*
X53826000Y-142218000D02*
X53826000Y-142718000D01*
X54316000Y-142832437D02*
X54316000Y-142968000D01*
X54316000Y-142832437D02*
X55380437Y-141768000D01*
X54316000Y-145223563D02*
X54316000Y-145088000D01*
X54316000Y-145223563D02*
X55380437Y-146288000D01*
X55380437Y-141768000D02*
X58836000Y-141768000D01*
X55380437Y-146288000D02*
X58836000Y-146288000D01*
X58836000Y-141768000D02*
X58836000Y-142968000D01*
X58836000Y-146288000D02*
X58836000Y-145088000D01*
%TO.C,C4*%
X140766000Y-122112420D02*
X140766000Y-122393580D01*
X141786000Y-122112420D02*
X141786000Y-122393580D01*
%TO.C,C35*%
X106056000Y-132692420D02*
X106056000Y-132973580D01*
X107076000Y-132692420D02*
X107076000Y-132973580D01*
%TO.C,C15*%
X132366000Y-138668580D02*
X132366000Y-138387420D01*
X133386000Y-138668580D02*
X133386000Y-138387420D01*
%TO.C,R27*%
X86953500Y-131060742D02*
X86953500Y-131535258D01*
X87998500Y-131060742D02*
X87998500Y-131535258D01*
%TO.C,C39*%
X116056000Y-136117420D02*
X116056000Y-136398580D01*
X117076000Y-136117420D02*
X117076000Y-136398580D01*
%TO.C,J5*%
D12*
X122956000Y-160518000D02*
X122196000Y-160518000D01*
X122196000Y-166518000D01*
X122956000Y-166518000D01*
X122956000Y-160518000D01*
G36*
X122956000Y-160518000D02*
G01*
X122196000Y-160518000D01*
X122196000Y-166518000D01*
X122956000Y-166518000D01*
X122956000Y-160518000D01*
G37*
D11*
X123906000Y-160518000D02*
X123906000Y-157858000D01*
X123906000Y-157858000D02*
X113626000Y-157858000D01*
X122956000Y-166518000D02*
X122196000Y-166518000D01*
X122956000Y-157460929D02*
X122956000Y-157858000D01*
X122956000Y-154988000D02*
X122956000Y-155375071D01*
X122196000Y-166518000D02*
X122196000Y-160518000D01*
X122196000Y-157460929D02*
X122196000Y-157858000D01*
X122196000Y-154988000D02*
X122196000Y-155375071D01*
X121306000Y-157858000D02*
X121306000Y-160518000D01*
X120416000Y-166518000D02*
X119656000Y-166518000D01*
X120416000Y-160518000D02*
X120416000Y-166518000D01*
X120416000Y-157460929D02*
X120416000Y-157858000D01*
X120416000Y-154920929D02*
X120416000Y-155375071D01*
X119656000Y-166518000D02*
X119656000Y-160518000D01*
X119656000Y-157460929D02*
X119656000Y-157858000D01*
X119656000Y-154920929D02*
X119656000Y-155375071D01*
X118766000Y-157858000D02*
X118766000Y-160518000D01*
X117876000Y-166518000D02*
X117116000Y-166518000D01*
X117876000Y-160518000D02*
X117876000Y-166518000D01*
X117876000Y-157460929D02*
X117876000Y-157858000D01*
X117876000Y-154920929D02*
X117876000Y-155375071D01*
X117116000Y-166518000D02*
X117116000Y-160518000D01*
X117116000Y-157460929D02*
X117116000Y-157858000D01*
X117116000Y-154920929D02*
X117116000Y-155375071D01*
X116226000Y-157858000D02*
X116226000Y-160518000D01*
X115336000Y-166518000D02*
X114576000Y-166518000D01*
X115336000Y-160518000D02*
X115336000Y-166518000D01*
X115336000Y-157460929D02*
X115336000Y-157858000D01*
X115336000Y-154920929D02*
X115336000Y-155375071D01*
X114576000Y-166518000D02*
X114576000Y-160518000D01*
X114576000Y-157460929D02*
X114576000Y-157858000D01*
X114576000Y-154920929D02*
X114576000Y-155375071D01*
X113626000Y-160518000D02*
X123906000Y-160518000D01*
X113626000Y-157858000D02*
X113626000Y-160518000D01*
%TO.C,C38*%
X128416580Y-127013000D02*
X128135420Y-127013000D01*
X128416580Y-128033000D02*
X128135420Y-128033000D01*
%TO.C,J1*%
X70936000Y-165688000D02*
X70936000Y-166428000D01*
X70936000Y-166428000D02*
X71436000Y-166428000D01*
X71176000Y-156267000D02*
X71176000Y-166188000D01*
X71176000Y-156267000D02*
X86536000Y-156267000D01*
X71176000Y-159227000D02*
X86536000Y-159227000D01*
X71176000Y-164128000D02*
X86536000Y-164128000D01*
X71176000Y-165628000D02*
X86536000Y-165628000D01*
X71176000Y-166188000D02*
X86536000Y-166188000D01*
X77629000Y-162551000D02*
X77582000Y-162597000D01*
X77822000Y-162767000D02*
X77787000Y-162802000D01*
X79926000Y-160253000D02*
X79891000Y-160289000D01*
X80131000Y-160459000D02*
X80084000Y-160505000D01*
X82709000Y-162551000D02*
X82662000Y-162597000D01*
X82902000Y-162767000D02*
X82867000Y-162802000D01*
X85006000Y-160253000D02*
X84971000Y-160289000D01*
X85211000Y-160459000D02*
X85164000Y-160505000D01*
X86536000Y-156267000D02*
X86536000Y-166188000D01*
X72240573Y-162211042D02*
G75*
G02*
X72241000Y-160844000I1535420J683041D01*
G01*
X73092958Y-159992573D02*
G75*
G02*
X74460000Y-159993000I683041J-1535420D01*
G01*
X73804805Y-163208253D02*
G75*
G02*
X73092000Y-163063000I-28806J1680254D01*
G01*
X74459318Y-163062756D02*
G75*
G02*
X73776000Y-163208000I-683318J1534756D01*
G01*
X75311427Y-160844958D02*
G75*
G02*
X75311000Y-162212000I-1535427J-683042D01*
G01*
X80536000Y-161528000D02*
G75*
G02*
X77176000Y-161528000I-1680000J0D01*
G01*
X77176000Y-161528000D02*
G75*
G02*
X80536000Y-161528000I1680000J0D01*
G01*
X85616000Y-161528000D02*
G75*
G02*
X82256000Y-161528000I-1680000J0D01*
G01*
X82256000Y-161528000D02*
G75*
G02*
X85616000Y-161528000I1680000J0D01*
G01*
%TO.C,C31*%
X99341580Y-127518000D02*
X99060420Y-127518000D01*
X99341580Y-128538000D02*
X99060420Y-128538000D01*
%TO.C,R29*%
X98963742Y-121505500D02*
X99438258Y-121505500D01*
X98963742Y-122550500D02*
X99438258Y-122550500D01*
D13*
%TO.C,REF\u002A\u002A*%
X110403600Y-164586752D02*
X110420948Y-164594334D01*
X110462356Y-164627128D01*
X110497765Y-164674547D01*
X110519664Y-164725151D01*
X110523229Y-164750098D01*
X110511279Y-164784927D01*
X110485067Y-164803357D01*
X110456964Y-164814516D01*
X110444095Y-164816572D01*
X110437829Y-164801649D01*
X110425456Y-164769175D01*
X110420028Y-164754502D01*
X110389590Y-164703744D01*
X110345520Y-164678427D01*
X110289010Y-164679206D01*
X110284825Y-164680203D01*
X110254655Y-164694507D01*
X110232476Y-164722393D01*
X110217327Y-164767287D01*
X110208250Y-164832615D01*
X110204286Y-164921804D01*
X110203914Y-164969261D01*
X110203730Y-165044071D01*
X110202522Y-165095069D01*
X110199309Y-165127471D01*
X110193109Y-165146495D01*
X110182940Y-165157356D01*
X110167819Y-165165272D01*
X110166946Y-165165670D01*
X110137828Y-165177981D01*
X110123403Y-165182514D01*
X110121186Y-165168809D01*
X110119289Y-165130925D01*
X110117847Y-165073715D01*
X110116998Y-165002027D01*
X110116829Y-164949565D01*
X110117692Y-164848047D01*
X110121070Y-164771032D01*
X110128142Y-164714023D01*
X110140088Y-164672526D01*
X110158090Y-164642043D01*
X110183327Y-164618080D01*
X110208247Y-164601355D01*
X110268171Y-164579097D01*
X110337911Y-164574076D01*
X110403600Y-164586752D01*
G36*
X110403600Y-164586752D02*
G01*
X110420948Y-164594334D01*
X110462356Y-164627128D01*
X110497765Y-164674547D01*
X110519664Y-164725151D01*
X110523229Y-164750098D01*
X110511279Y-164784927D01*
X110485067Y-164803357D01*
X110456964Y-164814516D01*
X110444095Y-164816572D01*
X110437829Y-164801649D01*
X110425456Y-164769175D01*
X110420028Y-164754502D01*
X110389590Y-164703744D01*
X110345520Y-164678427D01*
X110289010Y-164679206D01*
X110284825Y-164680203D01*
X110254655Y-164694507D01*
X110232476Y-164722393D01*
X110217327Y-164767287D01*
X110208250Y-164832615D01*
X110204286Y-164921804D01*
X110203914Y-164969261D01*
X110203730Y-165044071D01*
X110202522Y-165095069D01*
X110199309Y-165127471D01*
X110193109Y-165146495D01*
X110182940Y-165157356D01*
X110167819Y-165165272D01*
X110166946Y-165165670D01*
X110137828Y-165177981D01*
X110123403Y-165182514D01*
X110121186Y-165168809D01*
X110119289Y-165130925D01*
X110117847Y-165073715D01*
X110116998Y-165002027D01*
X110116829Y-164949565D01*
X110117692Y-164848047D01*
X110121070Y-164771032D01*
X110128142Y-164714023D01*
X110140088Y-164672526D01*
X110158090Y-164642043D01*
X110183327Y-164618080D01*
X110208247Y-164601355D01*
X110268171Y-164579097D01*
X110337911Y-164574076D01*
X110403600Y-164586752D01*
G37*
X106467093Y-164555780D02*
X106513672Y-164582723D01*
X106546057Y-164609466D01*
X106569742Y-164637484D01*
X106586059Y-164671748D01*
X106596339Y-164717227D01*
X106601914Y-164778892D01*
X106604116Y-164861711D01*
X106604371Y-164921246D01*
X106604371Y-165140391D01*
X106542686Y-165168044D01*
X106481000Y-165195697D01*
X106473743Y-164955670D01*
X106470744Y-164866028D01*
X106467598Y-164800962D01*
X106463701Y-164756026D01*
X106458447Y-164726770D01*
X106451231Y-164708748D01*
X106441450Y-164697511D01*
X106438312Y-164695079D01*
X106390761Y-164676083D01*
X106342697Y-164683600D01*
X106314086Y-164703543D01*
X106302447Y-164717675D01*
X106294391Y-164736220D01*
X106289271Y-164764334D01*
X106286441Y-164807173D01*
X106285256Y-164869895D01*
X106285057Y-164935261D01*
X106285018Y-165017268D01*
X106283614Y-165075316D01*
X106278914Y-165114465D01*
X106268987Y-165139780D01*
X106251903Y-165156323D01*
X106225732Y-165169156D01*
X106190775Y-165182491D01*
X106152596Y-165197007D01*
X106157141Y-164939389D01*
X106158971Y-164846519D01*
X106161112Y-164777889D01*
X106164181Y-164728711D01*
X106168794Y-164694198D01*
X106175568Y-164669562D01*
X106185119Y-164650016D01*
X106196634Y-164632770D01*
X106252190Y-164577680D01*
X106319980Y-164545822D01*
X106393713Y-164538191D01*
X106467093Y-164555780D01*
G36*
X106467093Y-164555780D02*
G01*
X106513672Y-164582723D01*
X106546057Y-164609466D01*
X106569742Y-164637484D01*
X106586059Y-164671748D01*
X106596339Y-164717227D01*
X106601914Y-164778892D01*
X106604116Y-164861711D01*
X106604371Y-164921246D01*
X106604371Y-165140391D01*
X106542686Y-165168044D01*
X106481000Y-165195697D01*
X106473743Y-164955670D01*
X106470744Y-164866028D01*
X106467598Y-164800962D01*
X106463701Y-164756026D01*
X106458447Y-164726770D01*
X106451231Y-164708748D01*
X106441450Y-164697511D01*
X106438312Y-164695079D01*
X106390761Y-164676083D01*
X106342697Y-164683600D01*
X106314086Y-164703543D01*
X106302447Y-164717675D01*
X106294391Y-164736220D01*
X106289271Y-164764334D01*
X106286441Y-164807173D01*
X106285256Y-164869895D01*
X106285057Y-164935261D01*
X106285018Y-165017268D01*
X106283614Y-165075316D01*
X106278914Y-165114465D01*
X106268987Y-165139780D01*
X106251903Y-165156323D01*
X106225732Y-165169156D01*
X106190775Y-165182491D01*
X106152596Y-165197007D01*
X106157141Y-164939389D01*
X106158971Y-164846519D01*
X106161112Y-164777889D01*
X106164181Y-164728711D01*
X106168794Y-164694198D01*
X106175568Y-164669562D01*
X106185119Y-164650016D01*
X106196634Y-164632770D01*
X106252190Y-164577680D01*
X106319980Y-164545822D01*
X106393713Y-164538191D01*
X106467093Y-164555780D01*
G37*
X108280926Y-164577755D02*
X108346858Y-164602084D01*
X108400273Y-164645117D01*
X108421164Y-164675409D01*
X108443939Y-164730994D01*
X108443466Y-164771186D01*
X108419562Y-164798217D01*
X108410717Y-164802813D01*
X108372530Y-164817144D01*
X108353028Y-164813472D01*
X108346422Y-164789407D01*
X108346086Y-164776114D01*
X108333992Y-164727210D01*
X108302471Y-164692999D01*
X108258659Y-164676476D01*
X108209695Y-164680634D01*
X108169894Y-164702227D01*
X108156450Y-164714544D01*
X108146921Y-164729487D01*
X108140485Y-164752075D01*
X108136317Y-164787328D01*
X108133597Y-164840266D01*
X108131502Y-164915907D01*
X108130960Y-164939857D01*
X108128981Y-165021790D01*
X108126731Y-165079455D01*
X108123357Y-165117608D01*
X108118006Y-165141004D01*
X108109824Y-165154398D01*
X108097959Y-165162545D01*
X108090362Y-165166144D01*
X108058102Y-165178452D01*
X108039111Y-165182514D01*
X108032836Y-165168948D01*
X108029006Y-165127934D01*
X108027600Y-165058999D01*
X108028598Y-164961669D01*
X108028908Y-164946657D01*
X108031101Y-164857859D01*
X108033693Y-164793019D01*
X108037382Y-164747067D01*
X108042864Y-164714935D01*
X108050835Y-164691553D01*
X108061993Y-164671852D01*
X108067830Y-164663410D01*
X108101296Y-164626057D01*
X108138727Y-164597003D01*
X108143309Y-164594467D01*
X108210426Y-164574443D01*
X108280926Y-164577755D01*
G36*
X108280926Y-164577755D02*
G01*
X108346858Y-164602084D01*
X108400273Y-164645117D01*
X108421164Y-164675409D01*
X108443939Y-164730994D01*
X108443466Y-164771186D01*
X108419562Y-164798217D01*
X108410717Y-164802813D01*
X108372530Y-164817144D01*
X108353028Y-164813472D01*
X108346422Y-164789407D01*
X108346086Y-164776114D01*
X108333992Y-164727210D01*
X108302471Y-164692999D01*
X108258659Y-164676476D01*
X108209695Y-164680634D01*
X108169894Y-164702227D01*
X108156450Y-164714544D01*
X108146921Y-164729487D01*
X108140485Y-164752075D01*
X108136317Y-164787328D01*
X108133597Y-164840266D01*
X108131502Y-164915907D01*
X108130960Y-164939857D01*
X108128981Y-165021790D01*
X108126731Y-165079455D01*
X108123357Y-165117608D01*
X108118006Y-165141004D01*
X108109824Y-165154398D01*
X108097959Y-165162545D01*
X108090362Y-165166144D01*
X108058102Y-165178452D01*
X108039111Y-165182514D01*
X108032836Y-165168948D01*
X108029006Y-165127934D01*
X108027600Y-165058999D01*
X108028598Y-164961669D01*
X108028908Y-164946657D01*
X108031101Y-164857859D01*
X108033693Y-164793019D01*
X108037382Y-164747067D01*
X108042864Y-164714935D01*
X108050835Y-164691553D01*
X108061993Y-164671852D01*
X108067830Y-164663410D01*
X108101296Y-164626057D01*
X108138727Y-164597003D01*
X108143309Y-164594467D01*
X108210426Y-164574443D01*
X108280926Y-164577755D01*
G37*
X107126886Y-164479289D02*
X107131139Y-164538613D01*
X107136025Y-164573572D01*
X107142795Y-164588820D01*
X107152702Y-164589015D01*
X107155914Y-164587195D01*
X107198644Y-164574015D01*
X107254227Y-164574785D01*
X107310737Y-164588333D01*
X107346082Y-164605861D01*
X107382321Y-164633861D01*
X107408813Y-164665549D01*
X107426999Y-164705813D01*
X107438322Y-164759543D01*
X107444222Y-164831626D01*
X107446143Y-164926951D01*
X107446177Y-164945237D01*
X107446200Y-165150646D01*
X107400491Y-165166580D01*
X107368027Y-165177420D01*
X107350215Y-165182468D01*
X107349691Y-165182514D01*
X107347937Y-165168828D01*
X107346444Y-165131076D01*
X107345326Y-165074224D01*
X107344697Y-165003234D01*
X107344600Y-164960073D01*
X107344398Y-164874973D01*
X107343358Y-164813981D01*
X107340831Y-164772177D01*
X107336164Y-164744642D01*
X107328707Y-164726456D01*
X107317811Y-164712698D01*
X107311007Y-164706073D01*
X107264272Y-164679375D01*
X107213272Y-164677375D01*
X107167001Y-164699955D01*
X107158444Y-164708107D01*
X107145893Y-164723436D01*
X107137188Y-164741618D01*
X107131631Y-164767909D01*
X107128526Y-164807562D01*
X107127176Y-164865832D01*
X107126886Y-164946173D01*
X107126886Y-165150646D01*
X107081177Y-165166580D01*
X107048713Y-165177420D01*
X107030901Y-165182468D01*
X107030377Y-165182514D01*
X107029037Y-165168623D01*
X107027828Y-165129439D01*
X107026801Y-165068700D01*
X107026002Y-164990141D01*
X107025481Y-164897498D01*
X107025286Y-164794509D01*
X107025286Y-164397342D01*
X107072457Y-164377444D01*
X107119629Y-164357547D01*
X107126886Y-164479289D01*
G36*
X107126886Y-164479289D02*
G01*
X107131139Y-164538613D01*
X107136025Y-164573572D01*
X107142795Y-164588820D01*
X107152702Y-164589015D01*
X107155914Y-164587195D01*
X107198644Y-164574015D01*
X107254227Y-164574785D01*
X107310737Y-164588333D01*
X107346082Y-164605861D01*
X107382321Y-164633861D01*
X107408813Y-164665549D01*
X107426999Y-164705813D01*
X107438322Y-164759543D01*
X107444222Y-164831626D01*
X107446143Y-164926951D01*
X107446177Y-164945237D01*
X107446200Y-165150646D01*
X107400491Y-165166580D01*
X107368027Y-165177420D01*
X107350215Y-165182468D01*
X107349691Y-165182514D01*
X107347937Y-165168828D01*
X107346444Y-165131076D01*
X107345326Y-165074224D01*
X107344697Y-165003234D01*
X107344600Y-164960073D01*
X107344398Y-164874973D01*
X107343358Y-164813981D01*
X107340831Y-164772177D01*
X107336164Y-164744642D01*
X107328707Y-164726456D01*
X107317811Y-164712698D01*
X107311007Y-164706073D01*
X107264272Y-164679375D01*
X107213272Y-164677375D01*
X107167001Y-164699955D01*
X107158444Y-164708107D01*
X107145893Y-164723436D01*
X107137188Y-164741618D01*
X107131631Y-164767909D01*
X107128526Y-164807562D01*
X107127176Y-164865832D01*
X107126886Y-164946173D01*
X107126886Y-165150646D01*
X107081177Y-165166580D01*
X107048713Y-165177420D01*
X107030901Y-165182468D01*
X107030377Y-165182514D01*
X107029037Y-165168623D01*
X107027828Y-165129439D01*
X107026801Y-165068700D01*
X107026002Y-164990141D01*
X107025481Y-164897498D01*
X107025286Y-164794509D01*
X107025286Y-164397342D01*
X107072457Y-164377444D01*
X107119629Y-164357547D01*
X107126886Y-164479289D01*
G37*
X109530833Y-164586663D02*
X109533048Y-164624850D01*
X109534784Y-164682886D01*
X109535899Y-164756180D01*
X109536257Y-164833055D01*
X109536257Y-165093196D01*
X109490326Y-165139127D01*
X109458675Y-165167429D01*
X109430890Y-165178893D01*
X109392915Y-165178168D01*
X109377840Y-165176321D01*
X109330726Y-165170948D01*
X109291756Y-165167869D01*
X109282257Y-165167585D01*
X109250233Y-165169445D01*
X109204432Y-165174114D01*
X109186674Y-165176321D01*
X109143057Y-165179735D01*
X109113745Y-165172320D01*
X109084680Y-165149427D01*
X109074188Y-165139127D01*
X109028257Y-165093196D01*
X109028257Y-164606602D01*
X109065226Y-164589758D01*
X109097059Y-164577282D01*
X109115683Y-164572914D01*
X109120458Y-164586718D01*
X109124921Y-164625286D01*
X109128775Y-164684356D01*
X109131722Y-164759663D01*
X109133143Y-164823286D01*
X109137114Y-165073657D01*
X109171759Y-165078556D01*
X109203268Y-165075131D01*
X109218708Y-165064041D01*
X109223023Y-165043308D01*
X109226708Y-164999145D01*
X109229469Y-164937146D01*
X109231012Y-164862909D01*
X109231235Y-164824706D01*
X109231457Y-164604783D01*
X109277166Y-164588849D01*
X109309518Y-164578015D01*
X109327115Y-164572962D01*
X109327623Y-164572914D01*
X109329388Y-164586648D01*
X109331329Y-164624730D01*
X109333282Y-164682482D01*
X109335084Y-164755227D01*
X109336343Y-164823286D01*
X109340314Y-165073657D01*
X109427400Y-165073657D01*
X109431396Y-164845240D01*
X109435392Y-164616822D01*
X109477847Y-164594868D01*
X109509192Y-164579793D01*
X109527744Y-164572951D01*
X109528279Y-164572914D01*
X109530833Y-164586663D01*
G36*
X109530833Y-164586663D02*
G01*
X109533048Y-164624850D01*
X109534784Y-164682886D01*
X109535899Y-164756180D01*
X109536257Y-164833055D01*
X109536257Y-165093196D01*
X109490326Y-165139127D01*
X109458675Y-165167429D01*
X109430890Y-165178893D01*
X109392915Y-165178168D01*
X109377840Y-165176321D01*
X109330726Y-165170948D01*
X109291756Y-165167869D01*
X109282257Y-165167585D01*
X109250233Y-165169445D01*
X109204432Y-165174114D01*
X109186674Y-165176321D01*
X109143057Y-165179735D01*
X109113745Y-165172320D01*
X109084680Y-165149427D01*
X109074188Y-165139127D01*
X109028257Y-165093196D01*
X109028257Y-164606602D01*
X109065226Y-164589758D01*
X109097059Y-164577282D01*
X109115683Y-164572914D01*
X109120458Y-164586718D01*
X109124921Y-164625286D01*
X109128775Y-164684356D01*
X109131722Y-164759663D01*
X109133143Y-164823286D01*
X109137114Y-165073657D01*
X109171759Y-165078556D01*
X109203268Y-165075131D01*
X109218708Y-165064041D01*
X109223023Y-165043308D01*
X109226708Y-164999145D01*
X109229469Y-164937146D01*
X109231012Y-164862909D01*
X109231235Y-164824706D01*
X109231457Y-164604783D01*
X109277166Y-164588849D01*
X109309518Y-164578015D01*
X109327115Y-164572962D01*
X109327623Y-164572914D01*
X109329388Y-164586648D01*
X109331329Y-164624730D01*
X109333282Y-164682482D01*
X109335084Y-164755227D01*
X109336343Y-164823286D01*
X109340314Y-165073657D01*
X109427400Y-165073657D01*
X109431396Y-164845240D01*
X109435392Y-164616822D01*
X109477847Y-164594868D01*
X109509192Y-164579793D01*
X109527744Y-164572951D01*
X109528279Y-164572914D01*
X109530833Y-164586663D01*
G37*
X104792115Y-164549962D02*
X104860145Y-164585733D01*
X104910351Y-164643301D01*
X104928185Y-164680312D01*
X104942063Y-164735882D01*
X104949167Y-164806096D01*
X104949840Y-164882727D01*
X104944427Y-164957552D01*
X104933270Y-165022342D01*
X104916714Y-165068873D01*
X104911626Y-165076887D01*
X104851355Y-165136707D01*
X104779769Y-165172535D01*
X104702092Y-165183020D01*
X104623548Y-165166810D01*
X104601689Y-165157092D01*
X104559122Y-165127143D01*
X104521763Y-165087433D01*
X104518232Y-165082397D01*
X104503881Y-165058124D01*
X104494394Y-165032178D01*
X104488790Y-164998022D01*
X104486086Y-164949119D01*
X104485299Y-164878935D01*
X104485286Y-164863200D01*
X104485322Y-164858192D01*
X104630429Y-164858192D01*
X104631273Y-164924430D01*
X104634596Y-164968386D01*
X104641583Y-164996779D01*
X104653416Y-165016325D01*
X104659457Y-165022857D01*
X104694186Y-165047680D01*
X104727903Y-165046548D01*
X104761995Y-165025016D01*
X104782329Y-165002029D01*
X104794371Y-164968478D01*
X104801134Y-164915569D01*
X104801598Y-164909399D01*
X104802752Y-164813513D01*
X104790688Y-164742299D01*
X104765570Y-164696194D01*
X104727560Y-164675635D01*
X104713992Y-164674514D01*
X104678364Y-164680152D01*
X104653994Y-164699686D01*
X104639093Y-164737042D01*
X104631875Y-164796150D01*
X104630429Y-164858192D01*
X104485322Y-164858192D01*
X104485826Y-164788413D01*
X104488096Y-164736159D01*
X104493068Y-164699949D01*
X104501713Y-164673299D01*
X104515005Y-164649722D01*
X104517943Y-164645338D01*
X104567313Y-164586249D01*
X104621109Y-164551947D01*
X104686602Y-164538331D01*
X104708842Y-164537665D01*
X104792115Y-164549962D01*
G36*
X104792115Y-164549962D02*
G01*
X104860145Y-164585733D01*
X104910351Y-164643301D01*
X104928185Y-164680312D01*
X104942063Y-164735882D01*
X104949167Y-164806096D01*
X104949840Y-164882727D01*
X104944427Y-164957552D01*
X104933270Y-165022342D01*
X104916714Y-165068873D01*
X104911626Y-165076887D01*
X104851355Y-165136707D01*
X104779769Y-165172535D01*
X104702092Y-165183020D01*
X104623548Y-165166810D01*
X104601689Y-165157092D01*
X104559122Y-165127143D01*
X104521763Y-165087433D01*
X104518232Y-165082397D01*
X104503881Y-165058124D01*
X104494394Y-165032178D01*
X104488790Y-164998022D01*
X104486086Y-164949119D01*
X104485299Y-164878935D01*
X104485286Y-164863200D01*
X104485322Y-164858192D01*
X104630429Y-164858192D01*
X104631273Y-164924430D01*
X104634596Y-164968386D01*
X104641583Y-164996779D01*
X104653416Y-165016325D01*
X104659457Y-165022857D01*
X104694186Y-165047680D01*
X104727903Y-165046548D01*
X104761995Y-165025016D01*
X104782329Y-165002029D01*
X104794371Y-164968478D01*
X104801134Y-164915569D01*
X104801598Y-164909399D01*
X104802752Y-164813513D01*
X104790688Y-164742299D01*
X104765570Y-164696194D01*
X104727560Y-164675635D01*
X104713992Y-164674514D01*
X104678364Y-164680152D01*
X104653994Y-164699686D01*
X104639093Y-164737042D01*
X104631875Y-164796150D01*
X104630429Y-164858192D01*
X104485322Y-164858192D01*
X104485826Y-164788413D01*
X104488096Y-164736159D01*
X104493068Y-164699949D01*
X104501713Y-164673299D01*
X104515005Y-164649722D01*
X104517943Y-164645338D01*
X104567313Y-164586249D01*
X104621109Y-164551947D01*
X104686602Y-164538331D01*
X104708842Y-164537665D01*
X104792115Y-164549962D01*
G37*
X110904595Y-164594966D02*
X110962021Y-164632497D01*
X110989719Y-164666096D01*
X111011662Y-164727064D01*
X111013405Y-164775308D01*
X111009457Y-164839816D01*
X110860686Y-164904934D01*
X110788349Y-164938202D01*
X110741084Y-164964964D01*
X110716507Y-164988144D01*
X110712237Y-165010667D01*
X110725889Y-165035455D01*
X110740943Y-165051886D01*
X110784746Y-165078235D01*
X110832389Y-165080081D01*
X110876145Y-165059546D01*
X110908289Y-165018752D01*
X110914038Y-165004347D01*
X110941576Y-164959356D01*
X110973258Y-164940182D01*
X111016714Y-164923779D01*
X111016714Y-164985966D01*
X111012872Y-165028283D01*
X110997823Y-165063969D01*
X110966280Y-165104943D01*
X110961592Y-165110267D01*
X110926506Y-165146720D01*
X110896347Y-165166283D01*
X110858615Y-165175283D01*
X110827335Y-165178230D01*
X110771385Y-165178965D01*
X110731555Y-165169660D01*
X110706708Y-165155846D01*
X110667656Y-165125467D01*
X110640625Y-165092613D01*
X110623517Y-165051294D01*
X110614238Y-164995521D01*
X110610693Y-164919305D01*
X110610410Y-164880622D01*
X110611372Y-164834247D01*
X110699007Y-164834247D01*
X110700023Y-164859126D01*
X110702556Y-164863200D01*
X110719274Y-164857665D01*
X110755249Y-164843017D01*
X110803331Y-164822190D01*
X110813386Y-164817714D01*
X110874152Y-164786814D01*
X110907632Y-164759657D01*
X110914990Y-164734220D01*
X110897391Y-164708481D01*
X110882856Y-164697109D01*
X110830410Y-164674364D01*
X110781322Y-164678122D01*
X110740227Y-164705884D01*
X110711758Y-164755152D01*
X110702631Y-164794257D01*
X110699007Y-164834247D01*
X110611372Y-164834247D01*
X110612285Y-164790249D01*
X110619196Y-164723384D01*
X110632884Y-164674695D01*
X110655096Y-164638849D01*
X110687574Y-164610513D01*
X110701733Y-164601355D01*
X110766053Y-164577507D01*
X110836473Y-164576006D01*
X110904595Y-164594966D01*
G36*
X110904595Y-164594966D02*
G01*
X110962021Y-164632497D01*
X110989719Y-164666096D01*
X111011662Y-164727064D01*
X111013405Y-164775308D01*
X111009457Y-164839816D01*
X110860686Y-164904934D01*
X110788349Y-164938202D01*
X110741084Y-164964964D01*
X110716507Y-164988144D01*
X110712237Y-165010667D01*
X110725889Y-165035455D01*
X110740943Y-165051886D01*
X110784746Y-165078235D01*
X110832389Y-165080081D01*
X110876145Y-165059546D01*
X110908289Y-165018752D01*
X110914038Y-165004347D01*
X110941576Y-164959356D01*
X110973258Y-164940182D01*
X111016714Y-164923779D01*
X111016714Y-164985966D01*
X111012872Y-165028283D01*
X110997823Y-165063969D01*
X110966280Y-165104943D01*
X110961592Y-165110267D01*
X110926506Y-165146720D01*
X110896347Y-165166283D01*
X110858615Y-165175283D01*
X110827335Y-165178230D01*
X110771385Y-165178965D01*
X110731555Y-165169660D01*
X110706708Y-165155846D01*
X110667656Y-165125467D01*
X110640625Y-165092613D01*
X110623517Y-165051294D01*
X110614238Y-164995521D01*
X110610693Y-164919305D01*
X110610410Y-164880622D01*
X110611372Y-164834247D01*
X110699007Y-164834247D01*
X110700023Y-164859126D01*
X110702556Y-164863200D01*
X110719274Y-164857665D01*
X110755249Y-164843017D01*
X110803331Y-164822190D01*
X110813386Y-164817714D01*
X110874152Y-164786814D01*
X110907632Y-164759657D01*
X110914990Y-164734220D01*
X110897391Y-164708481D01*
X110882856Y-164697109D01*
X110830410Y-164674364D01*
X110781322Y-164678122D01*
X110740227Y-164705884D01*
X110711758Y-164755152D01*
X110702631Y-164794257D01*
X110699007Y-164834247D01*
X110611372Y-164834247D01*
X110612285Y-164790249D01*
X110619196Y-164723384D01*
X110632884Y-164674695D01*
X110655096Y-164638849D01*
X110687574Y-164610513D01*
X110701733Y-164601355D01*
X110766053Y-164577507D01*
X110836473Y-164576006D01*
X110904595Y-164594966D01*
G37*
X108941117Y-164693358D02*
X108940933Y-164801837D01*
X108940219Y-164885287D01*
X108938675Y-164947704D01*
X108936001Y-164993085D01*
X108931894Y-165025429D01*
X108926055Y-165048733D01*
X108918182Y-165066995D01*
X108912221Y-165077418D01*
X108862855Y-165133945D01*
X108800264Y-165169377D01*
X108731013Y-165182090D01*
X108661668Y-165170463D01*
X108620375Y-165149568D01*
X108577025Y-165113422D01*
X108547481Y-165069276D01*
X108529655Y-165011462D01*
X108521463Y-164934313D01*
X108520302Y-164877714D01*
X108520458Y-164873647D01*
X108621857Y-164873647D01*
X108622476Y-164938550D01*
X108625314Y-164981514D01*
X108631840Y-165009622D01*
X108643523Y-165029953D01*
X108657483Y-165045288D01*
X108704365Y-165074890D01*
X108754701Y-165077419D01*
X108802276Y-165052705D01*
X108805979Y-165049356D01*
X108821783Y-165031935D01*
X108831693Y-165011209D01*
X108837058Y-164980362D01*
X108839228Y-164932577D01*
X108839571Y-164879748D01*
X108838827Y-164813381D01*
X108835748Y-164769106D01*
X108829061Y-164740009D01*
X108817496Y-164719173D01*
X108808013Y-164708107D01*
X108763960Y-164680198D01*
X108713224Y-164676843D01*
X108664796Y-164698159D01*
X108655450Y-164706073D01*
X108639540Y-164723647D01*
X108629610Y-164744587D01*
X108624278Y-164775782D01*
X108622163Y-164824122D01*
X108621857Y-164873647D01*
X108520458Y-164873647D01*
X108523810Y-164786568D01*
X108535726Y-164718086D01*
X108558135Y-164666600D01*
X108593124Y-164626443D01*
X108620375Y-164605861D01*
X108669907Y-164583625D01*
X108727316Y-164573304D01*
X108780682Y-164576067D01*
X108810543Y-164587212D01*
X108822261Y-164590383D01*
X108830037Y-164578557D01*
X108835465Y-164546866D01*
X108839571Y-164498593D01*
X108844067Y-164444829D01*
X108850313Y-164412482D01*
X108861676Y-164393985D01*
X108881528Y-164381770D01*
X108894000Y-164376362D01*
X108941171Y-164356601D01*
X108941117Y-164693358D01*
G36*
X108941117Y-164693358D02*
G01*
X108940933Y-164801837D01*
X108940219Y-164885287D01*
X108938675Y-164947704D01*
X108936001Y-164993085D01*
X108931894Y-165025429D01*
X108926055Y-165048733D01*
X108918182Y-165066995D01*
X108912221Y-165077418D01*
X108862855Y-165133945D01*
X108800264Y-165169377D01*
X108731013Y-165182090D01*
X108661668Y-165170463D01*
X108620375Y-165149568D01*
X108577025Y-165113422D01*
X108547481Y-165069276D01*
X108529655Y-165011462D01*
X108521463Y-164934313D01*
X108520302Y-164877714D01*
X108520458Y-164873647D01*
X108621857Y-164873647D01*
X108622476Y-164938550D01*
X108625314Y-164981514D01*
X108631840Y-165009622D01*
X108643523Y-165029953D01*
X108657483Y-165045288D01*
X108704365Y-165074890D01*
X108754701Y-165077419D01*
X108802276Y-165052705D01*
X108805979Y-165049356D01*
X108821783Y-165031935D01*
X108831693Y-165011209D01*
X108837058Y-164980362D01*
X108839228Y-164932577D01*
X108839571Y-164879748D01*
X108838827Y-164813381D01*
X108835748Y-164769106D01*
X108829061Y-164740009D01*
X108817496Y-164719173D01*
X108808013Y-164708107D01*
X108763960Y-164680198D01*
X108713224Y-164676843D01*
X108664796Y-164698159D01*
X108655450Y-164706073D01*
X108639540Y-164723647D01*
X108629610Y-164744587D01*
X108624278Y-164775782D01*
X108622163Y-164824122D01*
X108621857Y-164873647D01*
X108520458Y-164873647D01*
X108523810Y-164786568D01*
X108535726Y-164718086D01*
X108558135Y-164666600D01*
X108593124Y-164626443D01*
X108620375Y-164605861D01*
X108669907Y-164583625D01*
X108727316Y-164573304D01*
X108780682Y-164576067D01*
X108810543Y-164587212D01*
X108822261Y-164590383D01*
X108830037Y-164578557D01*
X108835465Y-164546866D01*
X108839571Y-164498593D01*
X108844067Y-164444829D01*
X108850313Y-164412482D01*
X108861676Y-164393985D01*
X108881528Y-164381770D01*
X108894000Y-164376362D01*
X108941171Y-164356601D01*
X108941117Y-164693358D01*
G37*
X105919303Y-164559239D02*
X105976527Y-164597735D01*
X106020749Y-164653335D01*
X106047167Y-164724086D01*
X106052510Y-164776162D01*
X106051903Y-164797893D01*
X106046822Y-164814531D01*
X106032855Y-164829437D01*
X106005589Y-164845973D01*
X105960612Y-164867498D01*
X105893511Y-164897374D01*
X105893171Y-164897524D01*
X105831407Y-164925813D01*
X105780759Y-164950933D01*
X105746404Y-164970179D01*
X105733518Y-164980848D01*
X105733514Y-164980934D01*
X105744872Y-165004166D01*
X105771431Y-165029774D01*
X105801923Y-165048221D01*
X105817370Y-165051886D01*
X105859515Y-165039212D01*
X105895808Y-165007471D01*
X105913517Y-164972572D01*
X105930552Y-164946845D01*
X105963922Y-164917546D01*
X106003149Y-164892235D01*
X106037756Y-164878471D01*
X106044993Y-164877714D01*
X106053139Y-164890160D01*
X106053630Y-164921972D01*
X106047643Y-164964866D01*
X106036357Y-165010558D01*
X106020950Y-165050761D01*
X106020171Y-165052322D01*
X105973804Y-165117062D01*
X105913711Y-165161097D01*
X105845465Y-165182711D01*
X105774638Y-165180185D01*
X105706804Y-165151804D01*
X105703788Y-165149808D01*
X105650427Y-165101448D01*
X105615340Y-165038352D01*
X105595922Y-164955387D01*
X105593316Y-164932078D01*
X105588701Y-164822055D01*
X105594233Y-164770748D01*
X105733514Y-164770748D01*
X105735324Y-164802753D01*
X105745222Y-164812093D01*
X105769898Y-164805105D01*
X105808795Y-164788587D01*
X105852275Y-164767881D01*
X105853356Y-164767333D01*
X105890209Y-164747949D01*
X105905000Y-164735013D01*
X105901353Y-164721451D01*
X105885995Y-164703632D01*
X105846923Y-164677845D01*
X105804846Y-164675950D01*
X105767103Y-164694717D01*
X105741034Y-164730915D01*
X105733514Y-164770748D01*
X105594233Y-164770748D01*
X105598194Y-164734027D01*
X105622550Y-164664212D01*
X105656456Y-164615302D01*
X105717653Y-164565878D01*
X105785063Y-164541359D01*
X105853880Y-164539797D01*
X105919303Y-164559239D01*
G36*
X105919303Y-164559239D02*
G01*
X105976527Y-164597735D01*
X106020749Y-164653335D01*
X106047167Y-164724086D01*
X106052510Y-164776162D01*
X106051903Y-164797893D01*
X106046822Y-164814531D01*
X106032855Y-164829437D01*
X106005589Y-164845973D01*
X105960612Y-164867498D01*
X105893511Y-164897374D01*
X105893171Y-164897524D01*
X105831407Y-164925813D01*
X105780759Y-164950933D01*
X105746404Y-164970179D01*
X105733518Y-164980848D01*
X105733514Y-164980934D01*
X105744872Y-165004166D01*
X105771431Y-165029774D01*
X105801923Y-165048221D01*
X105817370Y-165051886D01*
X105859515Y-165039212D01*
X105895808Y-165007471D01*
X105913517Y-164972572D01*
X105930552Y-164946845D01*
X105963922Y-164917546D01*
X106003149Y-164892235D01*
X106037756Y-164878471D01*
X106044993Y-164877714D01*
X106053139Y-164890160D01*
X106053630Y-164921972D01*
X106047643Y-164964866D01*
X106036357Y-165010558D01*
X106020950Y-165050761D01*
X106020171Y-165052322D01*
X105973804Y-165117062D01*
X105913711Y-165161097D01*
X105845465Y-165182711D01*
X105774638Y-165180185D01*
X105706804Y-165151804D01*
X105703788Y-165149808D01*
X105650427Y-165101448D01*
X105615340Y-165038352D01*
X105595922Y-164955387D01*
X105593316Y-164932078D01*
X105588701Y-164822055D01*
X105594233Y-164770748D01*
X105733514Y-164770748D01*
X105735324Y-164802753D01*
X105745222Y-164812093D01*
X105769898Y-164805105D01*
X105808795Y-164788587D01*
X105852275Y-164767881D01*
X105853356Y-164767333D01*
X105890209Y-164747949D01*
X105905000Y-164735013D01*
X105901353Y-164721451D01*
X105885995Y-164703632D01*
X105846923Y-164677845D01*
X105804846Y-164675950D01*
X105767103Y-164694717D01*
X105741034Y-164730915D01*
X105733514Y-164770748D01*
X105594233Y-164770748D01*
X105598194Y-164734027D01*
X105622550Y-164664212D01*
X105656456Y-164615302D01*
X105717653Y-164565878D01*
X105785063Y-164541359D01*
X105853880Y-164539797D01*
X105919303Y-164559239D01*
G37*
X107790744Y-164578968D02*
X107847616Y-164600087D01*
X107848267Y-164600493D01*
X107883440Y-164626380D01*
X107909407Y-164656633D01*
X107927670Y-164696058D01*
X107939732Y-164749462D01*
X107947096Y-164821651D01*
X107951264Y-164917432D01*
X107951629Y-164931078D01*
X107956876Y-165136842D01*
X107912716Y-165159678D01*
X107880763Y-165175110D01*
X107861470Y-165182423D01*
X107860578Y-165182514D01*
X107857239Y-165169022D01*
X107854587Y-165132626D01*
X107852956Y-165079452D01*
X107852600Y-165036393D01*
X107852592Y-164966641D01*
X107849403Y-164922837D01*
X107838288Y-164901944D01*
X107814501Y-164900925D01*
X107773296Y-164916741D01*
X107711086Y-164945815D01*
X107665341Y-164969963D01*
X107641813Y-164990913D01*
X107634896Y-165013747D01*
X107634886Y-165014877D01*
X107646299Y-165054212D01*
X107680092Y-165075462D01*
X107731809Y-165078539D01*
X107769061Y-165078006D01*
X107788703Y-165088735D01*
X107800952Y-165114505D01*
X107808002Y-165147337D01*
X107797842Y-165165966D01*
X107794017Y-165168632D01*
X107758001Y-165179340D01*
X107707566Y-165180856D01*
X107655626Y-165173759D01*
X107618822Y-165160788D01*
X107567938Y-165117585D01*
X107539014Y-165057446D01*
X107533286Y-165010462D01*
X107537657Y-164968082D01*
X107553475Y-164933488D01*
X107584797Y-164902763D01*
X107635678Y-164871990D01*
X107710176Y-164837252D01*
X107714714Y-164835288D01*
X107781821Y-164804287D01*
X107823232Y-164778862D01*
X107840981Y-164756014D01*
X107837107Y-164732745D01*
X107813643Y-164706056D01*
X107806627Y-164699914D01*
X107759630Y-164676100D01*
X107710933Y-164677103D01*
X107668522Y-164700451D01*
X107640384Y-164743675D01*
X107637769Y-164752160D01*
X107612308Y-164793308D01*
X107580001Y-164813128D01*
X107533286Y-164832770D01*
X107533286Y-164781950D01*
X107547496Y-164708082D01*
X107589675Y-164640327D01*
X107611624Y-164617661D01*
X107661517Y-164588569D01*
X107724967Y-164575400D01*
X107790744Y-164578968D01*
G36*
X107790744Y-164578968D02*
G01*
X107847616Y-164600087D01*
X107848267Y-164600493D01*
X107883440Y-164626380D01*
X107909407Y-164656633D01*
X107927670Y-164696058D01*
X107939732Y-164749462D01*
X107947096Y-164821651D01*
X107951264Y-164917432D01*
X107951629Y-164931078D01*
X107956876Y-165136842D01*
X107912716Y-165159678D01*
X107880763Y-165175110D01*
X107861470Y-165182423D01*
X107860578Y-165182514D01*
X107857239Y-165169022D01*
X107854587Y-165132626D01*
X107852956Y-165079452D01*
X107852600Y-165036393D01*
X107852592Y-164966641D01*
X107849403Y-164922837D01*
X107838288Y-164901944D01*
X107814501Y-164900925D01*
X107773296Y-164916741D01*
X107711086Y-164945815D01*
X107665341Y-164969963D01*
X107641813Y-164990913D01*
X107634896Y-165013747D01*
X107634886Y-165014877D01*
X107646299Y-165054212D01*
X107680092Y-165075462D01*
X107731809Y-165078539D01*
X107769061Y-165078006D01*
X107788703Y-165088735D01*
X107800952Y-165114505D01*
X107808002Y-165147337D01*
X107797842Y-165165966D01*
X107794017Y-165168632D01*
X107758001Y-165179340D01*
X107707566Y-165180856D01*
X107655626Y-165173759D01*
X107618822Y-165160788D01*
X107567938Y-165117585D01*
X107539014Y-165057446D01*
X107533286Y-165010462D01*
X107537657Y-164968082D01*
X107553475Y-164933488D01*
X107584797Y-164902763D01*
X107635678Y-164871990D01*
X107710176Y-164837252D01*
X107714714Y-164835288D01*
X107781821Y-164804287D01*
X107823232Y-164778862D01*
X107840981Y-164756014D01*
X107837107Y-164732745D01*
X107813643Y-164706056D01*
X107806627Y-164699914D01*
X107759630Y-164676100D01*
X107710933Y-164677103D01*
X107668522Y-164700451D01*
X107640384Y-164743675D01*
X107637769Y-164752160D01*
X107612308Y-164793308D01*
X107580001Y-164813128D01*
X107533286Y-164832770D01*
X107533286Y-164781950D01*
X107547496Y-164708082D01*
X107589675Y-164640327D01*
X107611624Y-164617661D01*
X107661517Y-164588569D01*
X107724967Y-164575400D01*
X107790744Y-164578968D01*
G37*
X105350744Y-164547918D02*
X105406201Y-164575568D01*
X105455148Y-164626480D01*
X105468629Y-164645338D01*
X105483314Y-164670015D01*
X105492842Y-164696816D01*
X105498293Y-164732587D01*
X105500747Y-164784169D01*
X105501286Y-164852267D01*
X105498852Y-164945588D01*
X105490394Y-165015657D01*
X105474174Y-165067931D01*
X105448454Y-165107869D01*
X105411497Y-165140929D01*
X105408782Y-165142886D01*
X105372360Y-165162908D01*
X105328502Y-165172815D01*
X105272724Y-165175257D01*
X105182048Y-165175257D01*
X105182010Y-165263283D01*
X105181166Y-165312308D01*
X105176024Y-165341065D01*
X105162587Y-165358311D01*
X105136858Y-165372808D01*
X105130679Y-165375769D01*
X105101764Y-165389648D01*
X105079376Y-165398414D01*
X105062729Y-165399171D01*
X105051036Y-165389023D01*
X105043510Y-165365073D01*
X105039366Y-165324426D01*
X105037815Y-165264186D01*
X105038071Y-165181455D01*
X105039349Y-165073339D01*
X105039748Y-165041000D01*
X105041185Y-164929524D01*
X105042472Y-164856603D01*
X105181971Y-164856603D01*
X105182755Y-164918499D01*
X105186240Y-164958997D01*
X105194124Y-164985708D01*
X105208105Y-165006244D01*
X105217597Y-165016260D01*
X105256404Y-165045567D01*
X105290763Y-165047952D01*
X105326216Y-165023750D01*
X105327114Y-165022857D01*
X105341539Y-165004153D01*
X105350313Y-164978732D01*
X105354739Y-164939584D01*
X105356118Y-164879697D01*
X105356143Y-164866430D01*
X105352812Y-164783901D01*
X105341969Y-164726691D01*
X105322340Y-164691766D01*
X105292650Y-164676094D01*
X105275491Y-164674514D01*
X105234766Y-164681926D01*
X105206832Y-164706330D01*
X105190017Y-164750980D01*
X105182650Y-164819130D01*
X105181971Y-164856603D01*
X105042472Y-164856603D01*
X105042708Y-164843245D01*
X105044677Y-164778333D01*
X105047450Y-164730958D01*
X105051388Y-164697290D01*
X105056849Y-164673498D01*
X105064192Y-164655753D01*
X105073777Y-164640224D01*
X105077887Y-164634381D01*
X105132405Y-164579185D01*
X105201336Y-164547890D01*
X105281072Y-164539165D01*
X105350744Y-164547918D01*
G36*
X105350744Y-164547918D02*
G01*
X105406201Y-164575568D01*
X105455148Y-164626480D01*
X105468629Y-164645338D01*
X105483314Y-164670015D01*
X105492842Y-164696816D01*
X105498293Y-164732587D01*
X105500747Y-164784169D01*
X105501286Y-164852267D01*
X105498852Y-164945588D01*
X105490394Y-165015657D01*
X105474174Y-165067931D01*
X105448454Y-165107869D01*
X105411497Y-165140929D01*
X105408782Y-165142886D01*
X105372360Y-165162908D01*
X105328502Y-165172815D01*
X105272724Y-165175257D01*
X105182048Y-165175257D01*
X105182010Y-165263283D01*
X105181166Y-165312308D01*
X105176024Y-165341065D01*
X105162587Y-165358311D01*
X105136858Y-165372808D01*
X105130679Y-165375769D01*
X105101764Y-165389648D01*
X105079376Y-165398414D01*
X105062729Y-165399171D01*
X105051036Y-165389023D01*
X105043510Y-165365073D01*
X105039366Y-165324426D01*
X105037815Y-165264186D01*
X105038071Y-165181455D01*
X105039349Y-165073339D01*
X105039748Y-165041000D01*
X105041185Y-164929524D01*
X105042472Y-164856603D01*
X105181971Y-164856603D01*
X105182755Y-164918499D01*
X105186240Y-164958997D01*
X105194124Y-164985708D01*
X105208105Y-165006244D01*
X105217597Y-165016260D01*
X105256404Y-165045567D01*
X105290763Y-165047952D01*
X105326216Y-165023750D01*
X105327114Y-165022857D01*
X105341539Y-165004153D01*
X105350313Y-164978732D01*
X105354739Y-164939584D01*
X105356118Y-164879697D01*
X105356143Y-164866430D01*
X105352812Y-164783901D01*
X105341969Y-164726691D01*
X105322340Y-164691766D01*
X105292650Y-164676094D01*
X105275491Y-164674514D01*
X105234766Y-164681926D01*
X105206832Y-164706330D01*
X105190017Y-164750980D01*
X105182650Y-164819130D01*
X105181971Y-164856603D01*
X105042472Y-164856603D01*
X105042708Y-164843245D01*
X105044677Y-164778333D01*
X105047450Y-164730958D01*
X105051388Y-164697290D01*
X105056849Y-164673498D01*
X105064192Y-164655753D01*
X105073777Y-164640224D01*
X105077887Y-164634381D01*
X105132405Y-164579185D01*
X105201336Y-164547890D01*
X105281072Y-164539165D01*
X105350744Y-164547918D01*
G37*
X109895876Y-164584335D02*
X109937667Y-164603344D01*
X109970469Y-164626378D01*
X109994503Y-164652133D01*
X110011097Y-164685358D01*
X110021577Y-164730800D01*
X110027271Y-164793207D01*
X110029507Y-164877327D01*
X110029743Y-164932721D01*
X110029743Y-165148826D01*
X109992774Y-165165670D01*
X109963656Y-165177981D01*
X109949231Y-165182514D01*
X109946472Y-165169025D01*
X109944282Y-165132653D01*
X109942942Y-165079542D01*
X109942657Y-165037372D01*
X109941434Y-164976447D01*
X109938136Y-164928115D01*
X109933321Y-164898518D01*
X109929496Y-164892229D01*
X109903783Y-164898652D01*
X109863418Y-164915125D01*
X109816679Y-164937458D01*
X109771845Y-164961457D01*
X109737193Y-164982930D01*
X109721002Y-164997685D01*
X109720938Y-164997845D01*
X109722330Y-165025152D01*
X109734818Y-165051219D01*
X109756743Y-165072392D01*
X109788743Y-165079474D01*
X109816092Y-165078649D01*
X109854826Y-165078042D01*
X109875158Y-165087116D01*
X109887369Y-165111092D01*
X109888909Y-165115613D01*
X109894203Y-165149806D01*
X109880047Y-165170568D01*
X109843148Y-165180462D01*
X109803289Y-165182292D01*
X109731562Y-165168727D01*
X109694432Y-165149355D01*
X109648576Y-165103845D01*
X109624256Y-165047983D01*
X109622073Y-164988957D01*
X109642629Y-164933953D01*
X109673549Y-164899486D01*
X109704420Y-164880189D01*
X109752942Y-164855759D01*
X109809485Y-164830985D01*
X109818910Y-164827199D01*
X109881019Y-164799791D01*
X109916822Y-164775634D01*
X109928337Y-164751619D01*
X109917580Y-164724635D01*
X109899114Y-164703543D01*
X109855469Y-164677572D01*
X109807446Y-164675624D01*
X109763406Y-164695637D01*
X109731709Y-164735551D01*
X109727549Y-164745848D01*
X109703327Y-164783724D01*
X109667965Y-164811842D01*
X109623343Y-164834917D01*
X109623343Y-164769485D01*
X109625969Y-164729506D01*
X109637230Y-164697997D01*
X109662199Y-164664378D01*
X109686169Y-164638484D01*
X109723441Y-164601817D01*
X109752401Y-164582121D01*
X109783505Y-164574220D01*
X109818713Y-164572914D01*
X109895876Y-164584335D01*
G36*
X109895876Y-164584335D02*
G01*
X109937667Y-164603344D01*
X109970469Y-164626378D01*
X109994503Y-164652133D01*
X110011097Y-164685358D01*
X110021577Y-164730800D01*
X110027271Y-164793207D01*
X110029507Y-164877327D01*
X110029743Y-164932721D01*
X110029743Y-165148826D01*
X109992774Y-165165670D01*
X109963656Y-165177981D01*
X109949231Y-165182514D01*
X109946472Y-165169025D01*
X109944282Y-165132653D01*
X109942942Y-165079542D01*
X109942657Y-165037372D01*
X109941434Y-164976447D01*
X109938136Y-164928115D01*
X109933321Y-164898518D01*
X109929496Y-164892229D01*
X109903783Y-164898652D01*
X109863418Y-164915125D01*
X109816679Y-164937458D01*
X109771845Y-164961457D01*
X109737193Y-164982930D01*
X109721002Y-164997685D01*
X109720938Y-164997845D01*
X109722330Y-165025152D01*
X109734818Y-165051219D01*
X109756743Y-165072392D01*
X109788743Y-165079474D01*
X109816092Y-165078649D01*
X109854826Y-165078042D01*
X109875158Y-165087116D01*
X109887369Y-165111092D01*
X109888909Y-165115613D01*
X109894203Y-165149806D01*
X109880047Y-165170568D01*
X109843148Y-165180462D01*
X109803289Y-165182292D01*
X109731562Y-165168727D01*
X109694432Y-165149355D01*
X109648576Y-165103845D01*
X109624256Y-165047983D01*
X109622073Y-164988957D01*
X109642629Y-164933953D01*
X109673549Y-164899486D01*
X109704420Y-164880189D01*
X109752942Y-164855759D01*
X109809485Y-164830985D01*
X109818910Y-164827199D01*
X109881019Y-164799791D01*
X109916822Y-164775634D01*
X109928337Y-164751619D01*
X109917580Y-164724635D01*
X109899114Y-164703543D01*
X109855469Y-164677572D01*
X109807446Y-164675624D01*
X109763406Y-164695637D01*
X109731709Y-164735551D01*
X109727549Y-164745848D01*
X109703327Y-164783724D01*
X109667965Y-164811842D01*
X109623343Y-164834917D01*
X109623343Y-164769485D01*
X109625969Y-164729506D01*
X109637230Y-164697997D01*
X109662199Y-164664378D01*
X109686169Y-164638484D01*
X109723441Y-164601817D01*
X109752401Y-164582121D01*
X109783505Y-164574220D01*
X109818713Y-164572914D01*
X109895876Y-164584335D01*
G37*
X107854910Y-159870348D02*
X107933454Y-159870778D01*
X107990298Y-159871942D01*
X108029105Y-159874207D01*
X108053538Y-159877940D01*
X108067262Y-159883506D01*
X108073940Y-159891273D01*
X108077236Y-159901605D01*
X108077556Y-159902943D01*
X108082562Y-159927079D01*
X108091829Y-159974701D01*
X108104392Y-160040741D01*
X108119287Y-160120128D01*
X108135551Y-160207796D01*
X108136119Y-160210875D01*
X108152410Y-160296789D01*
X108167652Y-160372696D01*
X108180861Y-160434045D01*
X108191054Y-160476282D01*
X108197248Y-160494855D01*
X108197543Y-160495184D01*
X108215788Y-160504253D01*
X108253405Y-160519367D01*
X108302271Y-160537262D01*
X108302543Y-160537358D01*
X108364093Y-160560493D01*
X108436657Y-160589965D01*
X108505057Y-160619597D01*
X108508294Y-160621062D01*
X108619702Y-160671626D01*
X108866399Y-160503160D01*
X108942077Y-160451803D01*
X109010631Y-160405889D01*
X109068088Y-160368030D01*
X109110476Y-160340837D01*
X109133825Y-160326921D01*
X109136042Y-160325889D01*
X109153010Y-160330484D01*
X109184701Y-160352655D01*
X109232352Y-160393447D01*
X109297198Y-160453905D01*
X109363397Y-160518227D01*
X109427214Y-160581612D01*
X109484329Y-160639451D01*
X109531305Y-160688175D01*
X109564703Y-160724210D01*
X109581085Y-160743984D01*
X109581694Y-160745002D01*
X109583505Y-160758572D01*
X109576683Y-160780733D01*
X109559540Y-160814478D01*
X109530393Y-160862800D01*
X109487555Y-160928692D01*
X109430448Y-161013517D01*
X109379766Y-161088177D01*
X109334461Y-161155140D01*
X109297150Y-161210516D01*
X109270452Y-161250420D01*
X109256985Y-161270962D01*
X109256137Y-161272356D01*
X109257781Y-161292038D01*
X109270245Y-161330293D01*
X109291048Y-161379889D01*
X109298462Y-161395728D01*
X109330814Y-161466290D01*
X109365328Y-161546353D01*
X109393365Y-161615629D01*
X109413568Y-161667045D01*
X109429615Y-161706119D01*
X109438888Y-161726541D01*
X109440041Y-161728114D01*
X109457096Y-161730721D01*
X109497298Y-161737863D01*
X109555302Y-161748523D01*
X109625763Y-161761685D01*
X109703335Y-161776333D01*
X109782672Y-161791449D01*
X109858431Y-161806018D01*
X109925264Y-161819022D01*
X109977828Y-161829445D01*
X110010776Y-161836270D01*
X110018857Y-161838199D01*
X110027205Y-161842962D01*
X110033506Y-161853718D01*
X110038045Y-161874098D01*
X110041104Y-161907734D01*
X110042967Y-161958255D01*
X110043918Y-162029292D01*
X110044240Y-162124476D01*
X110044257Y-162163492D01*
X110044257Y-162480799D01*
X109968057Y-162495839D01*
X109925663Y-162503995D01*
X109862400Y-162515899D01*
X109785962Y-162530116D01*
X109704043Y-162545210D01*
X109681400Y-162549355D01*
X109605806Y-162564053D01*
X109539953Y-162578505D01*
X109489366Y-162591375D01*
X109459574Y-162601322D01*
X109454612Y-162604287D01*
X109442426Y-162625283D01*
X109424953Y-162665967D01*
X109405577Y-162718322D01*
X109401734Y-162729600D01*
X109376339Y-162799523D01*
X109344817Y-162878418D01*
X109313969Y-162949266D01*
X109313817Y-162949595D01*
X109262447Y-163060733D01*
X109431399Y-163309253D01*
X109600352Y-163557772D01*
X109383429Y-163775058D01*
X109317819Y-163839726D01*
X109257979Y-163896733D01*
X109207267Y-163943033D01*
X109169046Y-163975584D01*
X109146675Y-163991343D01*
X109143466Y-163992343D01*
X109124626Y-163984469D01*
X109086180Y-163962578D01*
X109032330Y-163929267D01*
X108967276Y-163887131D01*
X108896940Y-163839943D01*
X108825555Y-163791810D01*
X108761908Y-163749928D01*
X108710041Y-163716871D01*
X108673995Y-163695218D01*
X108657867Y-163687543D01*
X108638189Y-163694037D01*
X108600875Y-163711150D01*
X108553621Y-163735326D01*
X108548612Y-163738013D01*
X108484977Y-163769927D01*
X108441341Y-163785579D01*
X108414202Y-163785745D01*
X108400057Y-163771204D01*
X108399975Y-163771000D01*
X108392905Y-163753779D01*
X108376042Y-163712899D01*
X108350695Y-163651525D01*
X108318171Y-163572819D01*
X108279778Y-163479947D01*
X108236822Y-163376072D01*
X108195222Y-163275502D01*
X108149504Y-163164516D01*
X108107526Y-163061703D01*
X108070548Y-162970215D01*
X108039827Y-162893201D01*
X108016622Y-162833815D01*
X108002190Y-162795209D01*
X107997743Y-162780800D01*
X108008896Y-162764272D01*
X108038069Y-162737930D01*
X108076971Y-162708887D01*
X108187757Y-162617039D01*
X108274351Y-162511759D01*
X108335716Y-162395266D01*
X108370815Y-162269776D01*
X108378608Y-162137507D01*
X108372943Y-162076457D01*
X108342078Y-161949795D01*
X108288920Y-161837941D01*
X108216767Y-161742001D01*
X108128917Y-161663076D01*
X108028665Y-161602270D01*
X107919310Y-161560687D01*
X107804147Y-161539428D01*
X107686475Y-161539599D01*
X107569590Y-161562301D01*
X107456789Y-161608638D01*
X107351369Y-161679713D01*
X107307368Y-161719911D01*
X107222979Y-161823129D01*
X107164222Y-161935925D01*
X107130704Y-162055010D01*
X107122035Y-162177095D01*
X107137823Y-162298893D01*
X107177678Y-162417116D01*
X107241207Y-162528475D01*
X107328021Y-162629684D01*
X107425029Y-162708887D01*
X107465437Y-162739162D01*
X107493982Y-162765219D01*
X107504257Y-162780825D01*
X107498877Y-162797843D01*
X107483575Y-162838500D01*
X107459612Y-162899642D01*
X107428244Y-162978119D01*
X107390732Y-163070780D01*
X107348333Y-163174472D01*
X107306663Y-163275526D01*
X107260690Y-163386607D01*
X107218107Y-163489541D01*
X107180221Y-163581165D01*
X107148340Y-163658316D01*
X107123771Y-163717831D01*
X107107820Y-163756544D01*
X107101910Y-163771000D01*
X107087948Y-163785685D01*
X107060940Y-163785642D01*
X107017413Y-163770099D01*
X106953890Y-163738284D01*
X106953388Y-163738013D01*
X106905560Y-163713323D01*
X106866897Y-163695338D01*
X106845095Y-163687614D01*
X106844133Y-163687543D01*
X106827721Y-163695378D01*
X106791487Y-163717165D01*
X106739474Y-163750328D01*
X106675725Y-163792291D01*
X106605060Y-163839943D01*
X106533116Y-163888191D01*
X106468274Y-163930151D01*
X106414735Y-163963227D01*
X106376697Y-163984821D01*
X106358533Y-163992343D01*
X106341808Y-163982457D01*
X106308180Y-163954826D01*
X106261010Y-163912495D01*
X106203658Y-163858505D01*
X106139484Y-163795899D01*
X106118497Y-163774983D01*
X105901499Y-163557623D01*
X106066668Y-163315220D01*
X106116864Y-163240781D01*
X106160919Y-163173972D01*
X106196362Y-163118665D01*
X106220719Y-163078729D01*
X106231522Y-163058036D01*
X106231838Y-163056563D01*
X106226143Y-163037058D01*
X106210826Y-162997822D01*
X106188537Y-162945430D01*
X106172893Y-162910355D01*
X106143641Y-162843201D01*
X106116094Y-162775358D01*
X106094737Y-162718034D01*
X106088935Y-162700572D01*
X106072452Y-162653938D01*
X106056340Y-162617905D01*
X106047490Y-162604287D01*
X106027960Y-162595952D01*
X105985334Y-162584137D01*
X105925145Y-162570181D01*
X105852922Y-162555422D01*
X105820600Y-162549355D01*
X105738522Y-162534273D01*
X105659795Y-162519669D01*
X105592109Y-162506980D01*
X105543160Y-162497642D01*
X105533943Y-162495839D01*
X105457743Y-162480799D01*
X105457743Y-162163492D01*
X105457914Y-162059154D01*
X105458616Y-161980213D01*
X105460134Y-161923038D01*
X105462749Y-161883999D01*
X105466746Y-161859465D01*
X105472409Y-161845805D01*
X105480020Y-161839389D01*
X105483143Y-161838199D01*
X105501978Y-161833980D01*
X105543588Y-161825562D01*
X105602630Y-161813961D01*
X105673757Y-161800195D01*
X105751625Y-161785280D01*
X105830887Y-161770232D01*
X105906198Y-161756069D01*
X105972213Y-161743806D01*
X106023587Y-161734461D01*
X106054975Y-161729050D01*
X106061959Y-161728114D01*
X106068285Y-161715596D01*
X106082290Y-161682246D01*
X106101355Y-161634377D01*
X106108634Y-161615629D01*
X106137996Y-161543195D01*
X106172571Y-161463170D01*
X106203537Y-161395728D01*
X106226323Y-161344159D01*
X106241482Y-161301785D01*
X106246542Y-161275834D01*
X106245736Y-161272356D01*
X106235041Y-161255936D01*
X106210620Y-161219417D01*
X106175095Y-161166687D01*
X106131087Y-161101635D01*
X106081217Y-161028151D01*
X106071356Y-161013645D01*
X106013492Y-160927704D01*
X105970956Y-160862261D01*
X105942054Y-160814304D01*
X105925090Y-160780820D01*
X105918367Y-160758795D01*
X105920190Y-160745217D01*
X105920236Y-160745131D01*
X105934586Y-160727297D01*
X105966323Y-160692817D01*
X106012010Y-160645268D01*
X106068204Y-160588222D01*
X106131468Y-160525255D01*
X106138602Y-160518227D01*
X106218330Y-160441020D01*
X106279857Y-160384330D01*
X106324421Y-160347110D01*
X106353257Y-160328315D01*
X106365958Y-160325889D01*
X106384494Y-160336471D01*
X106422961Y-160360916D01*
X106477386Y-160396612D01*
X106543798Y-160440947D01*
X106618225Y-160491311D01*
X106635601Y-160503160D01*
X106882297Y-160671626D01*
X106993706Y-160621062D01*
X107061457Y-160591595D01*
X107134183Y-160561959D01*
X107196703Y-160538330D01*
X107199457Y-160537358D01*
X107248360Y-160519457D01*
X107286057Y-160504320D01*
X107304425Y-160495210D01*
X107304456Y-160495184D01*
X107310285Y-160478717D01*
X107320192Y-160438219D01*
X107333195Y-160378242D01*
X107348309Y-160303340D01*
X107364552Y-160218064D01*
X107365881Y-160210875D01*
X107382175Y-160123014D01*
X107397133Y-160043260D01*
X107409791Y-159976681D01*
X107419186Y-159928347D01*
X107424354Y-159903325D01*
X107424444Y-159902943D01*
X107427589Y-159892299D01*
X107433704Y-159884262D01*
X107446453Y-159878467D01*
X107469500Y-159874547D01*
X107506509Y-159872135D01*
X107561144Y-159870865D01*
X107637067Y-159870371D01*
X107737944Y-159870286D01*
X107751000Y-159870286D01*
X107854910Y-159870348D01*
G36*
X107854910Y-159870348D02*
G01*
X107933454Y-159870778D01*
X107990298Y-159871942D01*
X108029105Y-159874207D01*
X108053538Y-159877940D01*
X108067262Y-159883506D01*
X108073940Y-159891273D01*
X108077236Y-159901605D01*
X108077556Y-159902943D01*
X108082562Y-159927079D01*
X108091829Y-159974701D01*
X108104392Y-160040741D01*
X108119287Y-160120128D01*
X108135551Y-160207796D01*
X108136119Y-160210875D01*
X108152410Y-160296789D01*
X108167652Y-160372696D01*
X108180861Y-160434045D01*
X108191054Y-160476282D01*
X108197248Y-160494855D01*
X108197543Y-160495184D01*
X108215788Y-160504253D01*
X108253405Y-160519367D01*
X108302271Y-160537262D01*
X108302543Y-160537358D01*
X108364093Y-160560493D01*
X108436657Y-160589965D01*
X108505057Y-160619597D01*
X108508294Y-160621062D01*
X108619702Y-160671626D01*
X108866399Y-160503160D01*
X108942077Y-160451803D01*
X109010631Y-160405889D01*
X109068088Y-160368030D01*
X109110476Y-160340837D01*
X109133825Y-160326921D01*
X109136042Y-160325889D01*
X109153010Y-160330484D01*
X109184701Y-160352655D01*
X109232352Y-160393447D01*
X109297198Y-160453905D01*
X109363397Y-160518227D01*
X109427214Y-160581612D01*
X109484329Y-160639451D01*
X109531305Y-160688175D01*
X109564703Y-160724210D01*
X109581085Y-160743984D01*
X109581694Y-160745002D01*
X109583505Y-160758572D01*
X109576683Y-160780733D01*
X109559540Y-160814478D01*
X109530393Y-160862800D01*
X109487555Y-160928692D01*
X109430448Y-161013517D01*
X109379766Y-161088177D01*
X109334461Y-161155140D01*
X109297150Y-161210516D01*
X109270452Y-161250420D01*
X109256985Y-161270962D01*
X109256137Y-161272356D01*
X109257781Y-161292038D01*
X109270245Y-161330293D01*
X109291048Y-161379889D01*
X109298462Y-161395728D01*
X109330814Y-161466290D01*
X109365328Y-161546353D01*
X109393365Y-161615629D01*
X109413568Y-161667045D01*
X109429615Y-161706119D01*
X109438888Y-161726541D01*
X109440041Y-161728114D01*
X109457096Y-161730721D01*
X109497298Y-161737863D01*
X109555302Y-161748523D01*
X109625763Y-161761685D01*
X109703335Y-161776333D01*
X109782672Y-161791449D01*
X109858431Y-161806018D01*
X109925264Y-161819022D01*
X109977828Y-161829445D01*
X110010776Y-161836270D01*
X110018857Y-161838199D01*
X110027205Y-161842962D01*
X110033506Y-161853718D01*
X110038045Y-161874098D01*
X110041104Y-161907734D01*
X110042967Y-161958255D01*
X110043918Y-162029292D01*
X110044240Y-162124476D01*
X110044257Y-162163492D01*
X110044257Y-162480799D01*
X109968057Y-162495839D01*
X109925663Y-162503995D01*
X109862400Y-162515899D01*
X109785962Y-162530116D01*
X109704043Y-162545210D01*
X109681400Y-162549355D01*
X109605806Y-162564053D01*
X109539953Y-162578505D01*
X109489366Y-162591375D01*
X109459574Y-162601322D01*
X109454612Y-162604287D01*
X109442426Y-162625283D01*
X109424953Y-162665967D01*
X109405577Y-162718322D01*
X109401734Y-162729600D01*
X109376339Y-162799523D01*
X109344817Y-162878418D01*
X109313969Y-162949266D01*
X109313817Y-162949595D01*
X109262447Y-163060733D01*
X109431399Y-163309253D01*
X109600352Y-163557772D01*
X109383429Y-163775058D01*
X109317819Y-163839726D01*
X109257979Y-163896733D01*
X109207267Y-163943033D01*
X109169046Y-163975584D01*
X109146675Y-163991343D01*
X109143466Y-163992343D01*
X109124626Y-163984469D01*
X109086180Y-163962578D01*
X109032330Y-163929267D01*
X108967276Y-163887131D01*
X108896940Y-163839943D01*
X108825555Y-163791810D01*
X108761908Y-163749928D01*
X108710041Y-163716871D01*
X108673995Y-163695218D01*
X108657867Y-163687543D01*
X108638189Y-163694037D01*
X108600875Y-163711150D01*
X108553621Y-163735326D01*
X108548612Y-163738013D01*
X108484977Y-163769927D01*
X108441341Y-163785579D01*
X108414202Y-163785745D01*
X108400057Y-163771204D01*
X108399975Y-163771000D01*
X108392905Y-163753779D01*
X108376042Y-163712899D01*
X108350695Y-163651525D01*
X108318171Y-163572819D01*
X108279778Y-163479947D01*
X108236822Y-163376072D01*
X108195222Y-163275502D01*
X108149504Y-163164516D01*
X108107526Y-163061703D01*
X108070548Y-162970215D01*
X108039827Y-162893201D01*
X108016622Y-162833815D01*
X108002190Y-162795209D01*
X107997743Y-162780800D01*
X108008896Y-162764272D01*
X108038069Y-162737930D01*
X108076971Y-162708887D01*
X108187757Y-162617039D01*
X108274351Y-162511759D01*
X108335716Y-162395266D01*
X108370815Y-162269776D01*
X108378608Y-162137507D01*
X108372943Y-162076457D01*
X108342078Y-161949795D01*
X108288920Y-161837941D01*
X108216767Y-161742001D01*
X108128917Y-161663076D01*
X108028665Y-161602270D01*
X107919310Y-161560687D01*
X107804147Y-161539428D01*
X107686475Y-161539599D01*
X107569590Y-161562301D01*
X107456789Y-161608638D01*
X107351369Y-161679713D01*
X107307368Y-161719911D01*
X107222979Y-161823129D01*
X107164222Y-161935925D01*
X107130704Y-162055010D01*
X107122035Y-162177095D01*
X107137823Y-162298893D01*
X107177678Y-162417116D01*
X107241207Y-162528475D01*
X107328021Y-162629684D01*
X107425029Y-162708887D01*
X107465437Y-162739162D01*
X107493982Y-162765219D01*
X107504257Y-162780825D01*
X107498877Y-162797843D01*
X107483575Y-162838500D01*
X107459612Y-162899642D01*
X107428244Y-162978119D01*
X107390732Y-163070780D01*
X107348333Y-163174472D01*
X107306663Y-163275526D01*
X107260690Y-163386607D01*
X107218107Y-163489541D01*
X107180221Y-163581165D01*
X107148340Y-163658316D01*
X107123771Y-163717831D01*
X107107820Y-163756544D01*
X107101910Y-163771000D01*
X107087948Y-163785685D01*
X107060940Y-163785642D01*
X107017413Y-163770099D01*
X106953890Y-163738284D01*
X106953388Y-163738013D01*
X106905560Y-163713323D01*
X106866897Y-163695338D01*
X106845095Y-163687614D01*
X106844133Y-163687543D01*
X106827721Y-163695378D01*
X106791487Y-163717165D01*
X106739474Y-163750328D01*
X106675725Y-163792291D01*
X106605060Y-163839943D01*
X106533116Y-163888191D01*
X106468274Y-163930151D01*
X106414735Y-163963227D01*
X106376697Y-163984821D01*
X106358533Y-163992343D01*
X106341808Y-163982457D01*
X106308180Y-163954826D01*
X106261010Y-163912495D01*
X106203658Y-163858505D01*
X106139484Y-163795899D01*
X106118497Y-163774983D01*
X105901499Y-163557623D01*
X106066668Y-163315220D01*
X106116864Y-163240781D01*
X106160919Y-163173972D01*
X106196362Y-163118665D01*
X106220719Y-163078729D01*
X106231522Y-163058036D01*
X106231838Y-163056563D01*
X106226143Y-163037058D01*
X106210826Y-162997822D01*
X106188537Y-162945430D01*
X106172893Y-162910355D01*
X106143641Y-162843201D01*
X106116094Y-162775358D01*
X106094737Y-162718034D01*
X106088935Y-162700572D01*
X106072452Y-162653938D01*
X106056340Y-162617905D01*
X106047490Y-162604287D01*
X106027960Y-162595952D01*
X105985334Y-162584137D01*
X105925145Y-162570181D01*
X105852922Y-162555422D01*
X105820600Y-162549355D01*
X105738522Y-162534273D01*
X105659795Y-162519669D01*
X105592109Y-162506980D01*
X105543160Y-162497642D01*
X105533943Y-162495839D01*
X105457743Y-162480799D01*
X105457743Y-162163492D01*
X105457914Y-162059154D01*
X105458616Y-161980213D01*
X105460134Y-161923038D01*
X105462749Y-161883999D01*
X105466746Y-161859465D01*
X105472409Y-161845805D01*
X105480020Y-161839389D01*
X105483143Y-161838199D01*
X105501978Y-161833980D01*
X105543588Y-161825562D01*
X105602630Y-161813961D01*
X105673757Y-161800195D01*
X105751625Y-161785280D01*
X105830887Y-161770232D01*
X105906198Y-161756069D01*
X105972213Y-161743806D01*
X106023587Y-161734461D01*
X106054975Y-161729050D01*
X106061959Y-161728114D01*
X106068285Y-161715596D01*
X106082290Y-161682246D01*
X106101355Y-161634377D01*
X106108634Y-161615629D01*
X106137996Y-161543195D01*
X106172571Y-161463170D01*
X106203537Y-161395728D01*
X106226323Y-161344159D01*
X106241482Y-161301785D01*
X106246542Y-161275834D01*
X106245736Y-161272356D01*
X106235041Y-161255936D01*
X106210620Y-161219417D01*
X106175095Y-161166687D01*
X106131087Y-161101635D01*
X106081217Y-161028151D01*
X106071356Y-161013645D01*
X106013492Y-160927704D01*
X105970956Y-160862261D01*
X105942054Y-160814304D01*
X105925090Y-160780820D01*
X105918367Y-160758795D01*
X105920190Y-160745217D01*
X105920236Y-160745131D01*
X105934586Y-160727297D01*
X105966323Y-160692817D01*
X106012010Y-160645268D01*
X106068204Y-160588222D01*
X106131468Y-160525255D01*
X106138602Y-160518227D01*
X106218330Y-160441020D01*
X106279857Y-160384330D01*
X106324421Y-160347110D01*
X106353257Y-160328315D01*
X106365958Y-160325889D01*
X106384494Y-160336471D01*
X106422961Y-160360916D01*
X106477386Y-160396612D01*
X106543798Y-160440947D01*
X106618225Y-160491311D01*
X106635601Y-160503160D01*
X106882297Y-160671626D01*
X106993706Y-160621062D01*
X107061457Y-160591595D01*
X107134183Y-160561959D01*
X107196703Y-160538330D01*
X107199457Y-160537358D01*
X107248360Y-160519457D01*
X107286057Y-160504320D01*
X107304425Y-160495210D01*
X107304456Y-160495184D01*
X107310285Y-160478717D01*
X107320192Y-160438219D01*
X107333195Y-160378242D01*
X107348309Y-160303340D01*
X107364552Y-160218064D01*
X107365881Y-160210875D01*
X107382175Y-160123014D01*
X107397133Y-160043260D01*
X107409791Y-159976681D01*
X107419186Y-159928347D01*
X107424354Y-159903325D01*
X107424444Y-159902943D01*
X107427589Y-159892299D01*
X107433704Y-159884262D01*
X107446453Y-159878467D01*
X107469500Y-159874547D01*
X107506509Y-159872135D01*
X107561144Y-159870865D01*
X107637067Y-159870371D01*
X107737944Y-159870286D01*
X107751000Y-159870286D01*
X107854910Y-159870348D01*
G37*
D11*
%TO.C,R31*%
X117153742Y-133235500D02*
X117628258Y-133235500D01*
X117153742Y-134280500D02*
X117628258Y-134280500D01*
%TO.C,R2*%
X99363742Y-136105500D02*
X99838258Y-136105500D01*
X99363742Y-137150500D02*
X99838258Y-137150500D01*
%TO.C,R20*%
X59165564Y-120543000D02*
X58711436Y-120543000D01*
X59165564Y-122013000D02*
X58711436Y-122013000D01*
%TO.C,D4*%
X45828500Y-144828000D02*
X45828500Y-151248000D01*
X45828500Y-151248000D02*
X46098500Y-151248000D01*
X52728500Y-144828000D02*
X52728500Y-151248000D01*
X52728500Y-151248000D02*
X52458500Y-151248000D01*
X46138500Y-152668000D02*
X45808500Y-152908000D01*
X45808500Y-152428000D01*
X46138500Y-152668000D01*
G36*
X46138500Y-152668000D02*
G01*
X45808500Y-152908000D01*
X45808500Y-152428000D01*
X46138500Y-152668000D01*
G37*
%TO.C,D9*%
X68286000Y-133378000D02*
X62776000Y-133378000D01*
X68286000Y-136678000D02*
X62776000Y-136678000D01*
X68286000Y-136678000D02*
X68286000Y-133378000D01*
%TO.C,R4*%
X137253500Y-122515258D02*
X137253500Y-122040742D01*
X138298500Y-122515258D02*
X138298500Y-122040742D01*
%TO.C,R34*%
X122856000Y-122155936D02*
X122856000Y-126510064D01*
X126276000Y-122155936D02*
X126276000Y-126510064D01*
%TO.C,SW1*%
X95021000Y-139098000D02*
X101481000Y-139098000D01*
X95021000Y-139128000D02*
X95021000Y-139098000D01*
X95021000Y-141028000D02*
X95021000Y-143628000D01*
X95021000Y-145558000D02*
X95021000Y-145528000D01*
X95021000Y-145558000D02*
X101481000Y-145558000D01*
X101481000Y-139098000D02*
X101481000Y-139128000D01*
X101481000Y-141028000D02*
X101481000Y-143628000D01*
X101481000Y-145558000D02*
X101481000Y-145528000D01*
%TO.C,D7*%
X141426000Y-148768000D02*
X141426000Y-152028000D01*
X143126000Y-148768000D02*
X141426000Y-148768000D01*
X143126000Y-148768000D02*
X143126000Y-152028000D01*
%TO.C,L1*%
X124616000Y-139177622D02*
X124616000Y-138378378D01*
X125736000Y-139177622D02*
X125736000Y-138378378D01*
%TO.C,C25*%
X58266000Y-136062420D02*
X58266000Y-136343580D01*
X59286000Y-136062420D02*
X59286000Y-136343580D01*
%TO.C,C1*%
X141266000Y-133168580D02*
X141266000Y-132887420D01*
X142286000Y-133168580D02*
X142286000Y-132887420D01*
%TO.C,R6*%
X139638258Y-136880500D02*
X139163742Y-136880500D01*
X139638258Y-137925500D02*
X139163742Y-137925500D01*
%TO.C,C16*%
X130766000Y-138668580D02*
X130766000Y-138387420D01*
X131786000Y-138668580D02*
X131786000Y-138387420D01*
%TO.C,C36*%
X101391000Y-124618000D02*
X102591000Y-124618000D01*
X101391000Y-128073563D02*
X101391000Y-124618000D01*
X101841000Y-129628000D02*
X102341000Y-129628000D01*
X102091000Y-129878000D02*
X102091000Y-129378000D01*
X102455437Y-129138000D02*
X101391000Y-128073563D01*
X102455437Y-129138000D02*
X102591000Y-129138000D01*
X104846563Y-129138000D02*
X104711000Y-129138000D01*
X104846563Y-129138000D02*
X105911000Y-128073563D01*
X105911000Y-124618000D02*
X104711000Y-124618000D01*
X105911000Y-128073563D02*
X105911000Y-124618000D01*
%TO.C,R5*%
X135503500Y-122040742D02*
X135503500Y-122515258D01*
X136548500Y-122040742D02*
X136548500Y-122515258D01*
%TO.C,R9*%
X127253500Y-155015742D02*
X127253500Y-155490258D01*
X128298500Y-155015742D02*
X128298500Y-155490258D01*
%TO.C,C37*%
X119566000Y-129273000D02*
X120066000Y-129273000D01*
X119816000Y-129023000D02*
X119816000Y-129523000D01*
X120306000Y-129637437D02*
X120306000Y-129773000D01*
X120306000Y-129637437D02*
X121370437Y-128573000D01*
X120306000Y-132028563D02*
X120306000Y-131893000D01*
X120306000Y-132028563D02*
X121370437Y-133093000D01*
X121370437Y-128573000D02*
X124826000Y-128573000D01*
X121370437Y-133093000D02*
X124826000Y-133093000D01*
X124826000Y-128573000D02*
X124826000Y-129773000D01*
X124826000Y-133093000D02*
X124826000Y-131893000D01*
%TO.C,F2*%
X137889748Y-154068000D02*
X140662252Y-154068000D01*
X137889748Y-157488000D02*
X140662252Y-157488000D01*
%TO.C,D14*%
X110876000Y-160228000D02*
X112176000Y-160228000D01*
X110876000Y-162028000D02*
X112176000Y-162028000D01*
D10*
X112851000Y-161638000D02*
G75*
G02*
X112701000Y-161638000I-75000J0D01*
G01*
X112701000Y-161638000D02*
G75*
G02*
X112851000Y-161638000I75000J0D01*
G01*
D11*
%TO.C,C13*%
X128666000Y-138668580D02*
X128666000Y-138387420D01*
X129686000Y-138668580D02*
X129686000Y-138387420D01*
%TO.C,C22*%
X46266000Y-125668000D02*
X47466000Y-125668000D01*
X46266000Y-129123563D02*
X46266000Y-125668000D01*
X46716000Y-130678000D02*
X47216000Y-130678000D01*
X46966000Y-130928000D02*
X46966000Y-130428000D01*
X47330437Y-130188000D02*
X46266000Y-129123563D01*
X47330437Y-130188000D02*
X47466000Y-130188000D01*
X49721563Y-130188000D02*
X49586000Y-130188000D01*
X49721563Y-130188000D02*
X50786000Y-129123563D01*
X50786000Y-125668000D02*
X49586000Y-125668000D01*
X50786000Y-129123563D02*
X50786000Y-125668000D01*
%TO.C,Q6*%
X114946000Y-115508000D02*
X114946000Y-120149000D01*
X114946000Y-115508000D02*
X125186000Y-115508000D01*
X114946000Y-117018000D02*
X125186000Y-117018000D01*
X114946000Y-120149000D02*
X125186000Y-120149000D01*
X118216000Y-115508000D02*
X118216000Y-117018000D01*
X121917000Y-115508000D02*
X121917000Y-117018000D01*
X125186000Y-115508000D02*
X125186000Y-120149000D01*
%TO.C,R38*%
X106938258Y-123055500D02*
X106463742Y-123055500D01*
X106938258Y-124100500D02*
X106463742Y-124100500D01*
%TO.C,C14*%
X127066000Y-138668580D02*
X127066000Y-138387420D01*
X128086000Y-138668580D02*
X128086000Y-138387420D01*
%TO.C,R39*%
X70713258Y-118305500D02*
X70238742Y-118305500D01*
X70713258Y-119350500D02*
X70238742Y-119350500D01*
%TO.C,D10*%
X79976000Y-123688000D02*
X79976000Y-127698000D01*
X81976000Y-123688000D02*
X79976000Y-123688000D01*
X81976000Y-123688000D02*
X81976000Y-127698000D01*
%TO.C,R1*%
X141253500Y-136515258D02*
X141253500Y-136040742D01*
X142298500Y-136515258D02*
X142298500Y-136040742D01*
%TO.C,C28*%
X76966000Y-132657420D02*
X76966000Y-132938580D01*
X77986000Y-132657420D02*
X77986000Y-132938580D01*
%TO.C,J6*%
X53936000Y-165688000D02*
X53936000Y-166428000D01*
X53936000Y-166428000D02*
X54436000Y-166428000D01*
X54176000Y-156267000D02*
X54176000Y-166188000D01*
X54176000Y-156267000D02*
X64456000Y-156267000D01*
X54176000Y-159227000D02*
X64456000Y-159227000D01*
X54176000Y-164128000D02*
X64456000Y-164128000D01*
X54176000Y-165628000D02*
X64456000Y-165628000D01*
X54176000Y-166188000D02*
X64456000Y-166188000D01*
X60629000Y-162551000D02*
X60582000Y-162597000D01*
X60822000Y-162767000D02*
X60787000Y-162802000D01*
X62926000Y-160253000D02*
X62891000Y-160289000D01*
X63131000Y-160459000D02*
X63084000Y-160505000D01*
X64456000Y-156267000D02*
X64456000Y-166188000D01*
X55240573Y-162211042D02*
G75*
G02*
X55241000Y-160844000I1535420J683041D01*
G01*
X56092958Y-159992573D02*
G75*
G02*
X57460000Y-159993000I683041J-1535420D01*
G01*
X56804805Y-163208253D02*
G75*
G02*
X56092000Y-163063000I-28806J1680254D01*
G01*
X57459318Y-163062756D02*
G75*
G02*
X56776000Y-163208000I-683318J1534756D01*
G01*
X58311427Y-160844958D02*
G75*
G02*
X58311000Y-162212000I-1535427J-683042D01*
G01*
X63536000Y-161528000D02*
G75*
G02*
X60176000Y-161528000I-1680000J0D01*
G01*
X60176000Y-161528000D02*
G75*
G02*
X63536000Y-161528000I1680000J0D01*
G01*
%TD*%
M02*
