M48
; DRILL file {KiCad 8.0.5-8.0.5-0~ubuntu24.04.1} date 2024-10-01T16:14:04+0200
; FORMAT={-:-/ absolute / inch / decimal}
; #@! TF.CreationDate,2024-10-01T16:14:04+02:00
; #@! TF.GenerationSoftware,Kicad,Pcbnew,8.0.5-8.0.5-0~ubuntu24.04.1
; #@! TF.FileFunction,Plated,1,4,PTH
FMAT,2
INCH
; #@! TA.AperFunction,Plated,PTH,ViaDrill
T1C0.0157
; #@! TA.AperFunction,Plated,PTH,ComponentDrill
T2C0.0197
; #@! TA.AperFunction,Plated,PTH,ComponentDrill
T3C0.0236
; #@! TA.AperFunction,Plated,PTH,ComponentDrill
T4C0.0295
; #@! TA.AperFunction,Plated,PTH,ComponentDrill
T5C0.0394
; #@! TA.AperFunction,Plated,PTH,ComponentDrill
T6C0.0433
; #@! TA.AperFunction,Plated,PTH,ComponentDrill
T7C0.0512
; #@! TA.AperFunction,Plated,PTH,ComponentDrill
T8C0.1260
%
G90
G05
T1
X1.7835Y-5.2895
X1.8809Y-5.4145
X1.8809Y-5.4834
X1.8809Y-5.5523
X1.8809Y-5.6212
X1.9498Y-5.4145
X1.9498Y-5.4834
X1.9498Y-5.5523
X1.9498Y-5.6212
X2.0187Y-5.4145
X2.0187Y-5.4834
X2.0187Y-5.5523
X2.0187Y-5.6212
X2.0876Y-5.4145
X2.0876Y-5.4834
X2.0876Y-5.5523
X2.0876Y-5.6212
X2.1369Y-6.1625
X2.1369Y-6.2413
X2.1369Y-6.4972
X2.1565Y-5.4145
X2.1565Y-5.4834
X2.1565Y-5.5523
X2.2254Y-6.1625
X2.2254Y-6.2413
X2.2254Y-6.4972
X2.2609Y-5.1684
X2.2845Y-5.7885
X2.3127Y-5.5916
X2.3135Y-5.4337
X2.314Y-5.4735
X2.314Y-5.5129
X2.314Y-5.5523
X2.314Y-6.1625
X2.314Y-6.2413
X2.314Y-6.4972
X2.3435Y-5.7294
X2.4026Y-5.6704
X2.4026Y-5.7885
X2.4026Y-5.9066
X2.4026Y-6.4972
X2.4617Y-5.7294
X2.4617Y-5.8476
X2.4912Y-6.4972
X2.5207Y-5.7885
X2.5207Y-5.9066
X2.5798Y-5.8476
X2.5798Y-6.4972
X2.5994Y-5.2275
X2.5994Y-5.385
X2.6388Y-5.4637
X2.6388Y-5.9066
X2.6683Y-6.4972
X2.6782Y-5.2275
X2.6782Y-5.385
X2.7176Y-5.1487
X2.7176Y-5.3062
X2.7176Y-5.4637
X2.7569Y-5.2275
X2.7569Y-5.385
X2.7569Y-5.5424
X2.7569Y-6.005
X2.7569Y-6.0838
X2.7569Y-6.1625
X2.7569Y-6.2413
X2.7569Y-6.32
X2.7569Y-6.4086
X2.7569Y-6.4972
X2.7963Y-5.3062
X2.7963Y-5.4637
X2.7963Y-5.6212
X2.8357Y-5.2275
X2.8357Y-5.385
X2.8357Y-5.5424
X2.8376Y-5.698
X2.8435Y-5.0444
X2.8455Y-6.4972
X2.8652Y-4.6704
X2.875Y-5.1487
X2.875Y-5.3062
X2.875Y-5.4637
X2.875Y-5.6212
X2.9006Y-5.0444
X2.9144Y-5.2275
X2.9144Y-5.385
X2.9144Y-5.5424
X2.9144Y-5.6999
X2.9164Y-4.5877
X2.9341Y-6.4972
X2.9538Y-5.3062
X2.9538Y-5.4637
X2.9538Y-5.6212
X2.9931Y-5.385
X2.9931Y-5.5424
X2.9931Y-5.6999
X3.0227Y-6.4972
X3.0325Y-5.3062
X3.0325Y-5.4637
X3.0325Y-5.6212
X3.0483Y-5.0936
X3.0817Y-5.1586
X3.1113Y-6.4972
X3.1506Y-5.385
X3.1506Y-5.5424
X3.19Y-5.4637
X3.19Y-5.6212
X3.2294Y-5.385
X3.2294Y-5.5424
X3.2687Y-5.4637
X3.3081Y-5.5424
X3.3199Y-5.3013
X3.3721Y-5.3013
X3.3829Y-5.3653
X3.3888Y-5.1684
X3.4434Y-5.4356
X3.4557Y-6.1133
X3.4557Y-6.2609
X3.4557Y-6.4184
X3.505Y-6.0444
X3.505Y-6.1822
X3.505Y-6.3397
X3.505Y-6.507
X3.5542Y-5.9755
X3.5542Y-6.1133
X3.5542Y-6.4184
X3.6034Y-6.0444
X3.6034Y-6.1822
X3.6034Y-6.507
X3.6526Y-5.9755
X3.6526Y-6.4184
X3.6723Y-6.0739
X3.7018Y-6.507
X3.751Y-6.0739
X3.751Y-6.4184
X3.7589Y-5.4027
X3.7609Y-5.2373
X3.8002Y-6.507
X3.8298Y-6.0739
X3.8337Y-4.7009
X3.8494Y-5.2373
X3.8494Y-5.3259
X3.8494Y-5.4145
X3.8494Y-6.4184
X3.8987Y-6.507
X3.9361Y-5.0857
X3.9479Y-6.4184
X3.9577Y-5.2304
X3.9685Y-6.2127
X3.9735Y-6.1172
X3.9882Y-4.6997
X3.9961Y-5.4391
X3.9971Y-6.507
X4.0069Y-5.067
X4.0463Y-6.4184
X4.0914Y-6.2905
X4.0955Y-6.507
X4.0965Y-5.1448
X4.0965Y-5.2373
X4.0965Y-5.3298
X4.1644Y-6.1231
X4.1644Y-6.2609
X4.1644Y-6.3987
X4.1772Y-5.5149
X4.1939Y-6.192
X4.1939Y-6.3298
X4.2333Y-5.1586
X4.2333Y-6.1231
X4.2333Y-6.2609
X4.2333Y-6.3987
X4.2451Y-5.5149
X4.2481Y-5.2602
X4.2628Y-6.192
X4.2628Y-6.3298
X4.2924Y-6.1231
X4.3022Y-6.2609
X4.3022Y-6.3987
X4.3278Y-5.3761
X4.3278Y-5.4627
X4.3317Y-6.192
X4.3317Y-6.3298
X4.3908Y-6.4184
X4.4006Y-5.257
X4.4223Y-5.4627
X4.44Y-6.507
X4.4534Y-5.3948
X4.4652Y-5.2777
X4.4892Y-6.4184
X4.5174Y-5.2777
X4.52Y-5.4615
X4.5384Y-5.1704
X4.5384Y-6.32
X4.5384Y-6.507
X4.5876Y-6.4184
X4.6369Y-6.32
X4.6369Y-6.507
X4.6861Y-6.4184
X4.7254Y-6.32
X4.7254Y-6.507
X4.7746Y-6.4184
X4.8047Y-5.818
X4.8052Y-5.6556
X4.8052Y-5.695
X4.8052Y-5.7344
X4.8052Y-5.6163
X4.8053Y-5.7787
X4.8061Y-5.5375
X4.8063Y-5.5769
X4.814Y-6.32
X4.814Y-6.507
X4.8632Y-6.4184
X4.8731Y-5.0995
X4.8731Y-5.2373
X4.8731Y-5.3919
X4.8849Y-5.5341
X4.9297Y-5.5961
X4.9518Y-5.0995
X4.9518Y-5.2373
X4.9526Y-5.8844
X4.9653Y-5.4672
X4.9725Y-6.1694
X5.0306Y-5.1468
X5.0306Y-5.1861
X5.1014Y-5.13
X5.1241Y-4.7127
X5.129Y-6.0346
X5.1683Y-5.9499
X5.188Y-5.2078
X5.2262Y-5.5621
X5.2262Y-5.8945
X5.2264Y-5.9814
X5.2284Y-4.7019
X5.2559Y-6.0444
X5.2766Y-5.5228
X5.283Y-6.1522
X5.2865Y-5.896
X5.313Y-5.647
X5.316Y-5.1783
X5.3189Y-5.9913
X5.3357Y-6.2216
X5.3504Y-5.0287
X5.3652Y-5.6606
X5.3652Y-5.7088
X5.3947Y-5.5031
X5.4193Y-5.192
X5.4557Y-5.3623
X5.4833Y-5.5523
X5.4833Y-5.631
X5.4833Y-6.133
X5.6014Y-5.8279
X5.6309Y-5.2078
T2
X1.8455Y-6.3594
X1.8732Y-6.2926
X1.8732Y-6.4262
X1.94Y-6.2649
X1.94Y-6.4539
X2.0068Y-6.2926
X2.0068Y-6.4262
X2.0345Y-6.3594
X5.3888Y-6.3594
X5.4165Y-6.2926
X5.4165Y-6.4262
X5.4833Y-6.2649
X5.4833Y-6.4539
X5.5501Y-6.2926
X5.5501Y-6.4262
X5.5778Y-6.3594
T4
X3.5935Y-6.3023
X3.6723Y-6.3023
X3.751Y-6.3023
X3.8298Y-6.3023
X3.9085Y-6.3023
T5
X4.5258Y-6.0582
X4.5258Y-6.1582
X4.6258Y-6.0582
X4.6258Y-6.1582
X4.7258Y-6.0582
X4.7258Y-6.1582
X4.8258Y-6.0582
X4.8258Y-6.1582
T6
X1.8794Y-4.6741
X1.9794Y-4.6741
X2.0794Y-4.6741
X2.3518Y-4.6741
X2.4518Y-4.6741
X2.5518Y-4.6741
X3.0093Y-4.6749
X3.1093Y-4.6749
X3.2093Y-4.6749
X3.4817Y-4.6749
X3.5817Y-4.6749
X3.6817Y-4.6749
X4.1546Y-4.6763
X4.2546Y-4.6763
X4.3546Y-4.6763
X4.627Y-4.6763
X4.727Y-4.6763
X4.827Y-4.6763
X5.3538Y-4.6741
X5.4538Y-4.6741
X5.5538Y-4.6741
T7
X2.2353Y-6.3594
X2.4353Y-6.3594
X2.9046Y-6.3594
X3.1046Y-6.3594
X3.3046Y-6.3594
T8
X1.94Y-6.3594
X5.4833Y-6.3594
T3
G00X2.1526Y-6.0483
M15
G01X2.1526Y-5.9932
M16
G05
G00X2.2983Y-6.0483
M15
G01X2.2983Y-5.9932
M16
G05
G00X2.4676Y-6.0483
M15
G01X2.4676Y-5.9932
M16
G05
G00X2.6132Y-6.0483
M15
G01X2.6132Y-5.9932
M16
G05
G00X4.9392Y-6.2615
M15
G01X4.9392Y-6.3048
M16
G05
G00X4.9392Y-6.4328
M15
G01X4.9392Y-6.4643
M16
G05
G00X5.2794Y-6.2615
M15
G01X5.2794Y-6.3048
M16
G05
G00X5.2794Y-6.4328
M15
G01X5.2794Y-6.4643
M16
G05
M30
