%TF.GenerationSoftware,KiCad,Pcbnew,8.0.5-8.0.5-0~ubuntu24.04.1*%
%TF.CreationDate,2024-10-01T16:14:08+02:00*%
%TF.ProjectId,TFG-Brushless-ESC,5446472d-4272-4757-9368-6c6573732d45,rev?*%
%TF.SameCoordinates,Original*%
%TF.FileFunction,Copper,L3,Inr*%
%TF.FilePolarity,Positive*%
%FSLAX46Y46*%
G04 Gerber Fmt 4.6, Leading zero omitted, Abs format (unit mm)*
G04 Created by KiCad (PCBNEW 8.0.5-8.0.5-0~ubuntu24.04.1) date 2024-10-01 16:14:08*
%MOMM*%
%LPD*%
G01*
G04 APERTURE LIST*
G04 Aperture macros list*
%AMRoundRect*
0 Rectangle with rounded corners*
0 $1 Rounding radius*
0 $2 $3 $4 $5 $6 $7 $8 $9 X,Y pos of 4 corners*
0 Add a 4 corners polygon primitive as box body*
4,1,4,$2,$3,$4,$5,$6,$7,$8,$9,$2,$3,0*
0 Add four circle primitives for the rounded corners*
1,1,$1+$1,$2,$3*
1,1,$1+$1,$4,$5*
1,1,$1+$1,$6,$7*
1,1,$1+$1,$8,$9*
0 Add four rect primitives between the rounded corners*
20,1,$1+$1,$2,$3,$4,$5,0*
20,1,$1+$1,$4,$5,$6,$7,0*
20,1,$1+$1,$6,$7,$8,$9,0*
20,1,$1+$1,$8,$9,$2,$3,0*%
G04 Aperture macros list end*
%TA.AperFunction,ComponentPad*%
%ADD10RoundRect,0.250000X-0.350000X-0.625000X0.350000X-0.625000X0.350000X0.625000X-0.350000X0.625000X0*%
%TD*%
%TA.AperFunction,ComponentPad*%
%ADD11O,1.200000X1.750000*%
%TD*%
%TA.AperFunction,ComponentPad*%
%ADD12O,1.000000X2.100000*%
%TD*%
%TA.AperFunction,ComponentPad*%
%ADD13O,1.000000X1.800000*%
%TD*%
%TA.AperFunction,ComponentPad*%
%ADD14R,1.905000X2.000000*%
%TD*%
%TA.AperFunction,ComponentPad*%
%ADD15O,1.905000X2.000000*%
%TD*%
%TA.AperFunction,ComponentPad*%
%ADD16O,1.500000X2.900000*%
%TD*%
%TA.AperFunction,ComponentPad*%
%ADD17C,0.800000*%
%TD*%
%TA.AperFunction,ComponentPad*%
%ADD18C,6.400000*%
%TD*%
%TA.AperFunction,ComponentPad*%
%ADD19O,1.700000X1.700000*%
%TD*%
%TA.AperFunction,ComponentPad*%
%ADD20R,1.700000X1.700000*%
%TD*%
%TA.AperFunction,ComponentPad*%
%ADD21R,2.600000X2.600000*%
%TD*%
%TA.AperFunction,ComponentPad*%
%ADD22C,2.600000*%
%TD*%
%TA.AperFunction,ViaPad*%
%ADD23C,0.800000*%
%TD*%
G04 APERTURE END LIST*
D10*
%TO.N,GND*%
%TO.C,J4*%
X91276000Y-160078000D03*
D11*
%TO.N,/PA8*%
X93276000Y-160078000D03*
%TO.N,/PA9*%
X95276000Y-160078000D03*
%TO.N,/PA10*%
X97276000Y-160078000D03*
%TO.N,+3V3*%
X99276000Y-160078000D03*
%TD*%
D12*
%TO.N,unconnected-(J2-SHIELD-PadS1)*%
%TO.C,J2*%
X125456000Y-159593000D03*
D13*
%TO.N,unconnected-(J2-SHIELD-PadS1)_3*%
X125456000Y-163793000D03*
D12*
%TO.N,unconnected-(J2-SHIELD-PadS1)_1*%
X134096000Y-159593000D03*
D13*
%TO.N,unconnected-(J2-SHIELD-PadS1)_2*%
X134096000Y-163793000D03*
%TD*%
D14*
%TO.N,Net-(Q4-G)*%
%TO.C,Q4*%
X88436000Y-118743000D03*
D15*
%TO.N,/V*%
X90976000Y-118743000D03*
%TO.N,/Half-Bridge-V/Shunt*%
X93516000Y-118743000D03*
%TD*%
D16*
%TO.N,/24V in*%
%TO.C,F1*%
X66376000Y-152928000D03*
X62676000Y-152928000D03*
%TO.N,/24V fused*%
X58376000Y-152928000D03*
X54676000Y-152928000D03*
%TD*%
D14*
%TO.N,/V_DIV_12*%
%TO.C,U2*%
X135986000Y-118723000D03*
D15*
%TO.N,+12V*%
X138526000Y-118723000D03*
%TO.N,+24V*%
X141066000Y-118723000D03*
%TD*%
D17*
%TO.N,N/C*%
%TO.C,REF\u002A\u002A*%
X136876000Y-161528000D03*
X137578944Y-159830944D03*
X137578944Y-163225056D03*
X139276000Y-159128000D03*
D18*
X139276000Y-161528000D03*
D17*
X139276000Y-163928000D03*
X140973056Y-159830944D03*
X140973056Y-163225056D03*
X141676000Y-161528000D03*
%TD*%
D14*
%TO.N,Net-(Q3-G)*%
%TO.C,Q3*%
X76436000Y-118743000D03*
D15*
%TO.N,+24V*%
X78976000Y-118743000D03*
%TO.N,/V*%
X81516000Y-118743000D03*
%TD*%
D14*
%TO.N,Net-(Q2-G)*%
%TO.C,Q2*%
X59736000Y-118723000D03*
D15*
%TO.N,/U*%
X62276000Y-118723000D03*
%TO.N,/Half-Bridge-U/Shunt*%
X64816000Y-118723000D03*
%TD*%
D14*
%TO.N,Net-(Q1-G)*%
%TO.C,Q1*%
X47736000Y-118723000D03*
D15*
%TO.N,+24V*%
X50276000Y-118723000D03*
%TO.N,/U*%
X52816000Y-118723000D03*
%TD*%
D14*
%TO.N,Net-(Q5-G)*%
%TO.C,Q5*%
X105526000Y-118778000D03*
D15*
%TO.N,+24V*%
X108066000Y-118778000D03*
%TO.N,/W*%
X110606000Y-118778000D03*
%TD*%
D19*
%TO.N,+3V3*%
%TO.C,J5*%
X114956000Y-156418000D03*
X114956000Y-153878000D03*
%TO.N,/I2C_SDA*%
X117496000Y-156418000D03*
%TO.N,/SWDIO*%
X117496000Y-153878000D03*
%TO.N,/I2C_SCL*%
X120036000Y-156418000D03*
%TO.N,/SWSCK*%
X120036000Y-153878000D03*
%TO.N,GND*%
X122576000Y-156418000D03*
D20*
X122576000Y-153878000D03*
%TD*%
D21*
%TO.N,/U*%
%TO.C,J1*%
X73776000Y-161528000D03*
D22*
%TO.N,/V*%
X78856000Y-161528000D03*
%TO.N,/W*%
X83936000Y-161528000D03*
%TD*%
D17*
%TO.N,N/C*%
%TO.C,REF\u002A\u002A*%
X46876000Y-161528000D03*
X47578944Y-159830944D03*
X47578944Y-163225056D03*
X49276000Y-159128000D03*
D18*
X49276000Y-161528000D03*
D17*
X49276000Y-163928000D03*
X50973056Y-159830944D03*
X50973056Y-163225056D03*
X51676000Y-161528000D03*
%TD*%
D14*
%TO.N,Net-(Q6-G)*%
%TO.C,Q6*%
X117526000Y-118778000D03*
D15*
%TO.N,/W*%
X120066000Y-118778000D03*
%TO.N,/Half-Bridge-W/Shunt*%
X122606000Y-118778000D03*
%TD*%
D21*
%TO.N,GND*%
%TO.C,J6*%
X56776000Y-161528000D03*
D22*
%TO.N,/24V in*%
X61856000Y-161528000D03*
%TD*%
D23*
%TO.N,GND*%
X70026000Y-152528000D03*
X70026000Y-154528000D03*
X70026000Y-162778000D03*
X70026000Y-160528000D03*
X70026000Y-158528000D03*
X70026000Y-156528000D03*
X105776000Y-162528000D03*
X107526000Y-162528000D03*
X109276000Y-162528000D03*
X110026000Y-160778000D03*
X108276000Y-160778000D03*
X106526000Y-160778000D03*
X58026000Y-147028000D03*
X59526000Y-145528000D03*
X79026000Y-165028000D03*
X76776000Y-165028000D03*
X74526000Y-165028000D03*
X72276000Y-165028000D03*
X70026000Y-165028000D03*
X67776000Y-165028000D03*
X65526000Y-165028000D03*
X63276000Y-165028000D03*
X61026000Y-165028000D03*
X58776000Y-165028000D03*
X54276000Y-165028000D03*
X56526000Y-165028000D03*
X56526000Y-158528000D03*
X56526000Y-156528000D03*
X58776000Y-156528000D03*
X58776000Y-158528000D03*
X54276000Y-158528000D03*
X54276000Y-156528000D03*
X101526000Y-165278000D03*
X89026000Y-165278000D03*
X77026000Y-134778000D03*
X62526000Y-145528000D03*
X97776000Y-137528000D03*
X84026000Y-140778000D03*
X87463347Y-138065347D03*
X125776000Y-129528000D03*
X73026000Y-142778000D03*
X107526000Y-155528000D03*
X61026000Y-150028000D03*
X97776000Y-133028000D03*
X87776000Y-163028000D03*
X109276000Y-159028000D03*
X57426000Y-131278000D03*
X74026000Y-132778000D03*
X65526000Y-148528000D03*
X90276000Y-151778000D03*
X89026000Y-153528000D03*
X64026000Y-150028000D03*
X77026000Y-142778000D03*
X130276000Y-153278000D03*
X67026000Y-150028000D03*
X45301000Y-134353000D03*
X74026000Y-144778000D03*
X120026000Y-160528000D03*
X75026000Y-134778000D03*
X142276000Y-148028000D03*
X82026000Y-140778000D03*
X75026000Y-138778000D03*
X97376000Y-119403000D03*
X111776000Y-133528000D03*
X61026000Y-147028000D03*
X69026000Y-134778000D03*
X74026000Y-136778000D03*
X81026000Y-138778000D03*
X82026000Y-136778000D03*
X91526000Y-157028000D03*
X134951000Y-143433000D03*
X66026000Y-132778000D03*
X120026000Y-165278000D03*
X71026000Y-142778000D03*
X72076000Y-144728000D03*
X99026000Y-165278000D03*
X72026000Y-132778000D03*
X109926000Y-136553000D03*
X104051000Y-130678000D03*
X72026000Y-136778000D03*
X115276000Y-165278000D03*
X95526000Y-133028000D03*
X76026000Y-140778000D03*
X96526000Y-165278000D03*
X68026000Y-132778000D03*
X104026000Y-165278000D03*
X115276000Y-131328000D03*
X138576000Y-136203000D03*
X97776000Y-135278000D03*
X117776000Y-165278000D03*
X100276000Y-163028000D03*
X80026000Y-140778000D03*
X103921000Y-159778000D03*
X132745999Y-149720804D03*
X139276000Y-155778000D03*
X68026000Y-136778000D03*
X117776000Y-160528000D03*
X91526000Y-153528000D03*
X89026000Y-161028000D03*
X104051000Y-133028000D03*
X94026000Y-165278000D03*
X95276000Y-163028000D03*
X122276000Y-165278000D03*
X90276000Y-155278000D03*
X80026000Y-136778000D03*
X125776000Y-133028000D03*
X73026000Y-130778000D03*
X135526000Y-158028000D03*
X106526000Y-157278000D03*
X73026000Y-134778000D03*
X87776000Y-159028000D03*
X143026000Y-132278000D03*
X70026000Y-140778000D03*
X132801000Y-119428000D03*
X108276000Y-157278000D03*
X107901000Y-133608000D03*
X112326000Y-138753000D03*
X102776000Y-163028000D03*
X123776000Y-133028000D03*
X111526000Y-163028000D03*
X109026000Y-155528000D03*
X58763347Y-138015347D03*
X91526000Y-165278000D03*
X69026000Y-130778000D03*
X66026000Y-136778000D03*
X83026000Y-138778000D03*
X139276000Y-143028000D03*
X95476000Y-137228000D03*
X114026000Y-163028000D03*
X72776000Y-118628000D03*
X97776000Y-163028000D03*
X69026000Y-138778000D03*
X72026000Y-140778000D03*
X110026000Y-157278000D03*
X86076000Y-131278000D03*
X122276000Y-160528000D03*
X87776000Y-155278000D03*
X92776000Y-151778000D03*
X76026000Y-136778000D03*
X104051000Y-135378000D03*
X116526000Y-163028000D03*
X123526000Y-163028000D03*
X90276000Y-163028000D03*
X121276000Y-163028000D03*
X131776000Y-132278000D03*
X75026000Y-142778000D03*
X77026000Y-138778000D03*
X89026000Y-157028000D03*
X73026000Y-138778000D03*
X64026000Y-147028000D03*
X100801000Y-157803000D03*
X71026000Y-134778000D03*
X70026000Y-132778000D03*
X105776000Y-155528000D03*
X81026000Y-142778000D03*
X119026000Y-163028000D03*
X109926000Y-138753000D03*
X61026000Y-144028000D03*
X92776000Y-163028000D03*
X115276000Y-160528000D03*
X71026000Y-138778000D03*
X107526000Y-159028000D03*
X105776000Y-159028000D03*
X70026000Y-136778000D03*
X123776000Y-129528000D03*
X74026000Y-140778000D03*
X112776000Y-165278000D03*
X76026000Y-144778000D03*
X67026000Y-138778000D03*
X139276000Y-141028000D03*
X62526000Y-148528000D03*
X106101000Y-140078000D03*
%TO.N,+3V3*%
X130151000Y-119703000D03*
X132751000Y-151928000D03*
X97276000Y-154278000D03*
X74076000Y-116528000D03*
X123776000Y-136953000D03*
X137026000Y-139778000D03*
X72226000Y-128128000D03*
X133501000Y-153528000D03*
X99976000Y-129178000D03*
X135026000Y-131528000D03*
X137651000Y-131878000D03*
X100926000Y-155378000D03*
X101301000Y-119371435D03*
X95276000Y-154278000D03*
X73676000Y-128128000D03*
X93276000Y-154278000D03*
X135101000Y-152178000D03*
X125796001Y-149464461D03*
X101776000Y-128703000D03*
X132745999Y-141278000D03*
%TO.N,/BOOT0*%
X101501000Y-138153000D03*
X134026000Y-140278000D03*
X107826000Y-140078000D03*
%TO.N,/NRST*%
X113116000Y-137028000D03*
X126119039Y-138867134D03*
%TO.N,/SWSCK*%
X134276000Y-149758000D03*
%TO.N,/SWDIO*%
X131276000Y-151128000D03*
%TO.N,/PA0*%
X124076599Y-140565500D03*
X129576000Y-130303000D03*
%TO.N,/PB0*%
X58776000Y-139028000D03*
X122051000Y-145653000D03*
%TO.N,/PB7*%
X113416000Y-134053000D03*
X127776000Y-131728003D03*
%TO.N,/PA3*%
X100526000Y-132852998D03*
X122076000Y-140653000D03*
%TO.N,/PB10*%
X122038347Y-147778000D03*
X58776000Y-141028003D03*
%TO.N,/PA1*%
X125213653Y-142140347D03*
X114808410Y-138720896D03*
%TO.N,/PB1*%
X58776000Y-140028000D03*
X122055776Y-146778150D03*
%TO.N,/PA7*%
X77426000Y-129378000D03*
X122051000Y-144652997D03*
%TO.N,/PB6*%
X127776000Y-130728000D03*
X114741000Y-134053000D03*
%TO.N,/PA6*%
X122051000Y-143652994D03*
X84326000Y-134653000D03*
%TO.N,/PA5*%
X122051001Y-142652992D03*
X85651000Y-134653000D03*
%TO.N,/I2C_SCL*%
X136276000Y-145003000D03*
%TO.N,/I2C_SDA*%
X136276000Y-143778000D03*
%TO.N,/PA4*%
X122079560Y-141653398D03*
X85926153Y-136278153D03*
%TO.N,+12V*%
X107526000Y-131028000D03*
X78276000Y-131028000D03*
X135901000Y-127728000D03*
X58743759Y-142027486D03*
%TO.N,+24V*%
X49526000Y-141028000D03*
X49526000Y-139278000D03*
X54776000Y-141028000D03*
X54776000Y-139278000D03*
X47776000Y-139278000D03*
X53026000Y-142778000D03*
X53026000Y-141028000D03*
X51276000Y-141028000D03*
X53026000Y-139278000D03*
X51276000Y-142778000D03*
X51276000Y-139278000D03*
X51276000Y-137528000D03*
X54776000Y-137528000D03*
X47776000Y-141028000D03*
X47776000Y-137528000D03*
X53026000Y-137528000D03*
X49526000Y-137528000D03*
X49526000Y-142778000D03*
X47776000Y-142778000D03*
%TO.N,VDC*%
X126301000Y-156703000D03*
X134188500Y-156265500D03*
%TD*%
%TA.AperFunction,Conductor*%
%TO.N,GND*%
G36*
X73605767Y-115547685D02*
G01*
X73651522Y-115600489D01*
X73661466Y-115669647D01*
X73632441Y-115733203D01*
X73611613Y-115752318D01*
X73470129Y-115855111D01*
X73343466Y-115995785D01*
X73248821Y-116159715D01*
X73248818Y-116159722D01*
X73190327Y-116339740D01*
X73190326Y-116339744D01*
X73170540Y-116528000D01*
X73190326Y-116716256D01*
X73190327Y-116716259D01*
X73248818Y-116896277D01*
X73248821Y-116896284D01*
X73343467Y-117060216D01*
X73470129Y-117200888D01*
X73623265Y-117312148D01*
X73623270Y-117312151D01*
X73796192Y-117389142D01*
X73796197Y-117389144D01*
X73981354Y-117428500D01*
X73981355Y-117428500D01*
X74170644Y-117428500D01*
X74170646Y-117428500D01*
X74355803Y-117389144D01*
X74528730Y-117312151D01*
X74681871Y-117200888D01*
X74808533Y-117060216D01*
X74903179Y-116896284D01*
X74961674Y-116716256D01*
X74981460Y-116528000D01*
X74961674Y-116339744D01*
X74903179Y-116159716D01*
X74808533Y-115995784D01*
X74681871Y-115855112D01*
X74540387Y-115752318D01*
X74497721Y-115696988D01*
X74491742Y-115627375D01*
X74524348Y-115565580D01*
X74585186Y-115531223D01*
X74613272Y-115528000D01*
X144013789Y-115528000D01*
X144037980Y-115530383D01*
X144097480Y-115542218D01*
X144142175Y-115560730D01*
X144182272Y-115587522D01*
X144216477Y-115621727D01*
X144243267Y-115661822D01*
X144261781Y-115706517D01*
X144265542Y-115725427D01*
X144273617Y-115766019D01*
X144276000Y-115790210D01*
X144276000Y-166265789D01*
X144273617Y-166289982D01*
X144261781Y-166349482D01*
X144243267Y-166394179D01*
X144216481Y-166434268D01*
X144182269Y-166468479D01*
X144147975Y-166491394D01*
X144142179Y-166495267D01*
X144097482Y-166513781D01*
X144063857Y-166520469D01*
X144037978Y-166525617D01*
X144013789Y-166528000D01*
X44538211Y-166528000D01*
X44514020Y-166525617D01*
X44499189Y-166522667D01*
X44454518Y-166513781D01*
X44409822Y-166495267D01*
X44369727Y-166468477D01*
X44335522Y-166434272D01*
X44308730Y-166394175D01*
X44290218Y-166349480D01*
X44278383Y-166289980D01*
X44276000Y-166265789D01*
X44276000Y-161528000D01*
X45570422Y-161528000D01*
X45590722Y-161915338D01*
X45651398Y-162298433D01*
X45686905Y-162430949D01*
X45751788Y-162673094D01*
X45890787Y-163035197D01*
X46066877Y-163380793D01*
X46278122Y-163706082D01*
X46278124Y-163706084D01*
X46522219Y-164007516D01*
X46796484Y-164281781D01*
X46796488Y-164281784D01*
X47097917Y-164525877D01*
X47423206Y-164737122D01*
X47423211Y-164737125D01*
X47768806Y-164913214D01*
X48130913Y-165052214D01*
X48505567Y-165152602D01*
X48888662Y-165213278D01*
X49254576Y-165232455D01*
X49275999Y-165233578D01*
X49276000Y-165233578D01*
X49276001Y-165233578D01*
X49296301Y-165232514D01*
X49663338Y-165213278D01*
X50046433Y-165152602D01*
X50421087Y-165052214D01*
X50783194Y-164913214D01*
X51128789Y-164737125D01*
X51454084Y-164525876D01*
X51743461Y-164291543D01*
X124455499Y-164291543D01*
X124493947Y-164484829D01*
X124493950Y-164484839D01*
X124569364Y-164666907D01*
X124569371Y-164666920D01*
X124678860Y-164830781D01*
X124678863Y-164830785D01*
X124818214Y-164970136D01*
X124818218Y-164970139D01*
X124982079Y-165079628D01*
X124982092Y-165079635D01*
X125164160Y-165155049D01*
X125164165Y-165155051D01*
X125164169Y-165155051D01*
X125164170Y-165155052D01*
X125357456Y-165193500D01*
X125357459Y-165193500D01*
X125554543Y-165193500D01*
X125684582Y-165167632D01*
X125747835Y-165155051D01*
X125929914Y-165079632D01*
X126093782Y-164970139D01*
X126233139Y-164830782D01*
X126342632Y-164666914D01*
X126418051Y-164484835D01*
X126456500Y-164291543D01*
X133095499Y-164291543D01*
X133133947Y-164484829D01*
X133133950Y-164484839D01*
X133209364Y-164666907D01*
X133209371Y-164666920D01*
X133318860Y-164830781D01*
X133318863Y-164830785D01*
X133458214Y-164970136D01*
X133458218Y-164970139D01*
X133622079Y-165079628D01*
X133622092Y-165079635D01*
X133804160Y-165155049D01*
X133804165Y-165155051D01*
X133804169Y-165155051D01*
X133804170Y-165155052D01*
X133997456Y-165193500D01*
X133997459Y-165193500D01*
X134194543Y-165193500D01*
X134324582Y-165167632D01*
X134387835Y-165155051D01*
X134569914Y-165079632D01*
X134733782Y-164970139D01*
X134873139Y-164830782D01*
X134982632Y-164666914D01*
X135058051Y-164484835D01*
X135096500Y-164291541D01*
X135096500Y-163294459D01*
X135096500Y-163294456D01*
X135058052Y-163101170D01*
X135058051Y-163101169D01*
X135058051Y-163101165D01*
X135054112Y-163091655D01*
X134982635Y-162919092D01*
X134982628Y-162919079D01*
X134873139Y-162755218D01*
X134873136Y-162755214D01*
X134733785Y-162615863D01*
X134733781Y-162615860D01*
X134569920Y-162506371D01*
X134569907Y-162506364D01*
X134387839Y-162430950D01*
X134387829Y-162430947D01*
X134194543Y-162392500D01*
X134194541Y-162392500D01*
X133997459Y-162392500D01*
X133997457Y-162392500D01*
X133804170Y-162430947D01*
X133804160Y-162430950D01*
X133622092Y-162506364D01*
X133622079Y-162506371D01*
X133458218Y-162615860D01*
X133458214Y-162615863D01*
X133318863Y-162755214D01*
X133318860Y-162755218D01*
X133209371Y-162919079D01*
X133209364Y-162919092D01*
X133133950Y-163101160D01*
X133133947Y-163101170D01*
X133095500Y-163294456D01*
X133095500Y-163294459D01*
X133095500Y-164291541D01*
X133095500Y-164291543D01*
X133095499Y-164291543D01*
X126456500Y-164291543D01*
X126456500Y-164291541D01*
X126456500Y-163294459D01*
X126456500Y-163294456D01*
X126418052Y-163101170D01*
X126418051Y-163101169D01*
X126418051Y-163101165D01*
X126414112Y-163091655D01*
X126342635Y-162919092D01*
X126342628Y-162919079D01*
X126233139Y-162755218D01*
X126233136Y-162755214D01*
X126093785Y-162615863D01*
X126093781Y-162615860D01*
X125929920Y-162506371D01*
X125929907Y-162506364D01*
X125747839Y-162430950D01*
X125747829Y-162430947D01*
X125554543Y-162392500D01*
X125554541Y-162392500D01*
X125357459Y-162392500D01*
X125357457Y-162392500D01*
X125164170Y-162430947D01*
X125164160Y-162430950D01*
X124982092Y-162506364D01*
X124982079Y-162506371D01*
X124818218Y-162615860D01*
X124818214Y-162615863D01*
X124678863Y-162755214D01*
X124678860Y-162755218D01*
X124569371Y-162919079D01*
X124569364Y-162919092D01*
X124493950Y-163101160D01*
X124493947Y-163101170D01*
X124455500Y-163294456D01*
X124455500Y-163294459D01*
X124455500Y-164291541D01*
X124455500Y-164291543D01*
X124455499Y-164291543D01*
X51743461Y-164291543D01*
X51755516Y-164281781D01*
X52029781Y-164007516D01*
X52273876Y-163706084D01*
X52485125Y-163380789D01*
X52661214Y-163035194D01*
X52800214Y-162673087D01*
X52900602Y-162298433D01*
X52961278Y-161915338D01*
X52981578Y-161528000D01*
X52981578Y-161527995D01*
X60050451Y-161527995D01*
X60050451Y-161528004D01*
X60070616Y-161797101D01*
X60130664Y-162060188D01*
X60130666Y-162060195D01*
X60224168Y-162298433D01*
X60229257Y-162311398D01*
X60364185Y-162545102D01*
X60466250Y-162673087D01*
X60532442Y-162756089D01*
X60708105Y-162919079D01*
X60730259Y-162939635D01*
X60953226Y-163091651D01*
X61196359Y-163208738D01*
X61454228Y-163288280D01*
X61454229Y-163288280D01*
X61454232Y-163288281D01*
X61721063Y-163328499D01*
X61721068Y-163328499D01*
X61721071Y-163328500D01*
X61721072Y-163328500D01*
X61990928Y-163328500D01*
X61990929Y-163328500D01*
X61990936Y-163328499D01*
X62257767Y-163288281D01*
X62257768Y-163288280D01*
X62257772Y-163288280D01*
X62515641Y-163208738D01*
X62739019Y-163101165D01*
X62758767Y-163091655D01*
X62758767Y-163091654D01*
X62758775Y-163091651D01*
X62981741Y-162939635D01*
X63179561Y-162756085D01*
X63347815Y-162545102D01*
X63482743Y-162311398D01*
X63581334Y-162060195D01*
X63641383Y-161797103D01*
X63661549Y-161528000D01*
X63653935Y-161426402D01*
X63641383Y-161258898D01*
X63641383Y-161258897D01*
X63581334Y-160995805D01*
X63482743Y-160744602D01*
X63347815Y-160510898D01*
X63179561Y-160299915D01*
X63179560Y-160299914D01*
X63179557Y-160299910D01*
X63050469Y-160180135D01*
X71975500Y-160180135D01*
X71975500Y-162875870D01*
X71975501Y-162875876D01*
X71981908Y-162935483D01*
X72032202Y-163070328D01*
X72032206Y-163070335D01*
X72118452Y-163185544D01*
X72118455Y-163185547D01*
X72233664Y-163271793D01*
X72233671Y-163271797D01*
X72368517Y-163322091D01*
X72368516Y-163322091D01*
X72375444Y-163322835D01*
X72428127Y-163328500D01*
X75123872Y-163328499D01*
X75183483Y-163322091D01*
X75318331Y-163271796D01*
X75433546Y-163185546D01*
X75519796Y-163070331D01*
X75570091Y-162935483D01*
X75576500Y-162875873D01*
X75576499Y-161527995D01*
X77050451Y-161527995D01*
X77050451Y-161528004D01*
X77070616Y-161797101D01*
X77130664Y-162060188D01*
X77130666Y-162060195D01*
X77224168Y-162298433D01*
X77229257Y-162311398D01*
X77364185Y-162545102D01*
X77466250Y-162673087D01*
X77532442Y-162756089D01*
X77708105Y-162919079D01*
X77730259Y-162939635D01*
X77953226Y-163091651D01*
X78196359Y-163208738D01*
X78454228Y-163288280D01*
X78454229Y-163288280D01*
X78454232Y-163288281D01*
X78721063Y-163328499D01*
X78721068Y-163328499D01*
X78721071Y-163328500D01*
X78721072Y-163328500D01*
X78990928Y-163328500D01*
X78990929Y-163328500D01*
X78990936Y-163328499D01*
X79257767Y-163288281D01*
X79257768Y-163288280D01*
X79257772Y-163288280D01*
X79515641Y-163208738D01*
X79739019Y-163101165D01*
X79758767Y-163091655D01*
X79758767Y-163091654D01*
X79758775Y-163091651D01*
X79981741Y-162939635D01*
X80179561Y-162756085D01*
X80347815Y-162545102D01*
X80482743Y-162311398D01*
X80581334Y-162060195D01*
X80641383Y-161797103D01*
X80661549Y-161528000D01*
X80661549Y-161527995D01*
X82130451Y-161527995D01*
X82130451Y-161528004D01*
X82150616Y-161797101D01*
X82210664Y-162060188D01*
X82210666Y-162060195D01*
X82304168Y-162298433D01*
X82309257Y-162311398D01*
X82444185Y-162545102D01*
X82546250Y-162673087D01*
X82612442Y-162756089D01*
X82788105Y-162919079D01*
X82810259Y-162939635D01*
X83033226Y-163091651D01*
X83276359Y-163208738D01*
X83534228Y-163288280D01*
X83534229Y-163288280D01*
X83534232Y-163288281D01*
X83801063Y-163328499D01*
X83801068Y-163328499D01*
X83801071Y-163328500D01*
X83801072Y-163328500D01*
X84070928Y-163328500D01*
X84070929Y-163328500D01*
X84070936Y-163328499D01*
X84337767Y-163288281D01*
X84337768Y-163288280D01*
X84337772Y-163288280D01*
X84595641Y-163208738D01*
X84819019Y-163101165D01*
X84838767Y-163091655D01*
X84838767Y-163091654D01*
X84838775Y-163091651D01*
X85061741Y-162939635D01*
X85259561Y-162756085D01*
X85427815Y-162545102D01*
X85562743Y-162311398D01*
X85661334Y-162060195D01*
X85721383Y-161797103D01*
X85741549Y-161528000D01*
X135570422Y-161528000D01*
X135590722Y-161915338D01*
X135651398Y-162298433D01*
X135686905Y-162430949D01*
X135751788Y-162673094D01*
X135890787Y-163035197D01*
X136066877Y-163380793D01*
X136278122Y-163706082D01*
X136278124Y-163706084D01*
X136522219Y-164007516D01*
X136796484Y-164281781D01*
X136796488Y-164281784D01*
X137097917Y-164525877D01*
X137423206Y-164737122D01*
X137423211Y-164737125D01*
X137768806Y-164913214D01*
X138130913Y-165052214D01*
X138505567Y-165152602D01*
X138888662Y-165213278D01*
X139254576Y-165232455D01*
X139275999Y-165233578D01*
X139276000Y-165233578D01*
X139276001Y-165233578D01*
X139296301Y-165232514D01*
X139663338Y-165213278D01*
X140046433Y-165152602D01*
X140421087Y-165052214D01*
X140783194Y-164913214D01*
X141128789Y-164737125D01*
X141454084Y-164525876D01*
X141755516Y-164281781D01*
X142029781Y-164007516D01*
X142273876Y-163706084D01*
X142485125Y-163380789D01*
X142661214Y-163035194D01*
X142800214Y-162673087D01*
X142900602Y-162298433D01*
X142961278Y-161915338D01*
X142981578Y-161528000D01*
X142961278Y-161140662D01*
X142900602Y-160757567D01*
X142800214Y-160382913D01*
X142661214Y-160020806D01*
X142485125Y-159675211D01*
X142470367Y-159652485D01*
X142273877Y-159349917D01*
X142060219Y-159086072D01*
X142029781Y-159048484D01*
X141755516Y-158774219D01*
X141700412Y-158729597D01*
X141454082Y-158530122D01*
X141128793Y-158318877D01*
X140783197Y-158142787D01*
X140421094Y-158003788D01*
X140421087Y-158003786D01*
X140046433Y-157903398D01*
X140046429Y-157903397D01*
X140046428Y-157903397D01*
X139663339Y-157842722D01*
X139276001Y-157822422D01*
X139275999Y-157822422D01*
X138888660Y-157842722D01*
X138505572Y-157903397D01*
X138505570Y-157903397D01*
X138130905Y-158003788D01*
X137768802Y-158142787D01*
X137423206Y-158318877D01*
X137097917Y-158530122D01*
X136796488Y-158774215D01*
X136796480Y-158774222D01*
X136522222Y-159048480D01*
X136522215Y-159048488D01*
X136278122Y-159349917D01*
X136066877Y-159675206D01*
X135890787Y-160020802D01*
X135751788Y-160382905D01*
X135651397Y-160757570D01*
X135651397Y-160757572D01*
X135590722Y-161140660D01*
X135578552Y-161372871D01*
X135570422Y-161528000D01*
X85741549Y-161528000D01*
X85733935Y-161426402D01*
X85721383Y-161258898D01*
X85721383Y-161258897D01*
X85661334Y-160995805D01*
X85562743Y-160744602D01*
X85427815Y-160510898D01*
X85259561Y-160299915D01*
X85259560Y-160299914D01*
X85259557Y-160299910D01*
X85061741Y-160116365D01*
X84945677Y-160037234D01*
X84838775Y-159964349D01*
X84838769Y-159964346D01*
X84838768Y-159964345D01*
X84838767Y-159964344D01*
X84595643Y-159847263D01*
X84595645Y-159847263D01*
X84337773Y-159767720D01*
X84337767Y-159767718D01*
X84070936Y-159727500D01*
X84070929Y-159727500D01*
X83801071Y-159727500D01*
X83801063Y-159727500D01*
X83534232Y-159767718D01*
X83534226Y-159767720D01*
X83276358Y-159847262D01*
X83033230Y-159964346D01*
X82810258Y-160116365D01*
X82612442Y-160299910D01*
X82444185Y-160510898D01*
X82309258Y-160744599D01*
X82309256Y-160744603D01*
X82210666Y-160995804D01*
X82210664Y-160995811D01*
X82150616Y-161258898D01*
X82130451Y-161527995D01*
X80661549Y-161527995D01*
X80653935Y-161426402D01*
X80641383Y-161258898D01*
X80641383Y-161258897D01*
X80581334Y-160995805D01*
X80482743Y-160744602D01*
X80347815Y-160510898D01*
X80179561Y-160299915D01*
X80179560Y-160299914D01*
X80179557Y-160299910D01*
X79981741Y-160116365D01*
X79865677Y-160037234D01*
X79758775Y-159964349D01*
X79758769Y-159964346D01*
X79758768Y-159964345D01*
X79758767Y-159964344D01*
X79515643Y-159847263D01*
X79515645Y-159847263D01*
X79257773Y-159767720D01*
X79257767Y-159767718D01*
X78990936Y-159727500D01*
X78990929Y-159727500D01*
X78721071Y-159727500D01*
X78721063Y-159727500D01*
X78454232Y-159767718D01*
X78454226Y-159767720D01*
X78196358Y-159847262D01*
X77953230Y-159964346D01*
X77730258Y-160116365D01*
X77532442Y-160299910D01*
X77364185Y-160510898D01*
X77229258Y-160744599D01*
X77229256Y-160744603D01*
X77130666Y-160995804D01*
X77130664Y-160995811D01*
X77070616Y-161258898D01*
X77050451Y-161527995D01*
X75576499Y-161527995D01*
X75576499Y-160180128D01*
X75570091Y-160120517D01*
X75568542Y-160116365D01*
X75519797Y-159985671D01*
X75519793Y-159985664D01*
X75433547Y-159870455D01*
X75433544Y-159870452D01*
X75318335Y-159784206D01*
X75318328Y-159784202D01*
X75183482Y-159733908D01*
X75183483Y-159733908D01*
X75123883Y-159727501D01*
X75123881Y-159727500D01*
X75123873Y-159727500D01*
X75123864Y-159727500D01*
X72428129Y-159727500D01*
X72428123Y-159727501D01*
X72368516Y-159733908D01*
X72233671Y-159784202D01*
X72233664Y-159784206D01*
X72118455Y-159870452D01*
X72118452Y-159870455D01*
X72032206Y-159985664D01*
X72032202Y-159985671D01*
X71981908Y-160120517D01*
X71975501Y-160180116D01*
X71975501Y-160180123D01*
X71975500Y-160180135D01*
X63050469Y-160180135D01*
X62981741Y-160116365D01*
X62865677Y-160037234D01*
X62758775Y-159964349D01*
X62758769Y-159964346D01*
X62758768Y-159964345D01*
X62758767Y-159964344D01*
X62515643Y-159847263D01*
X62515645Y-159847263D01*
X62257773Y-159767720D01*
X62257767Y-159767718D01*
X61990936Y-159727500D01*
X61990929Y-159727500D01*
X61721071Y-159727500D01*
X61721063Y-159727500D01*
X61454232Y-159767718D01*
X61454226Y-159767720D01*
X61196358Y-159847262D01*
X60953230Y-159964346D01*
X60730258Y-160116365D01*
X60532442Y-160299910D01*
X60364185Y-160510898D01*
X60229258Y-160744599D01*
X60229256Y-160744603D01*
X60130666Y-160995804D01*
X60130664Y-160995811D01*
X60070616Y-161258898D01*
X60050451Y-161527995D01*
X52981578Y-161527995D01*
X52961278Y-161140662D01*
X52900602Y-160757567D01*
X52800214Y-160382913D01*
X52661214Y-160020806D01*
X52506106Y-159716389D01*
X92175500Y-159716389D01*
X92175500Y-160439610D01*
X92196708Y-160573517D01*
X92202598Y-160610701D01*
X92256127Y-160775445D01*
X92334768Y-160929788D01*
X92436586Y-161069928D01*
X92559072Y-161192414D01*
X92699212Y-161294232D01*
X92853555Y-161372873D01*
X93018299Y-161426402D01*
X93189389Y-161453500D01*
X93189390Y-161453500D01*
X93362610Y-161453500D01*
X93362611Y-161453500D01*
X93533701Y-161426402D01*
X93698445Y-161372873D01*
X93852788Y-161294232D01*
X93992928Y-161192414D01*
X94115414Y-161069928D01*
X94175682Y-160986975D01*
X94231012Y-160944311D01*
X94300626Y-160938332D01*
X94362421Y-160970938D01*
X94376315Y-160986973D01*
X94436586Y-161069928D01*
X94559072Y-161192414D01*
X94699212Y-161294232D01*
X94853555Y-161372873D01*
X95018299Y-161426402D01*
X95189389Y-161453500D01*
X95189390Y-161453500D01*
X95362610Y-161453500D01*
X95362611Y-161453500D01*
X95533701Y-161426402D01*
X95698445Y-161372873D01*
X95852788Y-161294232D01*
X95992928Y-161192414D01*
X96115414Y-161069928D01*
X96175682Y-160986975D01*
X96231012Y-160944311D01*
X96300626Y-160938332D01*
X96362421Y-160970938D01*
X96376315Y-160986973D01*
X96436586Y-161069928D01*
X96559072Y-161192414D01*
X96699212Y-161294232D01*
X96853555Y-161372873D01*
X97018299Y-161426402D01*
X97189389Y-161453500D01*
X97189390Y-161453500D01*
X97362610Y-161453500D01*
X97362611Y-161453500D01*
X97533701Y-161426402D01*
X97698445Y-161372873D01*
X97852788Y-161294232D01*
X97992928Y-161192414D01*
X98115414Y-161069928D01*
X98175682Y-160986975D01*
X98231012Y-160944311D01*
X98300626Y-160938332D01*
X98362421Y-160970938D01*
X98376315Y-160986973D01*
X98436586Y-161069928D01*
X98559072Y-161192414D01*
X98699212Y-161294232D01*
X98853555Y-161372873D01*
X99018299Y-161426402D01*
X99189389Y-161453500D01*
X99189390Y-161453500D01*
X99362610Y-161453500D01*
X99362611Y-161453500D01*
X99533701Y-161426402D01*
X99698445Y-161372873D01*
X99852788Y-161294232D01*
X99992928Y-161192414D01*
X100115414Y-161069928D01*
X100217232Y-160929788D01*
X100295873Y-160775445D01*
X100349402Y-160610701D01*
X100376500Y-160439611D01*
X100376500Y-160241543D01*
X124455499Y-160241543D01*
X124493947Y-160434829D01*
X124493950Y-160434839D01*
X124569364Y-160616907D01*
X124569371Y-160616920D01*
X124678860Y-160780781D01*
X124678863Y-160780785D01*
X124818214Y-160920136D01*
X124818218Y-160920139D01*
X124982079Y-161029628D01*
X124982092Y-161029635D01*
X125164160Y-161105049D01*
X125164165Y-161105051D01*
X125164169Y-161105051D01*
X125164170Y-161105052D01*
X125357456Y-161143500D01*
X125357459Y-161143500D01*
X125554543Y-161143500D01*
X125684582Y-161117632D01*
X125747835Y-161105051D01*
X125929914Y-161029632D01*
X126093782Y-160920139D01*
X126233139Y-160780782D01*
X126342632Y-160616914D01*
X126342635Y-160616906D01*
X126345446Y-160611648D01*
X126394405Y-160561800D01*
X126462542Y-160546335D01*
X126528223Y-160570163D01*
X126530300Y-160571722D01*
X126532632Y-160573512D01*
X126532635Y-160573515D01*
X126663865Y-160649281D01*
X126810234Y-160688500D01*
X126810236Y-160688500D01*
X126961764Y-160688500D01*
X126961766Y-160688500D01*
X127108135Y-160649281D01*
X127239365Y-160573515D01*
X127346515Y-160466365D01*
X127422281Y-160335135D01*
X127461500Y-160188766D01*
X127461500Y-160037234D01*
X132090500Y-160037234D01*
X132090500Y-160188765D01*
X132129719Y-160335136D01*
X132157299Y-160382905D01*
X132205485Y-160466365D01*
X132312635Y-160573515D01*
X132443865Y-160649281D01*
X132590234Y-160688500D01*
X132590236Y-160688500D01*
X132741764Y-160688500D01*
X132741766Y-160688500D01*
X132888135Y-160649281D01*
X133019365Y-160573515D01*
X133019372Y-160573507D01*
X133021694Y-160571726D01*
X133024021Y-160570825D01*
X133026403Y-160569451D01*
X133026617Y-160569822D01*
X133086861Y-160546525D01*
X133155307Y-160560556D01*
X133205302Y-160609365D01*
X133206551Y-160611644D01*
X133209369Y-160616916D01*
X133318860Y-160780781D01*
X133318863Y-160780785D01*
X133458214Y-160920136D01*
X133458218Y-160920139D01*
X133622079Y-161029628D01*
X133622092Y-161029635D01*
X133804160Y-161105049D01*
X133804165Y-161105051D01*
X133804169Y-161105051D01*
X133804170Y-161105052D01*
X133997456Y-161143500D01*
X133997459Y-161143500D01*
X134194543Y-161143500D01*
X134324582Y-161117632D01*
X134387835Y-161105051D01*
X134569914Y-161029632D01*
X134733782Y-160920139D01*
X134873139Y-160780782D01*
X134982632Y-160616914D01*
X134985206Y-160610701D01*
X135011788Y-160546525D01*
X135058051Y-160434835D01*
X135096500Y-160241541D01*
X135096500Y-158944459D01*
X135096500Y-158944456D01*
X135058052Y-158751170D01*
X135058051Y-158751169D01*
X135058051Y-158751165D01*
X135049117Y-158729597D01*
X134982635Y-158569092D01*
X134982628Y-158569079D01*
X134873139Y-158405218D01*
X134873136Y-158405214D01*
X134733785Y-158265863D01*
X134733781Y-158265860D01*
X134569920Y-158156371D01*
X134569907Y-158156364D01*
X134387839Y-158080950D01*
X134387829Y-158080947D01*
X134194543Y-158042500D01*
X134194541Y-158042500D01*
X133997459Y-158042500D01*
X133997457Y-158042500D01*
X133804170Y-158080947D01*
X133804160Y-158080950D01*
X133622092Y-158156364D01*
X133622079Y-158156371D01*
X133458218Y-158265860D01*
X133458214Y-158265863D01*
X133318863Y-158405214D01*
X133318860Y-158405218D01*
X133209371Y-158569079D01*
X133209364Y-158569092D01*
X133133950Y-158751160D01*
X133133947Y-158751170D01*
X133095500Y-158944456D01*
X133095500Y-159481666D01*
X133075815Y-159548705D01*
X133023011Y-159594460D01*
X132953853Y-159604404D01*
X132909501Y-159589054D01*
X132888137Y-159576719D01*
X132783584Y-159548705D01*
X132741766Y-159537500D01*
X132590234Y-159537500D01*
X132443863Y-159576719D01*
X132312635Y-159652485D01*
X132312632Y-159652487D01*
X132205487Y-159759632D01*
X132205485Y-159759635D01*
X132129719Y-159890863D01*
X132090500Y-160037234D01*
X127461500Y-160037234D01*
X127422281Y-159890865D01*
X127346515Y-159759635D01*
X127239365Y-159652485D01*
X127156087Y-159604404D01*
X127108136Y-159576719D01*
X127003584Y-159548705D01*
X126961766Y-159537500D01*
X126810234Y-159537500D01*
X126663862Y-159576719D01*
X126642499Y-159589054D01*
X126574598Y-159605525D01*
X126508572Y-159582673D01*
X126465382Y-159527751D01*
X126456500Y-159481666D01*
X126456500Y-158944456D01*
X126418052Y-158751170D01*
X126418051Y-158751169D01*
X126418051Y-158751165D01*
X126409117Y-158729597D01*
X126342635Y-158569092D01*
X126342628Y-158569079D01*
X126233139Y-158405218D01*
X126233136Y-158405214D01*
X126093785Y-158265863D01*
X126093781Y-158265860D01*
X125929920Y-158156371D01*
X125929907Y-158156364D01*
X125747839Y-158080950D01*
X125747829Y-158080947D01*
X125554543Y-158042500D01*
X125554541Y-158042500D01*
X125357459Y-158042500D01*
X125357457Y-158042500D01*
X125164170Y-158080947D01*
X125164160Y-158080950D01*
X124982092Y-158156364D01*
X124982079Y-158156371D01*
X124818218Y-158265860D01*
X124818214Y-158265863D01*
X124678863Y-158405214D01*
X124678860Y-158405218D01*
X124569371Y-158569079D01*
X124569364Y-158569092D01*
X124493950Y-158751160D01*
X124493947Y-158751170D01*
X124455500Y-158944456D01*
X124455500Y-158944459D01*
X124455500Y-160241541D01*
X124455500Y-160241543D01*
X124455499Y-160241543D01*
X100376500Y-160241543D01*
X100376500Y-159716389D01*
X100349402Y-159545299D01*
X100295873Y-159380555D01*
X100217232Y-159226212D01*
X100115414Y-159086072D01*
X99992928Y-158963586D01*
X99852788Y-158861768D01*
X99698445Y-158783127D01*
X99533701Y-158729598D01*
X99533699Y-158729597D01*
X99533698Y-158729597D01*
X99402271Y-158708781D01*
X99362611Y-158702500D01*
X99189389Y-158702500D01*
X99149728Y-158708781D01*
X99018302Y-158729597D01*
X98853552Y-158783128D01*
X98699211Y-158861768D01*
X98619256Y-158919859D01*
X98559072Y-158963586D01*
X98559070Y-158963588D01*
X98559069Y-158963588D01*
X98436588Y-159086069D01*
X98436581Y-159086078D01*
X98376317Y-159169023D01*
X98320987Y-159211689D01*
X98251374Y-159217667D01*
X98189579Y-159185061D01*
X98175683Y-159169023D01*
X98115418Y-159086078D01*
X98115414Y-159086072D01*
X97992928Y-158963586D01*
X97852788Y-158861768D01*
X97698445Y-158783127D01*
X97533701Y-158729598D01*
X97533699Y-158729597D01*
X97533698Y-158729597D01*
X97402271Y-158708781D01*
X97362611Y-158702500D01*
X97189389Y-158702500D01*
X97149728Y-158708781D01*
X97018302Y-158729597D01*
X96853552Y-158783128D01*
X96699211Y-158861768D01*
X96619256Y-158919859D01*
X96559072Y-158963586D01*
X96559070Y-158963588D01*
X96559069Y-158963588D01*
X96436588Y-159086069D01*
X96436581Y-159086078D01*
X96376317Y-159169023D01*
X96320987Y-159211689D01*
X96251374Y-159217667D01*
X96189579Y-159185061D01*
X96175683Y-159169023D01*
X96115418Y-159086078D01*
X96115414Y-159086072D01*
X95992928Y-158963586D01*
X95852788Y-158861768D01*
X95698445Y-158783127D01*
X95533701Y-158729598D01*
X95533699Y-158729597D01*
X95533698Y-158729597D01*
X95402271Y-158708781D01*
X95362611Y-158702500D01*
X95189389Y-158702500D01*
X95149728Y-158708781D01*
X95018302Y-158729597D01*
X94853552Y-158783128D01*
X94699211Y-158861768D01*
X94619256Y-158919859D01*
X94559072Y-158963586D01*
X94559070Y-158963588D01*
X94559069Y-158963588D01*
X94436588Y-159086069D01*
X94436581Y-159086078D01*
X94376317Y-159169023D01*
X94320987Y-159211689D01*
X94251374Y-159217667D01*
X94189579Y-159185061D01*
X94175683Y-159169023D01*
X94115418Y-159086078D01*
X94115414Y-159086072D01*
X93992928Y-158963586D01*
X93852788Y-158861768D01*
X93698445Y-158783127D01*
X93533701Y-158729598D01*
X93533699Y-158729597D01*
X93533698Y-158729597D01*
X93402271Y-158708781D01*
X93362611Y-158702500D01*
X93189389Y-158702500D01*
X93149728Y-158708781D01*
X93018302Y-158729597D01*
X92853552Y-158783128D01*
X92699211Y-158861768D01*
X92619256Y-158919859D01*
X92559072Y-158963586D01*
X92559070Y-158963588D01*
X92559069Y-158963588D01*
X92436588Y-159086069D01*
X92436588Y-159086070D01*
X92436586Y-159086072D01*
X92436582Y-159086078D01*
X92334768Y-159226211D01*
X92256128Y-159380552D01*
X92202597Y-159545302D01*
X92175500Y-159716389D01*
X52506106Y-159716389D01*
X52485125Y-159675211D01*
X52470367Y-159652485D01*
X52273877Y-159349917D01*
X52060219Y-159086072D01*
X52029781Y-159048484D01*
X51755516Y-158774219D01*
X51700412Y-158729597D01*
X51454082Y-158530122D01*
X51128793Y-158318877D01*
X50783197Y-158142787D01*
X50421094Y-158003788D01*
X50421087Y-158003786D01*
X50046433Y-157903398D01*
X50046429Y-157903397D01*
X50046428Y-157903397D01*
X49663339Y-157842722D01*
X49276001Y-157822422D01*
X49275999Y-157822422D01*
X48888660Y-157842722D01*
X48505572Y-157903397D01*
X48505570Y-157903397D01*
X48130905Y-158003788D01*
X47768802Y-158142787D01*
X47423206Y-158318877D01*
X47097917Y-158530122D01*
X46796488Y-158774215D01*
X46796480Y-158774222D01*
X46522222Y-159048480D01*
X46522215Y-159048488D01*
X46278122Y-159349917D01*
X46066877Y-159675206D01*
X45890787Y-160020802D01*
X45751788Y-160382905D01*
X45651397Y-160757570D01*
X45651397Y-160757572D01*
X45590722Y-161140660D01*
X45578552Y-161372871D01*
X45570422Y-161528000D01*
X44276000Y-161528000D01*
X44276000Y-155378000D01*
X100020540Y-155378000D01*
X100040326Y-155566256D01*
X100040327Y-155566259D01*
X100098818Y-155746277D01*
X100098821Y-155746284D01*
X100193467Y-155910216D01*
X100301421Y-156030111D01*
X100320129Y-156050888D01*
X100473265Y-156162148D01*
X100473270Y-156162151D01*
X100646192Y-156239142D01*
X100646197Y-156239144D01*
X100831354Y-156278500D01*
X100831355Y-156278500D01*
X101020644Y-156278500D01*
X101020646Y-156278500D01*
X101205803Y-156239144D01*
X101378730Y-156162151D01*
X101531871Y-156050888D01*
X101658533Y-155910216D01*
X101753179Y-155746284D01*
X101811674Y-155566256D01*
X101831460Y-155378000D01*
X101811674Y-155189744D01*
X101753179Y-155009716D01*
X101658533Y-154845784D01*
X101531871Y-154705112D01*
X101521426Y-154697523D01*
X101378734Y-154593851D01*
X101378729Y-154593848D01*
X101205807Y-154516857D01*
X101205802Y-154516855D01*
X101060001Y-154485865D01*
X101020646Y-154477500D01*
X100831354Y-154477500D01*
X100798897Y-154484398D01*
X100646197Y-154516855D01*
X100646192Y-154516857D01*
X100473270Y-154593848D01*
X100473265Y-154593851D01*
X100320129Y-154705111D01*
X100193466Y-154845785D01*
X100098821Y-155009715D01*
X100098818Y-155009722D01*
X100043979Y-155178500D01*
X100040326Y-155189744D01*
X100020540Y-155378000D01*
X44276000Y-155378000D01*
X44276000Y-152129577D01*
X53425500Y-152129577D01*
X53425500Y-153726422D01*
X53456290Y-153920826D01*
X53517117Y-154108029D01*
X53603722Y-154278000D01*
X53606476Y-154283405D01*
X53722172Y-154442646D01*
X53861354Y-154581828D01*
X54020595Y-154697524D01*
X54103455Y-154739743D01*
X54195970Y-154786882D01*
X54195972Y-154786882D01*
X54195975Y-154786884D01*
X54267777Y-154810214D01*
X54383173Y-154847709D01*
X54577578Y-154878500D01*
X54577583Y-154878500D01*
X54774422Y-154878500D01*
X54968826Y-154847709D01*
X54974747Y-154845785D01*
X55156025Y-154786884D01*
X55331405Y-154697524D01*
X55490646Y-154581828D01*
X55629828Y-154442646D01*
X55745524Y-154283405D01*
X55834884Y-154108025D01*
X55895709Y-153920826D01*
X55902492Y-153877999D01*
X55926500Y-153726422D01*
X55926500Y-152129577D01*
X57125500Y-152129577D01*
X57125500Y-153726422D01*
X57156290Y-153920826D01*
X57217117Y-154108029D01*
X57303722Y-154278000D01*
X57306476Y-154283405D01*
X57422172Y-154442646D01*
X57561354Y-154581828D01*
X57720595Y-154697524D01*
X57803455Y-154739743D01*
X57895970Y-154786882D01*
X57895972Y-154786882D01*
X57895975Y-154786884D01*
X57967777Y-154810214D01*
X58083173Y-154847709D01*
X58277578Y-154878500D01*
X58277583Y-154878500D01*
X58474422Y-154878500D01*
X58668826Y-154847709D01*
X58674747Y-154845785D01*
X58856025Y-154786884D01*
X59031405Y-154697524D01*
X59190646Y-154581828D01*
X59329828Y-154442646D01*
X59445524Y-154283405D01*
X59534884Y-154108025D01*
X59595709Y-153920826D01*
X59602492Y-153877999D01*
X59626500Y-153726422D01*
X59626500Y-152129577D01*
X61425500Y-152129577D01*
X61425500Y-153726422D01*
X61456290Y-153920826D01*
X61517117Y-154108029D01*
X61603722Y-154278000D01*
X61606476Y-154283405D01*
X61722172Y-154442646D01*
X61861354Y-154581828D01*
X62020595Y-154697524D01*
X62103455Y-154739743D01*
X62195970Y-154786882D01*
X62195972Y-154786882D01*
X62195975Y-154786884D01*
X62267777Y-154810214D01*
X62383173Y-154847709D01*
X62577578Y-154878500D01*
X62577583Y-154878500D01*
X62774422Y-154878500D01*
X62968826Y-154847709D01*
X62974747Y-154845785D01*
X63156025Y-154786884D01*
X63331405Y-154697524D01*
X63490646Y-154581828D01*
X63629828Y-154442646D01*
X63745524Y-154283405D01*
X63834884Y-154108025D01*
X63895709Y-153920826D01*
X63902492Y-153877999D01*
X63926500Y-153726422D01*
X63926500Y-152129577D01*
X65125500Y-152129577D01*
X65125500Y-153726422D01*
X65156290Y-153920826D01*
X65217117Y-154108029D01*
X65303722Y-154278000D01*
X65306476Y-154283405D01*
X65422172Y-154442646D01*
X65561354Y-154581828D01*
X65720595Y-154697524D01*
X65803455Y-154739743D01*
X65895970Y-154786882D01*
X65895972Y-154786882D01*
X65895975Y-154786884D01*
X65967777Y-154810214D01*
X66083173Y-154847709D01*
X66277578Y-154878500D01*
X66277583Y-154878500D01*
X66474422Y-154878500D01*
X66668826Y-154847709D01*
X66674747Y-154845785D01*
X66856025Y-154786884D01*
X67031405Y-154697524D01*
X67190646Y-154581828D01*
X67329828Y-154442646D01*
X67445524Y-154283405D01*
X67448278Y-154278000D01*
X92370540Y-154278000D01*
X92390326Y-154466256D01*
X92390327Y-154466259D01*
X92448818Y-154646277D01*
X92448821Y-154646284D01*
X92543467Y-154810216D01*
X92639164Y-154916498D01*
X92670129Y-154950888D01*
X92823265Y-155062148D01*
X92823270Y-155062151D01*
X92996192Y-155139142D01*
X92996197Y-155139144D01*
X93181354Y-155178500D01*
X93181355Y-155178500D01*
X93370644Y-155178500D01*
X93370646Y-155178500D01*
X93555803Y-155139144D01*
X93728730Y-155062151D01*
X93881871Y-154950888D01*
X94008533Y-154810216D01*
X94103179Y-154646284D01*
X94158069Y-154477351D01*
X94197506Y-154419675D01*
X94261865Y-154392477D01*
X94330711Y-154404392D01*
X94382187Y-154451636D01*
X94393931Y-154477351D01*
X94448818Y-154646277D01*
X94448821Y-154646284D01*
X94543467Y-154810216D01*
X94639164Y-154916498D01*
X94670129Y-154950888D01*
X94823265Y-155062148D01*
X94823270Y-155062151D01*
X94996192Y-155139142D01*
X94996197Y-155139144D01*
X95181354Y-155178500D01*
X95181355Y-155178500D01*
X95370644Y-155178500D01*
X95370646Y-155178500D01*
X95555803Y-155139144D01*
X95728730Y-155062151D01*
X95881871Y-154950888D01*
X96008533Y-154810216D01*
X96103179Y-154646284D01*
X96158069Y-154477351D01*
X96197506Y-154419675D01*
X96261865Y-154392477D01*
X96330711Y-154404392D01*
X96382187Y-154451636D01*
X96393931Y-154477351D01*
X96448818Y-154646277D01*
X96448821Y-154646284D01*
X96543467Y-154810216D01*
X96639164Y-154916498D01*
X96670129Y-154950888D01*
X96823265Y-155062148D01*
X96823270Y-155062151D01*
X96996192Y-155139142D01*
X96996197Y-155139144D01*
X97181354Y-155178500D01*
X97181355Y-155178500D01*
X97370644Y-155178500D01*
X97370646Y-155178500D01*
X97555803Y-155139144D01*
X97728730Y-155062151D01*
X97881871Y-154950888D01*
X98008533Y-154810216D01*
X98103179Y-154646284D01*
X98161674Y-154466256D01*
X98181460Y-154278000D01*
X98161674Y-154089744D01*
X98103179Y-153909716D01*
X98084867Y-153877999D01*
X113600341Y-153877999D01*
X113600341Y-153878000D01*
X113620936Y-154113403D01*
X113620938Y-154113413D01*
X113682094Y-154341655D01*
X113682096Y-154341659D01*
X113682097Y-154341663D01*
X113740196Y-154466256D01*
X113781965Y-154555830D01*
X113781967Y-154555834D01*
X113881180Y-154697523D01*
X113917501Y-154749396D01*
X113917506Y-154749402D01*
X114084597Y-154916493D01*
X114084603Y-154916498D01*
X114270158Y-155046425D01*
X114313783Y-155101002D01*
X114320977Y-155170500D01*
X114289454Y-155232855D01*
X114270158Y-155249575D01*
X114084597Y-155379505D01*
X113917505Y-155546597D01*
X113781965Y-155740169D01*
X113781964Y-155740171D01*
X113682098Y-155954335D01*
X113682094Y-155954344D01*
X113620938Y-156182586D01*
X113620936Y-156182596D01*
X113600341Y-156417999D01*
X113600341Y-156418000D01*
X113620936Y-156653403D01*
X113620938Y-156653413D01*
X113682094Y-156881655D01*
X113682096Y-156881659D01*
X113682097Y-156881663D01*
X113760430Y-157049648D01*
X113781965Y-157095830D01*
X113781967Y-157095834D01*
X113879563Y-157235214D01*
X113917505Y-157289401D01*
X114084599Y-157456495D01*
X114181384Y-157524265D01*
X114278165Y-157592032D01*
X114278167Y-157592033D01*
X114278170Y-157592035D01*
X114492337Y-157691903D01*
X114720592Y-157753063D01*
X114908918Y-157769539D01*
X114955999Y-157773659D01*
X114956000Y-157773659D01*
X114956001Y-157773659D01*
X114995234Y-157770226D01*
X115191408Y-157753063D01*
X115419663Y-157691903D01*
X115633830Y-157592035D01*
X115827401Y-157456495D01*
X115994495Y-157289401D01*
X116124425Y-157103842D01*
X116179002Y-157060217D01*
X116248500Y-157053023D01*
X116310855Y-157084546D01*
X116327575Y-157103842D01*
X116457500Y-157289395D01*
X116457505Y-157289401D01*
X116624599Y-157456495D01*
X116721384Y-157524265D01*
X116818165Y-157592032D01*
X116818167Y-157592033D01*
X116818170Y-157592035D01*
X117032337Y-157691903D01*
X117260592Y-157753063D01*
X117448918Y-157769539D01*
X117495999Y-157773659D01*
X117496000Y-157773659D01*
X117496001Y-157773659D01*
X117535234Y-157770226D01*
X117731408Y-157753063D01*
X117959663Y-157691903D01*
X118173830Y-157592035D01*
X118367401Y-157456495D01*
X118534495Y-157289401D01*
X118664425Y-157103842D01*
X118719002Y-157060217D01*
X118788500Y-157053023D01*
X118850855Y-157084546D01*
X118867575Y-157103842D01*
X118997500Y-157289395D01*
X118997505Y-157289401D01*
X119164599Y-157456495D01*
X119261384Y-157524265D01*
X119358165Y-157592032D01*
X119358167Y-157592033D01*
X119358170Y-157592035D01*
X119572337Y-157691903D01*
X119800592Y-157753063D01*
X119988918Y-157769539D01*
X120035999Y-157773659D01*
X120036000Y-157773659D01*
X120036001Y-157773659D01*
X120075234Y-157770226D01*
X120271408Y-157753063D01*
X120499663Y-157691903D01*
X120713830Y-157592035D01*
X120907401Y-157456495D01*
X121074495Y-157289401D01*
X121210035Y-157095830D01*
X121309903Y-156881663D01*
X121357775Y-156703000D01*
X125395540Y-156703000D01*
X125415326Y-156891256D01*
X125415327Y-156891259D01*
X125473818Y-157071277D01*
X125473821Y-157071284D01*
X125568467Y-157235216D01*
X125695129Y-157375888D01*
X125848265Y-157487148D01*
X125848270Y-157487151D01*
X126021192Y-157564142D01*
X126021197Y-157564144D01*
X126206354Y-157603500D01*
X126206355Y-157603500D01*
X126395644Y-157603500D01*
X126395646Y-157603500D01*
X126580803Y-157564144D01*
X126753730Y-157487151D01*
X126906871Y-157375888D01*
X127033533Y-157235216D01*
X127128179Y-157071284D01*
X127186674Y-156891256D01*
X127206460Y-156703000D01*
X127186674Y-156514744D01*
X127128179Y-156334716D01*
X127088217Y-156265500D01*
X133283040Y-156265500D01*
X133302826Y-156453756D01*
X133302827Y-156453759D01*
X133361318Y-156633777D01*
X133361321Y-156633784D01*
X133455967Y-156797716D01*
X133539089Y-156890032D01*
X133582629Y-156938388D01*
X133735765Y-157049648D01*
X133735770Y-157049651D01*
X133908692Y-157126642D01*
X133908697Y-157126644D01*
X134093854Y-157166000D01*
X134093855Y-157166000D01*
X134283144Y-157166000D01*
X134283146Y-157166000D01*
X134468303Y-157126644D01*
X134641230Y-157049651D01*
X134794371Y-156938388D01*
X134921033Y-156797716D01*
X135015679Y-156633784D01*
X135074174Y-156453756D01*
X135093960Y-156265500D01*
X135074174Y-156077244D01*
X135015679Y-155897216D01*
X134921033Y-155733284D01*
X134794371Y-155592612D01*
X134794370Y-155592611D01*
X134641234Y-155481351D01*
X134641229Y-155481348D01*
X134468307Y-155404357D01*
X134468302Y-155404355D01*
X134322501Y-155373365D01*
X134283146Y-155365000D01*
X134093854Y-155365000D01*
X134061397Y-155371898D01*
X133908697Y-155404355D01*
X133908692Y-155404357D01*
X133735770Y-155481348D01*
X133735765Y-155481351D01*
X133582629Y-155592611D01*
X133455966Y-155733285D01*
X133361321Y-155897215D01*
X133361318Y-155897222D01*
X133302827Y-156077240D01*
X133302826Y-156077244D01*
X133283040Y-156265500D01*
X127088217Y-156265500D01*
X127033533Y-156170784D01*
X126906871Y-156030112D01*
X126906870Y-156030111D01*
X126753734Y-155918851D01*
X126753729Y-155918848D01*
X126580807Y-155841857D01*
X126580802Y-155841855D01*
X126435001Y-155810865D01*
X126395646Y-155802500D01*
X126206354Y-155802500D01*
X126173897Y-155809398D01*
X126021197Y-155841855D01*
X126021192Y-155841857D01*
X125848270Y-155918848D01*
X125848265Y-155918851D01*
X125695129Y-156030111D01*
X125568466Y-156170785D01*
X125473821Y-156334715D01*
X125473818Y-156334722D01*
X125446760Y-156418000D01*
X125415326Y-156514744D01*
X125395540Y-156703000D01*
X121357775Y-156703000D01*
X121371063Y-156653408D01*
X121391659Y-156418000D01*
X121371063Y-156182592D01*
X121309903Y-155954337D01*
X121210035Y-155740171D01*
X121205214Y-155733285D01*
X121074494Y-155546597D01*
X120907402Y-155379506D01*
X120907396Y-155379501D01*
X120721842Y-155249575D01*
X120678217Y-155194998D01*
X120671023Y-155125500D01*
X120702546Y-155063145D01*
X120721842Y-155046425D01*
X120774269Y-155009715D01*
X120907401Y-154916495D01*
X121074495Y-154749401D01*
X121210035Y-154555830D01*
X121309903Y-154341663D01*
X121371063Y-154113408D01*
X121391659Y-153878000D01*
X121371063Y-153642592D01*
X121309903Y-153414337D01*
X121210035Y-153200171D01*
X121204425Y-153192158D01*
X121074494Y-153006597D01*
X120907402Y-152839506D01*
X120907395Y-152839501D01*
X120713834Y-152703967D01*
X120713830Y-152703965D01*
X120713828Y-152703964D01*
X120499663Y-152604097D01*
X120499659Y-152604096D01*
X120499655Y-152604094D01*
X120271413Y-152542938D01*
X120271403Y-152542936D01*
X120036001Y-152522341D01*
X120035999Y-152522341D01*
X119800596Y-152542936D01*
X119800586Y-152542938D01*
X119572344Y-152604094D01*
X119572335Y-152604098D01*
X119358171Y-152703964D01*
X119358169Y-152703965D01*
X119164597Y-152839505D01*
X118997505Y-153006597D01*
X118867575Y-153192158D01*
X118812998Y-153235783D01*
X118743500Y-153242977D01*
X118681145Y-153211454D01*
X118664425Y-153192158D01*
X118534494Y-153006597D01*
X118367402Y-152839506D01*
X118367395Y-152839501D01*
X118173834Y-152703967D01*
X118173830Y-152703965D01*
X118173828Y-152703964D01*
X117959663Y-152604097D01*
X117959659Y-152604096D01*
X117959655Y-152604094D01*
X117731413Y-152542938D01*
X117731403Y-152542936D01*
X117496001Y-152522341D01*
X117495999Y-152522341D01*
X117260596Y-152542936D01*
X117260586Y-152542938D01*
X117032344Y-152604094D01*
X117032335Y-152604098D01*
X116818171Y-152703964D01*
X116818169Y-152703965D01*
X116624597Y-152839505D01*
X116457505Y-153006597D01*
X116327575Y-153192158D01*
X116272998Y-153235783D01*
X116203500Y-153242977D01*
X116141145Y-153211454D01*
X116124425Y-153192158D01*
X115994494Y-153006597D01*
X115827402Y-152839506D01*
X115827395Y-152839501D01*
X115633834Y-152703967D01*
X115633830Y-152703965D01*
X115633828Y-152703964D01*
X115419663Y-152604097D01*
X115419659Y-152604096D01*
X115419655Y-152604094D01*
X115191413Y-152542938D01*
X115191403Y-152542936D01*
X114956001Y-152522341D01*
X114955999Y-152522341D01*
X114720596Y-152542936D01*
X114720586Y-152542938D01*
X114492344Y-152604094D01*
X114492335Y-152604098D01*
X114278171Y-152703964D01*
X114278169Y-152703965D01*
X114084597Y-152839505D01*
X113917505Y-153006597D01*
X113781965Y-153200169D01*
X113781964Y-153200171D01*
X113682098Y-153414335D01*
X113682094Y-153414344D01*
X113620938Y-153642586D01*
X113620936Y-153642596D01*
X113600341Y-153877999D01*
X98084867Y-153877999D01*
X98008533Y-153745784D01*
X97881871Y-153605112D01*
X97881870Y-153605111D01*
X97728734Y-153493851D01*
X97728729Y-153493848D01*
X97555807Y-153416857D01*
X97555802Y-153416855D01*
X97410001Y-153385865D01*
X97370646Y-153377500D01*
X97181354Y-153377500D01*
X97148897Y-153384398D01*
X96996197Y-153416855D01*
X96996192Y-153416857D01*
X96823270Y-153493848D01*
X96823265Y-153493851D01*
X96670129Y-153605111D01*
X96543466Y-153745785D01*
X96448821Y-153909715D01*
X96448818Y-153909722D01*
X96393931Y-154078648D01*
X96354493Y-154136324D01*
X96290135Y-154163522D01*
X96221288Y-154151607D01*
X96169813Y-154104363D01*
X96158069Y-154078648D01*
X96103181Y-153909722D01*
X96103180Y-153909721D01*
X96103179Y-153909716D01*
X96008533Y-153745784D01*
X95881871Y-153605112D01*
X95881870Y-153605111D01*
X95728734Y-153493851D01*
X95728729Y-153493848D01*
X95555807Y-153416857D01*
X95555802Y-153416855D01*
X95410001Y-153385865D01*
X95370646Y-153377500D01*
X95181354Y-153377500D01*
X95148897Y-153384398D01*
X94996197Y-153416855D01*
X94996192Y-153416857D01*
X94823270Y-153493848D01*
X94823265Y-153493851D01*
X94670129Y-153605111D01*
X94543466Y-153745785D01*
X94448821Y-153909715D01*
X94448818Y-153909722D01*
X94393931Y-154078648D01*
X94354493Y-154136324D01*
X94290135Y-154163522D01*
X94221288Y-154151607D01*
X94169813Y-154104363D01*
X94158069Y-154078648D01*
X94103181Y-153909722D01*
X94103180Y-153909721D01*
X94103179Y-153909716D01*
X94008533Y-153745784D01*
X93881871Y-153605112D01*
X93881870Y-153605111D01*
X93728734Y-153493851D01*
X93728729Y-153493848D01*
X93555807Y-153416857D01*
X93555802Y-153416855D01*
X93410001Y-153385865D01*
X93370646Y-153377500D01*
X93181354Y-153377500D01*
X93148897Y-153384398D01*
X92996197Y-153416855D01*
X92996192Y-153416857D01*
X92823270Y-153493848D01*
X92823265Y-153493851D01*
X92670129Y-153605111D01*
X92543466Y-153745785D01*
X92448821Y-153909715D01*
X92448818Y-153909722D01*
X92399921Y-154060214D01*
X92390326Y-154089744D01*
X92370540Y-154278000D01*
X67448278Y-154278000D01*
X67534884Y-154108025D01*
X67595709Y-153920826D01*
X67602492Y-153877999D01*
X67626500Y-153726422D01*
X67626500Y-152129577D01*
X67595709Y-151935173D01*
X67567487Y-151848317D01*
X67534884Y-151747975D01*
X67534882Y-151747972D01*
X67534882Y-151747970D01*
X67445523Y-151572594D01*
X67436171Y-151559722D01*
X67329828Y-151413354D01*
X67190646Y-151274172D01*
X67031405Y-151158476D01*
X66980793Y-151132688D01*
X66971592Y-151128000D01*
X130370540Y-151128000D01*
X130390326Y-151316256D01*
X130390327Y-151316259D01*
X130448818Y-151496277D01*
X130448821Y-151496284D01*
X130543467Y-151660216D01*
X130622486Y-151747975D01*
X130670129Y-151800888D01*
X130823265Y-151912148D01*
X130823270Y-151912151D01*
X130996192Y-151989142D01*
X130996197Y-151989144D01*
X131181354Y-152028500D01*
X131181355Y-152028500D01*
X131370644Y-152028500D01*
X131370646Y-152028500D01*
X131555803Y-151989144D01*
X131682810Y-151932595D01*
X131752060Y-151923311D01*
X131815336Y-151952939D01*
X131852550Y-152012073D01*
X131856565Y-152032907D01*
X131865326Y-152116256D01*
X131865327Y-152116259D01*
X131923818Y-152296277D01*
X131923821Y-152296284D01*
X132018467Y-152460216D01*
X132103821Y-152555011D01*
X132145129Y-152600888D01*
X132298265Y-152712148D01*
X132298270Y-152712151D01*
X132471192Y-152789142D01*
X132471197Y-152789144D01*
X132656354Y-152828500D01*
X132656355Y-152828500D01*
X132662822Y-152829180D01*
X132662515Y-152832094D01*
X132717313Y-152848185D01*
X132763068Y-152900989D01*
X132773012Y-152970147D01*
X132757661Y-153014500D01*
X132673821Y-153159715D01*
X132673818Y-153159722D01*
X132615327Y-153339740D01*
X132615326Y-153339744D01*
X132595540Y-153528000D01*
X132615326Y-153716256D01*
X132615327Y-153716259D01*
X132673818Y-153896277D01*
X132673821Y-153896284D01*
X132768467Y-154060216D01*
X132895129Y-154200888D01*
X133048265Y-154312148D01*
X133048270Y-154312151D01*
X133221192Y-154389142D01*
X133221197Y-154389144D01*
X133406354Y-154428500D01*
X133406355Y-154428500D01*
X133595644Y-154428500D01*
X133595646Y-154428500D01*
X133780803Y-154389144D01*
X133953730Y-154312151D01*
X134106871Y-154200888D01*
X134233533Y-154060216D01*
X134328179Y-153896284D01*
X134386674Y-153716256D01*
X134406460Y-153528000D01*
X134386674Y-153339744D01*
X134328179Y-153159716D01*
X134233533Y-152995784D01*
X134106871Y-152855112D01*
X134106870Y-152855111D01*
X133953734Y-152743851D01*
X133953729Y-152743848D01*
X133780807Y-152666857D01*
X133780802Y-152666855D01*
X133595644Y-152627499D01*
X133589178Y-152626820D01*
X133589484Y-152623905D01*
X133534687Y-152607815D01*
X133488932Y-152555011D01*
X133478988Y-152485853D01*
X133494339Y-152441500D01*
X133537779Y-152366259D01*
X133578179Y-152296284D01*
X133616612Y-152178000D01*
X134195540Y-152178000D01*
X134215326Y-152366256D01*
X134215327Y-152366259D01*
X134273818Y-152546277D01*
X134273821Y-152546284D01*
X134368467Y-152710216D01*
X134474971Y-152828500D01*
X134495129Y-152850888D01*
X134648265Y-152962148D01*
X134648270Y-152962151D01*
X134821192Y-153039142D01*
X134821197Y-153039144D01*
X135006354Y-153078500D01*
X135006355Y-153078500D01*
X135195644Y-153078500D01*
X135195646Y-153078500D01*
X135380803Y-153039144D01*
X135553730Y-152962151D01*
X135706871Y-152850888D01*
X135833533Y-152710216D01*
X135928179Y-152546284D01*
X135986674Y-152366256D01*
X136006460Y-152178000D01*
X135986674Y-151989744D01*
X135928179Y-151809716D01*
X135833533Y-151645784D01*
X135706871Y-151505112D01*
X135706870Y-151505111D01*
X135553734Y-151393851D01*
X135553729Y-151393848D01*
X135380807Y-151316857D01*
X135380802Y-151316855D01*
X135235001Y-151285865D01*
X135195646Y-151277500D01*
X135006354Y-151277500D01*
X134973897Y-151284398D01*
X134821197Y-151316855D01*
X134821192Y-151316857D01*
X134648270Y-151393848D01*
X134648265Y-151393851D01*
X134495129Y-151505111D01*
X134368466Y-151645785D01*
X134273821Y-151809715D01*
X134273818Y-151809722D01*
X134215521Y-151989144D01*
X134215326Y-151989744D01*
X134195540Y-152178000D01*
X133616612Y-152178000D01*
X133636674Y-152116256D01*
X133656460Y-151928000D01*
X133636674Y-151739744D01*
X133578179Y-151559716D01*
X133483533Y-151395784D01*
X133356871Y-151255112D01*
X133332000Y-151237042D01*
X133203734Y-151143851D01*
X133203729Y-151143848D01*
X133030807Y-151066857D01*
X133030802Y-151066855D01*
X132885001Y-151035865D01*
X132845646Y-151027500D01*
X132656354Y-151027500D01*
X132623897Y-151034398D01*
X132471197Y-151066855D01*
X132344188Y-151123404D01*
X132274938Y-151132688D01*
X132211662Y-151103060D01*
X132174449Y-151043925D01*
X132170434Y-151023097D01*
X132161674Y-150939744D01*
X132103179Y-150759716D01*
X132008533Y-150595784D01*
X131881871Y-150455112D01*
X131881870Y-150455111D01*
X131728734Y-150343851D01*
X131728729Y-150343848D01*
X131555807Y-150266857D01*
X131555802Y-150266855D01*
X131410001Y-150235865D01*
X131370646Y-150227500D01*
X131181354Y-150227500D01*
X131148897Y-150234398D01*
X130996197Y-150266855D01*
X130996192Y-150266857D01*
X130823270Y-150343848D01*
X130823265Y-150343851D01*
X130670129Y-150455111D01*
X130543466Y-150595785D01*
X130448821Y-150759715D01*
X130448818Y-150759722D01*
X130390327Y-150939740D01*
X130390326Y-150939744D01*
X130370540Y-151128000D01*
X66971592Y-151128000D01*
X66856029Y-151069117D01*
X66668826Y-151008290D01*
X66474422Y-150977500D01*
X66474417Y-150977500D01*
X66277583Y-150977500D01*
X66277578Y-150977500D01*
X66083173Y-151008290D01*
X65895970Y-151069117D01*
X65720594Y-151158476D01*
X65629741Y-151224485D01*
X65561354Y-151274172D01*
X65561352Y-151274174D01*
X65561351Y-151274174D01*
X65422174Y-151413351D01*
X65422174Y-151413352D01*
X65422172Y-151413354D01*
X65372485Y-151481741D01*
X65306476Y-151572594D01*
X65217117Y-151747970D01*
X65156290Y-151935173D01*
X65125500Y-152129577D01*
X63926500Y-152129577D01*
X63895709Y-151935173D01*
X63867487Y-151848317D01*
X63834884Y-151747975D01*
X63834882Y-151747972D01*
X63834882Y-151747970D01*
X63745523Y-151572594D01*
X63736171Y-151559722D01*
X63629828Y-151413354D01*
X63490646Y-151274172D01*
X63331405Y-151158476D01*
X63280793Y-151132688D01*
X63156029Y-151069117D01*
X62968826Y-151008290D01*
X62774422Y-150977500D01*
X62774417Y-150977500D01*
X62577583Y-150977500D01*
X62577578Y-150977500D01*
X62383173Y-151008290D01*
X62195970Y-151069117D01*
X62020594Y-151158476D01*
X61929741Y-151224485D01*
X61861354Y-151274172D01*
X61861352Y-151274174D01*
X61861351Y-151274174D01*
X61722174Y-151413351D01*
X61722174Y-151413352D01*
X61722172Y-151413354D01*
X61672485Y-151481741D01*
X61606476Y-151572594D01*
X61517117Y-151747970D01*
X61456290Y-151935173D01*
X61425500Y-152129577D01*
X59626500Y-152129577D01*
X59595709Y-151935173D01*
X59567487Y-151848317D01*
X59534884Y-151747975D01*
X59534882Y-151747972D01*
X59534882Y-151747970D01*
X59445523Y-151572594D01*
X59436171Y-151559722D01*
X59329828Y-151413354D01*
X59190646Y-151274172D01*
X59031405Y-151158476D01*
X58980793Y-151132688D01*
X58856029Y-151069117D01*
X58668826Y-151008290D01*
X58474422Y-150977500D01*
X58474417Y-150977500D01*
X58277583Y-150977500D01*
X58277578Y-150977500D01*
X58083173Y-151008290D01*
X57895970Y-151069117D01*
X57720594Y-151158476D01*
X57629741Y-151224485D01*
X57561354Y-151274172D01*
X57561352Y-151274174D01*
X57561351Y-151274174D01*
X57422174Y-151413351D01*
X57422174Y-151413352D01*
X57422172Y-151413354D01*
X57372485Y-151481741D01*
X57306476Y-151572594D01*
X57217117Y-151747970D01*
X57156290Y-151935173D01*
X57125500Y-152129577D01*
X55926500Y-152129577D01*
X55895709Y-151935173D01*
X55867487Y-151848317D01*
X55834884Y-151747975D01*
X55834882Y-151747972D01*
X55834882Y-151747970D01*
X55745523Y-151572594D01*
X55736171Y-151559722D01*
X55629828Y-151413354D01*
X55490646Y-151274172D01*
X55331405Y-151158476D01*
X55280793Y-151132688D01*
X55156029Y-151069117D01*
X54968826Y-151008290D01*
X54774422Y-150977500D01*
X54774417Y-150977500D01*
X54577583Y-150977500D01*
X54577578Y-150977500D01*
X54383173Y-151008290D01*
X54195970Y-151069117D01*
X54020594Y-151158476D01*
X53929741Y-151224485D01*
X53861354Y-151274172D01*
X53861352Y-151274174D01*
X53861351Y-151274174D01*
X53722174Y-151413351D01*
X53722174Y-151413352D01*
X53722172Y-151413354D01*
X53672485Y-151481741D01*
X53606476Y-151572594D01*
X53517117Y-151747970D01*
X53456290Y-151935173D01*
X53425500Y-152129577D01*
X44276000Y-152129577D01*
X44276000Y-149464461D01*
X124890541Y-149464461D01*
X124910327Y-149652717D01*
X124910328Y-149652720D01*
X124968819Y-149832738D01*
X124968822Y-149832745D01*
X125063468Y-149996677D01*
X125180161Y-150126277D01*
X125190130Y-150137349D01*
X125343266Y-150248609D01*
X125343271Y-150248612D01*
X125516193Y-150325603D01*
X125516198Y-150325605D01*
X125701355Y-150364961D01*
X125701356Y-150364961D01*
X125890645Y-150364961D01*
X125890647Y-150364961D01*
X126075804Y-150325605D01*
X126248731Y-150248612D01*
X126401872Y-150137349D01*
X126528534Y-149996677D01*
X126623180Y-149832745D01*
X126647466Y-149758000D01*
X133370540Y-149758000D01*
X133390326Y-149946256D01*
X133390327Y-149946259D01*
X133448818Y-150126277D01*
X133448821Y-150126284D01*
X133543467Y-150290216D01*
X133610768Y-150364961D01*
X133670129Y-150430888D01*
X133823265Y-150542148D01*
X133823270Y-150542151D01*
X133996192Y-150619142D01*
X133996197Y-150619144D01*
X134181354Y-150658500D01*
X134181355Y-150658500D01*
X134370644Y-150658500D01*
X134370646Y-150658500D01*
X134555803Y-150619144D01*
X134728730Y-150542151D01*
X134881871Y-150430888D01*
X135008533Y-150290216D01*
X135103179Y-150126284D01*
X135161674Y-149946256D01*
X135181460Y-149758000D01*
X135161674Y-149569744D01*
X135103179Y-149389716D01*
X135008533Y-149225784D01*
X134881871Y-149085112D01*
X134881870Y-149085111D01*
X134728734Y-148973851D01*
X134728729Y-148973848D01*
X134555807Y-148896857D01*
X134555802Y-148896855D01*
X134410001Y-148865865D01*
X134370646Y-148857500D01*
X134181354Y-148857500D01*
X134148897Y-148864398D01*
X133996197Y-148896855D01*
X133996192Y-148896857D01*
X133823270Y-148973848D01*
X133823265Y-148973851D01*
X133670129Y-149085111D01*
X133543466Y-149225785D01*
X133448821Y-149389715D01*
X133448818Y-149389722D01*
X133390327Y-149569740D01*
X133390326Y-149569744D01*
X133370540Y-149758000D01*
X126647466Y-149758000D01*
X126681675Y-149652717D01*
X126701461Y-149464461D01*
X126681675Y-149276205D01*
X126623180Y-149096177D01*
X126528534Y-148932245D01*
X126401872Y-148791573D01*
X126401871Y-148791572D01*
X126248735Y-148680312D01*
X126248730Y-148680309D01*
X126075808Y-148603318D01*
X126075803Y-148603316D01*
X125930002Y-148572326D01*
X125890647Y-148563961D01*
X125701355Y-148563961D01*
X125668898Y-148570859D01*
X125516198Y-148603316D01*
X125516193Y-148603318D01*
X125343271Y-148680309D01*
X125343266Y-148680312D01*
X125190130Y-148791572D01*
X125063467Y-148932246D01*
X124968822Y-149096176D01*
X124968819Y-149096183D01*
X124910328Y-149276201D01*
X124910327Y-149276205D01*
X124890541Y-149464461D01*
X44276000Y-149464461D01*
X44276000Y-147778000D01*
X121132887Y-147778000D01*
X121152673Y-147966256D01*
X121152674Y-147966259D01*
X121211165Y-148146277D01*
X121211168Y-148146284D01*
X121305814Y-148310216D01*
X121432476Y-148450888D01*
X121585612Y-148562148D01*
X121585617Y-148562151D01*
X121758539Y-148639142D01*
X121758544Y-148639144D01*
X121943701Y-148678500D01*
X121943702Y-148678500D01*
X122132991Y-148678500D01*
X122132993Y-148678500D01*
X122318150Y-148639144D01*
X122491077Y-148562151D01*
X122644218Y-148450888D01*
X122770880Y-148310216D01*
X122865526Y-148146284D01*
X122924021Y-147966256D01*
X122943807Y-147778000D01*
X122924021Y-147589744D01*
X122865526Y-147409716D01*
X122834031Y-147355166D01*
X122817560Y-147287267D01*
X122834032Y-147231169D01*
X122882955Y-147146434D01*
X122941450Y-146966406D01*
X122961236Y-146778150D01*
X122941450Y-146589894D01*
X122882955Y-146409866D01*
X122804187Y-146273436D01*
X122787715Y-146205538D01*
X122804185Y-146149443D01*
X122878179Y-146021284D01*
X122936674Y-145841256D01*
X122956460Y-145653000D01*
X122936674Y-145464744D01*
X122878179Y-145284716D01*
X122837927Y-145214997D01*
X122821454Y-145147097D01*
X122837928Y-145090997D01*
X122878179Y-145021281D01*
X122936674Y-144841253D01*
X122956460Y-144652997D01*
X122936674Y-144464741D01*
X122878179Y-144284713D01*
X122837927Y-144214994D01*
X122821454Y-144147094D01*
X122837928Y-144090994D01*
X122878179Y-144021278D01*
X122936674Y-143841250D01*
X122943322Y-143778000D01*
X135370540Y-143778000D01*
X135390326Y-143966256D01*
X135390327Y-143966259D01*
X135448818Y-144146277D01*
X135448821Y-144146284D01*
X135543466Y-144310215D01*
X135547285Y-144315471D01*
X135545489Y-144316775D01*
X135571280Y-144370544D01*
X135562641Y-144439877D01*
X135546514Y-144464969D01*
X135547285Y-144465529D01*
X135543466Y-144470784D01*
X135448821Y-144634715D01*
X135448818Y-144634722D01*
X135390327Y-144814740D01*
X135390326Y-144814744D01*
X135370540Y-145003000D01*
X135390326Y-145191256D01*
X135390327Y-145191259D01*
X135448818Y-145371277D01*
X135448821Y-145371284D01*
X135543467Y-145535216D01*
X135670129Y-145675888D01*
X135823265Y-145787148D01*
X135823270Y-145787151D01*
X135996192Y-145864142D01*
X135996197Y-145864144D01*
X136181354Y-145903500D01*
X136181355Y-145903500D01*
X136370644Y-145903500D01*
X136370646Y-145903500D01*
X136555803Y-145864144D01*
X136728730Y-145787151D01*
X136881871Y-145675888D01*
X137008533Y-145535216D01*
X137103179Y-145371284D01*
X137161674Y-145191256D01*
X137181460Y-145003000D01*
X137161674Y-144814744D01*
X137103179Y-144634716D01*
X137008533Y-144470784D01*
X137004715Y-144465529D01*
X137006515Y-144464221D01*
X136980725Y-144410488D01*
X136989345Y-144341152D01*
X137005488Y-144316032D01*
X137004715Y-144315471D01*
X137008529Y-144310220D01*
X137008533Y-144310216D01*
X137103179Y-144146284D01*
X137161674Y-143966256D01*
X137181460Y-143778000D01*
X137161674Y-143589744D01*
X137103179Y-143409716D01*
X137008533Y-143245784D01*
X136881871Y-143105112D01*
X136881870Y-143105111D01*
X136728734Y-142993851D01*
X136728729Y-142993848D01*
X136555807Y-142916857D01*
X136555802Y-142916855D01*
X136410001Y-142885865D01*
X136370646Y-142877500D01*
X136181354Y-142877500D01*
X136148897Y-142884398D01*
X135996197Y-142916855D01*
X135996192Y-142916857D01*
X135823270Y-142993848D01*
X135823265Y-142993851D01*
X135670129Y-143105111D01*
X135543466Y-143245785D01*
X135448821Y-143409715D01*
X135448818Y-143409722D01*
X135390327Y-143589740D01*
X135390326Y-143589744D01*
X135370540Y-143778000D01*
X122943322Y-143778000D01*
X122956460Y-143652994D01*
X122936674Y-143464738D01*
X122878179Y-143284710D01*
X122837928Y-143214993D01*
X122821455Y-143147092D01*
X122837929Y-143090992D01*
X122849105Y-143071633D01*
X122878180Y-143021276D01*
X122936675Y-142841248D01*
X122956461Y-142652992D01*
X122936675Y-142464736D01*
X122878180Y-142284708D01*
X122852324Y-142239924D01*
X122835852Y-142172027D01*
X122852323Y-142115931D01*
X122906739Y-142021682D01*
X122965234Y-141841654D01*
X122985020Y-141653398D01*
X122965234Y-141465142D01*
X122906739Y-141285114D01*
X122866987Y-141216262D01*
X122864593Y-141212115D01*
X122848120Y-141144214D01*
X122864593Y-141088114D01*
X122903179Y-141021284D01*
X122961674Y-140841256D01*
X122963676Y-140822204D01*
X122990258Y-140757593D01*
X123047555Y-140717608D01*
X123117374Y-140714947D01*
X123177548Y-140750455D01*
X123204927Y-140796850D01*
X123249417Y-140933777D01*
X123249420Y-140933784D01*
X123344066Y-141097716D01*
X123440750Y-141205094D01*
X123470728Y-141238388D01*
X123623864Y-141349648D01*
X123623869Y-141349651D01*
X123796791Y-141426642D01*
X123796796Y-141426644D01*
X123981953Y-141466000D01*
X123981954Y-141466000D01*
X124171243Y-141466000D01*
X124171245Y-141466000D01*
X124345584Y-141428943D01*
X124415249Y-141434259D01*
X124470983Y-141476396D01*
X124495088Y-141541976D01*
X124479911Y-141610177D01*
X124478751Y-141612232D01*
X124386473Y-141772065D01*
X124386471Y-141772069D01*
X124335644Y-141928500D01*
X124327979Y-141952091D01*
X124308193Y-142140347D01*
X124327979Y-142328603D01*
X124327980Y-142328606D01*
X124386471Y-142508624D01*
X124386474Y-142508631D01*
X124481120Y-142672563D01*
X124576056Y-142778000D01*
X124607782Y-142813235D01*
X124760918Y-142924495D01*
X124760923Y-142924498D01*
X124933845Y-143001489D01*
X124933850Y-143001491D01*
X125119007Y-143040847D01*
X125119008Y-143040847D01*
X125308297Y-143040847D01*
X125308299Y-143040847D01*
X125493456Y-143001491D01*
X125666383Y-142924498D01*
X125819524Y-142813235D01*
X125946186Y-142672563D01*
X126040832Y-142508631D01*
X126099327Y-142328603D01*
X126119113Y-142140347D01*
X126099327Y-141952091D01*
X126040832Y-141772063D01*
X125946186Y-141608131D01*
X125819524Y-141467459D01*
X125819523Y-141467458D01*
X125666387Y-141356198D01*
X125666382Y-141356195D01*
X125493460Y-141279204D01*
X125493455Y-141279202D01*
X125487800Y-141278000D01*
X131840539Y-141278000D01*
X131860325Y-141466256D01*
X131860326Y-141466259D01*
X131918817Y-141646277D01*
X131918820Y-141646284D01*
X132013466Y-141810216D01*
X132119182Y-141927625D01*
X132140128Y-141950888D01*
X132293264Y-142062148D01*
X132293269Y-142062151D01*
X132466191Y-142139142D01*
X132466196Y-142139144D01*
X132651353Y-142178500D01*
X132651354Y-142178500D01*
X132840643Y-142178500D01*
X132840645Y-142178500D01*
X133025802Y-142139144D01*
X133198729Y-142062151D01*
X133351870Y-141950888D01*
X133478532Y-141810216D01*
X133573178Y-141646284D01*
X133631673Y-141466256D01*
X133651459Y-141278000D01*
X133651459Y-141277997D01*
X133651459Y-141272133D01*
X133671144Y-141205094D01*
X133723948Y-141159339D01*
X133793106Y-141149395D01*
X133801221Y-141150839D01*
X133931354Y-141178500D01*
X133931355Y-141178500D01*
X134120644Y-141178500D01*
X134120646Y-141178500D01*
X134305803Y-141139144D01*
X134478730Y-141062151D01*
X134631871Y-140950888D01*
X134758533Y-140810216D01*
X134853179Y-140646284D01*
X134911674Y-140466256D01*
X134931460Y-140278000D01*
X134911674Y-140089744D01*
X134853179Y-139909716D01*
X134777133Y-139778000D01*
X136120540Y-139778000D01*
X136140326Y-139966256D01*
X136140327Y-139966259D01*
X136198818Y-140146277D01*
X136198821Y-140146284D01*
X136293467Y-140310216D01*
X136389487Y-140416857D01*
X136420129Y-140450888D01*
X136573265Y-140562148D01*
X136573270Y-140562151D01*
X136746192Y-140639142D01*
X136746197Y-140639144D01*
X136931354Y-140678500D01*
X136931355Y-140678500D01*
X137120644Y-140678500D01*
X137120646Y-140678500D01*
X137305803Y-140639144D01*
X137478730Y-140562151D01*
X137631871Y-140450888D01*
X137758533Y-140310216D01*
X137853179Y-140146284D01*
X137911674Y-139966256D01*
X137931460Y-139778000D01*
X137911674Y-139589744D01*
X137853179Y-139409716D01*
X137758533Y-139245784D01*
X137631871Y-139105112D01*
X137610719Y-139089744D01*
X137478734Y-138993851D01*
X137478729Y-138993848D01*
X137305807Y-138916857D01*
X137305802Y-138916855D01*
X137160001Y-138885865D01*
X137120646Y-138877500D01*
X136931354Y-138877500D01*
X136898897Y-138884398D01*
X136746197Y-138916855D01*
X136746192Y-138916857D01*
X136573270Y-138993848D01*
X136573265Y-138993851D01*
X136420129Y-139105111D01*
X136293466Y-139245785D01*
X136198821Y-139409715D01*
X136198818Y-139409722D01*
X136154609Y-139545785D01*
X136140326Y-139589744D01*
X136120540Y-139778000D01*
X134777133Y-139778000D01*
X134758533Y-139745784D01*
X134631871Y-139605112D01*
X134631870Y-139605111D01*
X134478734Y-139493851D01*
X134478729Y-139493848D01*
X134305807Y-139416857D01*
X134305802Y-139416855D01*
X134160001Y-139385865D01*
X134120646Y-139377500D01*
X133931354Y-139377500D01*
X133898897Y-139384398D01*
X133746197Y-139416855D01*
X133746192Y-139416857D01*
X133573270Y-139493848D01*
X133573265Y-139493851D01*
X133420129Y-139605111D01*
X133293466Y-139745785D01*
X133198821Y-139909715D01*
X133198818Y-139909722D01*
X133147852Y-140066580D01*
X133140326Y-140089744D01*
X133121774Y-140266259D01*
X133120540Y-140278002D01*
X133120540Y-140283866D01*
X133100855Y-140350905D01*
X133048051Y-140396660D01*
X132978893Y-140406604D01*
X132970760Y-140405156D01*
X132840645Y-140377500D01*
X132651353Y-140377500D01*
X132618896Y-140384398D01*
X132466196Y-140416855D01*
X132466191Y-140416857D01*
X132293269Y-140493848D01*
X132293264Y-140493851D01*
X132140128Y-140605111D01*
X132013465Y-140745785D01*
X131918820Y-140909715D01*
X131918817Y-140909722D01*
X131860929Y-141087885D01*
X131860325Y-141089744D01*
X131840539Y-141278000D01*
X125487800Y-141278000D01*
X125347654Y-141248212D01*
X125308299Y-141239847D01*
X125119007Y-141239847D01*
X125119006Y-141239847D01*
X124944668Y-141276903D01*
X124875001Y-141271587D01*
X124819268Y-141229450D01*
X124795163Y-141163870D01*
X124810340Y-141095668D01*
X124811501Y-141093613D01*
X124829667Y-141062148D01*
X124903778Y-140933784D01*
X124962273Y-140753756D01*
X124982059Y-140565500D01*
X124962273Y-140377244D01*
X124903778Y-140197216D01*
X124809132Y-140033284D01*
X124682470Y-139892612D01*
X124649762Y-139868848D01*
X124529333Y-139781351D01*
X124529328Y-139781348D01*
X124356406Y-139704357D01*
X124356401Y-139704355D01*
X124210600Y-139673365D01*
X124171245Y-139665000D01*
X123981953Y-139665000D01*
X123949496Y-139671898D01*
X123796796Y-139704355D01*
X123796791Y-139704357D01*
X123623869Y-139781348D01*
X123623864Y-139781351D01*
X123470728Y-139892611D01*
X123344065Y-140033285D01*
X123249420Y-140197215D01*
X123249417Y-140197222D01*
X123190925Y-140377242D01*
X123190924Y-140377245D01*
X123188922Y-140396296D01*
X123162336Y-140460910D01*
X123105038Y-140500893D01*
X123035219Y-140503551D01*
X122975046Y-140468040D01*
X122947672Y-140421650D01*
X122903179Y-140284716D01*
X122808533Y-140120784D01*
X122681871Y-139980112D01*
X122662800Y-139966256D01*
X122528734Y-139868851D01*
X122528729Y-139868848D01*
X122355807Y-139791857D01*
X122355802Y-139791855D01*
X122210001Y-139760865D01*
X122170646Y-139752500D01*
X121981354Y-139752500D01*
X121948897Y-139759398D01*
X121796197Y-139791855D01*
X121796192Y-139791857D01*
X121623270Y-139868848D01*
X121623265Y-139868851D01*
X121470129Y-139980111D01*
X121343466Y-140120785D01*
X121248821Y-140284715D01*
X121248818Y-140284722D01*
X121190327Y-140464740D01*
X121190326Y-140464744D01*
X121170540Y-140653000D01*
X121190326Y-140841256D01*
X121190327Y-140841259D01*
X121248818Y-141021277D01*
X121248820Y-141021281D01*
X121248821Y-141021284D01*
X121272414Y-141062148D01*
X121290967Y-141094283D01*
X121307439Y-141162183D01*
X121290967Y-141218281D01*
X121252380Y-141285116D01*
X121252378Y-141285120D01*
X121198403Y-141451240D01*
X121193886Y-141465142D01*
X121174100Y-141653398D01*
X121193886Y-141841654D01*
X121193887Y-141841657D01*
X121252381Y-142021683D01*
X121278234Y-142066462D01*
X121294707Y-142134362D01*
X121278234Y-142190462D01*
X121223822Y-142284706D01*
X121183204Y-142409716D01*
X121165327Y-142464736D01*
X121145541Y-142652992D01*
X121165327Y-142841248D01*
X121165328Y-142841251D01*
X121223819Y-143021269D01*
X121223822Y-143021276D01*
X121264072Y-143090991D01*
X121280545Y-143158892D01*
X121264073Y-143214990D01*
X121223820Y-143284710D01*
X121169826Y-143450888D01*
X121165326Y-143464738D01*
X121145540Y-143652994D01*
X121165326Y-143841250D01*
X121165327Y-143841253D01*
X121223821Y-144021279D01*
X121264071Y-144090994D01*
X121280544Y-144158894D01*
X121264073Y-144214992D01*
X121223819Y-144284716D01*
X121165495Y-144464221D01*
X121165326Y-144464741D01*
X121145540Y-144652997D01*
X121165326Y-144841253D01*
X121165327Y-144841256D01*
X121223821Y-145021282D01*
X121264071Y-145090997D01*
X121280544Y-145158897D01*
X121264073Y-145214995D01*
X121223819Y-145284719D01*
X121195695Y-145371277D01*
X121165326Y-145464744D01*
X121145540Y-145653000D01*
X121165326Y-145841256D01*
X121165327Y-145841259D01*
X121223818Y-146021277D01*
X121223819Y-146021279D01*
X121223821Y-146021284D01*
X121267464Y-146096876D01*
X121302587Y-146157712D01*
X121319059Y-146225612D01*
X121302587Y-146281710D01*
X121228596Y-146409868D01*
X121228594Y-146409872D01*
X121170103Y-146589890D01*
X121170102Y-146589894D01*
X121150316Y-146778150D01*
X121170102Y-146966406D01*
X121170103Y-146966409D01*
X121228597Y-147146435D01*
X121260089Y-147200981D01*
X121276562Y-147268881D01*
X121260089Y-147324981D01*
X121211168Y-147409714D01*
X121152674Y-147589740D01*
X121152673Y-147589744D01*
X121132887Y-147778000D01*
X44276000Y-147778000D01*
X44276000Y-137528000D01*
X46870540Y-137528000D01*
X46890326Y-137716256D01*
X46890327Y-137716259D01*
X46948818Y-137896277D01*
X46948821Y-137896284D01*
X47043467Y-138060216D01*
X47170129Y-138200888D01*
X47310236Y-138302682D01*
X47352902Y-138358012D01*
X47358881Y-138427625D01*
X47326275Y-138489420D01*
X47310236Y-138503318D01*
X47170129Y-138605111D01*
X47043466Y-138745785D01*
X46948821Y-138909715D01*
X46948818Y-138909722D01*
X46890509Y-139089180D01*
X46890326Y-139089744D01*
X46870540Y-139278000D01*
X46890326Y-139466256D01*
X46890327Y-139466259D01*
X46948818Y-139646277D01*
X46948821Y-139646284D01*
X47043467Y-139810216D01*
X47133063Y-139909722D01*
X47170129Y-139950888D01*
X47310236Y-140052682D01*
X47352902Y-140108012D01*
X47358881Y-140177625D01*
X47326275Y-140239420D01*
X47310236Y-140253318D01*
X47170129Y-140355111D01*
X47043466Y-140495785D01*
X46948821Y-140659715D01*
X46948818Y-140659722D01*
X46890327Y-140839740D01*
X46890326Y-140839744D01*
X46870540Y-141028000D01*
X46890326Y-141216256D01*
X46890327Y-141216259D01*
X46948818Y-141396277D01*
X46948821Y-141396284D01*
X47043467Y-141560216D01*
X47127369Y-141653398D01*
X47170129Y-141700888D01*
X47310236Y-141802682D01*
X47352902Y-141858012D01*
X47358881Y-141927625D01*
X47326275Y-141989420D01*
X47310236Y-142003318D01*
X47170129Y-142105111D01*
X47043466Y-142245785D01*
X46948821Y-142409715D01*
X46948818Y-142409722D01*
X46916681Y-142508631D01*
X46890326Y-142589744D01*
X46870540Y-142778000D01*
X46890326Y-142966256D01*
X46890327Y-142966259D01*
X46948818Y-143146277D01*
X46948821Y-143146284D01*
X47043467Y-143310216D01*
X47133063Y-143409722D01*
X47170129Y-143450888D01*
X47323265Y-143562148D01*
X47323270Y-143562151D01*
X47496192Y-143639142D01*
X47496197Y-143639144D01*
X47681354Y-143678500D01*
X47681355Y-143678500D01*
X47870644Y-143678500D01*
X47870646Y-143678500D01*
X48055803Y-143639144D01*
X48228730Y-143562151D01*
X48381871Y-143450888D01*
X48508533Y-143310216D01*
X48543613Y-143249454D01*
X48594179Y-143201240D01*
X48662786Y-143188016D01*
X48727651Y-143213984D01*
X48758385Y-143249453D01*
X48778741Y-143284709D01*
X48793467Y-143310216D01*
X48920129Y-143450888D01*
X49073265Y-143562148D01*
X49073270Y-143562151D01*
X49246192Y-143639142D01*
X49246197Y-143639144D01*
X49431354Y-143678500D01*
X49431355Y-143678500D01*
X49620644Y-143678500D01*
X49620646Y-143678500D01*
X49805803Y-143639144D01*
X49978730Y-143562151D01*
X50131871Y-143450888D01*
X50258533Y-143310216D01*
X50293613Y-143249454D01*
X50344179Y-143201240D01*
X50412786Y-143188016D01*
X50477651Y-143213984D01*
X50508385Y-143249453D01*
X50528741Y-143284709D01*
X50543467Y-143310216D01*
X50670129Y-143450888D01*
X50823265Y-143562148D01*
X50823270Y-143562151D01*
X50996192Y-143639142D01*
X50996197Y-143639144D01*
X51181354Y-143678500D01*
X51181355Y-143678500D01*
X51370644Y-143678500D01*
X51370646Y-143678500D01*
X51555803Y-143639144D01*
X51728730Y-143562151D01*
X51881871Y-143450888D01*
X52008533Y-143310216D01*
X52043613Y-143249454D01*
X52094179Y-143201240D01*
X52162786Y-143188016D01*
X52227651Y-143213984D01*
X52258385Y-143249453D01*
X52278741Y-143284709D01*
X52293467Y-143310216D01*
X52420129Y-143450888D01*
X52573265Y-143562148D01*
X52573270Y-143562151D01*
X52746192Y-143639142D01*
X52746197Y-143639144D01*
X52931354Y-143678500D01*
X52931355Y-143678500D01*
X53120644Y-143678500D01*
X53120646Y-143678500D01*
X53305803Y-143639144D01*
X53478730Y-143562151D01*
X53631871Y-143450888D01*
X53758533Y-143310216D01*
X53853179Y-143146284D01*
X53911674Y-142966256D01*
X53931460Y-142778000D01*
X53911674Y-142589744D01*
X53853179Y-142409716D01*
X53758533Y-142245784D01*
X53631871Y-142105112D01*
X53525028Y-142027486D01*
X57838299Y-142027486D01*
X57858085Y-142215742D01*
X57858086Y-142215745D01*
X57916577Y-142395763D01*
X57916580Y-142395770D01*
X58011226Y-142559702D01*
X58095225Y-142652992D01*
X58137888Y-142700374D01*
X58291024Y-142811634D01*
X58291029Y-142811637D01*
X58463951Y-142888628D01*
X58463956Y-142888630D01*
X58649113Y-142927986D01*
X58649114Y-142927986D01*
X58838403Y-142927986D01*
X58838405Y-142927986D01*
X59023562Y-142888630D01*
X59196489Y-142811637D01*
X59349630Y-142700374D01*
X59476292Y-142559702D01*
X59570938Y-142395770D01*
X59629433Y-142215742D01*
X59649219Y-142027486D01*
X59629433Y-141839230D01*
X59570938Y-141659202D01*
X59546955Y-141617663D01*
X59530483Y-141549765D01*
X59546955Y-141493667D01*
X59603179Y-141396287D01*
X59661674Y-141216259D01*
X59681460Y-141028003D01*
X59661674Y-140839747D01*
X59603179Y-140659719D01*
X59574597Y-140610214D01*
X59562927Y-140590000D01*
X59546454Y-140522100D01*
X59562928Y-140466000D01*
X59603179Y-140396284D01*
X59661674Y-140216256D01*
X59676205Y-140078000D01*
X106920540Y-140078000D01*
X106940326Y-140266256D01*
X106940327Y-140266259D01*
X106998818Y-140446277D01*
X106998821Y-140446284D01*
X107093467Y-140610216D01*
X107215533Y-140745784D01*
X107220129Y-140750888D01*
X107373265Y-140862148D01*
X107373270Y-140862151D01*
X107546192Y-140939142D01*
X107546197Y-140939144D01*
X107731354Y-140978500D01*
X107731355Y-140978500D01*
X107920644Y-140978500D01*
X107920646Y-140978500D01*
X108105803Y-140939144D01*
X108278730Y-140862151D01*
X108431871Y-140750888D01*
X108558533Y-140610216D01*
X108653179Y-140446284D01*
X108711674Y-140266256D01*
X108731460Y-140078000D01*
X108711674Y-139889744D01*
X108653179Y-139709716D01*
X108558533Y-139545784D01*
X108431871Y-139405112D01*
X108431870Y-139405111D01*
X108278734Y-139293851D01*
X108278729Y-139293848D01*
X108105807Y-139216857D01*
X108105802Y-139216855D01*
X107960001Y-139185865D01*
X107920646Y-139177500D01*
X107731354Y-139177500D01*
X107698897Y-139184398D01*
X107546197Y-139216855D01*
X107546192Y-139216857D01*
X107373270Y-139293848D01*
X107373265Y-139293851D01*
X107220129Y-139405111D01*
X107093466Y-139545785D01*
X106998821Y-139709715D01*
X106998818Y-139709722D01*
X106940327Y-139889740D01*
X106940326Y-139889744D01*
X106920540Y-140078000D01*
X59676205Y-140078000D01*
X59681460Y-140028000D01*
X59661674Y-139839744D01*
X59603179Y-139659716D01*
X59598311Y-139651285D01*
X59571652Y-139605111D01*
X59562927Y-139589999D01*
X59546454Y-139522101D01*
X59562927Y-139466001D01*
X59603179Y-139396284D01*
X59661674Y-139216256D01*
X59681460Y-139028000D01*
X59661674Y-138839744D01*
X59603179Y-138659716D01*
X59508533Y-138495784D01*
X59381871Y-138355112D01*
X59381870Y-138355111D01*
X59228734Y-138243851D01*
X59228729Y-138243848D01*
X59055807Y-138166857D01*
X59055802Y-138166855D01*
X58990617Y-138153000D01*
X100595540Y-138153000D01*
X100615326Y-138341256D01*
X100615327Y-138341259D01*
X100673818Y-138521277D01*
X100673821Y-138521284D01*
X100768467Y-138685216D01*
X100800594Y-138720896D01*
X100895129Y-138825888D01*
X101048265Y-138937148D01*
X101048270Y-138937151D01*
X101221192Y-139014142D01*
X101221197Y-139014144D01*
X101406354Y-139053500D01*
X101406355Y-139053500D01*
X101595644Y-139053500D01*
X101595646Y-139053500D01*
X101780803Y-139014144D01*
X101953730Y-138937151D01*
X102106871Y-138825888D01*
X102201406Y-138720896D01*
X113902950Y-138720896D01*
X113922736Y-138909152D01*
X113922737Y-138909155D01*
X113981228Y-139089173D01*
X113981231Y-139089180D01*
X114075877Y-139253112D01*
X114112557Y-139293849D01*
X114202539Y-139393784D01*
X114355675Y-139505044D01*
X114355680Y-139505047D01*
X114528602Y-139582038D01*
X114528607Y-139582040D01*
X114713764Y-139621396D01*
X114713765Y-139621396D01*
X114903054Y-139621396D01*
X114903056Y-139621396D01*
X115088213Y-139582040D01*
X115261140Y-139505047D01*
X115414281Y-139393784D01*
X115540943Y-139253112D01*
X115635589Y-139089180D01*
X115694084Y-138909152D01*
X115698500Y-138867134D01*
X125213579Y-138867134D01*
X125233365Y-139055390D01*
X125233366Y-139055393D01*
X125291857Y-139235411D01*
X125291860Y-139235418D01*
X125386506Y-139399350D01*
X125476327Y-139499106D01*
X125513168Y-139540022D01*
X125666304Y-139651282D01*
X125666309Y-139651285D01*
X125839231Y-139728276D01*
X125839236Y-139728278D01*
X126024393Y-139767634D01*
X126024394Y-139767634D01*
X126213683Y-139767634D01*
X126213685Y-139767634D01*
X126398842Y-139728278D01*
X126571769Y-139651285D01*
X126724910Y-139540022D01*
X126851572Y-139399350D01*
X126946218Y-139235418D01*
X127004713Y-139055390D01*
X127024499Y-138867134D01*
X127004713Y-138678878D01*
X126946218Y-138498850D01*
X126851572Y-138334918D01*
X126724910Y-138194246D01*
X126724909Y-138194245D01*
X126571773Y-138082985D01*
X126571768Y-138082982D01*
X126398846Y-138005991D01*
X126398841Y-138005989D01*
X126253040Y-137974999D01*
X126213685Y-137966634D01*
X126024393Y-137966634D01*
X125991936Y-137973532D01*
X125839236Y-138005989D01*
X125839231Y-138005991D01*
X125666309Y-138082982D01*
X125666304Y-138082985D01*
X125513168Y-138194245D01*
X125386505Y-138334919D01*
X125291860Y-138498849D01*
X125291857Y-138498856D01*
X125257333Y-138605111D01*
X125233365Y-138678878D01*
X125213579Y-138867134D01*
X115698500Y-138867134D01*
X115713870Y-138720896D01*
X115694084Y-138532640D01*
X115635589Y-138352612D01*
X115540943Y-138188680D01*
X115414281Y-138048008D01*
X115414280Y-138048007D01*
X115261144Y-137936747D01*
X115261139Y-137936744D01*
X115088217Y-137859753D01*
X115088212Y-137859751D01*
X114942411Y-137828761D01*
X114903056Y-137820396D01*
X114713764Y-137820396D01*
X114681307Y-137827294D01*
X114528607Y-137859751D01*
X114528602Y-137859753D01*
X114355680Y-137936744D01*
X114355675Y-137936747D01*
X114202539Y-138048007D01*
X114075876Y-138188681D01*
X113981231Y-138352611D01*
X113981228Y-138352618D01*
X113922737Y-138532636D01*
X113922736Y-138532640D01*
X113902950Y-138720896D01*
X102201406Y-138720896D01*
X102233533Y-138685216D01*
X102328179Y-138521284D01*
X102386674Y-138341256D01*
X102406460Y-138153000D01*
X102386674Y-137964744D01*
X102328179Y-137784716D01*
X102233533Y-137620784D01*
X102106871Y-137480112D01*
X102106870Y-137480111D01*
X101953734Y-137368851D01*
X101953729Y-137368848D01*
X101780807Y-137291857D01*
X101780802Y-137291855D01*
X101635001Y-137260865D01*
X101595646Y-137252500D01*
X101406354Y-137252500D01*
X101373897Y-137259398D01*
X101221197Y-137291855D01*
X101221192Y-137291857D01*
X101048270Y-137368848D01*
X101048265Y-137368851D01*
X100895129Y-137480111D01*
X100768466Y-137620785D01*
X100673821Y-137784715D01*
X100673818Y-137784722D01*
X100615573Y-137963984D01*
X100615326Y-137964744D01*
X100595540Y-138153000D01*
X58990617Y-138153000D01*
X58910001Y-138135865D01*
X58870646Y-138127500D01*
X58681354Y-138127500D01*
X58648897Y-138134398D01*
X58496197Y-138166855D01*
X58496192Y-138166857D01*
X58323270Y-138243848D01*
X58323265Y-138243851D01*
X58170129Y-138355111D01*
X58043466Y-138495785D01*
X57948821Y-138659715D01*
X57948818Y-138659722D01*
X57920855Y-138745785D01*
X57890326Y-138839744D01*
X57870540Y-139028000D01*
X57890326Y-139216256D01*
X57890327Y-139216259D01*
X57948818Y-139396277D01*
X57948820Y-139396281D01*
X57948821Y-139396284D01*
X57960699Y-139416857D01*
X57989072Y-139466001D01*
X58005543Y-139533901D01*
X57989072Y-139589999D01*
X57948820Y-139659718D01*
X57948818Y-139659722D01*
X57899921Y-139810214D01*
X57890326Y-139839744D01*
X57870540Y-140028000D01*
X57890326Y-140216256D01*
X57890327Y-140216259D01*
X57948821Y-140396285D01*
X57989071Y-140466000D01*
X58005544Y-140533900D01*
X57989073Y-140589998D01*
X57948819Y-140659722D01*
X57890328Y-140839740D01*
X57890326Y-140839747D01*
X57870540Y-141028003D01*
X57890326Y-141216259D01*
X57890327Y-141216262D01*
X57948818Y-141396280D01*
X57948820Y-141396284D01*
X57948821Y-141396287D01*
X57966348Y-141426644D01*
X57972802Y-141437823D01*
X57989273Y-141505723D01*
X57972801Y-141561821D01*
X57916581Y-141659197D01*
X57916580Y-141659199D01*
X57865444Y-141816580D01*
X57858085Y-141839230D01*
X57838299Y-142027486D01*
X53525028Y-142027486D01*
X53491762Y-142003317D01*
X53449097Y-141947988D01*
X53443118Y-141878375D01*
X53475723Y-141816580D01*
X53491763Y-141802682D01*
X53533904Y-141772065D01*
X53631871Y-141700888D01*
X53758533Y-141560216D01*
X53793613Y-141499454D01*
X53844179Y-141451240D01*
X53912786Y-141438016D01*
X53977651Y-141463984D01*
X54008385Y-141499453D01*
X54008599Y-141499822D01*
X54043467Y-141560216D01*
X54170129Y-141700888D01*
X54323265Y-141812148D01*
X54323270Y-141812151D01*
X54496192Y-141889142D01*
X54496197Y-141889144D01*
X54681354Y-141928500D01*
X54681355Y-141928500D01*
X54870644Y-141928500D01*
X54870646Y-141928500D01*
X55055803Y-141889144D01*
X55228730Y-141812151D01*
X55381871Y-141700888D01*
X55508533Y-141560216D01*
X55603179Y-141396284D01*
X55661674Y-141216256D01*
X55681460Y-141028000D01*
X55661674Y-140839744D01*
X55603179Y-140659716D01*
X55508533Y-140495784D01*
X55381871Y-140355112D01*
X55284977Y-140284715D01*
X55241763Y-140253318D01*
X55199097Y-140197988D01*
X55193118Y-140128375D01*
X55225723Y-140066580D01*
X55241763Y-140052682D01*
X55341647Y-139980112D01*
X55381871Y-139950888D01*
X55508533Y-139810216D01*
X55603179Y-139646284D01*
X55661674Y-139466256D01*
X55681460Y-139278000D01*
X55661674Y-139089744D01*
X55603179Y-138909716D01*
X55508533Y-138745784D01*
X55381871Y-138605112D01*
X55282121Y-138532640D01*
X55241763Y-138503318D01*
X55199097Y-138447988D01*
X55193118Y-138378375D01*
X55225723Y-138316580D01*
X55241763Y-138302682D01*
X55322737Y-138243851D01*
X55381871Y-138200888D01*
X55508533Y-138060216D01*
X55603179Y-137896284D01*
X55661674Y-137716256D01*
X55681460Y-137528000D01*
X55661674Y-137339744D01*
X55603179Y-137159716D01*
X55508533Y-136995784D01*
X55381871Y-136855112D01*
X55360719Y-136839744D01*
X55228734Y-136743851D01*
X55228729Y-136743848D01*
X55055807Y-136666857D01*
X55055802Y-136666855D01*
X54910001Y-136635865D01*
X54870646Y-136627500D01*
X54681354Y-136627500D01*
X54648897Y-136634398D01*
X54496197Y-136666855D01*
X54496192Y-136666857D01*
X54323270Y-136743848D01*
X54323265Y-136743851D01*
X54170129Y-136855111D01*
X54043466Y-136995785D01*
X54008387Y-137056544D01*
X53957820Y-137104760D01*
X53889213Y-137117983D01*
X53824348Y-137092015D01*
X53793613Y-137056544D01*
X53777133Y-137028000D01*
X53758533Y-136995784D01*
X53631871Y-136855112D01*
X53610719Y-136839744D01*
X53478734Y-136743851D01*
X53478729Y-136743848D01*
X53305807Y-136666857D01*
X53305802Y-136666855D01*
X53160001Y-136635865D01*
X53120646Y-136627500D01*
X52931354Y-136627500D01*
X52898897Y-136634398D01*
X52746197Y-136666855D01*
X52746192Y-136666857D01*
X52573270Y-136743848D01*
X52573265Y-136743851D01*
X52420129Y-136855111D01*
X52293466Y-136995785D01*
X52258387Y-137056544D01*
X52207820Y-137104760D01*
X52139213Y-137117983D01*
X52074348Y-137092015D01*
X52043613Y-137056544D01*
X52027133Y-137028000D01*
X52008533Y-136995784D01*
X51881871Y-136855112D01*
X51860719Y-136839744D01*
X51728734Y-136743851D01*
X51728729Y-136743848D01*
X51555807Y-136666857D01*
X51555802Y-136666855D01*
X51410001Y-136635865D01*
X51370646Y-136627500D01*
X51181354Y-136627500D01*
X51148897Y-136634398D01*
X50996197Y-136666855D01*
X50996192Y-136666857D01*
X50823270Y-136743848D01*
X50823265Y-136743851D01*
X50670129Y-136855111D01*
X50543466Y-136995785D01*
X50508387Y-137056544D01*
X50457820Y-137104760D01*
X50389213Y-137117983D01*
X50324348Y-137092015D01*
X50293613Y-137056544D01*
X50277133Y-137028000D01*
X50258533Y-136995784D01*
X50131871Y-136855112D01*
X50110719Y-136839744D01*
X49978734Y-136743851D01*
X49978729Y-136743848D01*
X49805807Y-136666857D01*
X49805802Y-136666855D01*
X49660001Y-136635865D01*
X49620646Y-136627500D01*
X49431354Y-136627500D01*
X49398897Y-136634398D01*
X49246197Y-136666855D01*
X49246192Y-136666857D01*
X49073270Y-136743848D01*
X49073265Y-136743851D01*
X48920129Y-136855111D01*
X48793466Y-136995785D01*
X48758387Y-137056544D01*
X48707820Y-137104760D01*
X48639213Y-137117983D01*
X48574348Y-137092015D01*
X48543613Y-137056544D01*
X48527133Y-137028000D01*
X48508533Y-136995784D01*
X48381871Y-136855112D01*
X48360719Y-136839744D01*
X48228734Y-136743851D01*
X48228729Y-136743848D01*
X48055807Y-136666857D01*
X48055802Y-136666855D01*
X47910001Y-136635865D01*
X47870646Y-136627500D01*
X47681354Y-136627500D01*
X47648897Y-136634398D01*
X47496197Y-136666855D01*
X47496192Y-136666857D01*
X47323270Y-136743848D01*
X47323265Y-136743851D01*
X47170129Y-136855111D01*
X47043466Y-136995785D01*
X46948821Y-137159715D01*
X46948818Y-137159722D01*
X46901000Y-137306893D01*
X46890326Y-137339744D01*
X46870540Y-137528000D01*
X44276000Y-137528000D01*
X44276000Y-134653000D01*
X83420540Y-134653000D01*
X83440326Y-134841256D01*
X83440327Y-134841259D01*
X83498818Y-135021277D01*
X83498821Y-135021284D01*
X83593467Y-135185216D01*
X83663500Y-135262995D01*
X83720129Y-135325888D01*
X83873265Y-135437148D01*
X83873270Y-135437151D01*
X84046192Y-135514142D01*
X84046197Y-135514144D01*
X84231354Y-135553500D01*
X84231355Y-135553500D01*
X84420644Y-135553500D01*
X84420646Y-135553500D01*
X84605803Y-135514144D01*
X84778730Y-135437151D01*
X84915617Y-135337696D01*
X84981421Y-135314218D01*
X85049474Y-135330043D01*
X85061369Y-135337687D01*
X85170547Y-135417009D01*
X85198270Y-135437151D01*
X85237503Y-135454619D01*
X85290740Y-135499869D01*
X85311061Y-135566719D01*
X85292015Y-135633942D01*
X85279218Y-135650869D01*
X85193619Y-135745938D01*
X85098974Y-135909868D01*
X85098971Y-135909875D01*
X85052630Y-136052500D01*
X85040479Y-136089897D01*
X85020693Y-136278153D01*
X85040479Y-136466409D01*
X85040480Y-136466412D01*
X85098971Y-136646430D01*
X85098974Y-136646437D01*
X85193620Y-136810369D01*
X85233907Y-136855112D01*
X85320282Y-136951041D01*
X85473418Y-137062301D01*
X85473423Y-137062304D01*
X85646345Y-137139295D01*
X85646350Y-137139297D01*
X85831507Y-137178653D01*
X85831508Y-137178653D01*
X86020797Y-137178653D01*
X86020799Y-137178653D01*
X86205956Y-137139297D01*
X86378883Y-137062304D01*
X86426099Y-137028000D01*
X112210540Y-137028000D01*
X112230326Y-137216256D01*
X112230327Y-137216259D01*
X112288818Y-137396277D01*
X112288821Y-137396284D01*
X112383467Y-137560216D01*
X112438003Y-137620784D01*
X112510129Y-137700888D01*
X112663265Y-137812148D01*
X112663270Y-137812151D01*
X112836192Y-137889142D01*
X112836197Y-137889144D01*
X113021354Y-137928500D01*
X113021355Y-137928500D01*
X113210644Y-137928500D01*
X113210646Y-137928500D01*
X113395803Y-137889144D01*
X113568730Y-137812151D01*
X113721871Y-137700888D01*
X113848533Y-137560216D01*
X113943179Y-137396284D01*
X114001674Y-137216256D01*
X114021460Y-137028000D01*
X114013577Y-136953000D01*
X122870540Y-136953000D01*
X122890326Y-137141256D01*
X122890327Y-137141259D01*
X122948818Y-137321277D01*
X122948821Y-137321284D01*
X123043467Y-137485216D01*
X123165533Y-137620784D01*
X123170129Y-137625888D01*
X123323265Y-137737148D01*
X123323270Y-137737151D01*
X123496192Y-137814142D01*
X123496197Y-137814144D01*
X123681354Y-137853500D01*
X123681355Y-137853500D01*
X123870644Y-137853500D01*
X123870646Y-137853500D01*
X124055803Y-137814144D01*
X124228730Y-137737151D01*
X124381871Y-137625888D01*
X124508533Y-137485216D01*
X124603179Y-137321284D01*
X124661674Y-137141256D01*
X124681460Y-136953000D01*
X124661674Y-136764744D01*
X124603179Y-136584716D01*
X124508533Y-136420784D01*
X124381871Y-136280112D01*
X124331962Y-136243851D01*
X124228734Y-136168851D01*
X124228729Y-136168848D01*
X124055807Y-136091857D01*
X124055802Y-136091855D01*
X123910001Y-136060865D01*
X123870646Y-136052500D01*
X123681354Y-136052500D01*
X123648897Y-136059398D01*
X123496197Y-136091855D01*
X123496192Y-136091857D01*
X123323270Y-136168848D01*
X123323265Y-136168851D01*
X123170129Y-136280111D01*
X123043466Y-136420785D01*
X122948821Y-136584715D01*
X122948818Y-136584722D01*
X122890327Y-136764740D01*
X122890326Y-136764744D01*
X122870540Y-136953000D01*
X114013577Y-136953000D01*
X114001674Y-136839744D01*
X113943179Y-136659716D01*
X113848533Y-136495784D01*
X113721871Y-136355112D01*
X113721870Y-136355111D01*
X113568734Y-136243851D01*
X113568729Y-136243848D01*
X113395807Y-136166857D01*
X113395802Y-136166855D01*
X113250001Y-136135865D01*
X113210646Y-136127500D01*
X113021354Y-136127500D01*
X112988897Y-136134398D01*
X112836197Y-136166855D01*
X112836192Y-136166857D01*
X112663270Y-136243848D01*
X112663265Y-136243851D01*
X112510129Y-136355111D01*
X112383466Y-136495785D01*
X112288821Y-136659715D01*
X112288818Y-136659722D01*
X112230327Y-136839740D01*
X112230326Y-136839744D01*
X112210540Y-137028000D01*
X86426099Y-137028000D01*
X86532024Y-136951041D01*
X86658686Y-136810369D01*
X86753332Y-136646437D01*
X86811827Y-136466409D01*
X86831613Y-136278153D01*
X86811827Y-136089897D01*
X86753332Y-135909869D01*
X86658686Y-135745937D01*
X86532024Y-135605265D01*
X86478970Y-135566719D01*
X86378887Y-135494004D01*
X86378885Y-135494003D01*
X86339647Y-135476533D01*
X86286411Y-135431282D01*
X86266090Y-135364433D01*
X86285136Y-135297210D01*
X86297930Y-135280286D01*
X86383533Y-135185216D01*
X86478179Y-135021284D01*
X86536674Y-134841256D01*
X86556460Y-134653000D01*
X86536674Y-134464744D01*
X86478179Y-134284716D01*
X86383533Y-134120784D01*
X86322500Y-134053000D01*
X112510540Y-134053000D01*
X112530326Y-134241256D01*
X112530327Y-134241259D01*
X112588818Y-134421277D01*
X112588821Y-134421284D01*
X112683467Y-134585216D01*
X112753500Y-134662995D01*
X112810129Y-134725888D01*
X112963265Y-134837148D01*
X112963270Y-134837151D01*
X113136192Y-134914142D01*
X113136197Y-134914144D01*
X113321354Y-134953500D01*
X113321355Y-134953500D01*
X113510644Y-134953500D01*
X113510646Y-134953500D01*
X113695803Y-134914144D01*
X113868730Y-134837151D01*
X114005617Y-134737696D01*
X114071421Y-134714218D01*
X114139474Y-134730043D01*
X114151369Y-134737687D01*
X114288266Y-134837148D01*
X114288270Y-134837151D01*
X114461192Y-134914142D01*
X114461197Y-134914144D01*
X114646354Y-134953500D01*
X114646355Y-134953500D01*
X114835644Y-134953500D01*
X114835646Y-134953500D01*
X115020803Y-134914144D01*
X115193730Y-134837151D01*
X115346871Y-134725888D01*
X115473533Y-134585216D01*
X115568179Y-134421284D01*
X115626674Y-134241256D01*
X115646460Y-134053000D01*
X115626674Y-133864744D01*
X115568179Y-133684716D01*
X115473533Y-133520784D01*
X115346871Y-133380112D01*
X115341148Y-133375954D01*
X115193734Y-133268851D01*
X115193729Y-133268848D01*
X115020807Y-133191857D01*
X115020802Y-133191855D01*
X114875001Y-133160865D01*
X114835646Y-133152500D01*
X114646354Y-133152500D01*
X114613897Y-133159398D01*
X114461197Y-133191855D01*
X114461192Y-133191857D01*
X114288271Y-133268848D01*
X114151385Y-133368301D01*
X114085578Y-133391780D01*
X114017525Y-133375954D01*
X114005615Y-133368301D01*
X113943864Y-133323437D01*
X113868730Y-133268849D01*
X113868728Y-133268848D01*
X113868729Y-133268848D01*
X113695807Y-133191857D01*
X113695802Y-133191855D01*
X113550001Y-133160865D01*
X113510646Y-133152500D01*
X113321354Y-133152500D01*
X113288897Y-133159398D01*
X113136197Y-133191855D01*
X113136192Y-133191857D01*
X112963270Y-133268848D01*
X112963265Y-133268851D01*
X112810129Y-133380111D01*
X112683466Y-133520785D01*
X112588821Y-133684715D01*
X112588818Y-133684722D01*
X112530327Y-133864740D01*
X112530326Y-133864744D01*
X112510540Y-134053000D01*
X86322500Y-134053000D01*
X86256871Y-133980112D01*
X86251148Y-133975954D01*
X86103734Y-133868851D01*
X86103729Y-133868848D01*
X85930807Y-133791857D01*
X85930802Y-133791855D01*
X85785001Y-133760865D01*
X85745646Y-133752500D01*
X85556354Y-133752500D01*
X85523897Y-133759398D01*
X85371197Y-133791855D01*
X85371192Y-133791857D01*
X85198271Y-133868848D01*
X85061385Y-133968301D01*
X84995578Y-133991780D01*
X84927525Y-133975954D01*
X84915615Y-133968301D01*
X84853864Y-133923437D01*
X84778730Y-133868849D01*
X84778728Y-133868848D01*
X84778729Y-133868848D01*
X84605807Y-133791857D01*
X84605802Y-133791855D01*
X84460001Y-133760865D01*
X84420646Y-133752500D01*
X84231354Y-133752500D01*
X84198897Y-133759398D01*
X84046197Y-133791855D01*
X84046192Y-133791857D01*
X83873270Y-133868848D01*
X83873265Y-133868851D01*
X83720129Y-133980111D01*
X83593466Y-134120785D01*
X83498821Y-134284715D01*
X83498818Y-134284722D01*
X83454449Y-134421277D01*
X83440326Y-134464744D01*
X83420540Y-134653000D01*
X44276000Y-134653000D01*
X44276000Y-132852998D01*
X99620540Y-132852998D01*
X99640326Y-133041254D01*
X99640327Y-133041257D01*
X99698818Y-133221275D01*
X99698821Y-133221282D01*
X99793467Y-133385214D01*
X99915535Y-133520784D01*
X99920129Y-133525886D01*
X100073265Y-133637146D01*
X100073270Y-133637149D01*
X100246192Y-133714140D01*
X100246197Y-133714142D01*
X100431354Y-133753498D01*
X100431355Y-133753498D01*
X100620644Y-133753498D01*
X100620646Y-133753498D01*
X100805803Y-133714142D01*
X100978730Y-133637149D01*
X101131871Y-133525886D01*
X101258533Y-133385214D01*
X101353179Y-133221282D01*
X101411674Y-133041254D01*
X101431460Y-132852998D01*
X101411674Y-132664742D01*
X101353179Y-132484714D01*
X101258533Y-132320782D01*
X101131871Y-132180110D01*
X101131870Y-132180109D01*
X100978734Y-132068849D01*
X100978729Y-132068846D01*
X100805807Y-131991855D01*
X100805802Y-131991853D01*
X100660001Y-131960863D01*
X100620646Y-131952498D01*
X100431354Y-131952498D01*
X100398897Y-131959396D01*
X100246197Y-131991853D01*
X100246192Y-131991855D01*
X100073270Y-132068846D01*
X100073265Y-132068849D01*
X99920129Y-132180109D01*
X99793466Y-132320783D01*
X99698821Y-132484713D01*
X99698818Y-132484720D01*
X99641169Y-132662148D01*
X99640326Y-132664742D01*
X99620540Y-132852998D01*
X44276000Y-132852998D01*
X44276000Y-129378000D01*
X76520540Y-129378000D01*
X76540326Y-129566256D01*
X76540327Y-129566259D01*
X76598818Y-129746277D01*
X76598821Y-129746284D01*
X76693467Y-129910216D01*
X76740227Y-129962148D01*
X76820129Y-130050888D01*
X76973265Y-130162148D01*
X76973270Y-130162151D01*
X77146192Y-130239142D01*
X77146197Y-130239144D01*
X77331354Y-130278500D01*
X77331355Y-130278500D01*
X77460602Y-130278500D01*
X77527641Y-130298185D01*
X77573396Y-130350989D01*
X77583340Y-130420147D01*
X77554315Y-130483703D01*
X77552752Y-130485472D01*
X77543466Y-130495785D01*
X77448821Y-130659715D01*
X77448818Y-130659722D01*
X77391798Y-130835214D01*
X77390326Y-130839744D01*
X77370540Y-131028000D01*
X77390326Y-131216256D01*
X77390327Y-131216259D01*
X77448818Y-131396277D01*
X77448821Y-131396284D01*
X77543467Y-131560216D01*
X77660091Y-131689740D01*
X77670129Y-131700888D01*
X77823265Y-131812148D01*
X77823270Y-131812151D01*
X77996192Y-131889142D01*
X77996197Y-131889144D01*
X78181354Y-131928500D01*
X78181355Y-131928500D01*
X78370644Y-131928500D01*
X78370646Y-131928500D01*
X78555803Y-131889144D01*
X78728730Y-131812151D01*
X78881871Y-131700888D01*
X79008533Y-131560216D01*
X79103179Y-131396284D01*
X79161674Y-131216256D01*
X79181460Y-131028000D01*
X106620540Y-131028000D01*
X106640326Y-131216256D01*
X106640327Y-131216259D01*
X106698818Y-131396277D01*
X106698821Y-131396284D01*
X106793467Y-131560216D01*
X106910091Y-131689740D01*
X106920129Y-131700888D01*
X107073265Y-131812148D01*
X107073270Y-131812151D01*
X107246192Y-131889142D01*
X107246197Y-131889144D01*
X107431354Y-131928500D01*
X107431355Y-131928500D01*
X107620644Y-131928500D01*
X107620646Y-131928500D01*
X107805803Y-131889144D01*
X107978730Y-131812151D01*
X108131871Y-131700888D01*
X108258533Y-131560216D01*
X108353179Y-131396284D01*
X108411674Y-131216256D01*
X108431460Y-131028000D01*
X108411674Y-130839744D01*
X108375366Y-130728000D01*
X126870540Y-130728000D01*
X126890326Y-130916256D01*
X126890327Y-130916259D01*
X126948821Y-131096285D01*
X126989071Y-131166000D01*
X127005544Y-131233900D01*
X126989073Y-131289998D01*
X126948819Y-131359722D01*
X126894143Y-131528000D01*
X126890326Y-131539747D01*
X126870540Y-131728003D01*
X126890326Y-131916259D01*
X126890327Y-131916262D01*
X126948818Y-132096280D01*
X126948821Y-132096287D01*
X127043467Y-132260219D01*
X127159550Y-132389142D01*
X127170129Y-132400891D01*
X127323265Y-132512151D01*
X127323270Y-132512154D01*
X127496192Y-132589145D01*
X127496197Y-132589147D01*
X127681354Y-132628503D01*
X127681355Y-132628503D01*
X127870644Y-132628503D01*
X127870646Y-132628503D01*
X128055803Y-132589147D01*
X128228730Y-132512154D01*
X128381871Y-132400891D01*
X128508533Y-132260219D01*
X128603179Y-132096287D01*
X128661674Y-131916259D01*
X128681460Y-131728003D01*
X128661674Y-131539747D01*
X128657857Y-131528000D01*
X134120540Y-131528000D01*
X134140326Y-131716256D01*
X134140327Y-131716259D01*
X134198818Y-131896277D01*
X134198821Y-131896284D01*
X134293467Y-132060216D01*
X134401420Y-132180110D01*
X134420129Y-132200888D01*
X134573265Y-132312148D01*
X134573270Y-132312151D01*
X134746192Y-132389142D01*
X134746197Y-132389144D01*
X134931354Y-132428500D01*
X134931355Y-132428500D01*
X135120644Y-132428500D01*
X135120646Y-132428500D01*
X135305803Y-132389144D01*
X135478730Y-132312151D01*
X135631871Y-132200888D01*
X135758533Y-132060216D01*
X135853179Y-131896284D01*
X135859120Y-131878000D01*
X136745540Y-131878000D01*
X136765326Y-132066256D01*
X136765327Y-132066259D01*
X136823818Y-132246277D01*
X136823821Y-132246284D01*
X136918467Y-132410216D01*
X136985551Y-132484720D01*
X137045129Y-132550888D01*
X137198265Y-132662148D01*
X137198270Y-132662151D01*
X137371192Y-132739142D01*
X137371197Y-132739144D01*
X137556354Y-132778500D01*
X137556355Y-132778500D01*
X137745644Y-132778500D01*
X137745646Y-132778500D01*
X137930803Y-132739144D01*
X138103730Y-132662151D01*
X138256871Y-132550888D01*
X138383533Y-132410216D01*
X138478179Y-132246284D01*
X138536674Y-132066256D01*
X138556460Y-131878000D01*
X138536674Y-131689744D01*
X138478179Y-131509716D01*
X138383533Y-131345784D01*
X138256871Y-131205112D01*
X138256870Y-131205111D01*
X138103734Y-131093851D01*
X138103729Y-131093848D01*
X137930807Y-131016857D01*
X137930802Y-131016855D01*
X137785001Y-130985865D01*
X137745646Y-130977500D01*
X137556354Y-130977500D01*
X137523897Y-130984398D01*
X137371197Y-131016855D01*
X137371192Y-131016857D01*
X137198270Y-131093848D01*
X137198265Y-131093851D01*
X137045129Y-131205111D01*
X136918466Y-131345785D01*
X136823821Y-131509715D01*
X136823818Y-131509722D01*
X136807412Y-131560216D01*
X136765326Y-131689744D01*
X136745540Y-131878000D01*
X135859120Y-131878000D01*
X135911674Y-131716256D01*
X135931460Y-131528000D01*
X135911674Y-131339744D01*
X135855221Y-131166000D01*
X135853181Y-131159722D01*
X135853180Y-131159721D01*
X135853179Y-131159716D01*
X135758533Y-130995784D01*
X135631871Y-130855112D01*
X135610719Y-130839744D01*
X135478734Y-130743851D01*
X135478729Y-130743848D01*
X135305807Y-130666857D01*
X135305802Y-130666855D01*
X135160001Y-130635865D01*
X135120646Y-130627500D01*
X134931354Y-130627500D01*
X134898897Y-130634398D01*
X134746197Y-130666855D01*
X134746192Y-130666857D01*
X134573270Y-130743848D01*
X134573265Y-130743851D01*
X134420129Y-130855111D01*
X134293466Y-130995785D01*
X134198821Y-131159715D01*
X134198818Y-131159722D01*
X134140327Y-131339740D01*
X134140326Y-131339744D01*
X134120540Y-131528000D01*
X128657857Y-131528000D01*
X128603179Y-131359719D01*
X128591646Y-131339744D01*
X128562927Y-131290000D01*
X128546454Y-131222100D01*
X128562928Y-131166000D01*
X128603179Y-131096284D01*
X128606148Y-131087148D01*
X128625366Y-131028000D01*
X128661674Y-130916256D01*
X128661674Y-130916253D01*
X128662860Y-130912604D01*
X128702297Y-130854929D01*
X128766656Y-130827730D01*
X128835502Y-130839644D01*
X128872941Y-130867950D01*
X128970129Y-130975888D01*
X129123265Y-131087148D01*
X129123270Y-131087151D01*
X129296192Y-131164142D01*
X129296197Y-131164144D01*
X129481354Y-131203500D01*
X129481355Y-131203500D01*
X129670644Y-131203500D01*
X129670646Y-131203500D01*
X129855803Y-131164144D01*
X130028730Y-131087151D01*
X130181871Y-130975888D01*
X130308533Y-130835216D01*
X130403179Y-130671284D01*
X130461674Y-130491256D01*
X130481460Y-130303000D01*
X130461674Y-130114744D01*
X130403179Y-129934716D01*
X130308533Y-129770784D01*
X130181871Y-129630112D01*
X130093985Y-129566259D01*
X130028734Y-129518851D01*
X130028729Y-129518848D01*
X129855807Y-129441857D01*
X129855802Y-129441855D01*
X129710001Y-129410865D01*
X129670646Y-129402500D01*
X129481354Y-129402500D01*
X129448897Y-129409398D01*
X129296197Y-129441855D01*
X129296192Y-129441857D01*
X129123270Y-129518848D01*
X129123265Y-129518851D01*
X128970129Y-129630111D01*
X128843466Y-129770785D01*
X128748821Y-129934715D01*
X128748819Y-129934719D01*
X128689139Y-130118396D01*
X128649701Y-130176071D01*
X128585342Y-130203269D01*
X128516496Y-130191354D01*
X128479058Y-130163049D01*
X128478249Y-130162151D01*
X128381871Y-130055112D01*
X128381732Y-130055011D01*
X128228734Y-129943851D01*
X128228729Y-129943848D01*
X128055807Y-129866857D01*
X128055802Y-129866855D01*
X127910001Y-129835865D01*
X127870646Y-129827500D01*
X127681354Y-129827500D01*
X127648897Y-129834398D01*
X127496197Y-129866855D01*
X127496192Y-129866857D01*
X127323270Y-129943848D01*
X127323265Y-129943851D01*
X127170129Y-130055111D01*
X127043466Y-130195785D01*
X126948821Y-130359715D01*
X126948818Y-130359722D01*
X126904609Y-130495785D01*
X126890326Y-130539744D01*
X126870540Y-130728000D01*
X108375366Y-130728000D01*
X108353179Y-130659716D01*
X108258533Y-130495784D01*
X108131871Y-130355112D01*
X108131870Y-130355111D01*
X107978734Y-130243851D01*
X107978729Y-130243848D01*
X107805807Y-130166857D01*
X107805802Y-130166855D01*
X107660001Y-130135865D01*
X107620646Y-130127500D01*
X107431354Y-130127500D01*
X107398897Y-130134398D01*
X107246197Y-130166855D01*
X107246192Y-130166857D01*
X107073270Y-130243848D01*
X107073265Y-130243851D01*
X106920129Y-130355111D01*
X106793466Y-130495785D01*
X106698821Y-130659715D01*
X106698818Y-130659722D01*
X106641798Y-130835214D01*
X106640326Y-130839744D01*
X106620540Y-131028000D01*
X79181460Y-131028000D01*
X79161674Y-130839744D01*
X79103179Y-130659716D01*
X79008533Y-130495784D01*
X78881871Y-130355112D01*
X78881870Y-130355111D01*
X78728734Y-130243851D01*
X78728729Y-130243848D01*
X78555807Y-130166857D01*
X78555802Y-130166855D01*
X78410001Y-130135865D01*
X78370646Y-130127500D01*
X78241398Y-130127500D01*
X78174359Y-130107815D01*
X78128604Y-130055011D01*
X78118660Y-129985853D01*
X78147685Y-129922297D01*
X78149248Y-129920528D01*
X78158533Y-129910216D01*
X78253179Y-129746284D01*
X78311674Y-129566256D01*
X78331460Y-129378000D01*
X78311674Y-129189744D01*
X78307858Y-129178000D01*
X99070540Y-129178000D01*
X99090326Y-129366256D01*
X99090327Y-129366258D01*
X99090327Y-129366259D01*
X99148818Y-129546277D01*
X99148821Y-129546284D01*
X99243467Y-129710216D01*
X99275937Y-129746277D01*
X99370129Y-129850888D01*
X99523265Y-129962148D01*
X99523270Y-129962151D01*
X99696192Y-130039142D01*
X99696197Y-130039144D01*
X99881354Y-130078500D01*
X99881355Y-130078500D01*
X100070644Y-130078500D01*
X100070646Y-130078500D01*
X100255803Y-130039144D01*
X100428730Y-129962151D01*
X100581871Y-129850888D01*
X100708533Y-129710216D01*
X100803179Y-129546284D01*
X100861674Y-129366256D01*
X100863897Y-129345097D01*
X100890478Y-129280487D01*
X100947773Y-129240500D01*
X101017592Y-129237837D01*
X101077767Y-129273344D01*
X101079367Y-129275087D01*
X101170129Y-129375888D01*
X101323265Y-129487148D01*
X101323270Y-129487151D01*
X101496192Y-129564142D01*
X101496197Y-129564144D01*
X101681354Y-129603500D01*
X101681355Y-129603500D01*
X101870644Y-129603500D01*
X101870646Y-129603500D01*
X102055803Y-129564144D01*
X102228730Y-129487151D01*
X102381871Y-129375888D01*
X102508533Y-129235216D01*
X102603179Y-129071284D01*
X102661674Y-128891256D01*
X102681460Y-128703000D01*
X102661674Y-128514744D01*
X102603179Y-128334716D01*
X102508533Y-128170784D01*
X102381871Y-128030112D01*
X102381870Y-128030111D01*
X102228734Y-127918851D01*
X102228729Y-127918848D01*
X102055807Y-127841857D01*
X102055802Y-127841855D01*
X101910001Y-127810865D01*
X101870646Y-127802500D01*
X101681354Y-127802500D01*
X101648897Y-127809398D01*
X101496197Y-127841855D01*
X101496192Y-127841857D01*
X101323270Y-127918848D01*
X101323265Y-127918851D01*
X101170129Y-128030111D01*
X101043466Y-128170785D01*
X100948821Y-128334715D01*
X100948818Y-128334722D01*
X100890327Y-128514740D01*
X100890326Y-128514744D01*
X100888102Y-128535904D01*
X100861518Y-128600516D01*
X100804221Y-128640501D01*
X100734402Y-128643161D01*
X100674228Y-128607652D01*
X100672632Y-128605912D01*
X100657532Y-128589142D01*
X100581871Y-128505112D01*
X100581870Y-128505111D01*
X100428734Y-128393851D01*
X100428729Y-128393848D01*
X100255807Y-128316857D01*
X100255802Y-128316855D01*
X100110001Y-128285865D01*
X100070646Y-128277500D01*
X99881354Y-128277500D01*
X99848897Y-128284398D01*
X99696197Y-128316855D01*
X99696192Y-128316857D01*
X99523270Y-128393848D01*
X99523265Y-128393851D01*
X99370129Y-128505111D01*
X99243466Y-128645785D01*
X99148821Y-128809715D01*
X99148818Y-128809722D01*
X99090521Y-128989144D01*
X99090326Y-128989744D01*
X99070540Y-129178000D01*
X78307858Y-129178000D01*
X78253179Y-129009716D01*
X78158533Y-128845784D01*
X78031871Y-128705112D01*
X77970077Y-128660216D01*
X77878734Y-128593851D01*
X77878729Y-128593848D01*
X77705807Y-128516857D01*
X77705802Y-128516855D01*
X77560001Y-128485865D01*
X77520646Y-128477500D01*
X77331354Y-128477500D01*
X77298897Y-128484398D01*
X77146197Y-128516855D01*
X77146192Y-128516857D01*
X76973270Y-128593848D01*
X76973265Y-128593851D01*
X76820129Y-128705111D01*
X76693466Y-128845785D01*
X76598821Y-129009715D01*
X76598818Y-129009722D01*
X76544142Y-129178000D01*
X76540326Y-129189744D01*
X76520540Y-129378000D01*
X44276000Y-129378000D01*
X44276000Y-128128000D01*
X71320540Y-128128000D01*
X71340326Y-128316256D01*
X71340327Y-128316259D01*
X71398818Y-128496277D01*
X71398821Y-128496284D01*
X71493467Y-128660216D01*
X71533891Y-128705111D01*
X71620129Y-128800888D01*
X71773265Y-128912148D01*
X71773270Y-128912151D01*
X71946192Y-128989142D01*
X71946197Y-128989144D01*
X72131354Y-129028500D01*
X72131355Y-129028500D01*
X72320644Y-129028500D01*
X72320646Y-129028500D01*
X72505803Y-128989144D01*
X72678730Y-128912151D01*
X72831871Y-128800888D01*
X72858850Y-128770923D01*
X72918335Y-128734276D01*
X72988192Y-128735605D01*
X73043149Y-128770923D01*
X73070129Y-128800888D01*
X73131925Y-128845785D01*
X73223265Y-128912148D01*
X73223270Y-128912151D01*
X73396192Y-128989142D01*
X73396197Y-128989144D01*
X73581354Y-129028500D01*
X73581355Y-129028500D01*
X73770644Y-129028500D01*
X73770646Y-129028500D01*
X73955803Y-128989144D01*
X74128730Y-128912151D01*
X74281871Y-128800888D01*
X74408533Y-128660216D01*
X74503179Y-128496284D01*
X74561674Y-128316256D01*
X74581460Y-128128000D01*
X74561674Y-127939744D01*
X74503179Y-127759716D01*
X74484868Y-127728000D01*
X134995540Y-127728000D01*
X135015326Y-127916256D01*
X135015327Y-127916259D01*
X135073818Y-128096277D01*
X135073821Y-128096284D01*
X135168467Y-128260216D01*
X135235553Y-128334722D01*
X135295129Y-128400888D01*
X135448265Y-128512148D01*
X135448270Y-128512151D01*
X135621192Y-128589142D01*
X135621197Y-128589144D01*
X135806354Y-128628500D01*
X135806355Y-128628500D01*
X135995644Y-128628500D01*
X135995646Y-128628500D01*
X136180803Y-128589144D01*
X136353730Y-128512151D01*
X136506871Y-128400888D01*
X136633533Y-128260216D01*
X136728179Y-128096284D01*
X136786674Y-127916256D01*
X136806460Y-127728000D01*
X136786674Y-127539744D01*
X136728179Y-127359716D01*
X136633533Y-127195784D01*
X136506871Y-127055112D01*
X136506870Y-127055111D01*
X136353734Y-126943851D01*
X136353729Y-126943848D01*
X136180807Y-126866857D01*
X136180802Y-126866855D01*
X136035001Y-126835865D01*
X135995646Y-126827500D01*
X135806354Y-126827500D01*
X135773897Y-126834398D01*
X135621197Y-126866855D01*
X135621192Y-126866857D01*
X135448270Y-126943848D01*
X135448265Y-126943851D01*
X135295129Y-127055111D01*
X135168466Y-127195785D01*
X135073821Y-127359715D01*
X135073818Y-127359722D01*
X135021614Y-127520392D01*
X135015326Y-127539744D01*
X134995540Y-127728000D01*
X74484868Y-127728000D01*
X74408533Y-127595784D01*
X74281871Y-127455112D01*
X74281863Y-127455106D01*
X74128734Y-127343851D01*
X74128729Y-127343848D01*
X73955807Y-127266857D01*
X73955802Y-127266855D01*
X73810001Y-127235865D01*
X73770646Y-127227500D01*
X73581354Y-127227500D01*
X73548897Y-127234398D01*
X73396197Y-127266855D01*
X73396192Y-127266857D01*
X73223270Y-127343848D01*
X73223265Y-127343851D01*
X73070135Y-127455106D01*
X73070127Y-127455113D01*
X73043148Y-127485076D01*
X72983661Y-127521723D01*
X72913804Y-127520392D01*
X72858852Y-127485076D01*
X72831872Y-127455113D01*
X72831864Y-127455106D01*
X72678734Y-127343851D01*
X72678729Y-127343848D01*
X72505807Y-127266857D01*
X72505802Y-127266855D01*
X72360001Y-127235865D01*
X72320646Y-127227500D01*
X72131354Y-127227500D01*
X72098897Y-127234398D01*
X71946197Y-127266855D01*
X71946192Y-127266857D01*
X71773270Y-127343848D01*
X71773265Y-127343851D01*
X71620129Y-127455111D01*
X71493466Y-127595785D01*
X71398821Y-127759715D01*
X71398818Y-127759722D01*
X71340327Y-127939740D01*
X71340326Y-127939744D01*
X71320540Y-128128000D01*
X44276000Y-128128000D01*
X44276000Y-117675135D01*
X46283000Y-117675135D01*
X46283000Y-119770870D01*
X46283001Y-119770876D01*
X46289408Y-119830483D01*
X46339702Y-119965328D01*
X46339706Y-119965335D01*
X46425952Y-120080544D01*
X46425955Y-120080547D01*
X46541164Y-120166793D01*
X46541171Y-120166797D01*
X46676017Y-120217091D01*
X46676016Y-120217091D01*
X46682944Y-120217835D01*
X46735627Y-120223500D01*
X48736372Y-120223499D01*
X48795983Y-120217091D01*
X48930831Y-120166796D01*
X49046046Y-120080546D01*
X49132296Y-119965331D01*
X49142690Y-119937460D01*
X49184560Y-119881527D01*
X49250023Y-119857108D01*
X49318297Y-119871958D01*
X49331746Y-119880465D01*
X49514462Y-120013217D01*
X49628425Y-120071284D01*
X49718244Y-120117049D01*
X49935751Y-120187721D01*
X49935752Y-120187721D01*
X49935755Y-120187722D01*
X50161646Y-120223500D01*
X50161647Y-120223500D01*
X50390353Y-120223500D01*
X50390354Y-120223500D01*
X50616245Y-120187722D01*
X50616248Y-120187721D01*
X50616249Y-120187721D01*
X50833755Y-120117049D01*
X50833755Y-120117048D01*
X50833758Y-120117048D01*
X51037538Y-120013217D01*
X51222566Y-119878786D01*
X51384286Y-119717066D01*
X51445683Y-119632559D01*
X51501012Y-119589896D01*
X51570625Y-119583917D01*
X51632420Y-119616523D01*
X51646314Y-119632556D01*
X51707714Y-119717066D01*
X51869434Y-119878786D01*
X52054462Y-120013217D01*
X52168425Y-120071284D01*
X52258244Y-120117049D01*
X52475751Y-120187721D01*
X52475752Y-120187721D01*
X52475755Y-120187722D01*
X52701646Y-120223500D01*
X52701647Y-120223500D01*
X52930353Y-120223500D01*
X52930354Y-120223500D01*
X53156245Y-120187722D01*
X53156248Y-120187721D01*
X53156249Y-120187721D01*
X53373755Y-120117049D01*
X53373755Y-120117048D01*
X53373758Y-120117048D01*
X53577538Y-120013217D01*
X53762566Y-119878786D01*
X53924286Y-119717066D01*
X54058717Y-119532038D01*
X54162548Y-119328258D01*
X54215351Y-119165746D01*
X54233221Y-119110749D01*
X54233221Y-119110748D01*
X54233222Y-119110745D01*
X54269000Y-118884854D01*
X54269000Y-118561146D01*
X54233222Y-118335255D01*
X54233221Y-118335251D01*
X54233221Y-118335250D01*
X54162549Y-118117744D01*
X54086740Y-117968961D01*
X54058717Y-117913962D01*
X53924286Y-117728934D01*
X53870487Y-117675135D01*
X58283000Y-117675135D01*
X58283000Y-119770870D01*
X58283001Y-119770876D01*
X58289408Y-119830483D01*
X58339702Y-119965328D01*
X58339706Y-119965335D01*
X58425952Y-120080544D01*
X58425955Y-120080547D01*
X58541164Y-120166793D01*
X58541171Y-120166797D01*
X58676017Y-120217091D01*
X58676016Y-120217091D01*
X58682944Y-120217835D01*
X58735627Y-120223500D01*
X60736372Y-120223499D01*
X60795983Y-120217091D01*
X60930831Y-120166796D01*
X61046046Y-120080546D01*
X61132296Y-119965331D01*
X61142690Y-119937460D01*
X61184560Y-119881527D01*
X61250023Y-119857108D01*
X61318297Y-119871958D01*
X61331746Y-119880465D01*
X61514462Y-120013217D01*
X61628425Y-120071284D01*
X61718244Y-120117049D01*
X61935751Y-120187721D01*
X61935752Y-120187721D01*
X61935755Y-120187722D01*
X62161646Y-120223500D01*
X62161647Y-120223500D01*
X62390353Y-120223500D01*
X62390354Y-120223500D01*
X62616245Y-120187722D01*
X62616248Y-120187721D01*
X62616249Y-120187721D01*
X62833755Y-120117049D01*
X62833755Y-120117048D01*
X62833758Y-120117048D01*
X63037538Y-120013217D01*
X63222566Y-119878786D01*
X63384286Y-119717066D01*
X63445683Y-119632559D01*
X63501012Y-119589896D01*
X63570625Y-119583917D01*
X63632420Y-119616523D01*
X63646314Y-119632556D01*
X63707714Y-119717066D01*
X63869434Y-119878786D01*
X64054462Y-120013217D01*
X64168425Y-120071284D01*
X64258244Y-120117049D01*
X64475751Y-120187721D01*
X64475752Y-120187721D01*
X64475755Y-120187722D01*
X64701646Y-120223500D01*
X64701647Y-120223500D01*
X64930353Y-120223500D01*
X64930354Y-120223500D01*
X65156245Y-120187722D01*
X65156248Y-120187721D01*
X65156249Y-120187721D01*
X65373755Y-120117049D01*
X65373755Y-120117048D01*
X65373758Y-120117048D01*
X65577538Y-120013217D01*
X65762566Y-119878786D01*
X65924286Y-119717066D01*
X66058717Y-119532038D01*
X66162548Y-119328258D01*
X66215351Y-119165746D01*
X66233221Y-119110749D01*
X66233221Y-119110748D01*
X66233222Y-119110745D01*
X66269000Y-118884854D01*
X66269000Y-118561146D01*
X66233222Y-118335255D01*
X66233221Y-118335251D01*
X66233221Y-118335250D01*
X66162549Y-118117744D01*
X66086740Y-117968961D01*
X66058717Y-117913962D01*
X65924286Y-117728934D01*
X65890487Y-117695135D01*
X74983000Y-117695135D01*
X74983000Y-119790870D01*
X74983001Y-119790876D01*
X74989408Y-119850483D01*
X75039702Y-119985328D01*
X75039706Y-119985335D01*
X75125952Y-120100544D01*
X75125955Y-120100547D01*
X75241164Y-120186793D01*
X75241171Y-120186797D01*
X75376017Y-120237091D01*
X75376016Y-120237091D01*
X75382944Y-120237835D01*
X75435627Y-120243500D01*
X77436372Y-120243499D01*
X77495983Y-120237091D01*
X77630831Y-120186796D01*
X77746046Y-120100546D01*
X77832296Y-119985331D01*
X77842690Y-119957460D01*
X77884560Y-119901527D01*
X77950023Y-119877108D01*
X78018297Y-119891958D01*
X78031746Y-119900465D01*
X78214462Y-120033217D01*
X78346599Y-120100544D01*
X78418244Y-120137049D01*
X78635751Y-120207721D01*
X78635752Y-120207721D01*
X78635755Y-120207722D01*
X78861646Y-120243500D01*
X78861647Y-120243500D01*
X79090353Y-120243500D01*
X79090354Y-120243500D01*
X79316245Y-120207722D01*
X79316248Y-120207721D01*
X79316249Y-120207721D01*
X79533755Y-120137049D01*
X79533755Y-120137048D01*
X79533758Y-120137048D01*
X79737538Y-120033217D01*
X79922566Y-119898786D01*
X80084286Y-119737066D01*
X80145683Y-119652559D01*
X80201012Y-119609896D01*
X80270625Y-119603917D01*
X80332420Y-119636523D01*
X80346314Y-119652556D01*
X80407714Y-119737066D01*
X80569434Y-119898786D01*
X80754462Y-120033217D01*
X80886599Y-120100544D01*
X80958244Y-120137049D01*
X81175751Y-120207721D01*
X81175752Y-120207721D01*
X81175755Y-120207722D01*
X81401646Y-120243500D01*
X81401647Y-120243500D01*
X81630353Y-120243500D01*
X81630354Y-120243500D01*
X81856245Y-120207722D01*
X81856248Y-120207721D01*
X81856249Y-120207721D01*
X82073755Y-120137049D01*
X82073755Y-120137048D01*
X82073758Y-120137048D01*
X82277538Y-120033217D01*
X82462566Y-119898786D01*
X82624286Y-119737066D01*
X82758717Y-119552038D01*
X82862548Y-119348258D01*
X82916187Y-119183175D01*
X82933221Y-119130749D01*
X82933221Y-119130748D01*
X82933222Y-119130745D01*
X82969000Y-118904854D01*
X82969000Y-118581146D01*
X82933222Y-118355255D01*
X82933221Y-118355251D01*
X82933221Y-118355250D01*
X82862549Y-118137744D01*
X82862548Y-118137742D01*
X82758717Y-117933962D01*
X82624286Y-117748934D01*
X82570487Y-117695135D01*
X86983000Y-117695135D01*
X86983000Y-119790870D01*
X86983001Y-119790876D01*
X86989408Y-119850483D01*
X87039702Y-119985328D01*
X87039706Y-119985335D01*
X87125952Y-120100544D01*
X87125955Y-120100547D01*
X87241164Y-120186793D01*
X87241171Y-120186797D01*
X87376017Y-120237091D01*
X87376016Y-120237091D01*
X87382944Y-120237835D01*
X87435627Y-120243500D01*
X89436372Y-120243499D01*
X89495983Y-120237091D01*
X89630831Y-120186796D01*
X89746046Y-120100546D01*
X89832296Y-119985331D01*
X89842690Y-119957460D01*
X89884560Y-119901527D01*
X89950023Y-119877108D01*
X90018297Y-119891958D01*
X90031746Y-119900465D01*
X90214462Y-120033217D01*
X90346599Y-120100544D01*
X90418244Y-120137049D01*
X90635751Y-120207721D01*
X90635752Y-120207721D01*
X90635755Y-120207722D01*
X90861646Y-120243500D01*
X90861647Y-120243500D01*
X91090353Y-120243500D01*
X91090354Y-120243500D01*
X91316245Y-120207722D01*
X91316248Y-120207721D01*
X91316249Y-120207721D01*
X91533755Y-120137049D01*
X91533755Y-120137048D01*
X91533758Y-120137048D01*
X91737538Y-120033217D01*
X91922566Y-119898786D01*
X92084286Y-119737066D01*
X92145683Y-119652559D01*
X92201012Y-119609896D01*
X92270625Y-119603917D01*
X92332420Y-119636523D01*
X92346314Y-119652556D01*
X92407714Y-119737066D01*
X92569434Y-119898786D01*
X92754462Y-120033217D01*
X92886599Y-120100544D01*
X92958244Y-120137049D01*
X93175751Y-120207721D01*
X93175752Y-120207721D01*
X93175755Y-120207722D01*
X93401646Y-120243500D01*
X93401647Y-120243500D01*
X93630353Y-120243500D01*
X93630354Y-120243500D01*
X93856245Y-120207722D01*
X93856248Y-120207721D01*
X93856249Y-120207721D01*
X94073755Y-120137049D01*
X94073755Y-120137048D01*
X94073758Y-120137048D01*
X94277538Y-120033217D01*
X94462566Y-119898786D01*
X94624286Y-119737066D01*
X94758717Y-119552038D01*
X94850739Y-119371435D01*
X100395540Y-119371435D01*
X100415326Y-119559691D01*
X100415327Y-119559694D01*
X100473818Y-119739712D01*
X100473821Y-119739719D01*
X100568467Y-119903651D01*
X100673530Y-120020335D01*
X100695129Y-120044323D01*
X100848265Y-120155583D01*
X100848270Y-120155586D01*
X101021192Y-120232577D01*
X101021197Y-120232579D01*
X101206354Y-120271935D01*
X101206355Y-120271935D01*
X101395644Y-120271935D01*
X101395646Y-120271935D01*
X101580803Y-120232579D01*
X101753730Y-120155586D01*
X101906871Y-120044323D01*
X102033533Y-119903651D01*
X102128179Y-119739719D01*
X102186674Y-119559691D01*
X102206460Y-119371435D01*
X102186674Y-119183179D01*
X102128179Y-119003151D01*
X102033533Y-118839219D01*
X101906871Y-118698547D01*
X101906870Y-118698546D01*
X101753734Y-118587286D01*
X101753729Y-118587283D01*
X101580807Y-118510292D01*
X101580802Y-118510290D01*
X101435001Y-118479300D01*
X101395646Y-118470935D01*
X101206354Y-118470935D01*
X101173897Y-118477833D01*
X101021197Y-118510290D01*
X101021192Y-118510292D01*
X100848270Y-118587283D01*
X100848265Y-118587286D01*
X100695129Y-118698546D01*
X100568466Y-118839220D01*
X100473821Y-119003150D01*
X100473818Y-119003157D01*
X100420990Y-119165746D01*
X100415326Y-119183179D01*
X100395540Y-119371435D01*
X94850739Y-119371435D01*
X94862548Y-119348258D01*
X94916187Y-119183175D01*
X94933221Y-119130749D01*
X94933221Y-119130748D01*
X94933222Y-119130745D01*
X94969000Y-118904854D01*
X94969000Y-118581146D01*
X94933222Y-118355255D01*
X94933221Y-118355251D01*
X94933221Y-118355250D01*
X94862549Y-118137744D01*
X94862548Y-118137742D01*
X94758717Y-117933962D01*
X94624286Y-117748934D01*
X94605487Y-117730135D01*
X104073000Y-117730135D01*
X104073000Y-119825870D01*
X104073001Y-119825876D01*
X104079408Y-119885483D01*
X104129702Y-120020328D01*
X104129706Y-120020335D01*
X104215951Y-120135543D01*
X104215955Y-120135547D01*
X104331164Y-120221793D01*
X104331171Y-120221797D01*
X104466017Y-120272091D01*
X104466016Y-120272091D01*
X104472944Y-120272835D01*
X104525627Y-120278500D01*
X106526372Y-120278499D01*
X106585983Y-120272091D01*
X106720831Y-120221796D01*
X106836046Y-120135546D01*
X106836047Y-120135544D01*
X106836049Y-120135543D01*
X106922293Y-120020335D01*
X106922292Y-120020335D01*
X106922296Y-120020331D01*
X106932690Y-119992460D01*
X106974560Y-119936527D01*
X107040023Y-119912108D01*
X107108297Y-119926958D01*
X107121746Y-119935465D01*
X107304462Y-120068217D01*
X107497934Y-120166796D01*
X107508244Y-120172049D01*
X107725751Y-120242721D01*
X107725752Y-120242721D01*
X107725755Y-120242722D01*
X107951646Y-120278500D01*
X107951647Y-120278500D01*
X108180353Y-120278500D01*
X108180354Y-120278500D01*
X108406245Y-120242722D01*
X108406248Y-120242721D01*
X108406249Y-120242721D01*
X108623755Y-120172049D01*
X108623755Y-120172048D01*
X108623758Y-120172048D01*
X108827538Y-120068217D01*
X109012566Y-119933786D01*
X109174286Y-119772066D01*
X109235683Y-119687559D01*
X109291012Y-119644896D01*
X109360625Y-119638917D01*
X109422420Y-119671523D01*
X109436314Y-119687556D01*
X109497714Y-119772066D01*
X109659434Y-119933786D01*
X109844462Y-120068217D01*
X110037934Y-120166796D01*
X110048244Y-120172049D01*
X110265751Y-120242721D01*
X110265752Y-120242721D01*
X110265755Y-120242722D01*
X110491646Y-120278500D01*
X110491647Y-120278500D01*
X110720353Y-120278500D01*
X110720354Y-120278500D01*
X110946245Y-120242722D01*
X110946248Y-120242721D01*
X110946249Y-120242721D01*
X111163755Y-120172049D01*
X111163755Y-120172048D01*
X111163758Y-120172048D01*
X111367538Y-120068217D01*
X111552566Y-119933786D01*
X111714286Y-119772066D01*
X111848717Y-119587038D01*
X111952548Y-119383258D01*
X111970419Y-119328258D01*
X112023221Y-119165749D01*
X112023221Y-119165748D01*
X112023222Y-119165745D01*
X112059000Y-118939854D01*
X112059000Y-118616146D01*
X112023222Y-118390255D01*
X112023221Y-118390251D01*
X112023221Y-118390250D01*
X111952549Y-118172744D01*
X111924524Y-118117742D01*
X111848717Y-117968962D01*
X111714286Y-117783934D01*
X111660487Y-117730135D01*
X116073000Y-117730135D01*
X116073000Y-119825870D01*
X116073001Y-119825876D01*
X116079408Y-119885483D01*
X116129702Y-120020328D01*
X116129706Y-120020335D01*
X116215951Y-120135543D01*
X116215955Y-120135547D01*
X116331164Y-120221793D01*
X116331171Y-120221797D01*
X116466017Y-120272091D01*
X116466016Y-120272091D01*
X116472944Y-120272835D01*
X116525627Y-120278500D01*
X118526372Y-120278499D01*
X118585983Y-120272091D01*
X118720831Y-120221796D01*
X118836046Y-120135546D01*
X118836047Y-120135544D01*
X118836049Y-120135543D01*
X118922293Y-120020335D01*
X118922292Y-120020335D01*
X118922296Y-120020331D01*
X118932690Y-119992460D01*
X118974560Y-119936527D01*
X119040023Y-119912108D01*
X119108297Y-119926958D01*
X119121746Y-119935465D01*
X119304462Y-120068217D01*
X119497934Y-120166796D01*
X119508244Y-120172049D01*
X119725751Y-120242721D01*
X119725752Y-120242721D01*
X119725755Y-120242722D01*
X119951646Y-120278500D01*
X119951647Y-120278500D01*
X120180353Y-120278500D01*
X120180354Y-120278500D01*
X120406245Y-120242722D01*
X120406248Y-120242721D01*
X120406249Y-120242721D01*
X120623755Y-120172049D01*
X120623755Y-120172048D01*
X120623758Y-120172048D01*
X120827538Y-120068217D01*
X121012566Y-119933786D01*
X121174286Y-119772066D01*
X121235683Y-119687559D01*
X121291012Y-119644896D01*
X121360625Y-119638917D01*
X121422420Y-119671523D01*
X121436314Y-119687556D01*
X121497714Y-119772066D01*
X121659434Y-119933786D01*
X121844462Y-120068217D01*
X122037934Y-120166796D01*
X122048244Y-120172049D01*
X122265751Y-120242721D01*
X122265752Y-120242721D01*
X122265755Y-120242722D01*
X122491646Y-120278500D01*
X122491647Y-120278500D01*
X122720353Y-120278500D01*
X122720354Y-120278500D01*
X122946245Y-120242722D01*
X122946248Y-120242721D01*
X122946249Y-120242721D01*
X123163755Y-120172049D01*
X123163755Y-120172048D01*
X123163758Y-120172048D01*
X123367538Y-120068217D01*
X123552566Y-119933786D01*
X123714286Y-119772066D01*
X123764465Y-119703000D01*
X129245540Y-119703000D01*
X129265326Y-119891256D01*
X129265327Y-119891259D01*
X129323818Y-120071277D01*
X129323821Y-120071284D01*
X129418467Y-120235216D01*
X129545129Y-120375888D01*
X129698265Y-120487148D01*
X129698270Y-120487151D01*
X129871192Y-120564142D01*
X129871197Y-120564144D01*
X130056354Y-120603500D01*
X130056355Y-120603500D01*
X130245644Y-120603500D01*
X130245646Y-120603500D01*
X130430803Y-120564144D01*
X130603730Y-120487151D01*
X130756871Y-120375888D01*
X130883533Y-120235216D01*
X130978179Y-120071284D01*
X131036674Y-119891256D01*
X131056460Y-119703000D01*
X131036674Y-119514744D01*
X130978179Y-119334716D01*
X130883533Y-119170784D01*
X130756871Y-119030112D01*
X130756870Y-119030111D01*
X130603734Y-118918851D01*
X130603729Y-118918848D01*
X130430807Y-118841857D01*
X130430802Y-118841855D01*
X130285001Y-118810865D01*
X130245646Y-118802500D01*
X130056354Y-118802500D01*
X130023897Y-118809398D01*
X129871197Y-118841855D01*
X129871192Y-118841857D01*
X129698270Y-118918848D01*
X129698265Y-118918851D01*
X129545129Y-119030111D01*
X129418466Y-119170785D01*
X129323821Y-119334715D01*
X129323818Y-119334722D01*
X129265327Y-119514740D01*
X129265326Y-119514744D01*
X129245540Y-119703000D01*
X123764465Y-119703000D01*
X123848717Y-119587038D01*
X123952548Y-119383258D01*
X123970419Y-119328258D01*
X124023221Y-119165749D01*
X124023221Y-119165748D01*
X124023222Y-119165745D01*
X124059000Y-118939854D01*
X124059000Y-118616146D01*
X124023222Y-118390255D01*
X124023221Y-118390251D01*
X124023221Y-118390250D01*
X123952549Y-118172744D01*
X123924524Y-118117742D01*
X123848717Y-117968962D01*
X123714286Y-117783934D01*
X123605487Y-117675135D01*
X134533000Y-117675135D01*
X134533000Y-119770870D01*
X134533001Y-119770876D01*
X134539408Y-119830483D01*
X134589702Y-119965328D01*
X134589706Y-119965335D01*
X134675952Y-120080544D01*
X134675955Y-120080547D01*
X134791164Y-120166793D01*
X134791171Y-120166797D01*
X134926017Y-120217091D01*
X134926016Y-120217091D01*
X134932944Y-120217835D01*
X134985627Y-120223500D01*
X136986372Y-120223499D01*
X137045983Y-120217091D01*
X137180831Y-120166796D01*
X137296046Y-120080546D01*
X137382296Y-119965331D01*
X137392690Y-119937460D01*
X137434560Y-119881527D01*
X137500023Y-119857108D01*
X137568297Y-119871958D01*
X137581746Y-119880465D01*
X137764462Y-120013217D01*
X137878425Y-120071284D01*
X137968244Y-120117049D01*
X138185751Y-120187721D01*
X138185752Y-120187721D01*
X138185755Y-120187722D01*
X138411646Y-120223500D01*
X138411647Y-120223500D01*
X138640353Y-120223500D01*
X138640354Y-120223500D01*
X138866245Y-120187722D01*
X138866248Y-120187721D01*
X138866249Y-120187721D01*
X139083755Y-120117049D01*
X139083755Y-120117048D01*
X139083758Y-120117048D01*
X139287538Y-120013217D01*
X139472566Y-119878786D01*
X139634286Y-119717066D01*
X139695683Y-119632559D01*
X139751012Y-119589896D01*
X139820625Y-119583917D01*
X139882420Y-119616523D01*
X139896314Y-119632556D01*
X139957714Y-119717066D01*
X140119434Y-119878786D01*
X140304462Y-120013217D01*
X140418425Y-120071284D01*
X140508244Y-120117049D01*
X140725751Y-120187721D01*
X140725752Y-120187721D01*
X140725755Y-120187722D01*
X140951646Y-120223500D01*
X140951647Y-120223500D01*
X141180353Y-120223500D01*
X141180354Y-120223500D01*
X141406245Y-120187722D01*
X141406248Y-120187721D01*
X141406249Y-120187721D01*
X141623755Y-120117049D01*
X141623755Y-120117048D01*
X141623758Y-120117048D01*
X141827538Y-120013217D01*
X142012566Y-119878786D01*
X142174286Y-119717066D01*
X142308717Y-119532038D01*
X142412548Y-119328258D01*
X142465351Y-119165746D01*
X142483221Y-119110749D01*
X142483221Y-119110748D01*
X142483222Y-119110745D01*
X142519000Y-118884854D01*
X142519000Y-118561146D01*
X142483222Y-118335255D01*
X142483221Y-118335251D01*
X142483221Y-118335250D01*
X142412549Y-118117744D01*
X142336740Y-117968961D01*
X142308717Y-117913962D01*
X142174286Y-117728934D01*
X142012566Y-117567214D01*
X141827538Y-117432783D01*
X141741888Y-117389142D01*
X141623755Y-117328950D01*
X141406248Y-117258278D01*
X141220812Y-117228908D01*
X141180354Y-117222500D01*
X140951646Y-117222500D01*
X140911188Y-117228908D01*
X140725753Y-117258278D01*
X140725750Y-117258278D01*
X140508244Y-117328950D01*
X140304461Y-117432783D01*
X140238550Y-117480671D01*
X140119434Y-117567214D01*
X140119432Y-117567216D01*
X140119431Y-117567216D01*
X139957715Y-117728932D01*
X139896318Y-117813438D01*
X139840987Y-117856103D01*
X139771374Y-117862082D01*
X139709579Y-117829476D01*
X139695682Y-117813438D01*
X139674244Y-117783931D01*
X139634286Y-117728934D01*
X139472566Y-117567214D01*
X139287538Y-117432783D01*
X139201888Y-117389142D01*
X139083755Y-117328950D01*
X138866248Y-117258278D01*
X138680812Y-117228908D01*
X138640354Y-117222500D01*
X138411646Y-117222500D01*
X138371188Y-117228908D01*
X138185753Y-117258278D01*
X138185750Y-117258278D01*
X137968244Y-117328950D01*
X137764461Y-117432783D01*
X137581759Y-117565525D01*
X137515952Y-117589005D01*
X137447898Y-117573180D01*
X137399203Y-117523074D01*
X137392690Y-117508538D01*
X137389755Y-117500669D01*
X137382296Y-117480669D01*
X137382293Y-117480664D01*
X137296047Y-117365455D01*
X137296044Y-117365452D01*
X137180835Y-117279206D01*
X137180828Y-117279202D01*
X137045982Y-117228908D01*
X137045983Y-117228908D01*
X136986383Y-117222501D01*
X136986381Y-117222500D01*
X136986373Y-117222500D01*
X136986364Y-117222500D01*
X134985629Y-117222500D01*
X134985623Y-117222501D01*
X134926016Y-117228908D01*
X134791171Y-117279202D01*
X134791164Y-117279206D01*
X134675955Y-117365452D01*
X134675952Y-117365455D01*
X134589706Y-117480664D01*
X134589702Y-117480671D01*
X134539408Y-117615517D01*
X134533001Y-117675116D01*
X134533000Y-117675135D01*
X123605487Y-117675135D01*
X123552566Y-117622214D01*
X123367538Y-117487783D01*
X123298847Y-117452783D01*
X123163755Y-117383950D01*
X122946248Y-117313278D01*
X122760812Y-117283908D01*
X122720354Y-117277500D01*
X122491646Y-117277500D01*
X122451188Y-117283908D01*
X122265753Y-117313278D01*
X122265750Y-117313278D01*
X122048244Y-117383950D01*
X121844461Y-117487783D01*
X121740194Y-117563538D01*
X121659434Y-117622214D01*
X121659432Y-117622216D01*
X121659431Y-117622216D01*
X121497715Y-117783932D01*
X121436318Y-117868438D01*
X121380987Y-117911103D01*
X121311374Y-117917082D01*
X121249579Y-117884476D01*
X121235682Y-117868438D01*
X121195722Y-117813438D01*
X121174286Y-117783934D01*
X121012566Y-117622214D01*
X120827538Y-117487783D01*
X120758847Y-117452783D01*
X120623755Y-117383950D01*
X120406248Y-117313278D01*
X120220812Y-117283908D01*
X120180354Y-117277500D01*
X119951646Y-117277500D01*
X119911188Y-117283908D01*
X119725753Y-117313278D01*
X119725750Y-117313278D01*
X119508244Y-117383950D01*
X119304461Y-117487783D01*
X119121759Y-117620525D01*
X119055952Y-117644005D01*
X118987898Y-117628180D01*
X118939203Y-117578074D01*
X118932690Y-117563538D01*
X118922296Y-117535669D01*
X118922293Y-117535664D01*
X118836047Y-117420455D01*
X118836044Y-117420452D01*
X118720835Y-117334206D01*
X118720828Y-117334202D01*
X118585982Y-117283908D01*
X118585983Y-117283908D01*
X118526383Y-117277501D01*
X118526381Y-117277500D01*
X118526373Y-117277500D01*
X118526364Y-117277500D01*
X116525629Y-117277500D01*
X116525623Y-117277501D01*
X116466016Y-117283908D01*
X116331171Y-117334202D01*
X116331164Y-117334206D01*
X116215955Y-117420452D01*
X116215952Y-117420455D01*
X116129706Y-117535664D01*
X116129702Y-117535671D01*
X116079408Y-117670517D01*
X116073001Y-117730116D01*
X116073000Y-117730135D01*
X111660487Y-117730135D01*
X111552566Y-117622214D01*
X111367538Y-117487783D01*
X111298847Y-117452783D01*
X111163755Y-117383950D01*
X110946248Y-117313278D01*
X110760812Y-117283908D01*
X110720354Y-117277500D01*
X110491646Y-117277500D01*
X110451188Y-117283908D01*
X110265753Y-117313278D01*
X110265750Y-117313278D01*
X110048244Y-117383950D01*
X109844461Y-117487783D01*
X109740194Y-117563538D01*
X109659434Y-117622214D01*
X109659432Y-117622216D01*
X109659431Y-117622216D01*
X109497715Y-117783932D01*
X109436318Y-117868438D01*
X109380987Y-117911103D01*
X109311374Y-117917082D01*
X109249579Y-117884476D01*
X109235682Y-117868438D01*
X109195722Y-117813438D01*
X109174286Y-117783934D01*
X109012566Y-117622214D01*
X108827538Y-117487783D01*
X108758847Y-117452783D01*
X108623755Y-117383950D01*
X108406248Y-117313278D01*
X108220812Y-117283908D01*
X108180354Y-117277500D01*
X107951646Y-117277500D01*
X107911188Y-117283908D01*
X107725753Y-117313278D01*
X107725750Y-117313278D01*
X107508244Y-117383950D01*
X107304461Y-117487783D01*
X107121759Y-117620525D01*
X107055952Y-117644005D01*
X106987898Y-117628180D01*
X106939203Y-117578074D01*
X106932690Y-117563538D01*
X106922296Y-117535669D01*
X106922293Y-117535664D01*
X106836047Y-117420455D01*
X106836044Y-117420452D01*
X106720835Y-117334206D01*
X106720828Y-117334202D01*
X106585982Y-117283908D01*
X106585983Y-117283908D01*
X106526383Y-117277501D01*
X106526381Y-117277500D01*
X106526373Y-117277500D01*
X106526364Y-117277500D01*
X104525629Y-117277500D01*
X104525623Y-117277501D01*
X104466016Y-117283908D01*
X104331171Y-117334202D01*
X104331164Y-117334206D01*
X104215955Y-117420452D01*
X104215952Y-117420455D01*
X104129706Y-117535664D01*
X104129702Y-117535671D01*
X104079408Y-117670517D01*
X104073001Y-117730116D01*
X104073000Y-117730135D01*
X94605487Y-117730135D01*
X94462566Y-117587214D01*
X94277538Y-117452783D01*
X94214085Y-117420452D01*
X94073755Y-117348950D01*
X93856248Y-117278278D01*
X93670812Y-117248908D01*
X93630354Y-117242500D01*
X93401646Y-117242500D01*
X93361188Y-117248908D01*
X93175753Y-117278278D01*
X93175750Y-117278278D01*
X92958244Y-117348950D01*
X92754461Y-117452783D01*
X92688550Y-117500671D01*
X92569434Y-117587214D01*
X92569432Y-117587216D01*
X92569431Y-117587216D01*
X92407715Y-117748932D01*
X92346318Y-117833438D01*
X92290987Y-117876103D01*
X92221374Y-117882082D01*
X92159579Y-117849476D01*
X92145682Y-117833438D01*
X92109715Y-117783934D01*
X92084286Y-117748934D01*
X91922566Y-117587214D01*
X91737538Y-117452783D01*
X91674085Y-117420452D01*
X91533755Y-117348950D01*
X91316248Y-117278278D01*
X91130812Y-117248908D01*
X91090354Y-117242500D01*
X90861646Y-117242500D01*
X90821188Y-117248908D01*
X90635753Y-117278278D01*
X90635750Y-117278278D01*
X90418244Y-117348950D01*
X90214461Y-117452783D01*
X90031759Y-117585525D01*
X89965952Y-117609005D01*
X89897898Y-117593180D01*
X89849203Y-117543074D01*
X89842690Y-117528538D01*
X89840652Y-117523074D01*
X89832296Y-117500669D01*
X89832293Y-117500664D01*
X89746047Y-117385455D01*
X89746044Y-117385452D01*
X89630835Y-117299206D01*
X89630828Y-117299202D01*
X89495982Y-117248908D01*
X89495983Y-117248908D01*
X89436383Y-117242501D01*
X89436381Y-117242500D01*
X89436373Y-117242500D01*
X89436364Y-117242500D01*
X87435629Y-117242500D01*
X87435623Y-117242501D01*
X87376016Y-117248908D01*
X87241171Y-117299202D01*
X87241164Y-117299206D01*
X87125955Y-117385452D01*
X87125952Y-117385455D01*
X87039706Y-117500664D01*
X87039702Y-117500671D01*
X86989408Y-117635517D01*
X86983001Y-117695116D01*
X86983000Y-117695135D01*
X82570487Y-117695135D01*
X82462566Y-117587214D01*
X82277538Y-117452783D01*
X82214085Y-117420452D01*
X82073755Y-117348950D01*
X81856248Y-117278278D01*
X81670812Y-117248908D01*
X81630354Y-117242500D01*
X81401646Y-117242500D01*
X81361188Y-117248908D01*
X81175753Y-117278278D01*
X81175750Y-117278278D01*
X80958244Y-117348950D01*
X80754461Y-117452783D01*
X80688550Y-117500671D01*
X80569434Y-117587214D01*
X80569432Y-117587216D01*
X80569431Y-117587216D01*
X80407715Y-117748932D01*
X80346318Y-117833438D01*
X80290987Y-117876103D01*
X80221374Y-117882082D01*
X80159579Y-117849476D01*
X80145682Y-117833438D01*
X80109715Y-117783934D01*
X80084286Y-117748934D01*
X79922566Y-117587214D01*
X79737538Y-117452783D01*
X79674085Y-117420452D01*
X79533755Y-117348950D01*
X79316248Y-117278278D01*
X79130812Y-117248908D01*
X79090354Y-117242500D01*
X78861646Y-117242500D01*
X78821188Y-117248908D01*
X78635753Y-117278278D01*
X78635750Y-117278278D01*
X78418244Y-117348950D01*
X78214461Y-117452783D01*
X78031759Y-117585525D01*
X77965952Y-117609005D01*
X77897898Y-117593180D01*
X77849203Y-117543074D01*
X77842690Y-117528538D01*
X77840652Y-117523074D01*
X77832296Y-117500669D01*
X77832293Y-117500664D01*
X77746047Y-117385455D01*
X77746044Y-117385452D01*
X77630835Y-117299206D01*
X77630828Y-117299202D01*
X77495982Y-117248908D01*
X77495983Y-117248908D01*
X77436383Y-117242501D01*
X77436381Y-117242500D01*
X77436373Y-117242500D01*
X77436364Y-117242500D01*
X75435629Y-117242500D01*
X75435623Y-117242501D01*
X75376016Y-117248908D01*
X75241171Y-117299202D01*
X75241164Y-117299206D01*
X75125955Y-117385452D01*
X75125952Y-117385455D01*
X75039706Y-117500664D01*
X75039702Y-117500671D01*
X74989408Y-117635517D01*
X74983001Y-117695116D01*
X74983000Y-117695135D01*
X65890487Y-117695135D01*
X65762566Y-117567214D01*
X65577538Y-117432783D01*
X65491888Y-117389142D01*
X65373755Y-117328950D01*
X65156248Y-117258278D01*
X64970812Y-117228908D01*
X64930354Y-117222500D01*
X64701646Y-117222500D01*
X64661188Y-117228908D01*
X64475753Y-117258278D01*
X64475750Y-117258278D01*
X64258244Y-117328950D01*
X64054461Y-117432783D01*
X63988550Y-117480671D01*
X63869434Y-117567214D01*
X63869432Y-117567216D01*
X63869431Y-117567216D01*
X63707715Y-117728932D01*
X63646318Y-117813438D01*
X63590987Y-117856103D01*
X63521374Y-117862082D01*
X63459579Y-117829476D01*
X63445682Y-117813438D01*
X63424244Y-117783931D01*
X63384286Y-117728934D01*
X63222566Y-117567214D01*
X63037538Y-117432783D01*
X62951888Y-117389142D01*
X62833755Y-117328950D01*
X62616248Y-117258278D01*
X62430812Y-117228908D01*
X62390354Y-117222500D01*
X62161646Y-117222500D01*
X62121188Y-117228908D01*
X61935753Y-117258278D01*
X61935750Y-117258278D01*
X61718244Y-117328950D01*
X61514461Y-117432783D01*
X61331759Y-117565525D01*
X61265952Y-117589005D01*
X61197898Y-117573180D01*
X61149203Y-117523074D01*
X61142690Y-117508538D01*
X61139755Y-117500669D01*
X61132296Y-117480669D01*
X61132293Y-117480664D01*
X61046047Y-117365455D01*
X61046044Y-117365452D01*
X60930835Y-117279206D01*
X60930828Y-117279202D01*
X60795982Y-117228908D01*
X60795983Y-117228908D01*
X60736383Y-117222501D01*
X60736381Y-117222500D01*
X60736373Y-117222500D01*
X60736364Y-117222500D01*
X58735629Y-117222500D01*
X58735623Y-117222501D01*
X58676016Y-117228908D01*
X58541171Y-117279202D01*
X58541164Y-117279206D01*
X58425955Y-117365452D01*
X58425952Y-117365455D01*
X58339706Y-117480664D01*
X58339702Y-117480671D01*
X58289408Y-117615517D01*
X58283001Y-117675116D01*
X58283000Y-117675135D01*
X53870487Y-117675135D01*
X53762566Y-117567214D01*
X53577538Y-117432783D01*
X53491888Y-117389142D01*
X53373755Y-117328950D01*
X53156248Y-117258278D01*
X52970812Y-117228908D01*
X52930354Y-117222500D01*
X52701646Y-117222500D01*
X52661188Y-117228908D01*
X52475753Y-117258278D01*
X52475750Y-117258278D01*
X52258244Y-117328950D01*
X52054461Y-117432783D01*
X51988550Y-117480671D01*
X51869434Y-117567214D01*
X51869432Y-117567216D01*
X51869431Y-117567216D01*
X51707715Y-117728932D01*
X51646318Y-117813438D01*
X51590987Y-117856103D01*
X51521374Y-117862082D01*
X51459579Y-117829476D01*
X51445682Y-117813438D01*
X51424244Y-117783931D01*
X51384286Y-117728934D01*
X51222566Y-117567214D01*
X51037538Y-117432783D01*
X50951888Y-117389142D01*
X50833755Y-117328950D01*
X50616248Y-117258278D01*
X50430812Y-117228908D01*
X50390354Y-117222500D01*
X50161646Y-117222500D01*
X50121188Y-117228908D01*
X49935753Y-117258278D01*
X49935750Y-117258278D01*
X49718244Y-117328950D01*
X49514461Y-117432783D01*
X49331759Y-117565525D01*
X49265952Y-117589005D01*
X49197898Y-117573180D01*
X49149203Y-117523074D01*
X49142690Y-117508538D01*
X49139755Y-117500669D01*
X49132296Y-117480669D01*
X49132293Y-117480664D01*
X49046047Y-117365455D01*
X49046044Y-117365452D01*
X48930835Y-117279206D01*
X48930828Y-117279202D01*
X48795982Y-117228908D01*
X48795983Y-117228908D01*
X48736383Y-117222501D01*
X48736381Y-117222500D01*
X48736373Y-117222500D01*
X48736364Y-117222500D01*
X46735629Y-117222500D01*
X46735623Y-117222501D01*
X46676016Y-117228908D01*
X46541171Y-117279202D01*
X46541164Y-117279206D01*
X46425955Y-117365452D01*
X46425952Y-117365455D01*
X46339706Y-117480664D01*
X46339702Y-117480671D01*
X46289408Y-117615517D01*
X46283001Y-117675116D01*
X46283000Y-117675135D01*
X44276000Y-117675135D01*
X44276000Y-115790210D01*
X44278383Y-115766019D01*
X44290218Y-115706517D01*
X44308729Y-115661826D01*
X44335524Y-115621724D01*
X44369724Y-115587524D01*
X44409826Y-115560729D01*
X44454514Y-115542219D01*
X44514028Y-115530381D01*
X44538211Y-115528000D01*
X73538728Y-115528000D01*
X73605767Y-115547685D01*
G37*
%TD.AperFunction*%
%TD*%
M02*
