%TF.GenerationSoftware,KiCad,Pcbnew,8.0.5-8.0.5-0~ubuntu24.04.1*%
%TF.CreationDate,2024-10-01T16:14:09+02:00*%
%TF.ProjectId,TFG-Brushless-ESC,5446472d-4272-4757-9368-6c6573732d45,rev?*%
%TF.SameCoordinates,Original*%
%TF.FileFunction,Copper,L4,Bot*%
%TF.FilePolarity,Positive*%
%FSLAX46Y46*%
G04 Gerber Fmt 4.6, Leading zero omitted, Abs format (unit mm)*
G04 Created by KiCad (PCBNEW 8.0.5-8.0.5-0~ubuntu24.04.1) date 2024-10-01 16:14:09*
%MOMM*%
%LPD*%
G01*
G04 APERTURE LIST*
G04 Aperture macros list*
%AMRoundRect*
0 Rectangle with rounded corners*
0 $1 Rounding radius*
0 $2 $3 $4 $5 $6 $7 $8 $9 X,Y pos of 4 corners*
0 Add a 4 corners polygon primitive as box body*
4,1,4,$2,$3,$4,$5,$6,$7,$8,$9,$2,$3,0*
0 Add four circle primitives for the rounded corners*
1,1,$1+$1,$2,$3*
1,1,$1+$1,$4,$5*
1,1,$1+$1,$6,$7*
1,1,$1+$1,$8,$9*
0 Add four rect primitives between the rounded corners*
20,1,$1+$1,$2,$3,$4,$5,0*
20,1,$1+$1,$4,$5,$6,$7,0*
20,1,$1+$1,$6,$7,$8,$9,0*
20,1,$1+$1,$8,$9,$2,$3,0*%
G04 Aperture macros list end*
%TA.AperFunction,ComponentPad*%
%ADD10RoundRect,0.250000X-0.350000X-0.625000X0.350000X-0.625000X0.350000X0.625000X-0.350000X0.625000X0*%
%TD*%
%TA.AperFunction,ComponentPad*%
%ADD11O,1.200000X1.750000*%
%TD*%
%TA.AperFunction,ComponentPad*%
%ADD12O,1.000000X2.100000*%
%TD*%
%TA.AperFunction,ComponentPad*%
%ADD13O,1.000000X1.800000*%
%TD*%
%TA.AperFunction,ComponentPad*%
%ADD14R,1.905000X2.000000*%
%TD*%
%TA.AperFunction,ComponentPad*%
%ADD15O,1.905000X2.000000*%
%TD*%
%TA.AperFunction,ComponentPad*%
%ADD16O,1.500000X2.900000*%
%TD*%
%TA.AperFunction,ComponentPad*%
%ADD17C,0.800000*%
%TD*%
%TA.AperFunction,ComponentPad*%
%ADD18C,6.400000*%
%TD*%
%TA.AperFunction,ComponentPad*%
%ADD19O,1.700000X1.700000*%
%TD*%
%TA.AperFunction,ComponentPad*%
%ADD20R,1.700000X1.700000*%
%TD*%
%TA.AperFunction,ComponentPad*%
%ADD21R,2.600000X2.600000*%
%TD*%
%TA.AperFunction,ComponentPad*%
%ADD22C,2.600000*%
%TD*%
%TA.AperFunction,ViaPad*%
%ADD23C,0.800000*%
%TD*%
%TA.AperFunction,Conductor*%
%ADD24C,0.250000*%
%TD*%
%TA.AperFunction,Conductor*%
%ADD25C,0.500000*%
%TD*%
G04 APERTURE END LIST*
D10*
%TO.P,J4,1,Pin_1*%
%TO.N,GND*%
X91276000Y-160078000D03*
D11*
%TO.P,J4,2,Pin_2*%
%TO.N,/PA8*%
X93276000Y-160078000D03*
%TO.P,J4,3,Pin_3*%
%TO.N,/PA9*%
X95276000Y-160078000D03*
%TO.P,J4,4,Pin_4*%
%TO.N,/PA10*%
X97276000Y-160078000D03*
%TO.P,J4,5,Pin_5*%
%TO.N,+3V3*%
X99276000Y-160078000D03*
%TD*%
D12*
%TO.P,J2,S1,SHIELD*%
%TO.N,unconnected-(J2-SHIELD-PadS1)*%
X125456000Y-159593000D03*
D13*
%TO.N,unconnected-(J2-SHIELD-PadS1)_3*%
X125456000Y-163793000D03*
D12*
%TO.N,unconnected-(J2-SHIELD-PadS1)_1*%
X134096000Y-159593000D03*
D13*
%TO.N,unconnected-(J2-SHIELD-PadS1)_2*%
X134096000Y-163793000D03*
%TD*%
D14*
%TO.P,Q4,1,G*%
%TO.N,Net-(Q4-G)*%
X88436000Y-118743000D03*
D15*
%TO.P,Q4,2,D*%
%TO.N,/V*%
X90976000Y-118743000D03*
%TO.P,Q4,3,S*%
%TO.N,/Half-Bridge-V/Shunt*%
X93516000Y-118743000D03*
%TD*%
D16*
%TO.P,F1,1*%
%TO.N,/24V in*%
X66376000Y-152928000D03*
X62676000Y-152928000D03*
%TO.P,F1,2*%
%TO.N,/24V fused*%
X58376000Y-152928000D03*
X54676000Y-152928000D03*
%TD*%
D14*
%TO.P,U2,1,ADJ*%
%TO.N,/V_DIV_12*%
X135986000Y-118723000D03*
D15*
%TO.P,U2,2,VO*%
%TO.N,+12V*%
X138526000Y-118723000D03*
%TO.P,U2,3,VI*%
%TO.N,+24V*%
X141066000Y-118723000D03*
%TD*%
D17*
%TO.P,REF\u002A\u002A,1*%
%TO.N,N/C*%
X136876000Y-161528000D03*
X137578944Y-159830944D03*
X137578944Y-163225056D03*
X139276000Y-159128000D03*
D18*
X139276000Y-161528000D03*
D17*
X139276000Y-163928000D03*
X140973056Y-159830944D03*
X140973056Y-163225056D03*
X141676000Y-161528000D03*
%TD*%
D14*
%TO.P,Q3,1,G*%
%TO.N,Net-(Q3-G)*%
X76436000Y-118743000D03*
D15*
%TO.P,Q3,2,D*%
%TO.N,+24V*%
X78976000Y-118743000D03*
%TO.P,Q3,3,S*%
%TO.N,/V*%
X81516000Y-118743000D03*
%TD*%
D14*
%TO.P,Q2,1,G*%
%TO.N,Net-(Q2-G)*%
X59736000Y-118723000D03*
D15*
%TO.P,Q2,2,D*%
%TO.N,/U*%
X62276000Y-118723000D03*
%TO.P,Q2,3,S*%
%TO.N,/Half-Bridge-U/Shunt*%
X64816000Y-118723000D03*
%TD*%
D14*
%TO.P,Q1,1,G*%
%TO.N,Net-(Q1-G)*%
X47736000Y-118723000D03*
D15*
%TO.P,Q1,2,D*%
%TO.N,+24V*%
X50276000Y-118723000D03*
%TO.P,Q1,3,S*%
%TO.N,/U*%
X52816000Y-118723000D03*
%TD*%
D14*
%TO.P,Q5,1,G*%
%TO.N,Net-(Q5-G)*%
X105526000Y-118778000D03*
D15*
%TO.P,Q5,2,D*%
%TO.N,+24V*%
X108066000Y-118778000D03*
%TO.P,Q5,3,S*%
%TO.N,/W*%
X110606000Y-118778000D03*
%TD*%
D19*
%TO.P,J5,8,Pin_8*%
%TO.N,+3V3*%
X114956000Y-156418000D03*
%TO.P,J5,7,Pin_7*%
X114956000Y-153878000D03*
%TO.P,J5,6,Pin_6*%
%TO.N,/I2C_SDA*%
X117496000Y-156418000D03*
%TO.P,J5,5,Pin_5*%
%TO.N,/SWDIO*%
X117496000Y-153878000D03*
%TO.P,J5,4,Pin_4*%
%TO.N,/I2C_SCL*%
X120036000Y-156418000D03*
%TO.P,J5,3,Pin_3*%
%TO.N,/SWSCK*%
X120036000Y-153878000D03*
%TO.P,J5,2,Pin_2*%
%TO.N,GND*%
X122576000Y-156418000D03*
D20*
%TO.P,J5,1,Pin_1*%
X122576000Y-153878000D03*
%TD*%
D21*
%TO.P,J1,1,Pin_1*%
%TO.N,/U*%
X73776000Y-161528000D03*
D22*
%TO.P,J1,2,Pin_2*%
%TO.N,/V*%
X78856000Y-161528000D03*
%TO.P,J1,3,Pin_3*%
%TO.N,/W*%
X83936000Y-161528000D03*
%TD*%
D17*
%TO.P,REF\u002A\u002A,1*%
%TO.N,N/C*%
X46876000Y-161528000D03*
X47578944Y-159830944D03*
X47578944Y-163225056D03*
X49276000Y-159128000D03*
D18*
X49276000Y-161528000D03*
D17*
X49276000Y-163928000D03*
X50973056Y-159830944D03*
X50973056Y-163225056D03*
X51676000Y-161528000D03*
%TD*%
D14*
%TO.P,Q6,1,G*%
%TO.N,Net-(Q6-G)*%
X117526000Y-118778000D03*
D15*
%TO.P,Q6,2,D*%
%TO.N,/W*%
X120066000Y-118778000D03*
%TO.P,Q6,3,S*%
%TO.N,/Half-Bridge-W/Shunt*%
X122606000Y-118778000D03*
%TD*%
D21*
%TO.P,J6,1,Pin_1*%
%TO.N,GND*%
X56776000Y-161528000D03*
D22*
%TO.P,J6,2,Pin_2*%
%TO.N,/24V in*%
X61856000Y-161528000D03*
%TD*%
D23*
%TO.N,GND*%
X70026000Y-152528000D03*
X70026000Y-154528000D03*
X70026000Y-162778000D03*
X70026000Y-160528000D03*
X70026000Y-158528000D03*
X70026000Y-156528000D03*
X105776000Y-162528000D03*
X107526000Y-162528000D03*
X109276000Y-162528000D03*
X110026000Y-160778000D03*
X108276000Y-160778000D03*
X106526000Y-160778000D03*
X58026000Y-147028000D03*
X59526000Y-145528000D03*
X79026000Y-165028000D03*
X76776000Y-165028000D03*
X74526000Y-165028000D03*
X72276000Y-165028000D03*
X70026000Y-165028000D03*
X67776000Y-165028000D03*
X65526000Y-165028000D03*
X63276000Y-165028000D03*
X61026000Y-165028000D03*
X58776000Y-165028000D03*
X54276000Y-165028000D03*
X56526000Y-165028000D03*
X56526000Y-158528000D03*
X56526000Y-156528000D03*
X58776000Y-156528000D03*
X58776000Y-158528000D03*
X54276000Y-158528000D03*
X54276000Y-156528000D03*
X101526000Y-165278000D03*
X89026000Y-165278000D03*
X77026000Y-134778000D03*
X62526000Y-145528000D03*
X97776000Y-137528000D03*
X84026000Y-140778000D03*
X87463347Y-138065347D03*
X125776000Y-129528000D03*
X73026000Y-142778000D03*
X107526000Y-155528000D03*
X61026000Y-150028000D03*
X97776000Y-133028000D03*
X87776000Y-163028000D03*
X109276000Y-159028000D03*
X57426000Y-131278000D03*
X74026000Y-132778000D03*
X65526000Y-148528000D03*
X90276000Y-151778000D03*
X89026000Y-153528000D03*
X64026000Y-150028000D03*
X77026000Y-142778000D03*
X130276000Y-153278000D03*
X67026000Y-150028000D03*
X45301000Y-134353000D03*
X74026000Y-144778000D03*
X120026000Y-160528000D03*
X75026000Y-134778000D03*
X142276000Y-148028000D03*
X82026000Y-140778000D03*
X75026000Y-138778000D03*
X97376000Y-119403000D03*
X111776000Y-133528000D03*
X61026000Y-147028000D03*
X69026000Y-134778000D03*
X74026000Y-136778000D03*
X81026000Y-138778000D03*
X82026000Y-136778000D03*
X91526000Y-157028000D03*
X134951000Y-143433000D03*
X66026000Y-132778000D03*
X120026000Y-165278000D03*
X71026000Y-142778000D03*
X72076000Y-144728000D03*
X99026000Y-165278000D03*
X72026000Y-132778000D03*
X109926000Y-136553000D03*
X104051000Y-130678000D03*
X72026000Y-136778000D03*
X115276000Y-165278000D03*
X95526000Y-133028000D03*
X76026000Y-140778000D03*
X96526000Y-165278000D03*
X68026000Y-132778000D03*
X104026000Y-165278000D03*
X115276000Y-131328000D03*
X138576000Y-136203000D03*
X97776000Y-135278000D03*
X117776000Y-165278000D03*
X100276000Y-163028000D03*
X80026000Y-140778000D03*
X103921000Y-159778000D03*
X132745999Y-149720804D03*
X139276000Y-155778000D03*
X68026000Y-136778000D03*
X117776000Y-160528000D03*
X91526000Y-153528000D03*
X89026000Y-161028000D03*
X104051000Y-133028000D03*
X94026000Y-165278000D03*
X95276000Y-163028000D03*
X122276000Y-165278000D03*
X90276000Y-155278000D03*
X80026000Y-136778000D03*
X125776000Y-133028000D03*
X73026000Y-130778000D03*
X135526000Y-158028000D03*
X106526000Y-157278000D03*
X73026000Y-134778000D03*
X87776000Y-159028000D03*
X143026000Y-132278000D03*
X70026000Y-140778000D03*
X132801000Y-119428000D03*
X108276000Y-157278000D03*
X107901000Y-133608000D03*
X112326000Y-138753000D03*
X102776000Y-163028000D03*
X123776000Y-133028000D03*
X111526000Y-163028000D03*
X109026000Y-155528000D03*
X58763347Y-138015347D03*
X91526000Y-165278000D03*
X69026000Y-130778000D03*
X66026000Y-136778000D03*
X83026000Y-138778000D03*
X139276000Y-143028000D03*
X95476000Y-137228000D03*
X114026000Y-163028000D03*
X72776000Y-118628000D03*
X97776000Y-163028000D03*
X69026000Y-138778000D03*
X72026000Y-140778000D03*
X110026000Y-157278000D03*
X86076000Y-131278000D03*
X122276000Y-160528000D03*
X87776000Y-155278000D03*
X92776000Y-151778000D03*
X76026000Y-136778000D03*
X104051000Y-135378000D03*
X116526000Y-163028000D03*
X123526000Y-163028000D03*
X90276000Y-163028000D03*
X121276000Y-163028000D03*
X131776000Y-132278000D03*
X75026000Y-142778000D03*
X77026000Y-138778000D03*
X89026000Y-157028000D03*
X73026000Y-138778000D03*
X64026000Y-147028000D03*
X100801000Y-157803000D03*
X71026000Y-134778000D03*
X70026000Y-132778000D03*
X105776000Y-155528000D03*
X81026000Y-142778000D03*
X119026000Y-163028000D03*
X109926000Y-138753000D03*
X61026000Y-144028000D03*
X92776000Y-163028000D03*
X115276000Y-160528000D03*
X71026000Y-138778000D03*
X107526000Y-159028000D03*
X105776000Y-159028000D03*
X70026000Y-136778000D03*
X123776000Y-129528000D03*
X74026000Y-140778000D03*
X112776000Y-165278000D03*
X76026000Y-144778000D03*
X67026000Y-138778000D03*
X139276000Y-141028000D03*
X62526000Y-148528000D03*
X106101000Y-140078000D03*
%TO.N,+3V3*%
X130151000Y-119703000D03*
X132751000Y-151928000D03*
X97276000Y-154278000D03*
X74076000Y-116528000D03*
X123776000Y-136953000D03*
X137026000Y-139778000D03*
X72226000Y-128128000D03*
X133501000Y-153528000D03*
X99976000Y-129178000D03*
X135026000Y-131528000D03*
X137651000Y-131878000D03*
X100926000Y-155378000D03*
X101301000Y-119371435D03*
X95276000Y-154278000D03*
X73676000Y-128128000D03*
X93276000Y-154278000D03*
X135101000Y-152178000D03*
X125796001Y-149464461D03*
X101776000Y-128703000D03*
X132745999Y-141278000D03*
%TO.N,/BOOT0*%
X101501000Y-138153000D03*
X134026000Y-140278000D03*
X107826000Y-140078000D03*
%TO.N,/NRST*%
X113116000Y-137028000D03*
X126119039Y-138867134D03*
%TO.N,/SWSCK*%
X134276000Y-149758000D03*
%TO.N,/SWDIO*%
X131276000Y-151128000D03*
%TO.N,/PA0*%
X124076599Y-140565500D03*
X129576000Y-130303000D03*
%TO.N,/PB0*%
X58776000Y-139028000D03*
X122051000Y-145653000D03*
%TO.N,/PB7*%
X113416000Y-134053000D03*
X127776000Y-131728003D03*
%TO.N,/PA3*%
X100526000Y-132852998D03*
X122076000Y-140653000D03*
%TO.N,/PB10*%
X122038347Y-147778000D03*
X58776000Y-141028003D03*
%TO.N,/PA1*%
X125213653Y-142140347D03*
X114808410Y-138720896D03*
%TO.N,/PB1*%
X58776000Y-140028000D03*
X122055776Y-146778150D03*
%TO.N,/PA7*%
X77426000Y-129378000D03*
X122051000Y-144652997D03*
%TO.N,/PB6*%
X127776000Y-130728000D03*
X114741000Y-134053000D03*
%TO.N,/PA6*%
X122051000Y-143652994D03*
X84326000Y-134653000D03*
%TO.N,/PA5*%
X122051001Y-142652992D03*
X85651000Y-134653000D03*
%TO.N,/I2C_SCL*%
X136276000Y-145003000D03*
%TO.N,/I2C_SDA*%
X136276000Y-143778000D03*
%TO.N,/PA4*%
X122079560Y-141653398D03*
X85926153Y-136278153D03*
%TO.N,+12V*%
X107526000Y-131028000D03*
X78276000Y-131028000D03*
X135901000Y-127728000D03*
X58743759Y-142027486D03*
%TO.N,+24V*%
X49526000Y-141028000D03*
X49526000Y-139278000D03*
X54776000Y-141028000D03*
X54776000Y-139278000D03*
X47776000Y-139278000D03*
X53026000Y-142778000D03*
X53026000Y-141028000D03*
X51276000Y-141028000D03*
X53026000Y-139278000D03*
X51276000Y-142778000D03*
X51276000Y-139278000D03*
X51276000Y-137528000D03*
X54776000Y-137528000D03*
X47776000Y-141028000D03*
X47776000Y-137528000D03*
X53026000Y-137528000D03*
X49526000Y-137528000D03*
X49526000Y-142778000D03*
X47776000Y-142778000D03*
%TO.N,VDC*%
X126301000Y-156703000D03*
X134188500Y-156265500D03*
%TD*%
D24*
%TO.N,GND*%
X87463347Y-138065347D02*
X94638653Y-138065347D01*
X132745999Y-145638001D02*
X134951000Y-143433000D01*
X130276000Y-153278000D02*
X126526000Y-153278000D01*
X125926000Y-153878000D02*
X122576000Y-153878000D01*
X94638653Y-138065347D02*
X95476000Y-137228000D01*
X132745999Y-149720804D02*
X132745999Y-145638001D01*
X126526000Y-153278000D02*
X125926000Y-153878000D01*
D25*
%TO.N,+3V3*%
X127557565Y-116528000D02*
X103001000Y-116528000D01*
D24*
X125796001Y-149464461D02*
X119369539Y-149464461D01*
X133751000Y-153528000D02*
X133501000Y-153528000D01*
X132026000Y-149464461D02*
X132026000Y-148525922D01*
D25*
X130151000Y-119703000D02*
X130151000Y-116528000D01*
D24*
X135101000Y-152178000D02*
X133751000Y-153528000D01*
D25*
X143226000Y-118228000D02*
X143226000Y-126303000D01*
D24*
X132020999Y-148530923D02*
X132020999Y-150397999D01*
X132026000Y-148525922D02*
X132020999Y-148530923D01*
X132239299Y-129003000D02*
X134764299Y-131528000D01*
D25*
X143226000Y-126303000D02*
X137651000Y-131878000D01*
X73676000Y-128128000D02*
X72226000Y-128128000D01*
D24*
X128776000Y-129778000D02*
X129551000Y-129003000D01*
X128776000Y-133891604D02*
X128776000Y-129778000D01*
D25*
X132745999Y-141278000D02*
X135526000Y-141278000D01*
D24*
X99976000Y-129178000D02*
X101301000Y-129178000D01*
X134764299Y-131528000D02*
X135026000Y-131528000D01*
X132020999Y-150397999D02*
X132751000Y-151128000D01*
X125714604Y-136953000D02*
X128776000Y-133891604D01*
X99826000Y-154278000D02*
X100926000Y-155378000D01*
X95276000Y-154278000D02*
X97276000Y-154278000D01*
D25*
X74076000Y-116528000D02*
X101301000Y-116528000D01*
X127557565Y-116528000D02*
X141526000Y-116528000D01*
D24*
X93276000Y-154278000D02*
X95276000Y-154278000D01*
X132751000Y-151928000D02*
X132751000Y-151128000D01*
X123776000Y-136953000D02*
X125714604Y-136953000D01*
D25*
X130151000Y-116528000D02*
X127557565Y-116528000D01*
D24*
X97276000Y-154278000D02*
X99826000Y-154278000D01*
X129551000Y-129003000D02*
X132239299Y-129003000D01*
X132026000Y-145378000D02*
X132026000Y-148525922D01*
X119369539Y-149464461D02*
X114956000Y-153878000D01*
D25*
X103001000Y-116528000D02*
X101301000Y-116528000D01*
D24*
X101301000Y-129178000D02*
X101776000Y-128703000D01*
X114956000Y-156418000D02*
X114956000Y-153878000D01*
X131087461Y-149464461D02*
X132026000Y-149464461D01*
D25*
X101301000Y-116528000D02*
X101301000Y-119371435D01*
D24*
X131087461Y-149464461D02*
X125796001Y-149464461D01*
D25*
X135526000Y-141278000D02*
X137026000Y-139778000D01*
D24*
X132745999Y-141278000D02*
X132745999Y-144658001D01*
D25*
X141526000Y-116528000D02*
X143226000Y-118228000D01*
D24*
X132745999Y-144658001D02*
X132026000Y-145378000D01*
%TO.N,/BOOT0*%
X134650695Y-130778000D02*
X135301305Y-130778000D01*
X107826000Y-135003000D02*
X114526000Y-128303000D01*
X135301305Y-130778000D02*
X135751000Y-131227695D01*
X135751000Y-131227695D02*
X135751000Y-138553000D01*
X135751000Y-138553000D02*
X134026000Y-140278000D01*
X107826000Y-140078000D02*
X107826000Y-135003000D01*
X107826000Y-140078000D02*
X107826000Y-138153000D01*
X107826000Y-138153000D02*
X101501000Y-138153000D01*
X132175695Y-128303000D02*
X134650695Y-130778000D01*
X114526000Y-128303000D02*
X132175695Y-128303000D01*
%TO.N,/NRST*%
X113883347Y-137795347D02*
X121279895Y-137795347D01*
X121279895Y-137795347D02*
X123276000Y-139791452D01*
X124538500Y-141290500D02*
X126119039Y-139709961D01*
X126119039Y-139709961D02*
X126119039Y-138867134D01*
X113116000Y-137028000D02*
X113883347Y-137795347D01*
X123713500Y-141290500D02*
X124538500Y-141290500D01*
X123276000Y-139791452D02*
X123276000Y-140853000D01*
X123276000Y-140853000D02*
X123713500Y-141290500D01*
%TO.N,/SWSCK*%
X132026000Y-152278000D02*
X132501000Y-152753000D01*
X134276000Y-152178000D02*
X134276000Y-149758000D01*
X133701000Y-152753000D02*
X134276000Y-152178000D01*
X132501000Y-152753000D02*
X133701000Y-152753000D01*
X121636000Y-152278000D02*
X132026000Y-152278000D01*
X120036000Y-153878000D02*
X121636000Y-152278000D01*
%TO.N,/SWDIO*%
X131276000Y-151128000D02*
X120246000Y-151128000D01*
X120246000Y-151128000D02*
X117496000Y-153878000D01*
%TO.N,/PA0*%
X129576000Y-133728000D02*
X124076599Y-139227401D01*
X129576000Y-130303000D02*
X129576000Y-133728000D01*
X124076599Y-139227401D02*
X124076599Y-140565500D01*
%TO.N,/PB0*%
X62644198Y-139578000D02*
X69044198Y-145978000D01*
X69044198Y-145978000D02*
X120512396Y-145978000D01*
X120512396Y-145978000D02*
X120837396Y-145653000D01*
X59476000Y-139028000D02*
X60026000Y-139578000D01*
X60026000Y-139578000D02*
X62644198Y-139578000D01*
X58776000Y-139028000D02*
X59476000Y-139028000D01*
X120837396Y-145653000D02*
X122051000Y-145653000D01*
%TO.N,/PB7*%
X123012396Y-131428000D02*
X126751000Y-131428000D01*
X113416000Y-134053000D02*
X113416000Y-134818000D01*
X127051003Y-131728003D02*
X127776000Y-131728003D01*
X113841000Y-135243000D02*
X113841000Y-136818000D01*
X121120049Y-137345347D02*
X122393348Y-136072048D01*
X113841000Y-136818000D02*
X114368347Y-137345347D01*
X122393348Y-132047048D02*
X123012396Y-131428000D01*
X113416000Y-134818000D02*
X113841000Y-135243000D01*
X126751000Y-131428000D02*
X127051003Y-131728003D01*
X114368347Y-137345347D02*
X121120049Y-137345347D01*
X122393348Y-136072048D02*
X122393348Y-132047048D01*
%TO.N,/PA3*%
X121164604Y-140653000D02*
X120339604Y-141478000D01*
X102026000Y-141478000D02*
X100526000Y-139978000D01*
X122076000Y-140653000D02*
X121164604Y-140653000D01*
X100526000Y-139978000D02*
X100526000Y-132852998D01*
X120339604Y-141478000D02*
X102026000Y-141478000D01*
%TO.N,/PB10*%
X62271406Y-140478000D02*
X60026000Y-140478000D01*
X68671406Y-146878000D02*
X62271406Y-140478000D01*
X59475997Y-141028003D02*
X58776000Y-141028003D01*
X60026000Y-140478000D02*
X59475997Y-141028003D01*
X121226000Y-147778000D02*
X120326000Y-146878000D01*
X120326000Y-146878000D02*
X68671406Y-146878000D01*
X122038347Y-147778000D02*
X121226000Y-147778000D01*
%TO.N,/PA1*%
X122826000Y-139977848D02*
X122076152Y-139228000D01*
X115251000Y-139228000D02*
X114808410Y-138785410D01*
X123888347Y-142140347D02*
X122826000Y-141078000D01*
X122826000Y-141078000D02*
X122826000Y-139977848D01*
X122076152Y-139228000D02*
X115251000Y-139228000D01*
X114808410Y-138785410D02*
X114808410Y-138720896D01*
X125213653Y-142140347D02*
X123888347Y-142140347D01*
%TO.N,/PB1*%
X62457802Y-140028000D02*
X58776000Y-140028000D01*
X122055776Y-146778150D02*
X120862546Y-146778150D01*
X120862546Y-146778150D02*
X120512396Y-146428000D01*
X120512396Y-146428000D02*
X68857802Y-146428000D01*
X68857802Y-146428000D02*
X62457802Y-140028000D01*
%TO.N,/PA7*%
X77426000Y-129378000D02*
X77426000Y-133128000D01*
X78526000Y-144778000D02*
X79276000Y-145528000D01*
X78526000Y-134228000D02*
X78526000Y-144778000D01*
X79276000Y-145528000D02*
X120326000Y-145528000D01*
X120326000Y-145528000D02*
X121201003Y-144652997D01*
X121201003Y-144652997D02*
X122051000Y-144652997D01*
X77426000Y-133128000D02*
X78526000Y-134228000D01*
%TO.N,/PB6*%
X120933653Y-136895347D02*
X121943348Y-135885652D01*
X114291000Y-135263000D02*
X114291000Y-136631604D01*
X121943348Y-131860652D02*
X122826000Y-130978000D01*
X122826000Y-130978000D02*
X126776000Y-130978000D01*
X127026000Y-130728000D02*
X127776000Y-130728000D01*
X114291000Y-136631604D02*
X114554743Y-136895347D01*
X126776000Y-130978000D02*
X127026000Y-130728000D01*
X114741000Y-134813000D02*
X114291000Y-135263000D01*
X114741000Y-134053000D02*
X114741000Y-134813000D01*
X121943348Y-135885652D02*
X121943348Y-131860652D01*
X114554743Y-136895347D02*
X120933653Y-136895347D01*
%TO.N,/PA6*%
X120339604Y-142828000D02*
X121164598Y-143652994D01*
X121164598Y-143652994D02*
X122051000Y-143652994D01*
X84751000Y-140314396D02*
X87264604Y-142828000D01*
X84326000Y-134653000D02*
X84326000Y-135553000D01*
X84326000Y-135553000D02*
X84751000Y-135978000D01*
X84751000Y-135978000D02*
X84751000Y-140314396D01*
X87264604Y-142828000D02*
X120339604Y-142828000D01*
%TO.N,/PA5*%
X85201000Y-140128000D02*
X87451000Y-142378000D01*
X87451000Y-142378000D02*
X120526000Y-142378000D01*
X85651000Y-135528000D02*
X85201000Y-135978000D01*
X120526000Y-142378000D02*
X120800992Y-142652992D01*
X85201000Y-135978000D02*
X85201000Y-140128000D01*
X120800992Y-142652992D02*
X122051001Y-142652992D01*
X85651000Y-134653000D02*
X85651000Y-135528000D01*
%TO.N,/I2C_SCL*%
X136626000Y-144653000D02*
X137401000Y-144653000D01*
X136276000Y-145003000D02*
X136626000Y-144653000D01*
X137401000Y-144653000D02*
X138076000Y-145328000D01*
X121211000Y-155243000D02*
X120036000Y-156418000D01*
X138076000Y-153141604D02*
X135974604Y-155243000D01*
X138076000Y-145328000D02*
X138076000Y-153141604D01*
X135974604Y-155243000D02*
X121211000Y-155243000D01*
%TO.N,/I2C_SDA*%
X137551000Y-144153000D02*
X136651000Y-144153000D01*
X118671000Y-157593000D02*
X134261000Y-157593000D01*
X134261000Y-157593000D02*
X138526000Y-153328000D01*
X117496000Y-156418000D02*
X118671000Y-157593000D01*
X136651000Y-144153000D02*
X136276000Y-143778000D01*
X138526000Y-153328000D02*
X138526000Y-145128000D01*
X138526000Y-145128000D02*
X137551000Y-144153000D01*
%TO.N,/PA4*%
X85926000Y-136278306D02*
X85926000Y-140216604D01*
X120526000Y-141928000D02*
X120800602Y-141653398D01*
X85926000Y-140216604D02*
X87637396Y-141928000D01*
X87637396Y-141928000D02*
X120526000Y-141928000D01*
X85926153Y-136278153D02*
X85926000Y-136278306D01*
X120800602Y-141653398D02*
X122079560Y-141653398D01*
D25*
%TO.N,+12V*%
X58576000Y-132003000D02*
X58576000Y-130228000D01*
X58743759Y-142027486D02*
X58275486Y-142027486D01*
X135901000Y-127728000D02*
X135451000Y-127278000D01*
X107526000Y-127278000D02*
X107526000Y-131028000D01*
X75526000Y-127278000D02*
X107776000Y-127278000D01*
X58576000Y-130228000D02*
X61526000Y-127278000D01*
X78276000Y-127278000D02*
X78276000Y-131028000D01*
X75526000Y-127278000D02*
X78276000Y-127278000D01*
X57351000Y-141103000D02*
X57351000Y-133228000D01*
X57351000Y-133228000D02*
X58576000Y-132003000D01*
X58275486Y-142027486D02*
X57351000Y-141103000D01*
X107776000Y-127278000D02*
X107526000Y-127278000D01*
X135451000Y-127278000D02*
X107776000Y-127278000D01*
X61526000Y-127278000D02*
X75526000Y-127278000D01*
%TO.N,VDC*%
X134188500Y-156265500D02*
X133751000Y-156703000D01*
X133751000Y-156703000D02*
X126301000Y-156703000D01*
%TD*%
%TA.AperFunction,Conductor*%
%TO.N,GND*%
G36*
X143469039Y-127797685D02*
G01*
X143514794Y-127850489D01*
X143526000Y-127902000D01*
X143526000Y-157226638D01*
X143506315Y-157293677D01*
X143489681Y-157314319D01*
X143062319Y-157741681D01*
X143000996Y-157775166D01*
X142974638Y-157778000D01*
X137077362Y-157778000D01*
X137010323Y-157758315D01*
X136989681Y-157741681D01*
X136812319Y-157564319D01*
X136778834Y-157502996D01*
X136776000Y-157476638D01*
X136776000Y-156579362D01*
X136795685Y-156512323D01*
X136812319Y-156491681D01*
X139526000Y-153778000D01*
X139526000Y-144778000D01*
X138312319Y-143564319D01*
X138278834Y-143502996D01*
X138276000Y-143476638D01*
X138276000Y-139028000D01*
X136562319Y-137314319D01*
X136528834Y-137252996D01*
X136526000Y-137226638D01*
X136526000Y-134829362D01*
X136545685Y-134762323D01*
X136562319Y-134741681D01*
X138776000Y-132528000D01*
X138776000Y-132079362D01*
X138795685Y-132012323D01*
X138812319Y-131991681D01*
X142989681Y-127814319D01*
X143051004Y-127780834D01*
X143077362Y-127778000D01*
X143402000Y-127778000D01*
X143469039Y-127797685D01*
G37*
%TD.AperFunction*%
%TD*%
%TA.AperFunction,Conductor*%
%TO.N,+24V*%
G36*
X141969039Y-119047685D02*
G01*
X142014794Y-119100489D01*
X142026000Y-119152000D01*
X142026000Y-125751638D01*
X142006315Y-125818677D01*
X141989681Y-125839319D01*
X141562319Y-126266681D01*
X141500996Y-126300166D01*
X141474638Y-126303000D01*
X60225999Y-126303000D01*
X56076000Y-130452999D01*
X56076000Y-144476638D01*
X56056315Y-144543677D01*
X56039681Y-144564319D01*
X55812319Y-144791681D01*
X55750996Y-144825166D01*
X55724638Y-144828000D01*
X46977362Y-144828000D01*
X46910323Y-144808315D01*
X46889681Y-144791681D01*
X46412319Y-144314319D01*
X46378834Y-144252996D01*
X46376000Y-144226638D01*
X46376000Y-121479362D01*
X46395685Y-121412323D01*
X46412319Y-121391681D01*
X47264681Y-120539319D01*
X47326004Y-120505834D01*
X47352362Y-120503000D01*
X48651000Y-120503000D01*
X48576000Y-120578000D01*
X51976000Y-120578000D01*
X51901000Y-120503000D01*
X77401000Y-120503000D01*
X77276000Y-120628000D01*
X80676000Y-120628000D01*
X80551000Y-120503000D01*
X106496000Y-120503000D01*
X106366000Y-120633000D01*
X109766000Y-120633000D01*
X109761000Y-120628000D01*
X109776000Y-120628000D01*
X109651000Y-120503000D01*
X129707510Y-120503000D01*
X129757946Y-120513721D01*
X129871192Y-120564142D01*
X129871197Y-120564144D01*
X130056354Y-120603500D01*
X130056355Y-120603500D01*
X130245644Y-120603500D01*
X130245646Y-120603500D01*
X130430803Y-120564144D01*
X130544054Y-120513721D01*
X130594490Y-120503000D01*
X139776000Y-120503000D01*
X140126000Y-120153000D01*
X140126000Y-119152000D01*
X140145685Y-119084961D01*
X140198489Y-119039206D01*
X140250000Y-119028000D01*
X141902000Y-119028000D01*
X141969039Y-119047685D01*
G37*
%TD.AperFunction*%
%TD*%
%TA.AperFunction,Conductor*%
%TO.N,GND*%
G36*
X54026000Y-150778000D02*
G01*
X54025999Y-150778000D01*
X53276000Y-151527999D01*
X53276000Y-154278000D01*
X54026000Y-155028000D01*
X55026000Y-155028000D01*
X55026000Y-156528000D01*
X54276000Y-157278000D01*
X53776000Y-158278000D01*
X52776000Y-157278000D01*
X47077362Y-157278000D01*
X47010323Y-157258315D01*
X46989681Y-157241681D01*
X46312319Y-156564319D01*
X46278834Y-156502996D01*
X46276000Y-156476638D01*
X46276000Y-150028000D01*
X53276000Y-150028000D01*
X54026000Y-150778000D01*
G37*
%TD.AperFunction*%
%TD*%
%TA.AperFunction,Conductor*%
%TO.N,+24V*%
G36*
X108969039Y-118797685D02*
G01*
X109014794Y-118850489D01*
X109026000Y-118902000D01*
X109026000Y-119878000D01*
X109776000Y-120628000D01*
X106376000Y-120628000D01*
X107126000Y-119878000D01*
X107126000Y-118867944D01*
X107135685Y-118834961D01*
X107188489Y-118789206D01*
X107240000Y-118778000D01*
X108902000Y-118778000D01*
X108969039Y-118797685D01*
G37*
%TD.AperFunction*%
%TD*%
%TA.AperFunction,Conductor*%
%TO.N,+24V*%
G36*
X51169039Y-118747685D02*
G01*
X51214794Y-118800489D01*
X51226000Y-118852000D01*
X51226000Y-119828000D01*
X51976000Y-120578000D01*
X48576000Y-120578000D01*
X49326000Y-119828000D01*
X49326000Y-118852000D01*
X49345685Y-118784961D01*
X49398489Y-118739206D01*
X49450000Y-118728000D01*
X51102000Y-118728000D01*
X51169039Y-118747685D01*
G37*
%TD.AperFunction*%
%TD*%
%TA.AperFunction,Conductor*%
%TO.N,GND*%
G36*
X97791677Y-128297685D02*
G01*
X97812319Y-128314319D01*
X99589681Y-130091681D01*
X99623166Y-130153004D01*
X99626000Y-130179362D01*
X99626000Y-132794547D01*
X99625321Y-132807507D01*
X99620540Y-132852997D01*
X99625321Y-132898486D01*
X99626000Y-132911447D01*
X99626000Y-140126638D01*
X99606315Y-140193677D01*
X99589681Y-140214319D01*
X98812319Y-140991681D01*
X98750996Y-141025166D01*
X98724638Y-141028000D01*
X88327362Y-141028000D01*
X88260323Y-141008315D01*
X88239681Y-140991681D01*
X86812319Y-139564319D01*
X86778834Y-139502996D01*
X86776000Y-139476638D01*
X86776000Y-137829362D01*
X86795685Y-137762323D01*
X86812319Y-137741681D01*
X87276000Y-137278000D01*
X87276000Y-134778000D01*
X85776000Y-133278000D01*
X84025999Y-133278000D01*
X83276000Y-134027999D01*
X83276000Y-135778000D01*
X83739681Y-136241681D01*
X83773166Y-136303004D01*
X83776000Y-136329362D01*
X83776000Y-140778000D01*
X86526000Y-143528000D01*
X84776000Y-143528000D01*
X84776000Y-144778000D01*
X80327362Y-144778000D01*
X80260323Y-144758315D01*
X80239681Y-144741681D01*
X79312319Y-143814319D01*
X79278834Y-143752996D01*
X79276000Y-143726638D01*
X79276000Y-128402000D01*
X79295685Y-128334961D01*
X79348489Y-128289206D01*
X79400000Y-128278000D01*
X97724638Y-128278000D01*
X97791677Y-128297685D01*
G37*
%TD.AperFunction*%
%TD*%
%TA.AperFunction,Conductor*%
%TO.N,+24V*%
G36*
X108969039Y-118797685D02*
G01*
X109014794Y-118850489D01*
X109016000Y-118856032D01*
X109016000Y-119883000D01*
X109766000Y-120633000D01*
X106366000Y-120633000D01*
X107116000Y-119883000D01*
X107116000Y-118902000D01*
X107135685Y-118834961D01*
X107188489Y-118789206D01*
X107217016Y-118783000D01*
X108919028Y-118783000D01*
X108969039Y-118797685D01*
G37*
%TD.AperFunction*%
%TD*%
%TA.AperFunction,Conductor*%
%TO.N,GND*%
G36*
X61791677Y-141297685D02*
G01*
X61812319Y-141314319D01*
X68276000Y-147778000D01*
X117724638Y-147778000D01*
X117791677Y-147797685D01*
X117812319Y-147814319D01*
X118239681Y-148241681D01*
X118273166Y-148303004D01*
X118276000Y-148329362D01*
X118276000Y-149226638D01*
X118256315Y-149293677D01*
X118239681Y-149314319D01*
X115312319Y-152241681D01*
X115250996Y-152275166D01*
X115224638Y-152278000D01*
X114025999Y-152278000D01*
X113276000Y-153027999D01*
X113276000Y-153028000D01*
X113276000Y-157278000D01*
X114526000Y-158528000D01*
X123724638Y-158528000D01*
X123791677Y-158547685D01*
X123812319Y-158564319D01*
X124339681Y-159091681D01*
X124373166Y-159153004D01*
X124376000Y-159179362D01*
X124376000Y-165876638D01*
X124356315Y-165943677D01*
X124339681Y-165964319D01*
X124062319Y-166241681D01*
X124000996Y-166275166D01*
X123974638Y-166278000D01*
X54577362Y-166278000D01*
X54510323Y-166258315D01*
X54489681Y-166241681D01*
X53312319Y-165064319D01*
X53278834Y-165002996D01*
X53276000Y-164976638D01*
X53276000Y-161527995D01*
X60050451Y-161527995D01*
X60050451Y-161528004D01*
X60070616Y-161797101D01*
X60130664Y-162060188D01*
X60130666Y-162060195D01*
X60224168Y-162298433D01*
X60229257Y-162311398D01*
X60364185Y-162545102D01*
X60466250Y-162673087D01*
X60532442Y-162756089D01*
X60719183Y-162929358D01*
X60730259Y-162939635D01*
X60953226Y-163091651D01*
X61196359Y-163208738D01*
X61454228Y-163288280D01*
X61454229Y-163288280D01*
X61454232Y-163288281D01*
X61721063Y-163328499D01*
X61721068Y-163328499D01*
X61721071Y-163328500D01*
X61721072Y-163328500D01*
X61990928Y-163328500D01*
X61990929Y-163328500D01*
X61990936Y-163328499D01*
X62257767Y-163288281D01*
X62257768Y-163288280D01*
X62257772Y-163288280D01*
X62515641Y-163208738D01*
X62758775Y-163091651D01*
X62981741Y-162939635D01*
X63179561Y-162756085D01*
X63347815Y-162545102D01*
X63482743Y-162311398D01*
X63581334Y-162060195D01*
X63641383Y-161797103D01*
X63661549Y-161528000D01*
X63653935Y-161426402D01*
X63641383Y-161258898D01*
X63641383Y-161258897D01*
X63581334Y-160995805D01*
X63482743Y-160744602D01*
X63347815Y-160510898D01*
X63179561Y-160299915D01*
X63179560Y-160299914D01*
X63179557Y-160299910D01*
X63050469Y-160180135D01*
X71975500Y-160180135D01*
X71975500Y-162875870D01*
X71975501Y-162875876D01*
X71981908Y-162935483D01*
X72032202Y-163070328D01*
X72032206Y-163070335D01*
X72118452Y-163185544D01*
X72118455Y-163185547D01*
X72233664Y-163271793D01*
X72233671Y-163271797D01*
X72368517Y-163322091D01*
X72368516Y-163322091D01*
X72375444Y-163322835D01*
X72428127Y-163328500D01*
X75123872Y-163328499D01*
X75183483Y-163322091D01*
X75318331Y-163271796D01*
X75433546Y-163185546D01*
X75519796Y-163070331D01*
X75570091Y-162935483D01*
X75576500Y-162875873D01*
X75576499Y-161527995D01*
X77050451Y-161527995D01*
X77050451Y-161528004D01*
X77070616Y-161797101D01*
X77130664Y-162060188D01*
X77130666Y-162060195D01*
X77224168Y-162298433D01*
X77229257Y-162311398D01*
X77364185Y-162545102D01*
X77466250Y-162673087D01*
X77532442Y-162756089D01*
X77719183Y-162929358D01*
X77730259Y-162939635D01*
X77953226Y-163091651D01*
X78196359Y-163208738D01*
X78454228Y-163288280D01*
X78454229Y-163288280D01*
X78454232Y-163288281D01*
X78721063Y-163328499D01*
X78721068Y-163328499D01*
X78721071Y-163328500D01*
X78721072Y-163328500D01*
X78990928Y-163328500D01*
X78990929Y-163328500D01*
X78990936Y-163328499D01*
X79257767Y-163288281D01*
X79257768Y-163288280D01*
X79257772Y-163288280D01*
X79515641Y-163208738D01*
X79758775Y-163091651D01*
X79981741Y-162939635D01*
X80179561Y-162756085D01*
X80347815Y-162545102D01*
X80482743Y-162311398D01*
X80581334Y-162060195D01*
X80641383Y-161797103D01*
X80661549Y-161528000D01*
X80661549Y-161527995D01*
X82130451Y-161527995D01*
X82130451Y-161528004D01*
X82150616Y-161797101D01*
X82210664Y-162060188D01*
X82210666Y-162060195D01*
X82304168Y-162298433D01*
X82309257Y-162311398D01*
X82444185Y-162545102D01*
X82546250Y-162673087D01*
X82612442Y-162756089D01*
X82799183Y-162929358D01*
X82810259Y-162939635D01*
X83033226Y-163091651D01*
X83276359Y-163208738D01*
X83534228Y-163288280D01*
X83534229Y-163288280D01*
X83534232Y-163288281D01*
X83801063Y-163328499D01*
X83801068Y-163328499D01*
X83801071Y-163328500D01*
X83801072Y-163328500D01*
X84070928Y-163328500D01*
X84070929Y-163328500D01*
X84070936Y-163328499D01*
X84337767Y-163288281D01*
X84337768Y-163288280D01*
X84337772Y-163288280D01*
X84595641Y-163208738D01*
X84838775Y-163091651D01*
X85061741Y-162939635D01*
X85259561Y-162756085D01*
X85427815Y-162545102D01*
X85562743Y-162311398D01*
X85661334Y-162060195D01*
X85721383Y-161797103D01*
X85741549Y-161528000D01*
X85733935Y-161426402D01*
X85721383Y-161258898D01*
X85721383Y-161258897D01*
X85661334Y-160995805D01*
X85562743Y-160744602D01*
X85427815Y-160510898D01*
X85259561Y-160299915D01*
X85259560Y-160299914D01*
X85259557Y-160299910D01*
X85061741Y-160116365D01*
X84838775Y-159964349D01*
X84838769Y-159964346D01*
X84838768Y-159964345D01*
X84838767Y-159964344D01*
X84595643Y-159847263D01*
X84595645Y-159847263D01*
X84337773Y-159767720D01*
X84337767Y-159767718D01*
X84070936Y-159727500D01*
X84070929Y-159727500D01*
X83801071Y-159727500D01*
X83801063Y-159727500D01*
X83534232Y-159767718D01*
X83534226Y-159767720D01*
X83276358Y-159847262D01*
X83033230Y-159964346D01*
X82810258Y-160116365D01*
X82612442Y-160299910D01*
X82444185Y-160510898D01*
X82309258Y-160744599D01*
X82309256Y-160744603D01*
X82210666Y-160995804D01*
X82210664Y-160995811D01*
X82150616Y-161258898D01*
X82130451Y-161527995D01*
X80661549Y-161527995D01*
X80653935Y-161426402D01*
X80641383Y-161258898D01*
X80641383Y-161258897D01*
X80581334Y-160995805D01*
X80482743Y-160744602D01*
X80347815Y-160510898D01*
X80179561Y-160299915D01*
X80179560Y-160299914D01*
X80179557Y-160299910D01*
X79981741Y-160116365D01*
X79758775Y-159964349D01*
X79758769Y-159964346D01*
X79758768Y-159964345D01*
X79758767Y-159964344D01*
X79515643Y-159847263D01*
X79515645Y-159847263D01*
X79257773Y-159767720D01*
X79257767Y-159767718D01*
X78990936Y-159727500D01*
X78990929Y-159727500D01*
X78721071Y-159727500D01*
X78721063Y-159727500D01*
X78454232Y-159767718D01*
X78454226Y-159767720D01*
X78196358Y-159847262D01*
X77953230Y-159964346D01*
X77730258Y-160116365D01*
X77532442Y-160299910D01*
X77364185Y-160510898D01*
X77229258Y-160744599D01*
X77229256Y-160744603D01*
X77130666Y-160995804D01*
X77130664Y-160995811D01*
X77070616Y-161258898D01*
X77050451Y-161527995D01*
X75576499Y-161527995D01*
X75576499Y-160180128D01*
X75570091Y-160120517D01*
X75568542Y-160116365D01*
X75519797Y-159985671D01*
X75519793Y-159985664D01*
X75433547Y-159870455D01*
X75433544Y-159870452D01*
X75318335Y-159784206D01*
X75318328Y-159784202D01*
X75183482Y-159733908D01*
X75183483Y-159733908D01*
X75123883Y-159727501D01*
X75123881Y-159727500D01*
X75123873Y-159727500D01*
X75123864Y-159727500D01*
X72428129Y-159727500D01*
X72428123Y-159727501D01*
X72368516Y-159733908D01*
X72233671Y-159784202D01*
X72233664Y-159784206D01*
X72118455Y-159870452D01*
X72118452Y-159870455D01*
X72032206Y-159985664D01*
X72032202Y-159985671D01*
X71981908Y-160120517D01*
X71975501Y-160180116D01*
X71975501Y-160180123D01*
X71975500Y-160180135D01*
X63050469Y-160180135D01*
X62981741Y-160116365D01*
X62758775Y-159964349D01*
X62758769Y-159964346D01*
X62758768Y-159964345D01*
X62758767Y-159964344D01*
X62515643Y-159847263D01*
X62515645Y-159847263D01*
X62257773Y-159767720D01*
X62257767Y-159767718D01*
X61990936Y-159727500D01*
X61990929Y-159727500D01*
X61721071Y-159727500D01*
X61721063Y-159727500D01*
X61454232Y-159767718D01*
X61454226Y-159767720D01*
X61196358Y-159847262D01*
X60953230Y-159964346D01*
X60730258Y-160116365D01*
X60532442Y-160299910D01*
X60364185Y-160510898D01*
X60229258Y-160744599D01*
X60229256Y-160744603D01*
X60130666Y-160995804D01*
X60130664Y-160995811D01*
X60070616Y-161258898D01*
X60050451Y-161527995D01*
X53276000Y-161527995D01*
X53276000Y-159716389D01*
X92175500Y-159716389D01*
X92175500Y-160439611D01*
X92202598Y-160610701D01*
X92256127Y-160775445D01*
X92334768Y-160929788D01*
X92436586Y-161069928D01*
X92559072Y-161192414D01*
X92699212Y-161294232D01*
X92853555Y-161372873D01*
X93018299Y-161426402D01*
X93189389Y-161453500D01*
X93189390Y-161453500D01*
X93362610Y-161453500D01*
X93362611Y-161453500D01*
X93533701Y-161426402D01*
X93698445Y-161372873D01*
X93852788Y-161294232D01*
X93992928Y-161192414D01*
X94115414Y-161069928D01*
X94175682Y-160986975D01*
X94231012Y-160944311D01*
X94300626Y-160938332D01*
X94362421Y-160970938D01*
X94376315Y-160986973D01*
X94436586Y-161069928D01*
X94559072Y-161192414D01*
X94699212Y-161294232D01*
X94853555Y-161372873D01*
X95018299Y-161426402D01*
X95189389Y-161453500D01*
X95189390Y-161453500D01*
X95362610Y-161453500D01*
X95362611Y-161453500D01*
X95533701Y-161426402D01*
X95698445Y-161372873D01*
X95852788Y-161294232D01*
X95992928Y-161192414D01*
X96115414Y-161069928D01*
X96175682Y-160986975D01*
X96231012Y-160944311D01*
X96300626Y-160938332D01*
X96362421Y-160970938D01*
X96376315Y-160986973D01*
X96436586Y-161069928D01*
X96559072Y-161192414D01*
X96699212Y-161294232D01*
X96853555Y-161372873D01*
X97018299Y-161426402D01*
X97189389Y-161453500D01*
X97189390Y-161453500D01*
X97362610Y-161453500D01*
X97362611Y-161453500D01*
X97533701Y-161426402D01*
X97698445Y-161372873D01*
X97852788Y-161294232D01*
X97992928Y-161192414D01*
X98115414Y-161069928D01*
X98175682Y-160986975D01*
X98231012Y-160944311D01*
X98300626Y-160938332D01*
X98362421Y-160970938D01*
X98376315Y-160986973D01*
X98436586Y-161069928D01*
X98559072Y-161192414D01*
X98699212Y-161294232D01*
X98853555Y-161372873D01*
X99018299Y-161426402D01*
X99189389Y-161453500D01*
X99189390Y-161453500D01*
X99362610Y-161453500D01*
X99362611Y-161453500D01*
X99533701Y-161426402D01*
X99698445Y-161372873D01*
X99852788Y-161294232D01*
X99992928Y-161192414D01*
X100115414Y-161069928D01*
X100217232Y-160929788D01*
X100295873Y-160775445D01*
X100349402Y-160610701D01*
X100376500Y-160439611D01*
X100376500Y-159716389D01*
X100349402Y-159545299D01*
X100295873Y-159380555D01*
X100217232Y-159226212D01*
X100115414Y-159086072D01*
X99992928Y-158963586D01*
X99852788Y-158861768D01*
X99698445Y-158783127D01*
X99533701Y-158729598D01*
X99533699Y-158729597D01*
X99533698Y-158729597D01*
X99402271Y-158708781D01*
X99362611Y-158702500D01*
X99189389Y-158702500D01*
X99149728Y-158708781D01*
X99018302Y-158729597D01*
X98853552Y-158783128D01*
X98699211Y-158861768D01*
X98619256Y-158919859D01*
X98559072Y-158963586D01*
X98559070Y-158963588D01*
X98559069Y-158963588D01*
X98436588Y-159086069D01*
X98436581Y-159086078D01*
X98376317Y-159169023D01*
X98320987Y-159211689D01*
X98251374Y-159217667D01*
X98189579Y-159185061D01*
X98175683Y-159169023D01*
X98115418Y-159086078D01*
X98115414Y-159086072D01*
X97992928Y-158963586D01*
X97852788Y-158861768D01*
X97698445Y-158783127D01*
X97533701Y-158729598D01*
X97533699Y-158729597D01*
X97533698Y-158729597D01*
X97402271Y-158708781D01*
X97362611Y-158702500D01*
X97189389Y-158702500D01*
X97149728Y-158708781D01*
X97018302Y-158729597D01*
X96853552Y-158783128D01*
X96699211Y-158861768D01*
X96619256Y-158919859D01*
X96559072Y-158963586D01*
X96559070Y-158963588D01*
X96559069Y-158963588D01*
X96436588Y-159086069D01*
X96436581Y-159086078D01*
X96376317Y-159169023D01*
X96320987Y-159211689D01*
X96251374Y-159217667D01*
X96189579Y-159185061D01*
X96175683Y-159169023D01*
X96115418Y-159086078D01*
X96115414Y-159086072D01*
X95992928Y-158963586D01*
X95852788Y-158861768D01*
X95698445Y-158783127D01*
X95533701Y-158729598D01*
X95533699Y-158729597D01*
X95533698Y-158729597D01*
X95402271Y-158708781D01*
X95362611Y-158702500D01*
X95189389Y-158702500D01*
X95149728Y-158708781D01*
X95018302Y-158729597D01*
X94853552Y-158783128D01*
X94699211Y-158861768D01*
X94619256Y-158919859D01*
X94559072Y-158963586D01*
X94559070Y-158963588D01*
X94559069Y-158963588D01*
X94436588Y-159086069D01*
X94436581Y-159086078D01*
X94376317Y-159169023D01*
X94320987Y-159211689D01*
X94251374Y-159217667D01*
X94189579Y-159185061D01*
X94175683Y-159169023D01*
X94115418Y-159086078D01*
X94115414Y-159086072D01*
X93992928Y-158963586D01*
X93852788Y-158861768D01*
X93698445Y-158783127D01*
X93533701Y-158729598D01*
X93533699Y-158729597D01*
X93533698Y-158729597D01*
X93402271Y-158708781D01*
X93362611Y-158702500D01*
X93189389Y-158702500D01*
X93149728Y-158708781D01*
X93018302Y-158729597D01*
X92853552Y-158783128D01*
X92699211Y-158861768D01*
X92619256Y-158919859D01*
X92559072Y-158963586D01*
X92559070Y-158963588D01*
X92559069Y-158963588D01*
X92436588Y-159086069D01*
X92436588Y-159086070D01*
X92436586Y-159086072D01*
X92436582Y-159086078D01*
X92334768Y-159226211D01*
X92256128Y-159380552D01*
X92202597Y-159545302D01*
X92182022Y-159675211D01*
X92175500Y-159716389D01*
X53276000Y-159716389D01*
X53276000Y-157778000D01*
X53776000Y-158278000D01*
X54276000Y-157278000D01*
X55026000Y-156528000D01*
X55026000Y-155028000D01*
X67276000Y-155028000D01*
X68026000Y-154278000D01*
X92370540Y-154278000D01*
X92390326Y-154466256D01*
X92390327Y-154466259D01*
X92448818Y-154646277D01*
X92448821Y-154646284D01*
X92543467Y-154810216D01*
X92645185Y-154923185D01*
X92670129Y-154950888D01*
X92823265Y-155062148D01*
X92823270Y-155062151D01*
X92996192Y-155139142D01*
X92996197Y-155139144D01*
X93181354Y-155178500D01*
X93181355Y-155178500D01*
X93370644Y-155178500D01*
X93370646Y-155178500D01*
X93555803Y-155139144D01*
X93728730Y-155062151D01*
X93881871Y-154950888D01*
X93885629Y-154946714D01*
X93887600Y-154944526D01*
X93947087Y-154907879D01*
X93979748Y-154903500D01*
X94572252Y-154903500D01*
X94639291Y-154923185D01*
X94664400Y-154944526D01*
X94670126Y-154950885D01*
X94670130Y-154950889D01*
X94823265Y-155062148D01*
X94823270Y-155062151D01*
X94996192Y-155139142D01*
X94996197Y-155139144D01*
X95181354Y-155178500D01*
X95181355Y-155178500D01*
X95370644Y-155178500D01*
X95370646Y-155178500D01*
X95555803Y-155139144D01*
X95728730Y-155062151D01*
X95881871Y-154950888D01*
X95885629Y-154946714D01*
X95887600Y-154944526D01*
X95947087Y-154907879D01*
X95979748Y-154903500D01*
X96572252Y-154903500D01*
X96639291Y-154923185D01*
X96664400Y-154944526D01*
X96670126Y-154950885D01*
X96670130Y-154950889D01*
X96823265Y-155062148D01*
X96823270Y-155062151D01*
X96996192Y-155139142D01*
X96996197Y-155139144D01*
X97181354Y-155178500D01*
X97181355Y-155178500D01*
X97370644Y-155178500D01*
X97370646Y-155178500D01*
X97555803Y-155139144D01*
X97728730Y-155062151D01*
X97881871Y-154950888D01*
X97885629Y-154946714D01*
X97887600Y-154944526D01*
X97947087Y-154907879D01*
X97979748Y-154903500D01*
X99515548Y-154903500D01*
X99582587Y-154923185D01*
X99603229Y-154939819D01*
X99987038Y-155323628D01*
X100020523Y-155384951D01*
X100022678Y-155398347D01*
X100025527Y-155425452D01*
X100040326Y-155566256D01*
X100040327Y-155566259D01*
X100098818Y-155746277D01*
X100098821Y-155746284D01*
X100193467Y-155910216D01*
X100233194Y-155954337D01*
X100320129Y-156050888D01*
X100473265Y-156162148D01*
X100473270Y-156162151D01*
X100646192Y-156239142D01*
X100646197Y-156239144D01*
X100831354Y-156278500D01*
X100831355Y-156278500D01*
X101020644Y-156278500D01*
X101020646Y-156278500D01*
X101205803Y-156239144D01*
X101378730Y-156162151D01*
X101531871Y-156050888D01*
X101658533Y-155910216D01*
X101753179Y-155746284D01*
X101811674Y-155566256D01*
X101831460Y-155378000D01*
X101811674Y-155189744D01*
X101753179Y-155009716D01*
X101658533Y-154845784D01*
X101531871Y-154705112D01*
X101509267Y-154688689D01*
X101378734Y-154593851D01*
X101378729Y-154593848D01*
X101205807Y-154516857D01*
X101205802Y-154516855D01*
X101060001Y-154485865D01*
X101020646Y-154477500D01*
X101020645Y-154477500D01*
X100961452Y-154477500D01*
X100894413Y-154457815D01*
X100873771Y-154441181D01*
X100316198Y-153883608D01*
X100316178Y-153883586D01*
X100224733Y-153792141D01*
X100173509Y-153757915D01*
X100122286Y-153723688D01*
X100122283Y-153723686D01*
X100122280Y-153723685D01*
X100041792Y-153690347D01*
X100008453Y-153676537D01*
X99998427Y-153674543D01*
X99948029Y-153664518D01*
X99887610Y-153652500D01*
X99887607Y-153652500D01*
X99887606Y-153652500D01*
X97979748Y-153652500D01*
X97912709Y-153632815D01*
X97887600Y-153611474D01*
X97881873Y-153605114D01*
X97881869Y-153605110D01*
X97728734Y-153493851D01*
X97728729Y-153493848D01*
X97555807Y-153416857D01*
X97555802Y-153416855D01*
X97410001Y-153385865D01*
X97370646Y-153377500D01*
X97181354Y-153377500D01*
X97148897Y-153384398D01*
X96996197Y-153416855D01*
X96996192Y-153416857D01*
X96823270Y-153493848D01*
X96823265Y-153493851D01*
X96670130Y-153605110D01*
X96670126Y-153605114D01*
X96664400Y-153611474D01*
X96604913Y-153648121D01*
X96572252Y-153652500D01*
X95979748Y-153652500D01*
X95912709Y-153632815D01*
X95887600Y-153611474D01*
X95881873Y-153605114D01*
X95881869Y-153605110D01*
X95728734Y-153493851D01*
X95728729Y-153493848D01*
X95555807Y-153416857D01*
X95555802Y-153416855D01*
X95410001Y-153385865D01*
X95370646Y-153377500D01*
X95181354Y-153377500D01*
X95148897Y-153384398D01*
X94996197Y-153416855D01*
X94996192Y-153416857D01*
X94823270Y-153493848D01*
X94823265Y-153493851D01*
X94670130Y-153605110D01*
X94670126Y-153605114D01*
X94664400Y-153611474D01*
X94604913Y-153648121D01*
X94572252Y-153652500D01*
X93979748Y-153652500D01*
X93912709Y-153632815D01*
X93887600Y-153611474D01*
X93881873Y-153605114D01*
X93881869Y-153605110D01*
X93728734Y-153493851D01*
X93728729Y-153493848D01*
X93555807Y-153416857D01*
X93555802Y-153416855D01*
X93410001Y-153385865D01*
X93370646Y-153377500D01*
X93181354Y-153377500D01*
X93148897Y-153384398D01*
X92996197Y-153416855D01*
X92996192Y-153416857D01*
X92823270Y-153493848D01*
X92823265Y-153493851D01*
X92670129Y-153605111D01*
X92543466Y-153745785D01*
X92448821Y-153909715D01*
X92448818Y-153909722D01*
X92390327Y-154089740D01*
X92390326Y-154089744D01*
X92370540Y-154278000D01*
X68026000Y-154278000D01*
X68026000Y-151528000D01*
X67276000Y-150778000D01*
X54026000Y-150778000D01*
X53276000Y-150028000D01*
X46276000Y-150028000D01*
X46276000Y-146329362D01*
X46295685Y-146262323D01*
X46312319Y-146241681D01*
X46989681Y-145564319D01*
X47051004Y-145530834D01*
X47077362Y-145528000D01*
X56026000Y-145528000D01*
X56776000Y-144778000D01*
X56776000Y-143579362D01*
X56795685Y-143512323D01*
X56812319Y-143491681D01*
X57239681Y-143064319D01*
X57301004Y-143030834D01*
X57327362Y-143028000D01*
X58986606Y-143028000D01*
X59234163Y-142785892D01*
X59247957Y-142774243D01*
X59349630Y-142700374D01*
X59476292Y-142559702D01*
X59481843Y-142550086D01*
X59502524Y-142523439D01*
X60739856Y-141313347D01*
X60801548Y-141280548D01*
X60826556Y-141278000D01*
X61724638Y-141278000D01*
X61791677Y-141297685D01*
G37*
%TD.AperFunction*%
%TD*%
%TA.AperFunction,Conductor*%
%TO.N,GND*%
G36*
X71191677Y-128297685D02*
G01*
X71212319Y-128314319D01*
X71393473Y-128495473D01*
X71413179Y-128521154D01*
X71493466Y-128660214D01*
X71493465Y-128660214D01*
X71620129Y-128800888D01*
X71773265Y-128912148D01*
X71773270Y-128912151D01*
X71818756Y-128932403D01*
X71856001Y-128958001D01*
X77739681Y-134841681D01*
X77773166Y-134903004D01*
X77776000Y-134929362D01*
X77776000Y-144476638D01*
X77756315Y-144543677D01*
X77739681Y-144564319D01*
X77062319Y-145241681D01*
X77000996Y-145275166D01*
X76974638Y-145278000D01*
X69327362Y-145278000D01*
X69260323Y-145258315D01*
X69239681Y-145241681D01*
X62276000Y-138278000D01*
X59316025Y-138278000D01*
X59248986Y-138258315D01*
X59243139Y-138254318D01*
X59228729Y-138243848D01*
X59055807Y-138166857D01*
X59055802Y-138166855D01*
X58910001Y-138135865D01*
X58870646Y-138127500D01*
X58681354Y-138127500D01*
X58648897Y-138134398D01*
X58496197Y-138166855D01*
X58496196Y-138166855D01*
X58450435Y-138187230D01*
X58381184Y-138196514D01*
X58317908Y-138166885D01*
X58280695Y-138107750D01*
X58276000Y-138073950D01*
X58276000Y-133829362D01*
X58295685Y-133762323D01*
X58312319Y-133741681D01*
X59526000Y-132528000D01*
X59526000Y-130829362D01*
X59545685Y-130762323D01*
X59562319Y-130741681D01*
X61989681Y-128314319D01*
X62051004Y-128280834D01*
X62077362Y-128278000D01*
X71124638Y-128278000D01*
X71191677Y-128297685D01*
G37*
%TD.AperFunction*%
%TD*%
%TA.AperFunction,Conductor*%
%TO.N,GND*%
G36*
X119969039Y-143547685D02*
G01*
X120014794Y-143600489D01*
X120026000Y-143652000D01*
X120026000Y-144654000D01*
X120006315Y-144721039D01*
X119953511Y-144766794D01*
X119902000Y-144778000D01*
X84776000Y-144778000D01*
X84776000Y-143528000D01*
X86526000Y-143528000D01*
X119902000Y-143528000D01*
X119969039Y-143547685D01*
G37*
%TD.AperFunction*%
%TD*%
%TA.AperFunction,Conductor*%
%TO.N,GND*%
G36*
X126767086Y-132287437D02*
G01*
X126775626Y-132290975D01*
X126815855Y-132317855D01*
X127239681Y-132741681D01*
X127273166Y-132803004D01*
X127276000Y-132829362D01*
X127276000Y-134226638D01*
X127256315Y-134293677D01*
X127239681Y-134314319D01*
X125812319Y-135741681D01*
X125750996Y-135775166D01*
X125724638Y-135778000D01*
X123577362Y-135778000D01*
X123510323Y-135758315D01*
X123489681Y-135741681D01*
X123312319Y-135564319D01*
X123278834Y-135502996D01*
X123276000Y-135476638D01*
X123276000Y-132579362D01*
X123295685Y-132512323D01*
X123312319Y-132491681D01*
X123489681Y-132314319D01*
X123551004Y-132280834D01*
X123577362Y-132278000D01*
X126719637Y-132278000D01*
X126767086Y-132287437D01*
G37*
%TD.AperFunction*%
%TD*%
%TA.AperFunction,Conductor*%
%TO.N,+24V*%
G36*
X79869039Y-118797685D02*
G01*
X79914794Y-118850489D01*
X79926000Y-118902000D01*
X79926000Y-119878000D01*
X80676000Y-120628000D01*
X77276000Y-120628000D01*
X78026000Y-119878000D01*
X78026000Y-118902000D01*
X78045685Y-118834961D01*
X78098489Y-118789206D01*
X78150000Y-118778000D01*
X79802000Y-118778000D01*
X79869039Y-118797685D01*
G37*
%TD.AperFunction*%
%TD*%
%TA.AperFunction,Conductor*%
%TO.N,GND*%
G36*
X127041677Y-129047685D02*
G01*
X127062319Y-129064319D01*
X127239681Y-129241681D01*
X127273166Y-129303004D01*
X127276000Y-129329362D01*
X127276000Y-129726638D01*
X127256315Y-129793677D01*
X127239681Y-129814319D01*
X127062319Y-129991681D01*
X127000996Y-130025166D01*
X126974638Y-130028000D01*
X122525999Y-130028000D01*
X121026000Y-131527999D01*
X121026000Y-135226638D01*
X121006315Y-135293677D01*
X120989681Y-135314319D01*
X120312319Y-135991681D01*
X120250996Y-136025166D01*
X120224638Y-136028000D01*
X116827362Y-136028000D01*
X116760323Y-136008315D01*
X116739681Y-135991681D01*
X115812319Y-135064319D01*
X115778834Y-135002996D01*
X115776000Y-134976638D01*
X115776000Y-133778000D01*
X115026000Y-133028000D01*
X113026000Y-133028000D01*
X113025999Y-133028000D01*
X112026000Y-134027999D01*
X112026000Y-134028000D01*
X112026000Y-137528000D01*
X114526000Y-140028000D01*
X119974638Y-140028000D01*
X120041677Y-140047685D01*
X120062319Y-140064319D01*
X120239681Y-140241681D01*
X120273166Y-140303004D01*
X120276000Y-140329362D01*
X120276000Y-140476638D01*
X120256315Y-140543677D01*
X120239681Y-140564319D01*
X120062319Y-140741681D01*
X120000996Y-140775166D01*
X119974638Y-140778000D01*
X109827362Y-140778000D01*
X109760323Y-140758315D01*
X109739681Y-140741681D01*
X109062319Y-140064319D01*
X109028834Y-140002996D01*
X109026000Y-139976638D01*
X109026000Y-135079362D01*
X109045685Y-135012323D01*
X109062319Y-134991681D01*
X114989681Y-129064319D01*
X115051004Y-129030834D01*
X115077362Y-129028000D01*
X126974638Y-129028000D01*
X127041677Y-129047685D01*
G37*
%TD.AperFunction*%
%TD*%
%TA.AperFunction,Conductor*%
%TO.N,GND*%
G36*
X132041677Y-130297685D02*
G01*
X132062319Y-130314319D01*
X134989681Y-133241681D01*
X135023166Y-133303004D01*
X135026000Y-133329362D01*
X135026000Y-137976637D01*
X135006315Y-138043676D01*
X134989681Y-138064318D01*
X133532198Y-139521800D01*
X133517404Y-139534436D01*
X133420128Y-139605112D01*
X133420123Y-139605116D01*
X133293469Y-139745781D01*
X133293465Y-139745786D01*
X133281479Y-139766546D01*
X133261776Y-139792223D01*
X133162048Y-139891952D01*
X133062317Y-139991682D01*
X133000997Y-140025166D01*
X132974638Y-140028000D01*
X132275999Y-140028000D01*
X131526000Y-140777999D01*
X131526000Y-141778000D01*
X131989681Y-142241681D01*
X132023166Y-142303004D01*
X132026000Y-142329362D01*
X132026000Y-144226638D01*
X132006315Y-144293677D01*
X131989681Y-144314319D01*
X131276000Y-145027999D01*
X131276000Y-147726638D01*
X131256315Y-147793677D01*
X131239681Y-147814319D01*
X130562319Y-148491681D01*
X130500996Y-148525166D01*
X130474638Y-148528000D01*
X124327362Y-148528000D01*
X124260323Y-148508315D01*
X124239681Y-148491681D01*
X123312319Y-147564319D01*
X123278834Y-147502996D01*
X123276000Y-147476638D01*
X123276000Y-144329362D01*
X123295685Y-144262323D01*
X123312319Y-144241681D01*
X123989681Y-143564319D01*
X124051004Y-143530834D01*
X124077362Y-143528000D01*
X125526000Y-143528000D01*
X126276000Y-142778000D01*
X126276000Y-141329362D01*
X126295685Y-141262323D01*
X126312319Y-141241681D01*
X126776001Y-140777999D01*
X127276000Y-140278000D01*
X127276000Y-137079362D01*
X127295685Y-137012323D01*
X127312319Y-136991681D01*
X131026000Y-133278000D01*
X131026000Y-130402000D01*
X131045685Y-130334961D01*
X131098489Y-130289206D01*
X131150000Y-130278000D01*
X131974638Y-130278000D01*
X132041677Y-130297685D01*
G37*
%TD.AperFunction*%
%TD*%
%TA.AperFunction,Conductor*%
%TO.N,GND*%
G36*
X105791677Y-128297685D02*
G01*
X105812319Y-128314319D01*
X106239681Y-128741681D01*
X106273166Y-128803004D01*
X106276000Y-128829362D01*
X106276000Y-131528000D01*
X106989681Y-132241681D01*
X107023166Y-132303004D01*
X107026000Y-132329362D01*
X107026000Y-136726638D01*
X107006315Y-136793677D01*
X106989681Y-136814319D01*
X106562319Y-137241681D01*
X106500996Y-137275166D01*
X106474638Y-137278000D01*
X101827362Y-137278000D01*
X101760323Y-137258315D01*
X101739681Y-137241681D01*
X101487319Y-136989319D01*
X101453834Y-136927996D01*
X101451000Y-136901638D01*
X101451000Y-130429362D01*
X101470685Y-130362323D01*
X101487319Y-130341681D01*
X103514681Y-128314319D01*
X103576004Y-128280834D01*
X103602362Y-128278000D01*
X105724638Y-128278000D01*
X105791677Y-128297685D01*
G37*
%TD.AperFunction*%
%TD*%
M02*
